<?xml version="1.0" encoding="UTF-8" standalone="no"?><svg xmlns="http://www.w3.org/2000/svg" xmlns:xlink="http://www.w3.org/1999/xlink" clip-rule="evenodd" stroke-miterlimit="4.00" viewBox="0 0 218 21"><desc>SVG generated by Keynote</desc><defs></defs><g transform="matrix(1.00, 0.00, -0.00, -1.00, 0.0, 21.0)"><text xml:space="preserve" font-family="ArialMT" font-size="18.0" fill="#38C1D7" transform="matrix(1.00, 0.00, -0.00, -1.00, 0.5, 3.8)">•</text><text xml:space="preserve" font-family="TrebuchetMS" font-size="18.0" fill="#454447" transform="matrix(1.00, 0.00, -0.00, -1.00, 19.0, 4.0)">M</text><text xml:space="preserve" font-family="TrebuchetMS" font-size="18.0" fill="#454447" transform="matrix(1.00, 0.00, -0.00, -1.00, 31.8, 4.0)">i</text><text xml:space="preserve" font-family="TrebuchetMS" font-size="18.0" fill="#454447" transform="matrix(1.00, 0.00, -0.00, -1.00, 36.9, 4.0)">s</text><text xml:space="preserve" font-family="TrebuchetMS" font-size="18.0" fill="#454447" transform="matrix(1.00, 0.00, -0.00, -1.00, 44.2, 4.0)">c</text><text xml:space="preserve" font-family="TrebuchetMS" font-size="18.0" fill="#454447" transform="matrix(1.00, 0.00, -0.00, -1.00, 53.1, 4.0)">o</text><text xml:space="preserve" font-family="TrebuchetMS" font-size="18.0" fill="#454447" transform="matrix(1.00, 0.00, -0.00, -1.00, 62.8, 4.0)">m</text><text xml:space="preserve" font-family="TrebuchetMS" font-size="18.0" fill="#454447" transform="matrix(1.00, 0.00, -0.00, -1.00, 77.7, 4.0)">m</text><text xml:space="preserve" font-family="TrebuchetMS" font-size="18.0" fill="#454447" transform="matrix(1.00, 0.00, -0.00, -1.00, 92.7, 4.0)">u</text><text xml:space="preserve" font-family="TrebuchetMS" font-size="18.0" fill="#454447" transform="matrix(1.00, 0.00, -0.00, -1.00, 102.5, 4.0)">n</text><text xml:space="preserve" font-family="TrebuchetMS" font-size="18.0" fill="#454447" transform="matrix(1.00, 0.00, -0.00, -1.00, 112.4, 4.0)">i</text><text xml:space="preserve" font-family="TrebuchetMS" font-size="18.0" fill="#454447" transform="matrix(1.00, 0.00, -0.00, -1.00, 117.5, 4.0)">c</text><text xml:space="preserve" font-family="TrebuchetMS" font-size="18.0" fill="#454447" transform="matrix(1.00, 0.00, -0.00, -1.00, 126.4, 4.0)">a</text><text xml:space="preserve" font-family="TrebuchetMS" font-size="18.0" fill="#454447" transform="matrix(1.00, 0.00, -0.00, -1.00, 135.9, 4.0)">t</text><text xml:space="preserve" font-family="TrebuchetMS" font-size="18.0" fill="#454447" transform="matrix(1.00, 0.00, -0.00, -1.00, 143.0, 4.0)">i</text><text xml:space="preserve" font-family="TrebuchetMS" font-size="18.0" fill="#454447" transform="matrix(1.00, 0.00, -0.00, -1.00, 148.2, 4.0)">o</text><text xml:space="preserve" font-family="TrebuchetMS" font-size="18.0" fill="#454447" transform="matrix(1.00, 0.00, -0.00, -1.00, 157.8, 4.0)">n</text><text xml:space="preserve" font-family="TrebuchetMS" font-size="18.0" fill="#454447" transform="matrix(1.00, 0.00, -0.00, -1.00, 167.7, 4.0)"> </text><text xml:space="preserve" font-family="TrebuchetMS" font-size="18.0" fill="#454447" transform="matrix(1.00, 0.00, -0.00, -1.00, 173.1, 4.0)">o</text><text xml:space="preserve" font-family="TrebuchetMS" font-size="18.0" fill="#454447" transform="matrix(1.00, 0.00, -0.00, -1.00, 182.8, 4.0)">r</text><text xml:space="preserve" font-family="TrebuchetMS" font-size="18.0" fill="#454447" transform="matrix(1.00, 0.00, -0.00, -1.00, 189.7, 4.0)">d</text><text xml:space="preserve" font-family="TrebuchetMS" font-size="18.0" fill="#454447" transform="matrix(1.00, 0.00, -0.00, -1.00, 199.8, 4.0)">e</text><text xml:space="preserve" font-family="TrebuchetMS" font-size="18.0" fill="#454447" transform="matrix(1.00, 0.00, -0.00, -1.00, 209.6, 4.0)">r</text></g></svg>