<?xml version="1.0" encoding="UTF-8" standalone="no"?><svg xmlns="http://www.w3.org/2000/svg" xmlns:xlink="http://www.w3.org/1999/xlink" clip-rule="evenodd" stroke-miterlimit="4.00" viewBox="0 0 615 35"><desc>SVG generated by Keynote</desc><defs></defs><g transform="matrix(1.00, 0.00, -0.00, -1.00, 0.0, 35.0)"><g><clipPath id="clip-245"><path d="M 36.8 -0.9 L 614.8 -0.9 L 614.8 33.1 L 36.8 33.1 Z M 36.8 -0.9 "></path></clipPath><g clip-path="url(#clip-245)"><text xml:space="preserve" font-family="TrebuchetMS" font-size="16.0" fill="#444444" transform="matrix(1.00, 0.00, -0.00, -1.00, 41.0, 13.0)">A</text><text xml:space="preserve" font-family="TrebuchetMS" font-size="16.0" fill="#444444" transform="matrix(1.00, 0.00, -0.00, -1.00, 50.4, 13.0)">g</text><text xml:space="preserve" font-family="TrebuchetMS" font-size="16.0" fill="#444444" transform="matrix(1.00, 0.00, -0.00, -1.00, 58.5, 13.0)">i</text><text xml:space="preserve" font-family="TrebuchetMS" font-size="16.0" fill="#444444" transform="matrix(1.00, 0.00, -0.00, -1.00, 63.0, 13.0)">l</text><text xml:space="preserve" font-family="TrebuchetMS" font-size="16.0" fill="#444444" transform="matrix(1.00, 0.00, -0.00, -1.00, 67.7, 13.0)">e</text><text xml:space="preserve" font-family="TrebuchetMS" font-size="16.0" fill="#444444" transform="matrix(1.00, 0.00, -0.00, -1.00, 76.5, 13.0)"> </text><text xml:space="preserve" font-family="TrebuchetMS" font-size="16.0" fill="#444444" transform="matrix(1.00, 0.00, -0.00, -1.00, 81.3, 13.0)">a</text><text xml:space="preserve" font-family="TrebuchetMS" font-size="16.0" fill="#444444" transform="matrix(1.00, 0.00, -0.00, -1.00, 89.7, 13.0)">p</text><text xml:space="preserve" font-family="TrebuchetMS" font-size="16.0" fill="#444444" transform="matrix(1.00, 0.00, -0.00, -1.00, 98.6, 13.0)">p</text><text xml:space="preserve" font-family="TrebuchetMS" font-size="16.0" fill="#444444" transform="matrix(1.00, 0.00, -0.00, -1.00, 107.6, 13.0)">r</text><text xml:space="preserve" font-family="TrebuchetMS" font-size="16.0" fill="#444444" transform="matrix(1.00, 0.00, -0.00, -1.00, 113.8, 13.0)">o</text><text xml:space="preserve" font-family="TrebuchetMS" font-size="16.0" fill="#444444" transform="matrix(1.00, 0.00, -0.00, -1.00, 122.3, 13.0)">a</text><text xml:space="preserve" font-family="TrebuchetMS" font-size="16.0" fill="#444444" transform="matrix(1.00, 0.00, -0.00, -1.00, 130.8, 13.0)">c</text><text xml:space="preserve" font-family="TrebuchetMS" font-size="16.0" fill="#444444" transform="matrix(1.00, 0.00, -0.00, -1.00, 138.7, 13.0)">h</text></g></g><g><clipPath id="clip-246"><path d="M 0.2 0.8 L 34.6 0.8 L 34.6 34.9 L 0.2 34.9 Z M 0.2 0.8 "></path></clipPath><g clip-path="url(#clip-246)"><path d="M 28.8 29.2 C 35.2 23.0 35.2 12.8 28.8 6.5 C 22.5 0.2 12.2 0.2 5.9 6.5 C -0.4 12.8 -0.4 23.0 5.9 29.2 C 12.2 35.5 22.5 35.5 28.8 29.2 Z M 28.8 29.2 " fill="#2EC1D9"></path></g></g><g><clipPath id="clip-247"><path d="M 5.2 -3.8 L 29.6 -3.8 L 29.6 39.4 L 5.2 39.4 Z M 5.2 -3.8 "></path></clipPath><g clip-path="url(#clip-247)"><text xml:space="preserve" font-family="Arial-Black" font-weight="bold" font-size="17.0" fill="#FFFFFF" transform="matrix(1.00, 0.00, -0.00, -1.00, 12.0, 15.0)">2</text></g></g></g></svg>