<?xml version="1.0" encoding="UTF-8" standalone="no"?><svg xmlns="http://www.w3.org/2000/svg" xmlns:xlink="http://www.w3.org/1999/xlink" clip-rule="evenodd" stroke-miterlimit="4.00" viewBox="0 0 720 540"><desc>SVG generated by Keynote</desc><defs></defs><g transform="matrix(1.00, 0.00, -0.00, -1.00, 0.0, 540.0)"><path d="M 0.0 540.0 L 720.0 540.0 L 720.0 0.0 L 0.0 0.0 Z M 0.0 540.0 " fill="#FFFFFF"></path><path d="M 0.0 28.1 L 720.0 28.1 L 720.0 -0.7 L 0.0 -0.7 Z M 0.0 28.1 " fill="#454447"></path><text xml:space="preserve" font-family="TrebuchetMS" font-size="8.0" fill="#CCCCCC" transform="matrix(1.00, 0.00, -0.00, -1.00, 96.0, 11.0)">I</text><text xml:space="preserve" font-family="TrebuchetMS" font-size="8.0" fill="#CCCCCC" transform="matrix(1.00, 0.00, -0.00, -1.00, 98.4, 11.0)">T</text><text xml:space="preserve" font-family="TrebuchetMS" font-size="8.0" fill="#CCCCCC" transform="matrix(1.00, 0.00, -0.00, -1.00, 103.1, 11.0)"> </text><text xml:space="preserve" font-family="TrebuchetMS" font-size="8.0" fill="#CCCCCC" transform="matrix(1.00, 0.00, -0.00, -1.00, 105.7, 11.0)">W</text><text xml:space="preserve" font-family="TrebuchetMS" font-size="8.0" fill="#CCCCCC" transform="matrix(1.00, 0.00, -0.00, -1.00, 112.8, 11.0)">E</text><text xml:space="preserve" font-family="TrebuchetMS" font-size="8.0" fill="#CCCCCC" transform="matrix(1.00, 0.00, -0.00, -1.00, 117.2, 11.0)">E</text><text xml:space="preserve" font-family="TrebuchetMS" font-size="8.0" fill="#CCCCCC" transform="matrix(1.00, 0.00, -0.00, -1.00, 121.7, 11.0)">K</text><text xml:space="preserve" font-family="TrebuchetMS" font-size="8.0" fill="#CCCCCC" transform="matrix(1.00, 0.00, -0.00, -1.00, 126.5, 11.0)"> </text><text xml:space="preserve" font-family="TrebuchetMS" font-size="8.0" fill="#CCCCCC" transform="matrix(1.00, 0.00, -0.00, -1.00, 129.1, 11.0)">2</text><text xml:space="preserve" font-family="TrebuchetMS" font-size="8.0" fill="#CCCCCC" transform="matrix(1.00, 0.00, -0.00, -1.00, 133.5, 11.0)">0</text><text xml:space="preserve" font-family="TrebuchetMS" font-size="8.0" fill="#CCCCCC" transform="matrix(1.00, 0.00, -0.00, -1.00, 137.9, 11.0)">1</text><text xml:space="preserve" font-family="TrebuchetMS" font-size="8.0" fill="#CCCCCC" transform="matrix(1.00, 0.00, -0.00, -1.00, 142.3, 11.0)">6</text><text xml:space="preserve" font-family="TrebuchetMS" font-size="8.0" fill="#CCCCCC" transform="matrix(1.00, 0.00, -0.00, -1.00, 146.7, 11.0)"> </text><text xml:space="preserve" font-family="TrebuchetMS" font-size="8.0" fill="#CCCCCC" transform="matrix(1.00, 0.00, -0.00, -1.00, 149.3, 11.0)">-</text><text xml:space="preserve" font-family="TrebuchetMS" font-size="8.0" fill="#CCCCCC" transform="matrix(1.00, 0.00, -0.00, -1.00, 152.5, 11.0)"> </text><text xml:space="preserve" font-family="TrebuchetMS" font-size="8.0" fill="#CCCCCC" transform="matrix(1.00, 0.00, -0.00, -1.00, 155.1, 11.0)">F</text><text xml:space="preserve" font-family="TrebuchetMS" font-size="8.0" fill="#CCCCCC" transform="matrix(1.00, 0.00, -0.00, -1.00, 159.5, 11.0)">u</text><text xml:space="preserve" font-family="TrebuchetMS" font-size="8.0" fill="#CCCCCC" transform="matrix(1.00, 0.00, -0.00, -1.00, 164.1, 11.0)">t</text><text xml:space="preserve" font-family="TrebuchetMS" font-size="8.0" fill="#CCCCCC" transform="matrix(1.00, 0.00, -0.00, -1.00, 167.4, 11.0)">u</text><text xml:space="preserve" font-family="TrebuchetMS" font-size="8.0" fill="#CCCCCC" transform="matrix(1.00, 0.00, -0.00, -1.00, 172.0, 11.0)">r</text><text xml:space="preserve" font-family="TrebuchetMS" font-size="8.0" fill="#CCCCCC" transform="matrix(1.00, 0.00, -0.00, -1.00, 175.3, 11.0)">e</text><text xml:space="preserve" font-family="TrebuchetMS" font-size="8.0" fill="#CCCCCC" transform="matrix(1.00, 0.00, -0.00, -1.00, 179.9, 11.0)"> </text><text xml:space="preserve" font-family="TrebuchetMS" font-size="8.0" fill="#CCCCCC" transform="matrix(1.00, 0.00, -0.00, -1.00, 182.5, 11.0)">o</text><text xml:space="preserve" font-family="TrebuchetMS" font-size="8.0" fill="#CCCCCC" transform="matrix(1.00, 0.00, -0.00, -1.00, 187.0, 11.0)">f</text><text xml:space="preserve" font-family="TrebuchetMS" font-size="8.0" fill="#CCCCCC" transform="matrix(1.00, 0.00, -0.00, -1.00, 190.1, 11.0)"> </text><text xml:space="preserve" font-family="TrebuchetMS" font-size="8.0" fill="#CCCCCC" transform="matrix(1.00, 0.00, -0.00, -1.00, 192.7, 11.0)">C</text><text xml:space="preserve" font-family="TrebuchetMS" font-size="8.0" fill="#CCCCCC" transform="matrix(1.00, 0.00, -0.00, -1.00, 197.7, 11.0)">a</text><text xml:space="preserve" font-family="TrebuchetMS" font-size="8.0" fill="#CCCCCC" transform="matrix(1.00, 0.00, -0.00, -1.00, 202.1, 11.0)">s</text><text xml:space="preserve" font-family="TrebuchetMS" font-size="8.0" fill="#CCCCCC" transform="matrix(1.00, 0.00, -0.00, -1.00, 205.6, 11.0)">h</text><text xml:space="preserve" font-family="TrebuchetMS" font-size="8.0" fill="#CCCCCC" transform="matrix(1.00, 0.00, -0.00, -1.00, 210.1, 11.0)">l</text><text xml:space="preserve" font-family="TrebuchetMS" font-size="8.0" fill="#CCCCCC" transform="matrix(1.00, 0.00, -0.00, -1.00, 212.7, 11.0)">e</text><text xml:space="preserve" font-family="TrebuchetMS" font-size="8.0" fill="#CCCCCC" transform="matrix(1.00, 0.00, -0.00, -1.00, 217.3, 11.0)">s</text><text xml:space="preserve" font-family="TrebuchetMS" font-size="8.0" fill="#CCCCCC" transform="matrix(1.00, 0.00, -0.00, -1.00, 220.7, 11.0)">s</text><text xml:space="preserve" font-family="TrebuchetMS" font-size="8.0" fill="#CCCCCC" transform="matrix(1.00, 0.00, -0.00, -1.00, 224.1, 11.0)"> </text><text xml:space="preserve" font-family="TrebuchetMS" font-size="8.0" fill="#CCCCCC" transform="matrix(1.00, 0.00, -0.00, -1.00, 226.7, 11.0)">P</text><text xml:space="preserve" font-family="TrebuchetMS" font-size="8.0" fill="#CCCCCC" transform="matrix(1.00, 0.00, -0.00, -1.00, 231.0, 11.0)">a</text><text xml:space="preserve" font-family="TrebuchetMS" font-size="8.0" fill="#CCCCCC" transform="matrix(1.00, 0.00, -0.00, -1.00, 235.4, 11.0)">y</text><text xml:space="preserve" font-family="TrebuchetMS" font-size="8.0" fill="#CCCCCC" transform="matrix(1.00, 0.00, -0.00, -1.00, 239.6, 11.0)">m</text><text xml:space="preserve" font-family="TrebuchetMS" font-size="8.0" fill="#CCCCCC" transform="matrix(1.00, 0.00, -0.00, -1.00, 246.4, 11.0)">e</text><text xml:space="preserve" font-family="TrebuchetMS" font-size="8.0" fill="#CCCCCC" transform="matrix(1.00, 0.00, -0.00, -1.00, 251.0, 11.0)">n</text><text xml:space="preserve" font-family="TrebuchetMS" font-size="8.0" fill="#CCCCCC" transform="matrix(1.00, 0.00, -0.00, -1.00, 255.6, 11.0)">t</text><text xml:space="preserve" font-family="TrebuchetMS" font-size="8.0" fill="#CCCCCC" transform="matrix(1.00, 0.00, -0.00, -1.00, 258.9, 11.0)">s</text><text xml:space="preserve" font-family="TrebuchetMS" font-size="8.0" fill="#CCCCCC" transform="matrix(1.00, 0.00, -0.00, -1.00, 262.4, 11.0)"> </text><text xml:space="preserve" font-family="TrebuchetMS" font-size="8.0" fill="#CCCCCC" transform="matrix(1.00, 0.00, -0.00, -1.00, 265.0, 11.0)">-</text><text xml:space="preserve" font-family="TrebuchetMS" font-size="8.0" fill="#CCCCCC" transform="matrix(1.00, 0.00, -0.00, -1.00, 268.1, 11.0)"> </text><text xml:space="preserve" font-family="TrebuchetMS" font-size="8.0" fill="#CCCCCC" transform="matrix(1.00, 0.00, -0.00, -1.00, 270.7, 11.0)">K</text><text xml:space="preserve" font-family="TrebuchetMS" font-size="8.0" fill="#CCCCCC" transform="matrix(1.00, 0.00, -0.00, -1.00, 275.3, 11.0)">o</text><text xml:space="preserve" font-family="TrebuchetMS" font-size="8.0" fill="#CCCCCC" transform="matrix(1.00, 0.00, -0.00, -1.00, 279.8, 11.0)">n</text><text xml:space="preserve" font-family="TrebuchetMS" font-size="8.0" fill="#CCCCCC" transform="matrix(1.00, 0.00, -0.00, -1.00, 284.3, 11.0)">r</text><text xml:space="preserve" font-family="TrebuchetMS" font-size="8.0" fill="#CCCCCC" transform="matrix(1.00, 0.00, -0.00, -1.00, 287.6, 11.0)">a</text><text xml:space="preserve" font-family="TrebuchetMS" font-size="8.0" fill="#CCCCCC" transform="matrix(1.00, 0.00, -0.00, -1.00, 292.1, 11.0)">d</text><text xml:space="preserve" font-family="TrebuchetMS" font-size="8.0" fill="#CCCCCC" transform="matrix(1.00, 0.00, -0.00, -1.00, 296.7, 11.0)"> </text><text xml:space="preserve" font-family="TrebuchetMS" font-size="8.0" fill="#CCCCCC" transform="matrix(1.00, 0.00, -0.00, -1.00, 299.3, 11.0)">H</text><text xml:space="preserve" font-family="TrebuchetMS" font-size="8.0" fill="#CCCCCC" transform="matrix(1.00, 0.00, -0.00, -1.00, 304.8, 11.0)">e</text><text xml:space="preserve" font-family="TrebuchetMS" font-size="8.0" fill="#CCCCCC" transform="matrix(1.00, 0.00, -0.00, -1.00, 309.3, 11.0)">f</text><text xml:space="preserve" font-family="TrebuchetMS" font-size="8.0" fill="#CCCCCC" transform="matrix(1.00, 0.00, -0.00, -1.00, 312.5, 11.0)">e</text><text xml:space="preserve" font-family="TrebuchetMS" font-size="8.0" fill="#CCCCCC" transform="matrix(1.00, 0.00, -0.00, -1.00, 317.0, 11.0)">l</text><text xml:space="preserve" font-family="TrebuchetMS" font-size="8.0" fill="#CCCCCC" transform="matrix(1.00, 0.00, -0.00, -1.00, 319.6, 11.0)">l</text><text xml:space="preserve" font-family="TrebuchetMS" font-size="8.0" fill="#CCCCCC" transform="matrix(1.00, 0.00, -0.00, -1.00, 322.2, 11.0)">e</text><text xml:space="preserve" font-family="TrebuchetMS" font-size="8.0" fill="#CCCCCC" transform="matrix(1.00, 0.00, -0.00, -1.00, 326.7, 11.0)">,</text><text xml:space="preserve" font-family="TrebuchetMS" font-size="8.0" fill="#CCCCCC" transform="matrix(1.00, 0.00, -0.00, -1.00, 329.9, 11.0)"> </text><text xml:space="preserve" font-family="TrebuchetMS" font-size="8.0" fill="#CCCCCC" transform="matrix(1.00, 0.00, -0.00, -1.00, 332.5, 11.0)">2</text><text xml:space="preserve" font-family="TrebuchetMS" font-size="8.0" fill="#CCCCCC" transform="matrix(1.00, 0.00, -0.00, -1.00, 336.9, 11.0)">0</text><text xml:space="preserve" font-family="TrebuchetMS" font-size="8.0" fill="#CCCCCC" transform="matrix(1.00, 0.00, -0.00, -1.00, 341.3, 11.0)">.</text><text xml:space="preserve" font-family="TrebuchetMS" font-size="8.0" fill="#CCCCCC" transform="matrix(1.00, 0.00, -0.00, -1.00, 344.4, 11.0)"> </text><text xml:space="preserve" font-family="TrebuchetMS" font-size="8.0" fill="#CCCCCC" transform="matrix(1.00, 0.00, -0.00, -1.00, 346.6, 11.0)">A</text><text xml:space="preserve" font-family="TrebuchetMS" font-size="8.0" fill="#CCCCCC" transform="matrix(1.00, 0.00, -0.00, -1.00, 351.5, 11.0)">p</text><text xml:space="preserve" font-family="TrebuchetMS" font-size="8.0" fill="#CCCCCC" transform="matrix(1.00, 0.00, -0.00, -1.00, 356.2, 11.0)">r</text><text xml:space="preserve" font-family="TrebuchetMS" font-size="8.0" fill="#CCCCCC" transform="matrix(1.00, 0.00, -0.00, -1.00, 359.5, 11.0)">i</text><text xml:space="preserve" font-family="TrebuchetMS" font-size="8.0" fill="#CCCCCC" transform="matrix(1.00, 0.00, -0.00, -1.00, 362.0, 11.0)">l</text><text xml:space="preserve" font-family="TrebuchetMS" font-size="8.0" fill="#CCCCCC" transform="matrix(1.00, 0.00, -0.00, -1.00, 364.5, 11.0)"> </text><text xml:space="preserve" font-family="TrebuchetMS" font-size="8.0" fill="#CCCCCC" transform="matrix(1.00, 0.00, -0.00, -1.00, 367.1, 11.0)">2</text><text xml:space="preserve" font-family="TrebuchetMS" font-size="8.0" fill="#CCCCCC" transform="matrix(1.00, 0.00, -0.00, -1.00, 371.5, 11.0)">0</text><text xml:space="preserve" font-family="TrebuchetMS" font-size="8.0" fill="#CCCCCC" transform="matrix(1.00, 0.00, -0.00, -1.00, 375.9, 11.0)">1</text><text xml:space="preserve" font-family="TrebuchetMS" font-size="8.0" fill="#CCCCCC" transform="matrix(1.00, 0.00, -0.00, -1.00, 380.3, 11.0)">6</text><path d="M 0.0 0.0 L 13.0 0.0 " fill="none" stroke="#CCCCCC" stroke-width="0.25" stroke-linejoin="round" transform="matrix(0.00, -1.00, -1.00, 0.00, 87.0, 20.2)"></path><image xlink:href="../../99926EC3-3614-4C70-A445-D3AA65276E24/assets/FCA234F62485E16A639918F8658267AA.png" width="38.00" height="13.00" transform="matrix(0.97, 0.00, -0.00, -1.00, 37.0, 19.0)"></image><text xml:space="preserve" font-family="TrebuchetMS" font-size="10.0" fill="#CCCCCC" transform="matrix(1.00, 0.00, -0.00, -1.00, 676.8, 11.0)">3</text><text xml:space="preserve" font-family="TrebuchetMS" font-size="10.0" fill="#CCCCCC" transform="matrix(1.00, 0.00, -0.00, -1.00, 682.1, 11.0)">5</text><image xlink:href="../../E3CCD7FC-4CC6-4379-8F12-393AEC6D6D66/assets/D8EAC996D507BFBCE2171B60B53A42D7.png" width="726.00" height="79.00" transform="matrix(1.00, 0.00, -0.00, -1.01, -3.0, 541.0)" opacity="0.30"></image><path d="M 0.0 540.0 L 720.0 540.0 L 720.0 466.6 L 0.0 466.6 Z M 0.0 540.0 " fill="#FFFFFF"></path><g><clipPath id="clip-257"><path d="M -5.6 466.6 L 725.6 466.6 L 725.6 540.0 L -5.6 540.0 Z M -5.6 466.6 "></path></clipPath><g clip-path="url(#clip-257)"><text xml:space="preserve" font-family="Arial-Black" font-weight="bold" font-size="26.0" fill="#454447" transform="matrix(1.00, 0.00, -0.00, -1.00, 4.0, 493.0)">W</text><text xml:space="preserve" font-family="Arial-Black" font-weight="bold" font-size="26.0" fill="#454447" transform="matrix(1.00, 0.00, -0.00, -1.00, 30.0, 493.0)">E</text><text xml:space="preserve" font-family="Arial-Black" font-weight="bold" font-size="26.0" fill="#454447" transform="matrix(1.00, 0.00, -0.00, -1.00, 48.8, 493.0)"> </text><text xml:space="preserve" font-family="Arial-Black" font-weight="bold" font-size="26.0" fill="#454447" transform="matrix(1.00, 0.00, -0.00, -1.00, 57.5, 493.0)">W</text><text xml:space="preserve" font-family="Arial-Black" font-weight="bold" font-size="26.0" fill="#454447" transform="matrix(1.00, 0.00, -0.00, -1.00, 83.0, 493.0)">O</text><text xml:space="preserve" font-family="Arial-Black" font-weight="bold" font-size="26.0" fill="#454447" transform="matrix(1.00, 0.00, -0.00, -1.00, 104.7, 493.0)">N</text><text xml:space="preserve" font-family="Arial-Black" font-weight="bold" font-size="26.0" fill="#454447" transform="matrix(1.00, 0.00, -0.00, -1.00, 126.3, 493.0)"> </text><text xml:space="preserve" font-family="Arial-Black" font-weight="bold" font-size="26.0" fill="#454447" transform="matrix(1.00, 0.00, -0.00, -1.00, 135.0, 493.0)">B</text><text xml:space="preserve" font-family="Arial-Black" font-weight="bold" font-size="26.0" fill="#454447" transform="matrix(1.00, 0.00, -0.00, -1.00, 155.2, 493.0)">E</text><text xml:space="preserve" font-family="Arial-Black" font-weight="bold" font-size="26.0" fill="#454447" transform="matrix(1.00, 0.00, -0.00, -1.00, 174.0, 493.0)">C</text><text xml:space="preserve" font-family="Arial-Black" font-weight="bold" font-size="26.0" fill="#454447" transform="matrix(1.00, 0.00, -0.00, -1.00, 194.2, 493.0)">A</text><text xml:space="preserve" font-family="Arial-Black" font-weight="bold" font-size="26.0" fill="#454447" transform="matrix(1.00, 0.00, -0.00, -1.00, 213.6, 493.0)">U</text><text xml:space="preserve" font-family="Arial-Black" font-weight="bold" font-size="26.0" fill="#454447" transform="matrix(1.00, 0.00, -0.00, -1.00, 235.2, 493.0)">S</text><text xml:space="preserve" font-family="Arial-Black" font-weight="bold" font-size="26.0" fill="#454447" transform="matrix(1.00, 0.00, -0.00, -1.00, 254.0, 493.0)">E</text><text xml:space="preserve" font-family="Arial-Black" font-weight="bold" font-size="26.0" fill="#454447" transform="matrix(1.00, 0.00, -0.00, -1.00, 272.8, 493.0)">…</text></g></g><g><clipPath id="clip-258"><path d="M 83.8 392.1 L 661.8 392.1 L 661.8 426.1 L 83.8 426.1 Z M 83.8 392.1 "></path></clipPath><g clip-path="url(#clip-258)"><text xml:space="preserve" font-family="TrebuchetMS" font-size="16.0" fill="#444444" transform="matrix(1.00, 0.00, -0.00, -1.00, 88.0, 406.0)">P</text><text xml:space="preserve" font-family="TrebuchetMS" font-size="16.0" fill="#444444" transform="matrix(1.00, 0.00, -0.00, -1.00, 96.2, 406.0)">a</text><text xml:space="preserve" font-family="TrebuchetMS" font-size="16.0" fill="#444444" transform="matrix(1.00, 0.00, -0.00, -1.00, 104.6, 406.0)">i</text><text xml:space="preserve" font-family="TrebuchetMS" font-size="16.0" fill="#444444" transform="matrix(1.00, 0.00, -0.00, -1.00, 109.2, 406.0)">n</text><text xml:space="preserve" font-family="TrebuchetMS" font-size="16.0" fill="#444444" transform="matrix(1.00, 0.00, -0.00, -1.00, 117.9, 406.0)"> </text><text xml:space="preserve" font-family="TrebuchetMS" font-size="16.0" fill="#444444" transform="matrix(1.00, 0.00, -0.00, -1.00, 122.7, 406.0)">p</text><text xml:space="preserve" font-family="TrebuchetMS" font-size="16.0" fill="#444444" transform="matrix(1.00, 0.00, -0.00, -1.00, 131.7, 406.0)">o</text><text xml:space="preserve" font-family="TrebuchetMS" font-size="16.0" fill="#444444" transform="matrix(1.00, 0.00, -0.00, -1.00, 140.2, 406.0)">i</text><text xml:space="preserve" font-family="TrebuchetMS" font-size="16.0" fill="#444444" transform="matrix(1.00, 0.00, -0.00, -1.00, 144.8, 406.0)">n</text><text xml:space="preserve" font-family="TrebuchetMS" font-size="16.0" fill="#444444" transform="matrix(1.00, 0.00, -0.00, -1.00, 153.6, 406.0)">t</text><text xml:space="preserve" font-family="TrebuchetMS" font-size="16.0" fill="#444444" transform="matrix(1.00, 0.00, -0.00, -1.00, 159.9, 406.0)"> </text><text xml:space="preserve" font-family="TrebuchetMS" font-size="16.0" fill="#444444" transform="matrix(1.00, 0.00, -0.00, -1.00, 164.7, 406.0)">w</text><text xml:space="preserve" font-family="TrebuchetMS" font-size="16.0" fill="#444444" transform="matrix(1.00, 0.00, -0.00, -1.00, 176.6, 406.0)">a</text><text xml:space="preserve" font-family="TrebuchetMS" font-size="16.0" fill="#444444" transform="matrix(1.00, 0.00, -0.00, -1.00, 185.1, 406.0)">s</text><text xml:space="preserve" font-family="TrebuchetMS" font-size="16.0" fill="#444444" transform="matrix(1.00, 0.00, -0.00, -1.00, 191.5, 406.0)"> </text><text xml:space="preserve" font-family="TrebuchetMS" font-size="16.0" fill="#444444" transform="matrix(1.00, 0.00, -0.00, -1.00, 196.4, 406.0)">r</text><text xml:space="preserve" font-family="TrebuchetMS" font-size="16.0" fill="#444444" transform="matrix(1.00, 0.00, -0.00, -1.00, 202.6, 406.0)">e</text><text xml:space="preserve" font-family="TrebuchetMS" font-size="16.0" fill="#444444" transform="matrix(1.00, 0.00, -0.00, -1.00, 211.3, 406.0)">a</text><text xml:space="preserve" font-family="TrebuchetMS" font-size="16.0" fill="#444444" transform="matrix(1.00, 0.00, -0.00, -1.00, 219.7, 406.0)">l</text></g></g><g><clipPath id="clip-259"><path d="M 47.2 393.8 L 81.6 393.8 L 81.6 428.0 L 47.2 428.0 Z M 47.2 393.8 "></path></clipPath><g clip-path="url(#clip-259)"><path d="M 75.8 422.3 C 82.2 416.0 82.2 405.8 75.8 399.5 C 69.5 393.2 59.2 393.2 52.9 399.5 C 46.6 405.8 46.6 416.0 52.9 422.3 C 59.2 428.5 69.5 428.5 75.8 422.3 Z M 75.8 422.3 " fill="#2EC1D9"></path></g></g><g><clipPath id="clip-260"><path d="M 52.1 389.2 L 76.4 389.2 L 76.4 432.4 L 52.1 432.4 Z M 52.1 389.2 "></path></clipPath><g clip-path="url(#clip-260)"><text xml:space="preserve" font-family="Arial-Black" font-weight="bold" font-size="17.0" fill="#FFFFFF" transform="matrix(1.00, 0.00, -0.00, -1.00, 59.0, 408.0)">1</text></g></g><g><clipPath id="clip-261"><path d="M 83.8 339.1 L 661.8 339.1 L 661.8 373.1 L 83.8 373.1 Z M 83.8 339.1 "></path></clipPath><g clip-path="url(#clip-261)"><text xml:space="preserve" font-family="TrebuchetMS" font-size="16.0" fill="#444444" transform="matrix(1.00, 0.00, -0.00, -1.00, 88.0, 353.0)">A</text><text xml:space="preserve" font-family="TrebuchetMS" font-size="16.0" fill="#444444" transform="matrix(1.00, 0.00, -0.00, -1.00, 97.4, 353.0)">g</text><text xml:space="preserve" font-family="TrebuchetMS" font-size="16.0" fill="#444444" transform="matrix(1.00, 0.00, -0.00, -1.00, 105.5, 353.0)">i</text><text xml:space="preserve" font-family="TrebuchetMS" font-size="16.0" fill="#444444" transform="matrix(1.00, 0.00, -0.00, -1.00, 110.0, 353.0)">l</text><text xml:space="preserve" font-family="TrebuchetMS" font-size="16.0" fill="#444444" transform="matrix(1.00, 0.00, -0.00, -1.00, 114.7, 353.0)">e</text><text xml:space="preserve" font-family="TrebuchetMS" font-size="16.0" fill="#444444" transform="matrix(1.00, 0.00, -0.00, -1.00, 123.5, 353.0)"> </text><text xml:space="preserve" font-family="TrebuchetMS" font-size="16.0" fill="#444444" transform="matrix(1.00, 0.00, -0.00, -1.00, 128.3, 353.0)">a</text><text xml:space="preserve" font-family="TrebuchetMS" font-size="16.0" fill="#444444" transform="matrix(1.00, 0.00, -0.00, -1.00, 136.7, 353.0)">p</text><text xml:space="preserve" font-family="TrebuchetMS" font-size="16.0" fill="#444444" transform="matrix(1.00, 0.00, -0.00, -1.00, 145.6, 353.0)">p</text><text xml:space="preserve" font-family="TrebuchetMS" font-size="16.0" fill="#444444" transform="matrix(1.00, 0.00, -0.00, -1.00, 154.6, 353.0)">r</text><text xml:space="preserve" font-family="TrebuchetMS" font-size="16.0" fill="#444444" transform="matrix(1.00, 0.00, -0.00, -1.00, 160.8, 353.0)">o</text><text xml:space="preserve" font-family="TrebuchetMS" font-size="16.0" fill="#444444" transform="matrix(1.00, 0.00, -0.00, -1.00, 169.3, 353.0)">a</text><text xml:space="preserve" font-family="TrebuchetMS" font-size="16.0" fill="#444444" transform="matrix(1.00, 0.00, -0.00, -1.00, 177.8, 353.0)">c</text><text xml:space="preserve" font-family="TrebuchetMS" font-size="16.0" fill="#444444" transform="matrix(1.00, 0.00, -0.00, -1.00, 185.7, 353.0)">h</text></g></g><g><clipPath id="clip-262"><path d="M 47.2 340.8 L 81.6 340.8 L 81.6 374.9 L 47.2 374.9 Z M 47.2 340.8 "></path></clipPath><g clip-path="url(#clip-262)"><path d="M 75.8 369.2 C 82.2 363.0 82.2 352.8 75.8 346.5 C 69.5 340.2 59.2 340.2 52.9 346.5 C 46.6 352.8 46.6 363.0 52.9 369.2 C 59.2 375.5 69.5 375.5 75.8 369.2 Z M 75.8 369.2 " fill="#2EC1D9"></path></g></g><g><clipPath id="clip-263"><path d="M 52.2 336.2 L 76.6 336.2 L 76.6 379.4 L 52.2 379.4 Z M 52.2 336.2 "></path></clipPath><g clip-path="url(#clip-263)"><text xml:space="preserve" font-family="Arial-Black" font-weight="bold" font-size="17.0" fill="#FFFFFF" transform="matrix(1.00, 0.00, -0.00, -1.00, 59.0, 355.0)">2</text></g></g><g><clipPath id="clip-264"><path d="M 83.8 286.1 L 661.8 286.1 L 661.8 320.1 L 83.8 320.1 Z M 83.8 286.1 "></path></clipPath><g clip-path="url(#clip-264)"><text xml:space="preserve" font-family="TrebuchetMS" font-size="16.0" fill="#444444" transform="matrix(1.00, 0.00, -0.00, -1.00, 88.0, 300.0)">E</text><text xml:space="preserve" font-family="TrebuchetMS" font-size="16.0" fill="#444444" transform="matrix(1.00, 0.00, -0.00, -1.00, 96.6, 300.0)">f</text><text xml:space="preserve" font-family="TrebuchetMS" font-size="16.0" fill="#444444" transform="matrix(1.00, 0.00, -0.00, -1.00, 102.5, 300.0)">f</text><text xml:space="preserve" font-family="TrebuchetMS" font-size="16.0" fill="#444444" transform="matrix(1.00, 0.00, -0.00, -1.00, 108.4, 300.0)">e</text><text xml:space="preserve" font-family="TrebuchetMS" font-size="16.0" fill="#444444" transform="matrix(1.00, 0.00, -0.00, -1.00, 117.1, 300.0)">c</text><text xml:space="preserve" font-family="TrebuchetMS" font-size="16.0" fill="#444444" transform="matrix(1.00, 0.00, -0.00, -1.00, 125.0, 300.0)">t</text><text xml:space="preserve" font-family="TrebuchetMS" font-size="16.0" fill="#444444" transform="matrix(1.00, 0.00, -0.00, -1.00, 131.4, 300.0)">i</text><text xml:space="preserve" font-family="TrebuchetMS" font-size="16.0" fill="#444444" transform="matrix(1.00, 0.00, -0.00, -1.00, 136.0, 300.0)">v</text><text xml:space="preserve" font-family="TrebuchetMS" font-size="16.0" fill="#444444" transform="matrix(1.00, 0.00, -0.00, -1.00, 143.8, 300.0)">e</text><text xml:space="preserve" font-family="TrebuchetMS" font-size="16.0" fill="#444444" transform="matrix(1.00, 0.00, -0.00, -1.00, 152.5, 300.0)">,</text><text xml:space="preserve" font-family="TrebuchetMS" font-size="16.0" fill="#444444" transform="matrix(1.00, 0.00, -0.00, -1.00, 158.4, 300.0)"> </text><text xml:space="preserve" font-family="TrebuchetMS" font-size="16.0" fill="#444444" transform="matrix(1.00, 0.00, -0.00, -1.00, 163.3, 300.0)">e</text><text xml:space="preserve" font-family="TrebuchetMS" font-size="16.0" fill="#444444" transform="matrix(1.00, 0.00, -0.00, -1.00, 172.0, 300.0)">f</text><text xml:space="preserve" font-family="TrebuchetMS" font-size="16.0" fill="#444444" transform="matrix(1.00, 0.00, -0.00, -1.00, 177.9, 300.0)">f</text><text xml:space="preserve" font-family="TrebuchetMS" font-size="16.0" fill="#444444" transform="matrix(1.00, 0.00, -0.00, -1.00, 183.8, 300.0)">i</text><text xml:space="preserve" font-family="TrebuchetMS" font-size="16.0" fill="#444444" transform="matrix(1.00, 0.00, -0.00, -1.00, 188.4, 300.0)">c</text><text xml:space="preserve" font-family="TrebuchetMS" font-size="16.0" fill="#444444" transform="matrix(1.00, 0.00, -0.00, -1.00, 196.3, 300.0)">i</text><text xml:space="preserve" font-family="TrebuchetMS" font-size="16.0" fill="#444444" transform="matrix(1.00, 0.00, -0.00, -1.00, 200.9, 300.0)">e</text><text xml:space="preserve" font-family="TrebuchetMS" font-size="16.0" fill="#444444" transform="matrix(1.00, 0.00, -0.00, -1.00, 209.6, 300.0)">n</text><text xml:space="preserve" font-family="TrebuchetMS" font-size="16.0" fill="#444444" transform="matrix(1.00, 0.00, -0.00, -1.00, 218.4, 300.0)">t</text><text xml:space="preserve" font-family="TrebuchetMS" font-size="16.0" fill="#444444" transform="matrix(1.00, 0.00, -0.00, -1.00, 224.7, 300.0)">,</text><text xml:space="preserve" font-family="TrebuchetMS" font-size="16.0" fill="#444444" transform="matrix(1.00, 0.00, -0.00, -1.00, 230.6, 300.0)"> </text><text xml:space="preserve" font-family="TrebuchetMS" font-size="16.0" fill="#444444" transform="matrix(1.00, 0.00, -0.00, -1.00, 235.3, 300.0)">c</text><text xml:space="preserve" font-family="TrebuchetMS" font-size="16.0" fill="#444444" transform="matrix(1.00, 0.00, -0.00, -1.00, 243.2, 300.0)">o</text><text xml:space="preserve" font-family="TrebuchetMS" font-size="16.0" fill="#444444" transform="matrix(1.00, 0.00, -0.00, -1.00, 251.8, 300.0)">n</text><text xml:space="preserve" font-family="TrebuchetMS" font-size="16.0" fill="#444444" transform="matrix(1.00, 0.00, -0.00, -1.00, 260.6, 300.0)">t</text><text xml:space="preserve" font-family="TrebuchetMS" font-size="16.0" fill="#444444" transform="matrix(1.00, 0.00, -0.00, -1.00, 266.9, 300.0)">e</text><text xml:space="preserve" font-family="TrebuchetMS" font-size="16.0" fill="#444444" transform="matrix(1.00, 0.00, -0.00, -1.00, 275.7, 300.0)">x</text><text xml:space="preserve" font-family="TrebuchetMS" font-size="16.0" fill="#444444" transform="matrix(1.00, 0.00, -0.00, -1.00, 283.7, 300.0)">t</text><text xml:space="preserve" font-family="TrebuchetMS" font-size="16.0" fill="#444444" transform="matrix(1.00, 0.00, -0.00, -1.00, 290.0, 300.0)">u</text><text xml:space="preserve" font-family="TrebuchetMS" font-size="16.0" fill="#444444" transform="matrix(1.00, 0.00, -0.00, -1.00, 298.8, 300.0)">a</text><text xml:space="preserve" font-family="TrebuchetMS" font-size="16.0" fill="#444444" transform="matrix(1.00, 0.00, -0.00, -1.00, 307.2, 300.0)">l</text><text xml:space="preserve" font-family="TrebuchetMS" font-size="16.0" fill="#444444" transform="matrix(1.00, 0.00, -0.00, -1.00, 311.9, 300.0)"> </text><text xml:space="preserve" font-family="TrebuchetMS" font-size="16.0" fill="#444444" transform="matrix(1.00, 0.00, -0.00, -1.00, 316.7, 300.0)">a</text><text xml:space="preserve" font-family="TrebuchetMS" font-size="16.0" fill="#444444" transform="matrix(1.00, 0.00, -0.00, -1.00, 325.1, 300.0)">n</text><text xml:space="preserve" font-family="TrebuchetMS" font-size="16.0" fill="#444444" transform="matrix(1.00, 0.00, -0.00, -1.00, 333.9, 300.0)">d</text><text xml:space="preserve" font-family="TrebuchetMS" font-size="16.0" fill="#444444" transform="matrix(1.00, 0.00, -0.00, -1.00, 342.8, 300.0)"> </text><text xml:space="preserve" font-family="TrebuchetMS" font-size="16.0" fill="#444444" transform="matrix(1.00, 0.00, -0.00, -1.00, 347.6, 300.0)">e</text><text xml:space="preserve" font-family="TrebuchetMS" font-size="16.0" fill="#444444" transform="matrix(1.00, 0.00, -0.00, -1.00, 356.4, 300.0)">n</text><text xml:space="preserve" font-family="TrebuchetMS" font-size="16.0" fill="#444444" transform="matrix(1.00, 0.00, -0.00, -1.00, 365.1, 300.0)">t</text><text xml:space="preserve" font-family="TrebuchetMS" font-size="16.0" fill="#444444" transform="matrix(1.00, 0.00, -0.00, -1.00, 371.5, 300.0)">e</text><text xml:space="preserve" font-family="TrebuchetMS" font-size="16.0" fill="#444444" transform="matrix(1.00, 0.00, -0.00, -1.00, 380.2, 300.0)">r</text><text xml:space="preserve" font-family="TrebuchetMS" font-size="16.0" fill="#444444" transform="matrix(1.00, 0.00, -0.00, -1.00, 386.4, 300.0)">t</text><text xml:space="preserve" font-family="TrebuchetMS" font-size="16.0" fill="#444444" transform="matrix(1.00, 0.00, -0.00, -1.00, 392.8, 300.0)">a</text><text xml:space="preserve" font-family="TrebuchetMS" font-size="16.0" fill="#444444" transform="matrix(1.00, 0.00, -0.00, -1.00, 401.2, 300.0)">i</text><text xml:space="preserve" font-family="TrebuchetMS" font-size="16.0" fill="#444444" transform="matrix(1.00, 0.00, -0.00, -1.00, 405.7, 300.0)">n</text><text xml:space="preserve" font-family="TrebuchetMS" font-size="16.0" fill="#444444" transform="matrix(1.00, 0.00, -0.00, -1.00, 414.5, 300.0)">i</text><text xml:space="preserve" font-family="TrebuchetMS" font-size="16.0" fill="#444444" transform="matrix(1.00, 0.00, -0.00, -1.00, 419.1, 300.0)">n</text><text xml:space="preserve" font-family="TrebuchetMS" font-size="16.0" fill="#444444" transform="matrix(1.00, 0.00, -0.00, -1.00, 427.8, 300.0)">g</text></g></g><g><clipPath id="clip-265"><path d="M 47.2 287.8 L 81.6 287.8 L 81.6 321.9 L 47.2 321.9 Z M 47.2 287.8 "></path></clipPath><g clip-path="url(#clip-265)"><path d="M 75.8 316.2 C 82.2 309.9 82.2 299.8 75.8 293.5 C 69.5 287.2 59.2 287.2 52.9 293.5 C 46.6 299.8 46.6 309.9 52.9 316.2 C 59.2 322.5 69.5 322.5 75.8 316.2 Z M 75.8 316.2 " fill="#2EC1D9"></path></g></g><g><clipPath id="clip-266"><path d="M 52.2 283.2 L 76.6 283.2 L 76.6 326.3 L 52.2 326.3 Z M 52.2 283.2 "></path></clipPath><g clip-path="url(#clip-266)"><text xml:space="preserve" font-family="Arial-Black" font-weight="bold" font-size="17.0" fill="#FFFFFF" transform="matrix(1.00, 0.00, -0.00, -1.00, 59.0, 302.0)">3</text></g></g><g><clipPath id="clip-267"><path d="M 83.8 233.0 L 661.8 233.0 L 661.8 267.0 L 83.8 267.0 Z M 83.8 233.0 "></path></clipPath><g clip-path="url(#clip-267)"><text xml:space="preserve" font-family="TrebuchetMS" font-size="16.0" fill="#444444" transform="matrix(1.00, 0.00, -0.00, -1.00, 88.0, 247.0)">M</text><text xml:space="preserve" font-family="TrebuchetMS" font-size="16.0" fill="#444444" transform="matrix(1.00, 0.00, -0.00, -1.00, 99.4, 247.0)">u</text><text xml:space="preserve" font-family="TrebuchetMS" font-size="16.0" fill="#444444" transform="matrix(1.00, 0.00, -0.00, -1.00, 108.1, 247.0)">l</text><text xml:space="preserve" font-family="TrebuchetMS" font-size="16.0" fill="#444444" transform="matrix(1.00, 0.00, -0.00, -1.00, 112.8, 247.0)">t</text><text xml:space="preserve" font-family="TrebuchetMS" font-size="16.0" fill="#444444" transform="matrix(1.00, 0.00, -0.00, -1.00, 119.2, 247.0)">i</text><text xml:space="preserve" font-family="TrebuchetMS" font-size="16.0" fill="#444444" transform="matrix(1.00, 0.00, -0.00, -1.00, 123.7, 247.0)">d</text><text xml:space="preserve" font-family="TrebuchetMS" font-size="16.0" fill="#444444" transform="matrix(1.00, 0.00, -0.00, -1.00, 132.7, 247.0)">i</text><text xml:space="preserve" font-family="TrebuchetMS" font-size="16.0" fill="#444444" transform="matrix(1.00, 0.00, -0.00, -1.00, 137.2, 247.0)">s</text><text xml:space="preserve" font-family="TrebuchetMS" font-size="16.0" fill="#444444" transform="matrix(1.00, 0.00, -0.00, -1.00, 143.7, 247.0)">c</text><text xml:space="preserve" font-family="TrebuchetMS" font-size="16.0" fill="#444444" transform="matrix(1.00, 0.00, -0.00, -1.00, 151.6, 247.0)">i</text><text xml:space="preserve" font-family="TrebuchetMS" font-size="16.0" fill="#444444" transform="matrix(1.00, 0.00, -0.00, -1.00, 156.2, 247.0)">p</text><text xml:space="preserve" font-family="TrebuchetMS" font-size="16.0" fill="#444444" transform="matrix(1.00, 0.00, -0.00, -1.00, 165.1, 247.0)">l</text><text xml:space="preserve" font-family="TrebuchetMS" font-size="16.0" fill="#444444" transform="matrix(1.00, 0.00, -0.00, -1.00, 169.8, 247.0)">i</text><text xml:space="preserve" font-family="TrebuchetMS" font-size="16.0" fill="#444444" transform="matrix(1.00, 0.00, -0.00, -1.00, 174.4, 247.0)">n</text><text xml:space="preserve" font-family="TrebuchetMS" font-size="16.0" fill="#444444" transform="matrix(1.00, 0.00, -0.00, -1.00, 183.2, 247.0)">a</text><text xml:space="preserve" font-family="TrebuchetMS" font-size="16.0" fill="#444444" transform="matrix(1.00, 0.00, -0.00, -1.00, 191.6, 247.0)">r</text><text xml:space="preserve" font-family="TrebuchetMS" font-size="16.0" fill="#444444" transform="matrix(1.00, 0.00, -0.00, -1.00, 197.8, 247.0)">y</text><text xml:space="preserve" font-family="TrebuchetMS" font-size="16.0" fill="#444444" transform="matrix(1.00, 0.00, -0.00, -1.00, 205.7, 247.0)"> </text><text xml:space="preserve" font-family="TrebuchetMS" font-size="16.0" fill="#444444" transform="matrix(1.00, 0.00, -0.00, -1.00, 210.5, 247.0)">t</text><text xml:space="preserve" font-family="TrebuchetMS" font-size="16.0" fill="#444444" transform="matrix(1.00, 0.00, -0.00, -1.00, 216.9, 247.0)">e</text><text xml:space="preserve" font-family="TrebuchetMS" font-size="16.0" fill="#444444" transform="matrix(1.00, 0.00, -0.00, -1.00, 225.6, 247.0)">a</text><text xml:space="preserve" font-family="TrebuchetMS" font-size="16.0" fill="#444444" transform="matrix(1.00, 0.00, -0.00, -1.00, 234.0, 247.0)">m</text></g></g><g><clipPath id="clip-268"><path d="M 47.2 234.7 L 81.6 234.7 L 81.6 268.9 L 47.2 268.9 Z M 47.2 234.7 "></path></clipPath><g clip-path="url(#clip-268)"><path d="M 75.8 263.2 C 82.2 256.9 82.2 246.7 75.8 240.5 C 69.5 234.2 59.2 234.2 52.9 240.5 C 46.6 246.7 46.6 256.9 52.9 263.2 C 59.2 269.5 69.5 269.5 75.8 263.2 Z M 75.8 263.2 " fill="#2EC1D9"></path></g></g><g><clipPath id="clip-269"><path d="M 52.2 230.1 L 76.6 230.1 L 76.6 273.3 L 52.2 273.3 Z M 52.2 230.1 "></path></clipPath><g clip-path="url(#clip-269)"><text xml:space="preserve" font-family="Arial-Black" font-weight="bold" font-size="17.0" fill="#FFFFFF" transform="matrix(1.00, 0.00, -0.00, -1.00, 59.0, 249.0)">4</text></g></g><g><clipPath id="clip-270"><path d="M 83.8 180.0 L 661.8 180.0 L 661.8 214.0 L 83.8 214.0 Z M 83.8 180.0 "></path></clipPath><g clip-path="url(#clip-270)"><text xml:space="preserve" font-family="TrebuchetMS" font-size="16.0" fill="#444444" transform="matrix(1.00, 0.00, -0.00, -1.00, 88.0, 194.0)">R</text><text xml:space="preserve" font-family="TrebuchetMS" font-size="16.0" fill="#444444" transform="matrix(1.00, 0.00, -0.00, -1.00, 97.3, 194.0)">i</text><text xml:space="preserve" font-family="TrebuchetMS" font-size="16.0" fill="#444444" transform="matrix(1.00, 0.00, -0.00, -1.00, 101.9, 194.0)">g</text><text xml:space="preserve" font-family="TrebuchetMS" font-size="16.0" fill="#444444" transform="matrix(1.00, 0.00, -0.00, -1.00, 109.9, 194.0)">h</text><text xml:space="preserve" font-family="TrebuchetMS" font-size="16.0" fill="#444444" transform="matrix(1.00, 0.00, -0.00, -1.00, 118.7, 194.0)">t</text><text xml:space="preserve" font-family="TrebuchetMS" font-size="16.0" fill="#444444" transform="matrix(1.00, 0.00, -0.00, -1.00, 125.0, 194.0)"> </text><text xml:space="preserve" font-family="TrebuchetMS" font-size="16.0" fill="#444444" transform="matrix(1.00, 0.00, -0.00, -1.00, 129.8, 194.0)">t</text><text xml:space="preserve" font-family="TrebuchetMS" font-size="16.0" fill="#444444" transform="matrix(1.00, 0.00, -0.00, -1.00, 136.2, 194.0)">e</text><text xml:space="preserve" font-family="TrebuchetMS" font-size="16.0" fill="#444444" transform="matrix(1.00, 0.00, -0.00, -1.00, 144.9, 194.0)">c</text><text xml:space="preserve" font-family="TrebuchetMS" font-size="16.0" fill="#444444" transform="matrix(1.00, 0.00, -0.00, -1.00, 152.8, 194.0)">h</text><text xml:space="preserve" font-family="TrebuchetMS" font-size="16.0" fill="#444444" transform="matrix(1.00, 0.00, -0.00, -1.00, 161.6, 194.0)">n</text><text xml:space="preserve" font-family="TrebuchetMS" font-size="16.0" fill="#444444" transform="matrix(1.00, 0.00, -0.00, -1.00, 170.3, 194.0)">o</text><text xml:space="preserve" font-family="TrebuchetMS" font-size="16.0" fill="#444444" transform="matrix(1.00, 0.00, -0.00, -1.00, 178.9, 194.0)">l</text><text xml:space="preserve" font-family="TrebuchetMS" font-size="16.0" fill="#444444" transform="matrix(1.00, 0.00, -0.00, -1.00, 183.6, 194.0)">o</text><text xml:space="preserve" font-family="TrebuchetMS" font-size="16.0" fill="#444444" transform="matrix(1.00, 0.00, -0.00, -1.00, 192.2, 194.0)">g</text><text xml:space="preserve" font-family="TrebuchetMS" font-size="16.0" fill="#444444" transform="matrix(1.00, 0.00, -0.00, -1.00, 200.2, 194.0)">y</text><text xml:space="preserve" font-family="TrebuchetMS" font-size="16.0" fill="#444444" transform="matrix(1.00, 0.00, -0.00, -1.00, 208.1, 194.0)"> </text><text xml:space="preserve" font-family="TrebuchetMS" font-size="16.0" fill="#444444" transform="matrix(1.00, 0.00, -0.00, -1.00, 213.0, 194.0)">s</text><text xml:space="preserve" font-family="TrebuchetMS" font-size="16.0" fill="#444444" transform="matrix(1.00, 0.00, -0.00, -1.00, 219.4, 194.0)">t</text><text xml:space="preserve" font-family="TrebuchetMS" font-size="16.0" fill="#444444" transform="matrix(1.00, 0.00, -0.00, -1.00, 225.8, 194.0)">a</text><text xml:space="preserve" font-family="TrebuchetMS" font-size="16.0" fill="#444444" transform="matrix(1.00, 0.00, -0.00, -1.00, 234.2, 194.0)">c</text><text xml:space="preserve" font-family="TrebuchetMS" font-size="16.0" fill="#444444" transform="matrix(1.00, 0.00, -0.00, -1.00, 242.1, 194.0)">k</text></g></g><g><clipPath id="clip-271"><path d="M 47.2 181.7 L 81.6 181.7 L 81.6 215.9 L 47.2 215.9 Z M 47.2 181.7 "></path></clipPath><g clip-path="url(#clip-271)"><path d="M 75.8 210.2 C 82.2 203.9 82.2 193.7 75.8 187.4 C 69.5 181.2 59.2 181.2 52.9 187.4 C 46.6 193.7 46.6 203.9 52.9 210.2 C 59.2 216.4 69.5 216.4 75.8 210.2 Z M 75.8 210.2 " fill="#2EC1D9"></path></g></g><g><clipPath id="clip-272"><path d="M 52.2 177.1 L 76.6 177.1 L 76.6 220.3 L 52.2 220.3 Z M 52.2 177.1 "></path></clipPath><g clip-path="url(#clip-272)"><text xml:space="preserve" font-family="Arial-Black" font-weight="bold" font-size="17.0" fill="#FFFFFF" transform="matrix(1.00, 0.00, -0.00, -1.00, 59.0, 196.0)">5</text></g></g></g></svg>