<?xml version="1.0" encoding="UTF-8" standalone="no"?><svg xmlns="http://www.w3.org/2000/svg" xmlns:xlink="http://www.w3.org/1999/xlink" clip-rule="evenodd" stroke-miterlimit="4.00" viewBox="0 0 615 35"><desc>SVG generated by Keynote</desc><defs></defs><g transform="matrix(1.00, 0.00, -0.00, -1.00, 0.0, 35.0)"><g><clipPath id="clip-254"><path d="M 36.8 -1.0 L 614.8 -1.0 L 614.8 33.0 L 36.8 33.0 Z M 36.8 -1.0 "></path></clipPath><g clip-path="url(#clip-254)"><text xml:space="preserve" font-family="TrebuchetMS" font-size="16.0" fill="#444444" transform="matrix(1.00, 0.00, -0.00, -1.00, 41.0, 13.0)">R</text><text xml:space="preserve" font-family="TrebuchetMS" font-size="16.0" fill="#444444" transform="matrix(1.00, 0.00, -0.00, -1.00, 50.3, 13.0)">i</text><text xml:space="preserve" font-family="TrebuchetMS" font-size="16.0" fill="#444444" transform="matrix(1.00, 0.00, -0.00, -1.00, 54.9, 13.0)">g</text><text xml:space="preserve" font-family="TrebuchetMS" font-size="16.0" fill="#444444" transform="matrix(1.00, 0.00, -0.00, -1.00, 62.9, 13.0)">h</text><text xml:space="preserve" font-family="TrebuchetMS" font-size="16.0" fill="#444444" transform="matrix(1.00, 0.00, -0.00, -1.00, 71.7, 13.0)">t</text><text xml:space="preserve" font-family="TrebuchetMS" font-size="16.0" fill="#444444" transform="matrix(1.00, 0.00, -0.00, -1.00, 78.0, 13.0)"> </text><text xml:space="preserve" font-family="TrebuchetMS" font-size="16.0" fill="#444444" transform="matrix(1.00, 0.00, -0.00, -1.00, 82.8, 13.0)">t</text><text xml:space="preserve" font-family="TrebuchetMS" font-size="16.0" fill="#444444" transform="matrix(1.00, 0.00, -0.00, -1.00, 89.2, 13.0)">e</text><text xml:space="preserve" font-family="TrebuchetMS" font-size="16.0" fill="#444444" transform="matrix(1.00, 0.00, -0.00, -1.00, 97.9, 13.0)">c</text><text xml:space="preserve" font-family="TrebuchetMS" font-size="16.0" fill="#444444" transform="matrix(1.00, 0.00, -0.00, -1.00, 105.8, 13.0)">h</text><text xml:space="preserve" font-family="TrebuchetMS" font-size="16.0" fill="#444444" transform="matrix(1.00, 0.00, -0.00, -1.00, 114.6, 13.0)">n</text><text xml:space="preserve" font-family="TrebuchetMS" font-size="16.0" fill="#444444" transform="matrix(1.00, 0.00, -0.00, -1.00, 123.3, 13.0)">o</text><text xml:space="preserve" font-family="TrebuchetMS" font-size="16.0" fill="#444444" transform="matrix(1.00, 0.00, -0.00, -1.00, 131.9, 13.0)">l</text><text xml:space="preserve" font-family="TrebuchetMS" font-size="16.0" fill="#444444" transform="matrix(1.00, 0.00, -0.00, -1.00, 136.6, 13.0)">o</text><text xml:space="preserve" font-family="TrebuchetMS" font-size="16.0" fill="#444444" transform="matrix(1.00, 0.00, -0.00, -1.00, 145.2, 13.0)">g</text><text xml:space="preserve" font-family="TrebuchetMS" font-size="16.0" fill="#444444" transform="matrix(1.00, 0.00, -0.00, -1.00, 153.2, 13.0)">y</text><text xml:space="preserve" font-family="TrebuchetMS" font-size="16.0" fill="#444444" transform="matrix(1.00, 0.00, -0.00, -1.00, 161.1, 13.0)"> </text><text xml:space="preserve" font-family="TrebuchetMS" font-size="16.0" fill="#444444" transform="matrix(1.00, 0.00, -0.00, -1.00, 166.0, 13.0)">s</text><text xml:space="preserve" font-family="TrebuchetMS" font-size="16.0" fill="#444444" transform="matrix(1.00, 0.00, -0.00, -1.00, 172.4, 13.0)">t</text><text xml:space="preserve" font-family="TrebuchetMS" font-size="16.0" fill="#444444" transform="matrix(1.00, 0.00, -0.00, -1.00, 178.8, 13.0)">a</text><text xml:space="preserve" font-family="TrebuchetMS" font-size="16.0" fill="#444444" transform="matrix(1.00, 0.00, -0.00, -1.00, 187.2, 13.0)">c</text><text xml:space="preserve" font-family="TrebuchetMS" font-size="16.0" fill="#444444" transform="matrix(1.00, 0.00, -0.00, -1.00, 195.1, 13.0)">k</text></g></g><g><clipPath id="clip-255"><path d="M 0.2 0.7 L 34.6 0.7 L 34.6 34.9 L 0.2 34.9 Z M 0.2 0.7 "></path></clipPath><g clip-path="url(#clip-255)"><path d="M 28.8 29.2 C 35.2 22.9 35.2 12.7 28.8 6.4 C 22.5 0.2 12.2 0.2 5.9 6.4 C -0.4 12.7 -0.4 22.9 5.9 29.2 C 12.2 35.4 22.5 35.4 28.8 29.2 Z M 28.8 29.2 " fill="#2EC1D9"></path></g></g><g><clipPath id="clip-256"><path d="M 5.2 -3.9 L 29.6 -3.9 L 29.6 39.3 L 5.2 39.3 Z M 5.2 -3.9 "></path></clipPath><g clip-path="url(#clip-256)"><text xml:space="preserve" font-family="Arial-Black" font-weight="bold" font-size="17.0" fill="#FFFFFF" transform="matrix(1.00, 0.00, -0.00, -1.00, 12.0, 15.0)">5</text></g></g></g></svg>