<?xml version="1.0" encoding="UTF-8" standalone="no"?><svg xmlns="http://www.w3.org/2000/svg" xmlns:xlink="http://www.w3.org/1999/xlink" clip-rule="evenodd" stroke-miterlimit="4.00" viewBox="0 0 615 35"><desc>SVG generated by Keynote</desc><defs></defs><g transform="matrix(1.00, 0.00, -0.00, -1.00, 0.0, 35.0)"><g><clipPath id="clip-248"><path d="M 36.8 -0.9 L 614.8 -0.9 L 614.8 33.1 L 36.8 33.1 Z M 36.8 -0.9 "></path></clipPath><g clip-path="url(#clip-248)"><text xml:space="preserve" font-family="TrebuchetMS" font-size="16.0" fill="#444444" transform="matrix(1.00, 0.00, -0.00, -1.00, 41.0, 13.0)">E</text><text xml:space="preserve" font-family="TrebuchetMS" font-size="16.0" fill="#444444" transform="matrix(1.00, 0.00, -0.00, -1.00, 49.6, 13.0)">f</text><text xml:space="preserve" font-family="TrebuchetMS" font-size="16.0" fill="#444444" transform="matrix(1.00, 0.00, -0.00, -1.00, 55.5, 13.0)">f</text><text xml:space="preserve" font-family="TrebuchetMS" font-size="16.0" fill="#444444" transform="matrix(1.00, 0.00, -0.00, -1.00, 61.4, 13.0)">e</text><text xml:space="preserve" font-family="TrebuchetMS" font-size="16.0" fill="#444444" transform="matrix(1.00, 0.00, -0.00, -1.00, 70.1, 13.0)">c</text><text xml:space="preserve" font-family="TrebuchetMS" font-size="16.0" fill="#444444" transform="matrix(1.00, 0.00, -0.00, -1.00, 78.0, 13.0)">t</text><text xml:space="preserve" font-family="TrebuchetMS" font-size="16.0" fill="#444444" transform="matrix(1.00, 0.00, -0.00, -1.00, 84.4, 13.0)">i</text><text xml:space="preserve" font-family="TrebuchetMS" font-size="16.0" fill="#444444" transform="matrix(1.00, 0.00, -0.00, -1.00, 89.0, 13.0)">v</text><text xml:space="preserve" font-family="TrebuchetMS" font-size="16.0" fill="#444444" transform="matrix(1.00, 0.00, -0.00, -1.00, 96.8, 13.0)">e</text><text xml:space="preserve" font-family="TrebuchetMS" font-size="16.0" fill="#444444" transform="matrix(1.00, 0.00, -0.00, -1.00, 105.5, 13.0)">,</text><text xml:space="preserve" font-family="TrebuchetMS" font-size="16.0" fill="#444444" transform="matrix(1.00, 0.00, -0.00, -1.00, 111.4, 13.0)"> </text><text xml:space="preserve" font-family="TrebuchetMS" font-size="16.0" fill="#444444" transform="matrix(1.00, 0.00, -0.00, -1.00, 116.3, 13.0)">e</text><text xml:space="preserve" font-family="TrebuchetMS" font-size="16.0" fill="#444444" transform="matrix(1.00, 0.00, -0.00, -1.00, 125.0, 13.0)">f</text><text xml:space="preserve" font-family="TrebuchetMS" font-size="16.0" fill="#444444" transform="matrix(1.00, 0.00, -0.00, -1.00, 130.9, 13.0)">f</text><text xml:space="preserve" font-family="TrebuchetMS" font-size="16.0" fill="#444444" transform="matrix(1.00, 0.00, -0.00, -1.00, 136.8, 13.0)">i</text><text xml:space="preserve" font-family="TrebuchetMS" font-size="16.0" fill="#444444" transform="matrix(1.00, 0.00, -0.00, -1.00, 141.4, 13.0)">c</text><text xml:space="preserve" font-family="TrebuchetMS" font-size="16.0" fill="#444444" transform="matrix(1.00, 0.00, -0.00, -1.00, 149.3, 13.0)">i</text><text xml:space="preserve" font-family="TrebuchetMS" font-size="16.0" fill="#444444" transform="matrix(1.00, 0.00, -0.00, -1.00, 153.9, 13.0)">e</text><text xml:space="preserve" font-family="TrebuchetMS" font-size="16.0" fill="#444444" transform="matrix(1.00, 0.00, -0.00, -1.00, 162.6, 13.0)">n</text><text xml:space="preserve" font-family="TrebuchetMS" font-size="16.0" fill="#444444" transform="matrix(1.00, 0.00, -0.00, -1.00, 171.4, 13.0)">t</text><text xml:space="preserve" font-family="TrebuchetMS" font-size="16.0" fill="#444444" transform="matrix(1.00, 0.00, -0.00, -1.00, 177.7, 13.0)">,</text><text xml:space="preserve" font-family="TrebuchetMS" font-size="16.0" fill="#444444" transform="matrix(1.00, 0.00, -0.00, -1.00, 183.6, 13.0)"> </text><text xml:space="preserve" font-family="TrebuchetMS" font-size="16.0" fill="#444444" transform="matrix(1.00, 0.00, -0.00, -1.00, 188.3, 13.0)">c</text><text xml:space="preserve" font-family="TrebuchetMS" font-size="16.0" fill="#444444" transform="matrix(1.00, 0.00, -0.00, -1.00, 196.2, 13.0)">o</text><text xml:space="preserve" font-family="TrebuchetMS" font-size="16.0" fill="#444444" transform="matrix(1.00, 0.00, -0.00, -1.00, 204.8, 13.0)">n</text><text xml:space="preserve" font-family="TrebuchetMS" font-size="16.0" fill="#444444" transform="matrix(1.00, 0.00, -0.00, -1.00, 213.6, 13.0)">t</text><text xml:space="preserve" font-family="TrebuchetMS" font-size="16.0" fill="#444444" transform="matrix(1.00, 0.00, -0.00, -1.00, 219.9, 13.0)">e</text><text xml:space="preserve" font-family="TrebuchetMS" font-size="16.0" fill="#444444" transform="matrix(1.00, 0.00, -0.00, -1.00, 228.7, 13.0)">x</text><text xml:space="preserve" font-family="TrebuchetMS" font-size="16.0" fill="#444444" transform="matrix(1.00, 0.00, -0.00, -1.00, 236.7, 13.0)">t</text><text xml:space="preserve" font-family="TrebuchetMS" font-size="16.0" fill="#444444" transform="matrix(1.00, 0.00, -0.00, -1.00, 243.0, 13.0)">u</text><text xml:space="preserve" font-family="TrebuchetMS" font-size="16.0" fill="#444444" transform="matrix(1.00, 0.00, -0.00, -1.00, 251.8, 13.0)">a</text><text xml:space="preserve" font-family="TrebuchetMS" font-size="16.0" fill="#444444" transform="matrix(1.00, 0.00, -0.00, -1.00, 260.2, 13.0)">l</text><text xml:space="preserve" font-family="TrebuchetMS" font-size="16.0" fill="#444444" transform="matrix(1.00, 0.00, -0.00, -1.00, 264.9, 13.0)"> </text><text xml:space="preserve" font-family="TrebuchetMS" font-size="16.0" fill="#444444" transform="matrix(1.00, 0.00, -0.00, -1.00, 269.7, 13.0)">a</text><text xml:space="preserve" font-family="TrebuchetMS" font-size="16.0" fill="#444444" transform="matrix(1.00, 0.00, -0.00, -1.00, 278.1, 13.0)">n</text><text xml:space="preserve" font-family="TrebuchetMS" font-size="16.0" fill="#444444" transform="matrix(1.00, 0.00, -0.00, -1.00, 286.9, 13.0)">d</text><text xml:space="preserve" font-family="TrebuchetMS" font-size="16.0" fill="#444444" transform="matrix(1.00, 0.00, -0.00, -1.00, 295.8, 13.0)"> </text><text xml:space="preserve" font-family="TrebuchetMS" font-size="16.0" fill="#444444" transform="matrix(1.00, 0.00, -0.00, -1.00, 300.6, 13.0)">e</text><text xml:space="preserve" font-family="TrebuchetMS" font-size="16.0" fill="#444444" transform="matrix(1.00, 0.00, -0.00, -1.00, 309.4, 13.0)">n</text><text xml:space="preserve" font-family="TrebuchetMS" font-size="16.0" fill="#444444" transform="matrix(1.00, 0.00, -0.00, -1.00, 318.1, 13.0)">t</text><text xml:space="preserve" font-family="TrebuchetMS" font-size="16.0" fill="#444444" transform="matrix(1.00, 0.00, -0.00, -1.00, 324.5, 13.0)">e</text><text xml:space="preserve" font-family="TrebuchetMS" font-size="16.0" fill="#444444" transform="matrix(1.00, 0.00, -0.00, -1.00, 333.2, 13.0)">r</text><text xml:space="preserve" font-family="TrebuchetMS" font-size="16.0" fill="#444444" transform="matrix(1.00, 0.00, -0.00, -1.00, 339.4, 13.0)">t</text><text xml:space="preserve" font-family="TrebuchetMS" font-size="16.0" fill="#444444" transform="matrix(1.00, 0.00, -0.00, -1.00, 345.8, 13.0)">a</text><text xml:space="preserve" font-family="TrebuchetMS" font-size="16.0" fill="#444444" transform="matrix(1.00, 0.00, -0.00, -1.00, 354.2, 13.0)">i</text><text xml:space="preserve" font-family="TrebuchetMS" font-size="16.0" fill="#444444" transform="matrix(1.00, 0.00, -0.00, -1.00, 358.7, 13.0)">n</text><text xml:space="preserve" font-family="TrebuchetMS" font-size="16.0" fill="#444444" transform="matrix(1.00, 0.00, -0.00, -1.00, 367.5, 13.0)">i</text><text xml:space="preserve" font-family="TrebuchetMS" font-size="16.0" fill="#444444" transform="matrix(1.00, 0.00, -0.00, -1.00, 372.1, 13.0)">n</text><text xml:space="preserve" font-family="TrebuchetMS" font-size="16.0" fill="#444444" transform="matrix(1.00, 0.00, -0.00, -1.00, 380.8, 13.0)">g</text></g></g><g><clipPath id="clip-249"><path d="M 0.2 0.8 L 34.6 0.8 L 34.6 34.9 L 0.2 34.9 Z M 0.2 0.8 "></path></clipPath><g clip-path="url(#clip-249)"><path d="M 28.8 29.2 C 35.2 22.9 35.2 12.8 28.8 6.5 C 22.5 0.2 12.2 0.2 5.9 6.5 C -0.4 12.8 -0.4 22.9 5.9 29.2 C 12.2 35.5 22.5 35.5 28.8 29.2 Z M 28.8 29.2 " fill="#2EC1D9"></path></g></g><g><clipPath id="clip-250"><path d="M 5.2 -3.8 L 29.6 -3.8 L 29.6 39.3 L 5.2 39.3 Z M 5.2 -3.8 "></path></clipPath><g clip-path="url(#clip-250)"><text xml:space="preserve" font-family="Arial-Black" font-weight="bold" font-size="17.0" fill="#FFFFFF" transform="matrix(1.00, 0.00, -0.00, -1.00, 12.0, 15.0)">3</text></g></g></g></svg>