<?xml version="1.0" encoding="UTF-8" standalone="no"?><svg xmlns="http://www.w3.org/2000/svg" xmlns:xlink="http://www.w3.org/1999/xlink" clip-rule="evenodd" stroke-miterlimit="4.00" viewBox="0 0 186 23"><desc>SVG generated by Keynote</desc><defs></defs><g transform="matrix(1.00, 0.00, -0.00, -1.00, 0.0, 23.0)"><text xml:space="preserve" font-family="ArialMT" font-size="18.0" fill="#38C1D7" transform="matrix(1.00, 0.00, -0.00, -1.00, 0.5, 6.4)">•</text><text xml:space="preserve" font-family="TrebuchetMS" font-size="18.0" fill="#454447" transform="matrix(1.00, 0.00, -0.00, -1.00, 19.0, 6.0)">P</text><text xml:space="preserve" font-family="TrebuchetMS" font-size="18.0" fill="#454447" transform="matrix(1.00, 0.00, -0.00, -1.00, 28.2, 6.0)">a</text><text xml:space="preserve" font-family="TrebuchetMS" font-size="18.0" fill="#454447" transform="matrix(1.00, 0.00, -0.00, -1.00, 37.7, 6.0)">y</text><text xml:space="preserve" font-family="TrebuchetMS" font-size="18.0" fill="#454447" transform="matrix(1.00, 0.00, -0.00, -1.00, 46.5, 6.0)">m</text><text xml:space="preserve" font-family="TrebuchetMS" font-size="18.0" fill="#454447" transform="matrix(1.00, 0.00, -0.00, -1.00, 61.5, 6.0)">e</text><text xml:space="preserve" font-family="TrebuchetMS" font-size="18.0" fill="#454447" transform="matrix(1.00, 0.00, -0.00, -1.00, 71.3, 6.0)">n</text><text xml:space="preserve" font-family="TrebuchetMS" font-size="18.0" fill="#454447" transform="matrix(1.00, 0.00, -0.00, -1.00, 81.2, 6.0)">t</text><text xml:space="preserve" font-family="TrebuchetMS" font-size="18.0" fill="#454447" transform="matrix(1.00, 0.00, -0.00, -1.00, 88.3, 6.0)"> </text><text xml:space="preserve" font-family="TrebuchetMS" font-size="18.0" fill="#454447" transform="matrix(1.00, 0.00, -0.00, -1.00, 93.7, 6.0)">a</text><text xml:space="preserve" font-family="TrebuchetMS" font-size="18.0" fill="#454447" transform="matrix(1.00, 0.00, -0.00, -1.00, 103.2, 6.0)">n</text><text xml:space="preserve" font-family="TrebuchetMS" font-size="18.0" fill="#454447" transform="matrix(1.00, 0.00, -0.00, -1.00, 113.1, 6.0)">d</text><text xml:space="preserve" font-family="TrebuchetMS" font-size="18.0" fill="#454447" transform="matrix(1.00, 0.00, -0.00, -1.00, 123.1, 6.0)"> </text><text xml:space="preserve" font-family="TrebuchetMS" font-size="18.0" fill="#454447" transform="matrix(1.00, 0.00, -0.00, -1.00, 128.5, 6.0)">t</text><text xml:space="preserve" font-family="TrebuchetMS" font-size="18.0" fill="#454447" transform="matrix(1.00, 0.00, -0.00, -1.00, 135.7, 6.0)">i</text><text xml:space="preserve" font-family="TrebuchetMS" font-size="18.0" fill="#454447" transform="matrix(1.00, 0.00, -0.00, -1.00, 140.8, 6.0)">p</text><text xml:space="preserve" font-family="TrebuchetMS" font-size="18.0" fill="#454447" transform="matrix(1.00, 0.00, -0.00, -1.00, 150.8, 6.0)">p</text><text xml:space="preserve" font-family="TrebuchetMS" font-size="18.0" fill="#454447" transform="matrix(1.00, 0.00, -0.00, -1.00, 160.9, 6.0)">i</text><text xml:space="preserve" font-family="TrebuchetMS" font-size="18.0" fill="#454447" transform="matrix(1.00, 0.00, -0.00, -1.00, 166.0, 6.0)">n</text><text xml:space="preserve" font-family="TrebuchetMS" font-size="18.0" fill="#454447" transform="matrix(1.00, 0.00, -0.00, -1.00, 175.9, 6.0)">g</text></g></svg>