<?xml version="1.0" encoding="UTF-8" standalone="no"?><svg xmlns="http://www.w3.org/2000/svg" xmlns:xlink="http://www.w3.org/1999/xlink" clip-rule="evenodd" stroke-miterlimit="4.00" viewBox="0 0 720 540"><desc>SVG generated by Keynote</desc><defs></defs><g transform="matrix(1.00, 0.00, -0.00, -1.00, 0.0, 540.0)"><path d="M 0.0 540.0 L 720.0 540.0 L 720.0 0.0 L 0.0 0.0 Z M 0.0 540.0 " fill="#FFFFFF"></path><path d="M 0.0 28.1 L 720.0 28.1 L 720.0 -0.7 L 0.0 -0.7 Z M 0.0 28.1 " fill="#454447"></path><text xml:space="preserve" font-family="TrebuchetMS" font-size="8.0" fill="#CCCCCC" transform="matrix(1.00, 0.00, -0.00, -1.00, 96.0, 11.0)">I</text><text xml:space="preserve" font-family="TrebuchetMS" font-size="8.0" fill="#CCCCCC" transform="matrix(1.00, 0.00, -0.00, -1.00, 98.4, 11.0)">T</text><text xml:space="preserve" font-family="TrebuchetMS" font-size="8.0" fill="#CCCCCC" transform="matrix(1.00, 0.00, -0.00, -1.00, 103.1, 11.0)"> </text><text xml:space="preserve" font-family="TrebuchetMS" font-size="8.0" fill="#CCCCCC" transform="matrix(1.00, 0.00, -0.00, -1.00, 105.7, 11.0)">W</text><text xml:space="preserve" font-family="TrebuchetMS" font-size="8.0" fill="#CCCCCC" transform="matrix(1.00, 0.00, -0.00, -1.00, 112.8, 11.0)">E</text><text xml:space="preserve" font-family="TrebuchetMS" font-size="8.0" fill="#CCCCCC" transform="matrix(1.00, 0.00, -0.00, -1.00, 117.2, 11.0)">E</text><text xml:space="preserve" font-family="TrebuchetMS" font-size="8.0" fill="#CCCCCC" transform="matrix(1.00, 0.00, -0.00, -1.00, 121.7, 11.0)">K</text><text xml:space="preserve" font-family="TrebuchetMS" font-size="8.0" fill="#CCCCCC" transform="matrix(1.00, 0.00, -0.00, -1.00, 126.5, 11.0)"> </text><text xml:space="preserve" font-family="TrebuchetMS" font-size="8.0" fill="#CCCCCC" transform="matrix(1.00, 0.00, -0.00, -1.00, 129.1, 11.0)">2</text><text xml:space="preserve" font-family="TrebuchetMS" font-size="8.0" fill="#CCCCCC" transform="matrix(1.00, 0.00, -0.00, -1.00, 133.5, 11.0)">0</text><text xml:space="preserve" font-family="TrebuchetMS" font-size="8.0" fill="#CCCCCC" transform="matrix(1.00, 0.00, -0.00, -1.00, 137.9, 11.0)">1</text><text xml:space="preserve" font-family="TrebuchetMS" font-size="8.0" fill="#CCCCCC" transform="matrix(1.00, 0.00, -0.00, -1.00, 142.3, 11.0)">6</text><text xml:space="preserve" font-family="TrebuchetMS" font-size="8.0" fill="#CCCCCC" transform="matrix(1.00, 0.00, -0.00, -1.00, 146.7, 11.0)"> </text><text xml:space="preserve" font-family="TrebuchetMS" font-size="8.0" fill="#CCCCCC" transform="matrix(1.00, 0.00, -0.00, -1.00, 149.3, 11.0)">-</text><text xml:space="preserve" font-family="TrebuchetMS" font-size="8.0" fill="#CCCCCC" transform="matrix(1.00, 0.00, -0.00, -1.00, 152.5, 11.0)"> </text><text xml:space="preserve" font-family="TrebuchetMS" font-size="8.0" fill="#CCCCCC" transform="matrix(1.00, 0.00, -0.00, -1.00, 155.1, 11.0)">F</text><text xml:space="preserve" font-family="TrebuchetMS" font-size="8.0" fill="#CCCCCC" transform="matrix(1.00, 0.00, -0.00, -1.00, 159.5, 11.0)">u</text><text xml:space="preserve" font-family="TrebuchetMS" font-size="8.0" fill="#CCCCCC" transform="matrix(1.00, 0.00, -0.00, -1.00, 164.1, 11.0)">t</text><text xml:space="preserve" font-family="TrebuchetMS" font-size="8.0" fill="#CCCCCC" transform="matrix(1.00, 0.00, -0.00, -1.00, 167.4, 11.0)">u</text><text xml:space="preserve" font-family="TrebuchetMS" font-size="8.0" fill="#CCCCCC" transform="matrix(1.00, 0.00, -0.00, -1.00, 172.0, 11.0)">r</text><text xml:space="preserve" font-family="TrebuchetMS" font-size="8.0" fill="#CCCCCC" transform="matrix(1.00, 0.00, -0.00, -1.00, 175.3, 11.0)">e</text><text xml:space="preserve" font-family="TrebuchetMS" font-size="8.0" fill="#CCCCCC" transform="matrix(1.00, 0.00, -0.00, -1.00, 179.9, 11.0)"> </text><text xml:space="preserve" font-family="TrebuchetMS" font-size="8.0" fill="#CCCCCC" transform="matrix(1.00, 0.00, -0.00, -1.00, 182.5, 11.0)">o</text><text xml:space="preserve" font-family="TrebuchetMS" font-size="8.0" fill="#CCCCCC" transform="matrix(1.00, 0.00, -0.00, -1.00, 187.0, 11.0)">f</text><text xml:space="preserve" font-family="TrebuchetMS" font-size="8.0" fill="#CCCCCC" transform="matrix(1.00, 0.00, -0.00, -1.00, 190.1, 11.0)"> </text><text xml:space="preserve" font-family="TrebuchetMS" font-size="8.0" fill="#CCCCCC" transform="matrix(1.00, 0.00, -0.00, -1.00, 192.7, 11.0)">C</text><text xml:space="preserve" font-family="TrebuchetMS" font-size="8.0" fill="#CCCCCC" transform="matrix(1.00, 0.00, -0.00, -1.00, 197.7, 11.0)">a</text><text xml:space="preserve" font-family="TrebuchetMS" font-size="8.0" fill="#CCCCCC" transform="matrix(1.00, 0.00, -0.00, -1.00, 202.1, 11.0)">s</text><text xml:space="preserve" font-family="TrebuchetMS" font-size="8.0" fill="#CCCCCC" transform="matrix(1.00, 0.00, -0.00, -1.00, 205.6, 11.0)">h</text><text xml:space="preserve" font-family="TrebuchetMS" font-size="8.0" fill="#CCCCCC" transform="matrix(1.00, 0.00, -0.00, -1.00, 210.1, 11.0)">l</text><text xml:space="preserve" font-family="TrebuchetMS" font-size="8.0" fill="#CCCCCC" transform="matrix(1.00, 0.00, -0.00, -1.00, 212.7, 11.0)">e</text><text xml:space="preserve" font-family="TrebuchetMS" font-size="8.0" fill="#CCCCCC" transform="matrix(1.00, 0.00, -0.00, -1.00, 217.3, 11.0)">s</text><text xml:space="preserve" font-family="TrebuchetMS" font-size="8.0" fill="#CCCCCC" transform="matrix(1.00, 0.00, -0.00, -1.00, 220.7, 11.0)">s</text><text xml:space="preserve" font-family="TrebuchetMS" font-size="8.0" fill="#CCCCCC" transform="matrix(1.00, 0.00, -0.00, -1.00, 224.1, 11.0)"> </text><text xml:space="preserve" font-family="TrebuchetMS" font-size="8.0" fill="#CCCCCC" transform="matrix(1.00, 0.00, -0.00, -1.00, 226.7, 11.0)">P</text><text xml:space="preserve" font-family="TrebuchetMS" font-size="8.0" fill="#CCCCCC" transform="matrix(1.00, 0.00, -0.00, -1.00, 231.0, 11.0)">a</text><text xml:space="preserve" font-family="TrebuchetMS" font-size="8.0" fill="#CCCCCC" transform="matrix(1.00, 0.00, -0.00, -1.00, 235.4, 11.0)">y</text><text xml:space="preserve" font-family="TrebuchetMS" font-size="8.0" fill="#CCCCCC" transform="matrix(1.00, 0.00, -0.00, -1.00, 239.6, 11.0)">m</text><text xml:space="preserve" font-family="TrebuchetMS" font-size="8.0" fill="#CCCCCC" transform="matrix(1.00, 0.00, -0.00, -1.00, 246.4, 11.0)">e</text><text xml:space="preserve" font-family="TrebuchetMS" font-size="8.0" fill="#CCCCCC" transform="matrix(1.00, 0.00, -0.00, -1.00, 251.0, 11.0)">n</text><text xml:space="preserve" font-family="TrebuchetMS" font-size="8.0" fill="#CCCCCC" transform="matrix(1.00, 0.00, -0.00, -1.00, 255.6, 11.0)">t</text><text xml:space="preserve" font-family="TrebuchetMS" font-size="8.0" fill="#CCCCCC" transform="matrix(1.00, 0.00, -0.00, -1.00, 258.9, 11.0)">s</text><text xml:space="preserve" font-family="TrebuchetMS" font-size="8.0" fill="#CCCCCC" transform="matrix(1.00, 0.00, -0.00, -1.00, 262.4, 11.0)"> </text><text xml:space="preserve" font-family="TrebuchetMS" font-size="8.0" fill="#CCCCCC" transform="matrix(1.00, 0.00, -0.00, -1.00, 265.0, 11.0)">-</text><text xml:space="preserve" font-family="TrebuchetMS" font-size="8.0" fill="#CCCCCC" transform="matrix(1.00, 0.00, -0.00, -1.00, 268.1, 11.0)"> </text><text xml:space="preserve" font-family="TrebuchetMS" font-size="8.0" fill="#CCCCCC" transform="matrix(1.00, 0.00, -0.00, -1.00, 270.7, 11.0)">K</text><text xml:space="preserve" font-family="TrebuchetMS" font-size="8.0" fill="#CCCCCC" transform="matrix(1.00, 0.00, -0.00, -1.00, 275.3, 11.0)">o</text><text xml:space="preserve" font-family="TrebuchetMS" font-size="8.0" fill="#CCCCCC" transform="matrix(1.00, 0.00, -0.00, -1.00, 279.8, 11.0)">n</text><text xml:space="preserve" font-family="TrebuchetMS" font-size="8.0" fill="#CCCCCC" transform="matrix(1.00, 0.00, -0.00, -1.00, 284.3, 11.0)">r</text><text xml:space="preserve" font-family="TrebuchetMS" font-size="8.0" fill="#CCCCCC" transform="matrix(1.00, 0.00, -0.00, -1.00, 287.6, 11.0)">a</text><text xml:space="preserve" font-family="TrebuchetMS" font-size="8.0" fill="#CCCCCC" transform="matrix(1.00, 0.00, -0.00, -1.00, 292.1, 11.0)">d</text><text xml:space="preserve" font-family="TrebuchetMS" font-size="8.0" fill="#CCCCCC" transform="matrix(1.00, 0.00, -0.00, -1.00, 296.7, 11.0)"> </text><text xml:space="preserve" font-family="TrebuchetMS" font-size="8.0" fill="#CCCCCC" transform="matrix(1.00, 0.00, -0.00, -1.00, 299.3, 11.0)">H</text><text xml:space="preserve" font-family="TrebuchetMS" font-size="8.0" fill="#CCCCCC" transform="matrix(1.00, 0.00, -0.00, -1.00, 304.8, 11.0)">e</text><text xml:space="preserve" font-family="TrebuchetMS" font-size="8.0" fill="#CCCCCC" transform="matrix(1.00, 0.00, -0.00, -1.00, 309.3, 11.0)">f</text><text xml:space="preserve" font-family="TrebuchetMS" font-size="8.0" fill="#CCCCCC" transform="matrix(1.00, 0.00, -0.00, -1.00, 312.5, 11.0)">e</text><text xml:space="preserve" font-family="TrebuchetMS" font-size="8.0" fill="#CCCCCC" transform="matrix(1.00, 0.00, -0.00, -1.00, 317.0, 11.0)">l</text><text xml:space="preserve" font-family="TrebuchetMS" font-size="8.0" fill="#CCCCCC" transform="matrix(1.00, 0.00, -0.00, -1.00, 319.6, 11.0)">l</text><text xml:space="preserve" font-family="TrebuchetMS" font-size="8.0" fill="#CCCCCC" transform="matrix(1.00, 0.00, -0.00, -1.00, 322.2, 11.0)">e</text><text xml:space="preserve" font-family="TrebuchetMS" font-size="8.0" fill="#CCCCCC" transform="matrix(1.00, 0.00, -0.00, -1.00, 326.7, 11.0)">,</text><text xml:space="preserve" font-family="TrebuchetMS" font-size="8.0" fill="#CCCCCC" transform="matrix(1.00, 0.00, -0.00, -1.00, 329.9, 11.0)"> </text><text xml:space="preserve" font-family="TrebuchetMS" font-size="8.0" fill="#CCCCCC" transform="matrix(1.00, 0.00, -0.00, -1.00, 332.5, 11.0)">2</text><text xml:space="preserve" font-family="TrebuchetMS" font-size="8.0" fill="#CCCCCC" transform="matrix(1.00, 0.00, -0.00, -1.00, 336.9, 11.0)">0</text><text xml:space="preserve" font-family="TrebuchetMS" font-size="8.0" fill="#CCCCCC" transform="matrix(1.00, 0.00, -0.00, -1.00, 341.3, 11.0)">.</text><text xml:space="preserve" font-family="TrebuchetMS" font-size="8.0" fill="#CCCCCC" transform="matrix(1.00, 0.00, -0.00, -1.00, 344.4, 11.0)"> </text><text xml:space="preserve" font-family="TrebuchetMS" font-size="8.0" fill="#CCCCCC" transform="matrix(1.00, 0.00, -0.00, -1.00, 346.6, 11.0)">A</text><text xml:space="preserve" font-family="TrebuchetMS" font-size="8.0" fill="#CCCCCC" transform="matrix(1.00, 0.00, -0.00, -1.00, 351.5, 11.0)">p</text><text xml:space="preserve" font-family="TrebuchetMS" font-size="8.0" fill="#CCCCCC" transform="matrix(1.00, 0.00, -0.00, -1.00, 356.2, 11.0)">r</text><text xml:space="preserve" font-family="TrebuchetMS" font-size="8.0" fill="#CCCCCC" transform="matrix(1.00, 0.00, -0.00, -1.00, 359.5, 11.0)">i</text><text xml:space="preserve" font-family="TrebuchetMS" font-size="8.0" fill="#CCCCCC" transform="matrix(1.00, 0.00, -0.00, -1.00, 362.0, 11.0)">l</text><text xml:space="preserve" font-family="TrebuchetMS" font-size="8.0" fill="#CCCCCC" transform="matrix(1.00, 0.00, -0.00, -1.00, 364.5, 11.0)"> </text><text xml:space="preserve" font-family="TrebuchetMS" font-size="8.0" fill="#CCCCCC" transform="matrix(1.00, 0.00, -0.00, -1.00, 367.1, 11.0)">2</text><text xml:space="preserve" font-family="TrebuchetMS" font-size="8.0" fill="#CCCCCC" transform="matrix(1.00, 0.00, -0.00, -1.00, 371.5, 11.0)">0</text><text xml:space="preserve" font-family="TrebuchetMS" font-size="8.0" fill="#CCCCCC" transform="matrix(1.00, 0.00, -0.00, -1.00, 375.9, 11.0)">1</text><text xml:space="preserve" font-family="TrebuchetMS" font-size="8.0" fill="#CCCCCC" transform="matrix(1.00, 0.00, -0.00, -1.00, 380.3, 11.0)">6</text><path d="M 0.0 0.0 L 13.0 0.0 " fill="none" stroke="#CCCCCC" stroke-width="0.25" stroke-linejoin="round" transform="matrix(0.00, -1.00, -1.00, 0.00, 87.0, 20.2)"></path><image xlink:href="../../99926EC3-3614-4C70-A445-D3AA65276E24/assets/FCA234F62485E16A639918F8658267AA.png" width="38.00" height="13.00" transform="matrix(0.97, 0.00, -0.00, -1.00, 37.0, 19.0)"></image><text xml:space="preserve" font-family="TrebuchetMS" font-size="10.0" fill="#CCCCCC" transform="matrix(1.00, 0.00, -0.00, -1.00, 676.8, 11.0)">3</text><text xml:space="preserve" font-family="TrebuchetMS" font-size="10.0" fill="#CCCCCC" transform="matrix(1.00, 0.00, -0.00, -1.00, 682.1, 11.0)">9</text><image xlink:href="../../E3CCD7FC-4CC6-4379-8F12-393AEC6D6D66/assets/D8EAC996D507BFBCE2171B60B53A42D7.png" width="726.00" height="79.00" transform="matrix(1.00, 0.00, -0.00, -1.01, -3.0, 542.7)" opacity="0.30"></image><path d="M 0.0 541.7 L 720.0 541.7 L 720.0 468.3 L 0.0 468.3 Z M 0.0 541.7 " fill="#FFFFFF"></path><g><clipPath id="clip-335"><path d="M -5.6 468.3 L 725.6 468.3 L 725.6 541.7 L -5.6 541.7 Z M -5.6 468.3 "></path></clipPath><g clip-path="url(#clip-335)"><text xml:space="preserve" font-family="Arial-Black" font-weight="bold" font-size="26.0" fill="#454447" transform="matrix(1.00, 0.00, -0.00, -1.00, 4.0, 495.0)">E</text><text xml:space="preserve" font-family="Arial-Black" font-weight="bold" font-size="26.0" fill="#454447" transform="matrix(1.00, 0.00, -0.00, -1.00, 22.8, 495.0)">P</text><text xml:space="preserve" font-family="Arial-Black" font-weight="bold" font-size="26.0" fill="#454447" transform="matrix(1.00, 0.00, -0.00, -1.00, 39.4, 495.0)">A</text><text xml:space="preserve" font-family="Arial-Black" font-weight="bold" font-size="26.0" fill="#454447" transform="matrix(1.00, 0.00, -0.00, -1.00, 59.6, 495.0)">M</text><text xml:space="preserve" font-family="Arial-Black" font-weight="bold" font-size="26.0" fill="#454447" transform="matrix(1.00, 0.00, -0.00, -1.00, 84.1, 495.0)">S</text><text xml:space="preserve" font-family="Arial-Black" font-weight="bold" font-size="26.0" fill="#454447" transform="matrix(1.00, 0.00, -0.00, -1.00, 102.9, 495.0)"> </text><text xml:space="preserve" font-family="Arial-Black" font-weight="bold" font-size="26.0" fill="#454447" transform="matrix(1.00, 0.00, -0.00, -1.00, 111.6, 495.0)">E</text><text xml:space="preserve" font-family="Arial-Black" font-weight="bold" font-size="26.0" fill="#454447" transform="matrix(1.00, 0.00, -0.00, -1.00, 130.4, 495.0)">N</text><text xml:space="preserve" font-family="Arial-Black" font-weight="bold" font-size="26.0" fill="#454447" transform="matrix(1.00, 0.00, -0.00, -1.00, 152.0, 495.0)">G</text><text xml:space="preserve" font-family="Arial-Black" font-weight="bold" font-size="26.0" fill="#454447" transform="matrix(1.00, 0.00, -0.00, -1.00, 173.7, 495.0)">A</text><text xml:space="preserve" font-family="Arial-Black" font-weight="bold" font-size="26.0" fill="#454447" transform="matrix(1.00, 0.00, -0.00, -1.00, 193.4, 495.0)">G</text><text xml:space="preserve" font-family="Arial-Black" font-weight="bold" font-size="26.0" fill="#454447" transform="matrix(1.00, 0.00, -0.00, -1.00, 215.1, 495.0)">E</text><text xml:space="preserve" font-family="Arial-Black" font-weight="bold" font-size="26.0" fill="#454447" transform="matrix(1.00, 0.00, -0.00, -1.00, 233.9, 495.0)">M</text><text xml:space="preserve" font-family="Arial-Black" font-weight="bold" font-size="26.0" fill="#454447" transform="matrix(1.00, 0.00, -0.00, -1.00, 258.4, 495.0)">E</text><text xml:space="preserve" font-family="Arial-Black" font-weight="bold" font-size="26.0" fill="#454447" transform="matrix(1.00, 0.00, -0.00, -1.00, 277.2, 495.0)">N</text><text xml:space="preserve" font-family="Arial-Black" font-weight="bold" font-size="26.0" fill="#454447" transform="matrix(1.00, 0.00, -0.00, -1.00, 298.8, 495.0)">T</text><text xml:space="preserve" font-family="Arial-Black" font-weight="bold" font-size="26.0" fill="#454447" transform="matrix(1.00, 0.00, -0.00, -1.00, 317.6, 495.0)"> </text><text xml:space="preserve" font-family="Arial-Black" font-weight="bold" font-size="26.0" fill="#454447" transform="matrix(1.00, 0.00, -0.00, -1.00, 326.3, 495.0)">F</text><text xml:space="preserve" font-family="Arial-Black" font-weight="bold" font-size="26.0" fill="#454447" transform="matrix(1.00, 0.00, -0.00, -1.00, 343.6, 495.0)">O</text><text xml:space="preserve" font-family="Arial-Black" font-weight="bold" font-size="26.0" fill="#454447" transform="matrix(1.00, 0.00, -0.00, -1.00, 365.3, 495.0)">R</text><text xml:space="preserve" font-family="Arial-Black" font-weight="bold" font-size="26.0" fill="#454447" transform="matrix(1.00, 0.00, -0.00, -1.00, 385.5, 495.0)"> </text><text xml:space="preserve" font-family="Arial-Black" font-weight="bold" font-size="26.0" fill="#454447" transform="matrix(1.00, 0.00, -0.00, -1.00, 394.2, 495.0)">T</text><text xml:space="preserve" font-family="Arial-Black" font-weight="bold" font-size="26.0" fill="#454447" transform="matrix(1.00, 0.00, -0.00, -1.00, 413.0, 495.0)">H</text><text xml:space="preserve" font-family="Arial-Black" font-weight="bold" font-size="26.0" fill="#454447" transform="matrix(1.00, 0.00, -0.00, -1.00, 434.6, 495.0)">E</text><text xml:space="preserve" font-family="Arial-Black" font-weight="bold" font-size="26.0" fill="#454447" transform="matrix(1.00, 0.00, -0.00, -1.00, 453.4, 495.0)"> </text><text xml:space="preserve" font-family="Arial-Black" font-weight="bold" font-size="26.0" fill="#454447" transform="matrix(1.00, 0.00, -0.00, -1.00, 462.1, 495.0)">N</text><text xml:space="preserve" font-family="Arial-Black" font-weight="bold" font-size="26.0" fill="#454447" transform="matrix(1.00, 0.00, -0.00, -1.00, 483.8, 495.0)">E</text><text xml:space="preserve" font-family="Arial-Black" font-weight="bold" font-size="26.0" fill="#454447" transform="matrix(1.00, 0.00, -0.00, -1.00, 502.5, 495.0)">X</text><text xml:space="preserve" font-family="Arial-Black" font-weight="bold" font-size="26.0" fill="#454447" transform="matrix(1.00, 0.00, -0.00, -1.00, 522.8, 495.0)">T</text><text xml:space="preserve" font-family="Arial-Black" font-weight="bold" font-size="26.0" fill="#454447" transform="matrix(1.00, 0.00, -0.00, -1.00, 541.5, 495.0)"> </text><text xml:space="preserve" font-family="Arial-Black" font-weight="bold" font-size="26.0" fill="#454447" transform="matrix(1.00, 0.00, -0.00, -1.00, 550.2, 495.0)">3</text><text xml:space="preserve" font-family="Arial-Black" font-weight="bold" font-size="26.0" fill="#454447" transform="matrix(1.00, 0.00, -0.00, -1.00, 567.6, 495.0)"> </text><text xml:space="preserve" font-family="Arial-Black" font-weight="bold" font-size="26.0" fill="#454447" transform="matrix(1.00, 0.00, -0.00, -1.00, 576.3, 495.0)">Y</text><text xml:space="preserve" font-family="Arial-Black" font-weight="bold" font-size="26.0" fill="#454447" transform="matrix(1.00, 0.00, -0.00, -1.00, 596.5, 495.0)">E</text><text xml:space="preserve" font-family="Arial-Black" font-weight="bold" font-size="26.0" fill="#454447" transform="matrix(1.00, 0.00, -0.00, -1.00, 615.3, 495.0)">A</text><text xml:space="preserve" font-family="Arial-Black" font-weight="bold" font-size="26.0" fill="#454447" transform="matrix(1.00, 0.00, -0.00, -1.00, 635.5, 495.0)">R</text><text xml:space="preserve" font-family="Arial-Black" font-weight="bold" font-size="26.0" fill="#454447" transform="matrix(1.00, 0.00, -0.00, -1.00, 655.7, 495.0)">S</text></g></g><text xml:space="preserve" font-family="ArialMT" font-size="21.0" fill="#38C1D7" transform="matrix(1.00, 0.00, -0.00, -1.00, 13.6, 342.7)">•</text><text xml:space="preserve" font-family="TrebuchetMS" font-size="21.0" fill="#000000" transform="matrix(1.00, 0.00, -0.00, -1.00, 24.0, 342.0)">F</text><text xml:space="preserve" font-family="TrebuchetMS" font-size="21.0" fill="#000000" transform="matrix(1.00, 0.00, -0.00, -1.00, 35.0, 342.0)">o</text><text xml:space="preserve" font-family="TrebuchetMS" font-size="21.0" fill="#000000" transform="matrix(1.00, 0.00, -0.00, -1.00, 46.3, 342.0)">c</text><text xml:space="preserve" font-family="TrebuchetMS" font-size="21.0" fill="#000000" transform="matrix(1.00, 0.00, -0.00, -1.00, 56.7, 342.0)">u</text><text xml:space="preserve" font-family="TrebuchetMS" font-size="21.0" fill="#000000" transform="matrix(1.00, 0.00, -0.00, -1.00, 68.2, 342.0)">s</text><text xml:space="preserve" font-family="TrebuchetMS" font-size="21.0" fill="#000000" transform="matrix(1.00, 0.00, -0.00, -1.00, 76.7, 342.0)"> </text><text xml:space="preserve" font-family="TrebuchetMS" font-size="21.0" fill="#000000" transform="matrix(1.00, 0.00, -0.00, -1.00, 83.0, 342.0)">t</text><text xml:space="preserve" font-family="TrebuchetMS" font-size="21.0" fill="#000000" transform="matrix(1.00, 0.00, -0.00, -1.00, 91.3, 342.0)">o</text><text xml:space="preserve" font-family="TrebuchetMS" font-size="21.0" fill="#000000" transform="matrix(1.00, 0.00, -0.00, -1.00, 102.6, 342.0)"> </text><text xml:space="preserve" font-family="TrebuchetMS" font-size="21.0" fill="#000000" transform="matrix(1.00, 0.00, -0.00, -1.00, 108.9, 342.0)">f</text><text xml:space="preserve" font-family="TrebuchetMS" font-size="21.0" fill="#000000" transform="matrix(1.00, 0.00, -0.00, -1.00, 116.7, 342.0)">i</text><text xml:space="preserve" font-family="TrebuchetMS" font-size="21.0" fill="#000000" transform="matrix(1.00, 0.00, -0.00, -1.00, 122.7, 342.0)">n</text><text xml:space="preserve" font-family="TrebuchetMS" font-size="21.0" fill="#000000" transform="matrix(1.00, 0.00, -0.00, -1.00, 134.2, 342.0)">t</text><text xml:space="preserve" font-family="TrebuchetMS" font-size="21.0" fill="#000000" transform="matrix(1.00, 0.00, -0.00, -1.00, 142.5, 342.0)">e</text><text xml:space="preserve" font-family="TrebuchetMS" font-size="21.0" fill="#000000" transform="matrix(1.00, 0.00, -0.00, -1.00, 154.0, 342.0)">c</text><text xml:space="preserve" font-family="TrebuchetMS" font-size="21.0" fill="#000000" transform="matrix(1.00, 0.00, -0.00, -1.00, 164.4, 342.0)">h</text><text xml:space="preserve" font-family="TrebuchetMS" font-size="21.0" fill="#000000" transform="matrix(1.00, 0.00, -0.00, -1.00, 175.9, 342.0)"> </text><text xml:space="preserve" font-family="TrebuchetMS" font-size="21.0" fill="#000000" transform="matrix(1.00, 0.00, -0.00, -1.00, 182.2, 342.0)">i</text><text xml:space="preserve" font-family="TrebuchetMS" font-size="21.0" fill="#000000" transform="matrix(1.00, 0.00, -0.00, -1.00, 188.2, 342.0)">n</text><text xml:space="preserve" font-family="TrebuchetMS" font-size="21.0" fill="#000000" transform="matrix(1.00, 0.00, -0.00, -1.00, 199.7, 342.0)">n</text><text xml:space="preserve" font-family="TrebuchetMS" font-size="21.0" fill="#000000" transform="matrix(1.00, 0.00, -0.00, -1.00, 211.2, 342.0)">o</text><text xml:space="preserve" font-family="TrebuchetMS" font-size="21.0" fill="#000000" transform="matrix(1.00, 0.00, -0.00, -1.00, 222.4, 342.0)">v</text><text xml:space="preserve" font-family="TrebuchetMS" font-size="21.0" fill="#000000" transform="matrix(1.00, 0.00, -0.00, -1.00, 232.7, 342.0)">a</text><text xml:space="preserve" font-family="TrebuchetMS" font-size="21.0" fill="#000000" transform="matrix(1.00, 0.00, -0.00, -1.00, 243.8, 342.0)">t</text><text xml:space="preserve" font-family="TrebuchetMS" font-size="21.0" fill="#000000" transform="matrix(1.00, 0.00, -0.00, -1.00, 252.1, 342.0)">i</text><text xml:space="preserve" font-family="TrebuchetMS" font-size="21.0" fill="#000000" transform="matrix(1.00, 0.00, -0.00, -1.00, 258.1, 342.0)">o</text><text xml:space="preserve" font-family="TrebuchetMS" font-size="21.0" fill="#000000" transform="matrix(1.00, 0.00, -0.00, -1.00, 269.4, 342.0)">n</text><text xml:space="preserve" font-family="TrebuchetMS" font-size="21.0" fill="#000000" transform="matrix(1.00, 0.00, -0.00, -1.00, 280.9, 342.0)">s</text><text xml:space="preserve" font-family="ArialMT" font-size="21.0" fill="#38C1D7" transform="matrix(1.00, 0.00, -0.00, -1.00, 13.6, 292.7)">•</text><text xml:space="preserve" font-family="TrebuchetMS" font-size="21.0" fill="#000000" transform="matrix(1.00, 0.00, -0.00, -1.00, 24.0, 292.0)">S</text><text xml:space="preserve" font-family="TrebuchetMS" font-size="21.0" fill="#000000" transform="matrix(1.00, 0.00, -0.00, -1.00, 34.1, 292.0)">p</text><text xml:space="preserve" font-family="TrebuchetMS" font-size="21.0" fill="#000000" transform="matrix(1.00, 0.00, -0.00, -1.00, 45.8, 292.0)">o</text><text xml:space="preserve" font-family="TrebuchetMS" font-size="21.0" fill="#000000" transform="matrix(1.00, 0.00, -0.00, -1.00, 57.1, 292.0)">n</text><text xml:space="preserve" font-family="TrebuchetMS" font-size="21.0" fill="#000000" transform="matrix(1.00, 0.00, -0.00, -1.00, 68.5, 292.0)">s</text><text xml:space="preserve" font-family="TrebuchetMS" font-size="21.0" fill="#000000" transform="matrix(1.00, 0.00, -0.00, -1.00, 77.0, 292.0)">o</text><text xml:space="preserve" font-family="TrebuchetMS" font-size="21.0" fill="#000000" transform="matrix(1.00, 0.00, -0.00, -1.00, 88.3, 292.0)">r</text><text xml:space="preserve" font-family="TrebuchetMS" font-size="21.0" fill="#000000" transform="matrix(1.00, 0.00, -0.00, -1.00, 96.5, 292.0)"> </text><text xml:space="preserve" font-family="TrebuchetMS" font-size="21.0" fill="#000000" transform="matrix(1.00, 0.00, -0.00, -1.00, 102.8, 292.0)">t</text><text xml:space="preserve" font-family="TrebuchetMS" font-size="21.0" fill="#000000" transform="matrix(1.00, 0.00, -0.00, -1.00, 111.1, 292.0)">e</text><text xml:space="preserve" font-family="TrebuchetMS" font-size="21.0" fill="#000000" transform="matrix(1.00, 0.00, -0.00, -1.00, 122.6, 292.0)">c</text><text xml:space="preserve" font-family="TrebuchetMS" font-size="21.0" fill="#000000" transform="matrix(1.00, 0.00, -0.00, -1.00, 133.0, 292.0)">h</text><text xml:space="preserve" font-family="TrebuchetMS" font-size="21.0" fill="#000000" transform="matrix(1.00, 0.00, -0.00, -1.00, 144.5, 292.0)">n</text><text xml:space="preserve" font-family="TrebuchetMS" font-size="21.0" fill="#000000" transform="matrix(1.00, 0.00, -0.00, -1.00, 156.0, 292.0)">o</text><text xml:space="preserve" font-family="TrebuchetMS" font-size="21.0" fill="#000000" transform="matrix(1.00, 0.00, -0.00, -1.00, 167.2, 292.0)">l</text><text xml:space="preserve" font-family="TrebuchetMS" font-size="21.0" fill="#000000" transform="matrix(1.00, 0.00, -0.00, -1.00, 173.4, 292.0)">o</text><text xml:space="preserve" font-family="TrebuchetMS" font-size="21.0" fill="#000000" transform="matrix(1.00, 0.00, -0.00, -1.00, 184.7, 292.0)">g</text><text xml:space="preserve" font-family="TrebuchetMS" font-size="21.0" fill="#000000" transform="matrix(1.00, 0.00, -0.00, -1.00, 195.2, 292.0)">y</text><text xml:space="preserve" font-family="TrebuchetMS" font-size="21.0" fill="#000000" transform="matrix(1.00, 0.00, -0.00, -1.00, 205.6, 292.0)"> </text><text xml:space="preserve" font-family="TrebuchetMS" font-size="21.0" fill="#000000" transform="matrix(1.00, 0.00, -0.00, -1.00, 211.9, 292.0)">e</text><text xml:space="preserve" font-family="TrebuchetMS" font-size="21.0" fill="#000000" transform="matrix(1.00, 0.00, -0.00, -1.00, 223.4, 292.0)">v</text><text xml:space="preserve" font-family="TrebuchetMS" font-size="21.0" fill="#000000" transform="matrix(1.00, 0.00, -0.00, -1.00, 233.6, 292.0)">e</text><text xml:space="preserve" font-family="TrebuchetMS" font-size="21.0" fill="#000000" transform="matrix(1.00, 0.00, -0.00, -1.00, 245.1, 292.0)">n</text><text xml:space="preserve" font-family="TrebuchetMS" font-size="21.0" fill="#000000" transform="matrix(1.00, 0.00, -0.00, -1.00, 256.6, 292.0)">t</text><text xml:space="preserve" font-family="TrebuchetMS" font-size="21.0" fill="#000000" transform="matrix(1.00, 0.00, -0.00, -1.00, 264.9, 292.0)">s</text><text xml:space="preserve" font-family="ArialMT" font-size="21.0" fill="#38C1D7" transform="matrix(1.00, 0.00, -0.00, -1.00, 13.6, 242.7)">•</text><text xml:space="preserve" font-family="TrebuchetMS" font-size="21.0" fill="#000000" transform="matrix(1.00, 0.00, -0.00, -1.00, 24.0, 242.0)">D</text><text xml:space="preserve" font-family="TrebuchetMS" font-size="21.0" fill="#000000" transform="matrix(1.00, 0.00, -0.00, -1.00, 36.9, 242.0)">o</text><text xml:space="preserve" font-family="TrebuchetMS" font-size="21.0" fill="#000000" transform="matrix(1.00, 0.00, -0.00, -1.00, 48.1, 242.0)">m</text><text xml:space="preserve" font-family="TrebuchetMS" font-size="21.0" fill="#000000" transform="matrix(1.00, 0.00, -0.00, -1.00, 65.6, 242.0)">a</text><text xml:space="preserve" font-family="TrebuchetMS" font-size="21.0" fill="#000000" transform="matrix(1.00, 0.00, -0.00, -1.00, 76.6, 242.0)">i</text><text xml:space="preserve" font-family="TrebuchetMS" font-size="21.0" fill="#000000" transform="matrix(1.00, 0.00, -0.00, -1.00, 82.6, 242.0)">n</text><text xml:space="preserve" font-family="TrebuchetMS" font-size="21.0" fill="#000000" transform="matrix(1.00, 0.00, -0.00, -1.00, 94.1, 242.0)"> </text><text xml:space="preserve" font-family="TrebuchetMS" font-size="21.0" fill="#000000" transform="matrix(1.00, 0.00, -0.00, -1.00, 100.4, 242.0)">s</text><text xml:space="preserve" font-family="TrebuchetMS" font-size="21.0" fill="#000000" transform="matrix(1.00, 0.00, -0.00, -1.00, 108.9, 242.0)">p</text><text xml:space="preserve" font-family="TrebuchetMS" font-size="21.0" fill="#000000" transform="matrix(1.00, 0.00, -0.00, -1.00, 120.6, 242.0)">e</text><text xml:space="preserve" font-family="TrebuchetMS" font-size="21.0" fill="#000000" transform="matrix(1.00, 0.00, -0.00, -1.00, 132.1, 242.0)">c</text><text xml:space="preserve" font-family="TrebuchetMS" font-size="21.0" fill="#000000" transform="matrix(1.00, 0.00, -0.00, -1.00, 142.5, 242.0)">i</text><text xml:space="preserve" font-family="TrebuchetMS" font-size="21.0" fill="#000000" transform="matrix(1.00, 0.00, -0.00, -1.00, 148.5, 242.0)">f</text><text xml:space="preserve" font-family="TrebuchetMS" font-size="21.0" fill="#000000" transform="matrix(1.00, 0.00, -0.00, -1.00, 156.2, 242.0)">i</text><text xml:space="preserve" font-family="TrebuchetMS" font-size="21.0" fill="#000000" transform="matrix(1.00, 0.00, -0.00, -1.00, 162.2, 242.0)">c</text><text xml:space="preserve" font-family="TrebuchetMS" font-size="21.0" fill="#000000" transform="matrix(1.00, 0.00, -0.00, -1.00, 172.6, 242.0)"> </text><text xml:space="preserve" font-family="TrebuchetMS" font-size="21.0" fill="#000000" transform="matrix(1.00, 0.00, -0.00, -1.00, 179.0, 242.0)">c</text><text xml:space="preserve" font-family="TrebuchetMS" font-size="21.0" fill="#000000" transform="matrix(1.00, 0.00, -0.00, -1.00, 189.4, 242.0)">o</text><text xml:space="preserve" font-family="TrebuchetMS" font-size="21.0" fill="#000000" transform="matrix(1.00, 0.00, -0.00, -1.00, 200.6, 242.0)">m</text><text xml:space="preserve" font-family="TrebuchetMS" font-size="21.0" fill="#000000" transform="matrix(1.00, 0.00, -0.00, -1.00, 218.0, 242.0)">p</text><text xml:space="preserve" font-family="TrebuchetMS" font-size="21.0" fill="#000000" transform="matrix(1.00, 0.00, -0.00, -1.00, 229.8, 242.0)">e</text><text xml:space="preserve" font-family="TrebuchetMS" font-size="21.0" fill="#000000" transform="matrix(1.00, 0.00, -0.00, -1.00, 241.2, 242.0)">t</text><text xml:space="preserve" font-family="TrebuchetMS" font-size="21.0" fill="#000000" transform="matrix(1.00, 0.00, -0.00, -1.00, 249.5, 242.0)">e</text><text xml:space="preserve" font-family="TrebuchetMS" font-size="21.0" fill="#000000" transform="matrix(1.00, 0.00, -0.00, -1.00, 261.0, 242.0)">n</text><text xml:space="preserve" font-family="TrebuchetMS" font-size="21.0" fill="#000000" transform="matrix(1.00, 0.00, -0.00, -1.00, 272.5, 242.0)">c</text><text xml:space="preserve" font-family="TrebuchetMS" font-size="21.0" fill="#000000" transform="matrix(1.00, 0.00, -0.00, -1.00, 282.9, 242.0)">y</text><text xml:space="preserve" font-family="ArialMT" font-size="21.0" fill="#38C1D7" transform="matrix(1.00, 0.00, -0.00, -1.00, 13.6, 192.7)">•</text><text xml:space="preserve" font-family="TrebuchetMS" font-size="21.0" fill="#000000" transform="matrix(1.00, 0.00, -0.00, -1.00, 24.0, 192.0)">P</text><text xml:space="preserve" font-family="TrebuchetMS" font-size="21.0" fill="#000000" transform="matrix(1.00, 0.00, -0.00, -1.00, 35.7, 192.0)">O</text><text xml:space="preserve" font-family="TrebuchetMS" font-size="21.0" fill="#000000" transform="matrix(1.00, 0.00, -0.00, -1.00, 49.8, 192.0)">C</text><text xml:space="preserve" font-family="TrebuchetMS" font-size="21.0" fill="#000000" transform="matrix(1.00, 0.00, -0.00, -1.00, 62.4, 192.0)">s</text><text xml:space="preserve" font-family="TrebuchetMS" font-size="21.0" fill="#000000" transform="matrix(1.00, 0.00, -0.00, -1.00, 70.9, 192.0)"> </text><text xml:space="preserve" font-family="TrebuchetMS" font-size="21.0" fill="#000000" transform="matrix(1.00, 0.00, -0.00, -1.00, 77.2, 192.0)">/</text><text xml:space="preserve" font-family="TrebuchetMS" font-size="21.0" fill="#000000" transform="matrix(1.00, 0.00, -0.00, -1.00, 88.3, 192.0)"> </text><text xml:space="preserve" font-family="TrebuchetMS" font-size="21.0" fill="#000000" transform="matrix(1.00, 0.00, -0.00, -1.00, 94.6, 192.0)">P</text><text xml:space="preserve" font-family="TrebuchetMS" font-size="21.0" fill="#000000" transform="matrix(1.00, 0.00, -0.00, -1.00, 105.3, 192.0)">r</text><text xml:space="preserve" font-family="TrebuchetMS" font-size="21.0" fill="#000000" transform="matrix(1.00, 0.00, -0.00, -1.00, 113.5, 192.0)">o</text><text xml:space="preserve" font-family="TrebuchetMS" font-size="21.0" fill="#000000" transform="matrix(1.00, 0.00, -0.00, -1.00, 124.7, 192.0)">t</text><text xml:space="preserve" font-family="TrebuchetMS" font-size="21.0" fill="#000000" transform="matrix(1.00, 0.00, -0.00, -1.00, 133.1, 192.0)">o</text><text xml:space="preserve" font-family="TrebuchetMS" font-size="21.0" fill="#000000" transform="matrix(1.00, 0.00, -0.00, -1.00, 144.3, 192.0)">t</text><text xml:space="preserve" font-family="TrebuchetMS" font-size="21.0" fill="#000000" transform="matrix(1.00, 0.00, -0.00, -1.00, 152.7, 192.0)">y</text><text xml:space="preserve" font-family="TrebuchetMS" font-size="21.0" fill="#000000" transform="matrix(1.00, 0.00, -0.00, -1.00, 163.0, 192.0)">p</text><text xml:space="preserve" font-family="TrebuchetMS" font-size="21.0" fill="#000000" transform="matrix(1.00, 0.00, -0.00, -1.00, 174.8, 192.0)">e</text><text xml:space="preserve" font-family="TrebuchetMS" font-size="21.0" fill="#000000" transform="matrix(1.00, 0.00, -0.00, -1.00, 186.2, 192.0)">s</text><text xml:space="preserve" font-family="TrebuchetMS" font-size="21.0" fill="#000000" transform="matrix(1.00, 0.00, -0.00, -1.00, 194.7, 192.0)"> </text><text xml:space="preserve" font-family="TrebuchetMS" font-size="21.0" fill="#000000" transform="matrix(1.00, 0.00, -0.00, -1.00, 201.1, 192.0)">/</text><text xml:space="preserve" font-family="TrebuchetMS" font-size="21.0" fill="#000000" transform="matrix(1.00, 0.00, -0.00, -1.00, 212.1, 192.0)"> </text><text xml:space="preserve" font-family="TrebuchetMS" font-size="21.0" fill="#000000" transform="matrix(1.00, 0.00, -0.00, -1.00, 217.2, 192.0)">A</text><text xml:space="preserve" font-family="TrebuchetMS" font-size="21.0" fill="#000000" transform="matrix(1.00, 0.00, -0.00, -1.00, 229.6, 192.0)">c</text><text xml:space="preserve" font-family="TrebuchetMS" font-size="21.0" fill="#000000" transform="matrix(1.00, 0.00, -0.00, -1.00, 240.0, 192.0)">c</text><text xml:space="preserve" font-family="TrebuchetMS" font-size="21.0" fill="#000000" transform="matrix(1.00, 0.00, -0.00, -1.00, 250.4, 192.0)">e</text><text xml:space="preserve" font-family="TrebuchetMS" font-size="21.0" fill="#000000" transform="matrix(1.00, 0.00, -0.00, -1.00, 261.9, 192.0)">l</text><text xml:space="preserve" font-family="TrebuchetMS" font-size="21.0" fill="#000000" transform="matrix(1.00, 0.00, -0.00, -1.00, 268.1, 192.0)">e</text><text xml:space="preserve" font-family="TrebuchetMS" font-size="21.0" fill="#000000" transform="matrix(1.00, 0.00, -0.00, -1.00, 279.6, 192.0)">r</text><text xml:space="preserve" font-family="TrebuchetMS" font-size="21.0" fill="#000000" transform="matrix(1.00, 0.00, -0.00, -1.00, 287.7, 192.0)">a</text><text xml:space="preserve" font-family="TrebuchetMS" font-size="21.0" fill="#000000" transform="matrix(1.00, 0.00, -0.00, -1.00, 298.8, 192.0)">t</text><text xml:space="preserve" font-family="TrebuchetMS" font-size="21.0" fill="#000000" transform="matrix(1.00, 0.00, -0.00, -1.00, 307.1, 192.0)">o</text><text xml:space="preserve" font-family="TrebuchetMS" font-size="21.0" fill="#000000" transform="matrix(1.00, 0.00, -0.00, -1.00, 318.4, 192.0)">r</text><text xml:space="preserve" font-family="TrebuchetMS" font-size="21.0" fill="#000000" transform="matrix(1.00, 0.00, -0.00, -1.00, 326.5, 192.0)">s</text><g><clipPath id="clip-336"><path d="M 353.0 467.0 L 722.0 467.0 L 722.0 27.0 L 353.0 27.0 Z M 352.6 467.3 "></path></clipPath><g clip-path="url(#clip-336)"><image xlink:href="../../A76E6492-58DE-4362-BE15-4DA70FBF7E4A/assets/2B3105D6312FF62AF3AF23C5EA816D50.jpeg" width="570.00" height="549.00" transform="matrix(1.00, 0.00, -0.00, -1.00, 352.0, 576.0)"></image></g></g></g></svg>