<?xml version="1.0" encoding="UTF-8" standalone="no"?><svg xmlns="http://www.w3.org/2000/svg" xmlns:xlink="http://www.w3.org/1999/xlink" clip-rule="evenodd" stroke-miterlimit="4.00" viewBox="0 0 323 26"><desc>SVG generated by Keynote</desc><defs></defs><g transform="matrix(1.00, 0.00, -0.00, -1.00, 0.0, 26.0)"><text xml:space="preserve" font-family="ArialMT" font-size="21.0" fill="#38C1D7" transform="matrix(1.00, 0.00, -0.00, -1.00, 0.6, 6.7)">•</text><text xml:space="preserve" font-family="TrebuchetMS" font-size="21.0" fill="#000000" transform="matrix(1.00, 0.00, -0.00, -1.00, 11.0, 6.0)">P</text><text xml:space="preserve" font-family="TrebuchetMS" font-size="21.0" fill="#000000" transform="matrix(1.00, 0.00, -0.00, -1.00, 22.7, 6.0)">O</text><text xml:space="preserve" font-family="TrebuchetMS" font-size="21.0" fill="#000000" transform="matrix(1.00, 0.00, -0.00, -1.00, 36.8, 6.0)">C</text><text xml:space="preserve" font-family="TrebuchetMS" font-size="21.0" fill="#000000" transform="matrix(1.00, 0.00, -0.00, -1.00, 49.4, 6.0)">s</text><text xml:space="preserve" font-family="TrebuchetMS" font-size="21.0" fill="#000000" transform="matrix(1.00, 0.00, -0.00, -1.00, 57.9, 6.0)"> </text><text xml:space="preserve" font-family="TrebuchetMS" font-size="21.0" fill="#000000" transform="matrix(1.00, 0.00, -0.00, -1.00, 64.2, 6.0)">/</text><text xml:space="preserve" font-family="TrebuchetMS" font-size="21.0" fill="#000000" transform="matrix(1.00, 0.00, -0.00, -1.00, 75.3, 6.0)"> </text><text xml:space="preserve" font-family="TrebuchetMS" font-size="21.0" fill="#000000" transform="matrix(1.00, 0.00, -0.00, -1.00, 81.6, 6.0)">P</text><text xml:space="preserve" font-family="TrebuchetMS" font-size="21.0" fill="#000000" transform="matrix(1.00, 0.00, -0.00, -1.00, 92.3, 6.0)">r</text><text xml:space="preserve" font-family="TrebuchetMS" font-size="21.0" fill="#000000" transform="matrix(1.00, 0.00, -0.00, -1.00, 100.5, 6.0)">o</text><text xml:space="preserve" font-family="TrebuchetMS" font-size="21.0" fill="#000000" transform="matrix(1.00, 0.00, -0.00, -1.00, 111.7, 6.0)">t</text><text xml:space="preserve" font-family="TrebuchetMS" font-size="21.0" fill="#000000" transform="matrix(1.00, 0.00, -0.00, -1.00, 120.1, 6.0)">o</text><text xml:space="preserve" font-family="TrebuchetMS" font-size="21.0" fill="#000000" transform="matrix(1.00, 0.00, -0.00, -1.00, 131.3, 6.0)">t</text><text xml:space="preserve" font-family="TrebuchetMS" font-size="21.0" fill="#000000" transform="matrix(1.00, 0.00, -0.00, -1.00, 139.7, 6.0)">y</text><text xml:space="preserve" font-family="TrebuchetMS" font-size="21.0" fill="#000000" transform="matrix(1.00, 0.00, -0.00, -1.00, 150.0, 6.0)">p</text><text xml:space="preserve" font-family="TrebuchetMS" font-size="21.0" fill="#000000" transform="matrix(1.00, 0.00, -0.00, -1.00, 161.8, 6.0)">e</text><text xml:space="preserve" font-family="TrebuchetMS" font-size="21.0" fill="#000000" transform="matrix(1.00, 0.00, -0.00, -1.00, 173.2, 6.0)">s</text><text xml:space="preserve" font-family="TrebuchetMS" font-size="21.0" fill="#000000" transform="matrix(1.00, 0.00, -0.00, -1.00, 181.7, 6.0)"> </text><text xml:space="preserve" font-family="TrebuchetMS" font-size="21.0" fill="#000000" transform="matrix(1.00, 0.00, -0.00, -1.00, 188.1, 6.0)">/</text><text xml:space="preserve" font-family="TrebuchetMS" font-size="21.0" fill="#000000" transform="matrix(1.00, 0.00, -0.00, -1.00, 199.1, 6.0)"> </text><text xml:space="preserve" font-family="TrebuchetMS" font-size="21.0" fill="#000000" transform="matrix(1.00, 0.00, -0.00, -1.00, 204.2, 6.0)">A</text><text xml:space="preserve" font-family="TrebuchetMS" font-size="21.0" fill="#000000" transform="matrix(1.00, 0.00, -0.00, -1.00, 216.6, 6.0)">c</text><text xml:space="preserve" font-family="TrebuchetMS" font-size="21.0" fill="#000000" transform="matrix(1.00, 0.00, -0.00, -1.00, 227.0, 6.0)">c</text><text xml:space="preserve" font-family="TrebuchetMS" font-size="21.0" fill="#000000" transform="matrix(1.00, 0.00, -0.00, -1.00, 237.4, 6.0)">e</text><text xml:space="preserve" font-family="TrebuchetMS" font-size="21.0" fill="#000000" transform="matrix(1.00, 0.00, -0.00, -1.00, 248.9, 6.0)">l</text><text xml:space="preserve" font-family="TrebuchetMS" font-size="21.0" fill="#000000" transform="matrix(1.00, 0.00, -0.00, -1.00, 255.1, 6.0)">e</text><text xml:space="preserve" font-family="TrebuchetMS" font-size="21.0" fill="#000000" transform="matrix(1.00, 0.00, -0.00, -1.00, 266.6, 6.0)">r</text><text xml:space="preserve" font-family="TrebuchetMS" font-size="21.0" fill="#000000" transform="matrix(1.00, 0.00, -0.00, -1.00, 274.7, 6.0)">a</text><text xml:space="preserve" font-family="TrebuchetMS" font-size="21.0" fill="#000000" transform="matrix(1.00, 0.00, -0.00, -1.00, 285.8, 6.0)">t</text><text xml:space="preserve" font-family="TrebuchetMS" font-size="21.0" fill="#000000" transform="matrix(1.00, 0.00, -0.00, -1.00, 294.1, 6.0)">o</text><text xml:space="preserve" font-family="TrebuchetMS" font-size="21.0" fill="#000000" transform="matrix(1.00, 0.00, -0.00, -1.00, 305.4, 6.0)">r</text><text xml:space="preserve" font-family="TrebuchetMS" font-size="21.0" fill="#000000" transform="matrix(1.00, 0.00, -0.00, -1.00, 313.5, 6.0)">s</text></g></svg>