<?xml version="1.0" encoding="UTF-8" standalone="no"?><svg xmlns="http://www.w3.org/2000/svg" xmlns:xlink="http://www.w3.org/1999/xlink" clip-rule="evenodd" stroke-miterlimit="4.00" viewBox="0 0 282 26"><desc>SVG generated by Keynote</desc><defs></defs><g transform="matrix(1.00, 0.00, -0.00, -1.00, 0.0, 26.0)"><text xml:space="preserve" font-family="ArialMT" font-size="21.0" fill="#38C1D7" transform="matrix(1.00, 0.00, -0.00, -1.00, 0.6, 6.7)">•</text><text xml:space="preserve" font-family="TrebuchetMS" font-size="21.0" fill="#000000" transform="matrix(1.00, 0.00, -0.00, -1.00, 11.0, 6.0)">D</text><text xml:space="preserve" font-family="TrebuchetMS" font-size="21.0" fill="#000000" transform="matrix(1.00, 0.00, -0.00, -1.00, 23.9, 6.0)">o</text><text xml:space="preserve" font-family="TrebuchetMS" font-size="21.0" fill="#000000" transform="matrix(1.00, 0.00, -0.00, -1.00, 35.1, 6.0)">m</text><text xml:space="preserve" font-family="TrebuchetMS" font-size="21.0" fill="#000000" transform="matrix(1.00, 0.00, -0.00, -1.00, 52.6, 6.0)">a</text><text xml:space="preserve" font-family="TrebuchetMS" font-size="21.0" fill="#000000" transform="matrix(1.00, 0.00, -0.00, -1.00, 63.6, 6.0)">i</text><text xml:space="preserve" font-family="TrebuchetMS" font-size="21.0" fill="#000000" transform="matrix(1.00, 0.00, -0.00, -1.00, 69.6, 6.0)">n</text><text xml:space="preserve" font-family="TrebuchetMS" font-size="21.0" fill="#000000" transform="matrix(1.00, 0.00, -0.00, -1.00, 81.1, 6.0)"> </text><text xml:space="preserve" font-family="TrebuchetMS" font-size="21.0" fill="#000000" transform="matrix(1.00, 0.00, -0.00, -1.00, 87.4, 6.0)">s</text><text xml:space="preserve" font-family="TrebuchetMS" font-size="21.0" fill="#000000" transform="matrix(1.00, 0.00, -0.00, -1.00, 95.9, 6.0)">p</text><text xml:space="preserve" font-family="TrebuchetMS" font-size="21.0" fill="#000000" transform="matrix(1.00, 0.00, -0.00, -1.00, 107.6, 6.0)">e</text><text xml:space="preserve" font-family="TrebuchetMS" font-size="21.0" fill="#000000" transform="matrix(1.00, 0.00, -0.00, -1.00, 119.1, 6.0)">c</text><text xml:space="preserve" font-family="TrebuchetMS" font-size="21.0" fill="#000000" transform="matrix(1.00, 0.00, -0.00, -1.00, 129.5, 6.0)">i</text><text xml:space="preserve" font-family="TrebuchetMS" font-size="21.0" fill="#000000" transform="matrix(1.00, 0.00, -0.00, -1.00, 135.5, 6.0)">f</text><text xml:space="preserve" font-family="TrebuchetMS" font-size="21.0" fill="#000000" transform="matrix(1.00, 0.00, -0.00, -1.00, 143.2, 6.0)">i</text><text xml:space="preserve" font-family="TrebuchetMS" font-size="21.0" fill="#000000" transform="matrix(1.00, 0.00, -0.00, -1.00, 149.2, 6.0)">c</text><text xml:space="preserve" font-family="TrebuchetMS" font-size="21.0" fill="#000000" transform="matrix(1.00, 0.00, -0.00, -1.00, 159.6, 6.0)"> </text><text xml:space="preserve" font-family="TrebuchetMS" font-size="21.0" fill="#000000" transform="matrix(1.00, 0.00, -0.00, -1.00, 166.0, 6.0)">c</text><text xml:space="preserve" font-family="TrebuchetMS" font-size="21.0" fill="#000000" transform="matrix(1.00, 0.00, -0.00, -1.00, 176.4, 6.0)">o</text><text xml:space="preserve" font-family="TrebuchetMS" font-size="21.0" fill="#000000" transform="matrix(1.00, 0.00, -0.00, -1.00, 187.6, 6.0)">m</text><text xml:space="preserve" font-family="TrebuchetMS" font-size="21.0" fill="#000000" transform="matrix(1.00, 0.00, -0.00, -1.00, 205.0, 6.0)">p</text><text xml:space="preserve" font-family="TrebuchetMS" font-size="21.0" fill="#000000" transform="matrix(1.00, 0.00, -0.00, -1.00, 216.8, 6.0)">e</text><text xml:space="preserve" font-family="TrebuchetMS" font-size="21.0" fill="#000000" transform="matrix(1.00, 0.00, -0.00, -1.00, 228.2, 6.0)">t</text><text xml:space="preserve" font-family="TrebuchetMS" font-size="21.0" fill="#000000" transform="matrix(1.00, 0.00, -0.00, -1.00, 236.5, 6.0)">e</text><text xml:space="preserve" font-family="TrebuchetMS" font-size="21.0" fill="#000000" transform="matrix(1.00, 0.00, -0.00, -1.00, 248.0, 6.0)">n</text><text xml:space="preserve" font-family="TrebuchetMS" font-size="21.0" fill="#000000" transform="matrix(1.00, 0.00, -0.00, -1.00, 259.5, 6.0)">c</text><text xml:space="preserve" font-family="TrebuchetMS" font-size="21.0" fill="#000000" transform="matrix(1.00, 0.00, -0.00, -1.00, 269.9, 6.0)">y</text></g></svg>