<?xml version="1.0" encoding="UTF-8" standalone="no"?><svg xmlns="http://www.w3.org/2000/svg" xmlns:xlink="http://www.w3.org/1999/xlink" clip-rule="evenodd" stroke-miterlimit="4.00" viewBox="0 0 663 30"><desc>SVG generated by Keynote</desc><defs></defs><g transform="matrix(1.00, 0.00, -0.00, -1.00, 0.0, 30.0)"><text xml:space="preserve" font-family="Arial-Black" font-weight="bold" font-size="35.0" fill="#FFFFFF" transform="matrix(1.00, 0.00, -0.00, -1.00, 0.0, 3.0)">P</text><text xml:space="preserve" font-family="Arial-Black" font-weight="bold" font-size="35.0" fill="#FFFFFF" transform="matrix(1.00, 0.00, -0.00, -1.00, 22.3, 3.0)">A</text><text xml:space="preserve" font-family="Arial-Black" font-weight="bold" font-size="35.0" fill="#FFFFFF" transform="matrix(1.00, 0.00, -0.00, -1.00, 46.5, 3.0)">Y</text><text xml:space="preserve" font-family="Arial-Black" font-weight="bold" font-size="35.0" fill="#FFFFFF" transform="matrix(1.00, 0.00, -0.00, -1.00, 73.7, 3.0)">M</text><text xml:space="preserve" font-family="Arial-Black" font-weight="bold" font-size="35.0" fill="#FFFFFF" transform="matrix(1.00, 0.00, -0.00, -1.00, 106.7, 3.0)">E</text><text xml:space="preserve" font-family="Arial-Black" font-weight="bold" font-size="35.0" fill="#FFFFFF" transform="matrix(1.00, 0.00, -0.00, -1.00, 131.9, 3.0)">N</text><text xml:space="preserve" font-family="Arial-Black" font-weight="bold" font-size="35.0" fill="#FFFFFF" transform="matrix(1.00, 0.00, -0.00, -1.00, 161.1, 3.0)">T</text><text xml:space="preserve" font-family="Arial-Black" font-weight="bold" font-size="35.0" fill="#FFFFFF" transform="matrix(1.00, 0.00, -0.00, -1.00, 186.3, 3.0)"> </text><text xml:space="preserve" font-family="Arial-Black" font-weight="bold" font-size="35.0" fill="#FFFFFF" transform="matrix(1.00, 0.00, -0.00, -1.00, 198.0, 3.0)">S</text><text xml:space="preserve" font-family="Arial-Black" font-weight="bold" font-size="35.0" fill="#FFFFFF" transform="matrix(1.00, 0.00, -0.00, -1.00, 223.2, 3.0)">E</text><text xml:space="preserve" font-family="Arial-Black" font-weight="bold" font-size="35.0" fill="#FFFFFF" transform="matrix(1.00, 0.00, -0.00, -1.00, 248.5, 3.0)">R</text><text xml:space="preserve" font-family="Arial-Black" font-weight="bold" font-size="35.0" fill="#FFFFFF" transform="matrix(1.00, 0.00, -0.00, -1.00, 275.1, 3.0)">V</text><text xml:space="preserve" font-family="Arial-Black" font-weight="bold" font-size="35.0" fill="#FFFFFF" transform="matrix(1.00, 0.00, -0.00, -1.00, 302.3, 3.0)">I</text><text xml:space="preserve" font-family="Arial-Black" font-weight="bold" font-size="35.0" fill="#FFFFFF" transform="matrix(1.00, 0.00, -0.00, -1.00, 315.9, 3.0)">C</text><text xml:space="preserve" font-family="Arial-Black" font-weight="bold" font-size="35.0" fill="#FFFFFF" transform="matrix(1.00, 0.00, -0.00, -1.00, 343.1, 3.0)">E</text><text xml:space="preserve" font-family="Arial-Black" font-weight="bold" font-size="35.0" fill="#FFFFFF" transform="matrix(1.00, 0.00, -0.00, -1.00, 368.3, 3.0)"> </text><text xml:space="preserve" font-family="Arial-Black" font-weight="bold" font-size="35.0" fill="#FFFFFF" transform="matrix(1.00, 0.00, -0.00, -1.00, 380.0, 3.0)">S</text><text xml:space="preserve" font-family="Arial-Black" font-weight="bold" font-size="35.0" fill="#FFFFFF" transform="matrix(1.00, 0.00, -0.00, -1.00, 405.2, 3.0)">U</text><text xml:space="preserve" font-family="Arial-Black" font-weight="bold" font-size="35.0" fill="#FFFFFF" transform="matrix(1.00, 0.00, -0.00, -1.00, 434.4, 3.0)">C</text><text xml:space="preserve" font-family="Arial-Black" font-weight="bold" font-size="35.0" fill="#FFFFFF" transform="matrix(1.00, 0.00, -0.00, -1.00, 461.6, 3.0)">C</text><text xml:space="preserve" font-family="Arial-Black" font-weight="bold" font-size="35.0" fill="#FFFFFF" transform="matrix(1.00, 0.00, -0.00, -1.00, 488.7, 3.0)">E</text><text xml:space="preserve" font-family="Arial-Black" font-weight="bold" font-size="35.0" fill="#FFFFFF" transform="matrix(1.00, 0.00, -0.00, -1.00, 514.0, 3.0)">S</text><text xml:space="preserve" font-family="Arial-Black" font-weight="bold" font-size="35.0" fill="#FFFFFF" transform="matrix(1.00, 0.00, -0.00, -1.00, 539.2, 3.0)">S</text><text xml:space="preserve" font-family="Arial-Black" font-weight="bold" font-size="35.0" fill="#FFFFFF" transform="matrix(1.00, 0.00, -0.00, -1.00, 564.5, 3.0)">F</text><text xml:space="preserve" font-family="Arial-Black" font-weight="bold" font-size="35.0" fill="#FFFFFF" transform="matrix(1.00, 0.00, -0.00, -1.00, 587.8, 3.0)">U</text><text xml:space="preserve" font-family="Arial-Black" font-weight="bold" font-size="35.0" fill="#FFFFFF" transform="matrix(1.00, 0.00, -0.00, -1.00, 616.9, 3.0)">L</text><text xml:space="preserve" font-family="Arial-Black" font-weight="bold" font-size="35.0" fill="#FFFFFF" transform="matrix(1.00, 0.00, -0.00, -1.00, 640.3, 3.0)">?</text></g></svg>