<?xml version="1.0" encoding="UTF-8" standalone="no"?><svg xmlns="http://www.w3.org/2000/svg" xmlns:xlink="http://www.w3.org/1999/xlink" clip-rule="evenodd" stroke-miterlimit="4.00" viewBox="0 0 720 540"><desc>SVG generated by Keynote</desc><defs></defs><g transform="matrix(1.00, 0.00, -0.00, -1.00, 0.0, 540.0)"><path d="M 0.0 540.0 L 720.0 540.0 L 720.0 0.0 L 0.0 0.0 Z M 0.0 540.0 " fill="#FFFFFF"></path><path d="M 0.0 28.1 L 720.0 28.1 L 720.0 -0.7 L 0.0 -0.7 Z M 0.0 28.1 " fill="#454447"></path><text xml:space="preserve" font-family="TrebuchetMS" font-size="8.0" fill="#CCCCCC" transform="matrix(1.00, 0.00, -0.00, -1.00, 96.0, 11.0)">C</text><text xml:space="preserve" font-family="TrebuchetMS" font-size="8.0" fill="#CCCCCC" transform="matrix(1.00, 0.00, -0.00, -1.00, 101.0, 11.0)">O</text><text xml:space="preserve" font-family="TrebuchetMS" font-size="8.0" fill="#CCCCCC" transform="matrix(1.00, 0.00, -0.00, -1.00, 106.6, 11.0)">N</text><text xml:space="preserve" font-family="TrebuchetMS" font-size="8.0" fill="#CCCCCC" transform="matrix(1.00, 0.00, -0.00, -1.00, 111.9, 11.0)">F</text><text xml:space="preserve" font-family="TrebuchetMS" font-size="8.0" fill="#CCCCCC" transform="matrix(1.00, 0.00, -0.00, -1.00, 116.3, 11.0)">I</text><text xml:space="preserve" font-family="TrebuchetMS" font-size="8.0" fill="#CCCCCC" transform="matrix(1.00, 0.00, -0.00, -1.00, 118.7, 11.0)">D</text><text xml:space="preserve" font-family="TrebuchetMS" font-size="8.0" fill="#CCCCCC" transform="matrix(1.00, 0.00, -0.00, -1.00, 123.8, 11.0)">E</text><text xml:space="preserve" font-family="TrebuchetMS" font-size="8.0" fill="#CCCCCC" transform="matrix(1.00, 0.00, -0.00, -1.00, 128.3, 11.0)">N</text><text xml:space="preserve" font-family="TrebuchetMS" font-size="8.0" fill="#CCCCCC" transform="matrix(1.00, 0.00, -0.00, -1.00, 133.6, 11.0)">T</text><text xml:space="preserve" font-family="TrebuchetMS" font-size="8.0" fill="#CCCCCC" transform="matrix(1.00, 0.00, -0.00, -1.00, 138.4, 11.0)">I</text><text xml:space="preserve" font-family="TrebuchetMS" font-size="8.0" fill="#CCCCCC" transform="matrix(1.00, 0.00, -0.00, -1.00, 140.9, 11.0)">A</text><text xml:space="preserve" font-family="TrebuchetMS" font-size="8.0" fill="#CCCCCC" transform="matrix(1.00, 0.00, -0.00, -1.00, 145.8, 11.0)">L</text><path d="M 0.0 0.0 L 13.0 0.0 " fill="none" stroke="#CCCCCC" stroke-width="0.25" stroke-linejoin="round" transform="matrix(0.00, -1.00, -1.00, 0.00, 87.0, 20.2)"></path><image xlink:href="../../99926EC3-3614-4C70-A445-D3AA65276E24/assets/FCA234F62485E16A639918F8658267AA.png" width="38.00" height="13.00" transform="matrix(0.97, 0.00, -0.00, -1.00, 37.0, 19.0)"></image><path d="M 0.0 40.0 L 720.0 40.0 L 720.0 0.0 L 0.0 0.0 Z M 0.0 40.0 " fill="#FFFFFF"></path><text xml:space="preserve" font-family="TrebuchetMS" font-size="10.0" fill="#CCCCCC" transform="matrix(1.00, 0.00, -0.00, -1.00, 682.1, 11.0)">9</text><g><clipPath id="clip-52"><path d="M -1.0 551.0 L 721.0 551.0 L 721.0 -11.0 L -1.0 -11.0 Z M -0.8 550.8 "></path></clipPath><g clip-path="url(#clip-52)"><image xlink:href="../../B90207BE-0CE3-47E9-AD1B-6FF349D9FAD4/assets/E2EBC759CB2D6FDAF9ACC84C2462E834.jpeg" width="842.00" height="561.00" transform="matrix(1.00, 0.00, -0.00, -1.00, -111.0, 551.0)"></image></g></g><path d="M 21.9 230.8 L 555.0 230.8 L 555.0 176.5 L 21.9 176.5 Z M 21.9 230.8 " fill="#2EC1D9"></path><g><clipPath id="clip-53"><path d="M 11.7 167.4 L 565.2 167.4 L 565.2 241.0 L 11.7 241.0 Z M 11.7 167.4 "></path></clipPath><g clip-path="url(#clip-53)"><text xml:space="preserve" font-family="Arial-Black" font-weight="bold" font-size="35.0" fill="#FFFFFF" transform="matrix(1.00, 0.00, -0.00, -1.00, 24.0, 191.0)">W</text><text xml:space="preserve" font-family="Arial-Black" font-weight="bold" font-size="35.0" fill="#FFFFFF" transform="matrix(1.00, 0.00, -0.00, -1.00, 59.0, 191.0)">H</text><text xml:space="preserve" font-family="Arial-Black" font-weight="bold" font-size="35.0" fill="#FFFFFF" transform="matrix(1.00, 0.00, -0.00, -1.00, 88.1, 191.0)">A</text><text xml:space="preserve" font-family="Arial-Black" font-weight="bold" font-size="35.0" fill="#FFFFFF" transform="matrix(1.00, 0.00, -0.00, -1.00, 112.9, 191.0)">T</text><text xml:space="preserve" font-family="Arial-Black" font-weight="bold" font-size="35.0" fill="#FFFFFF" transform="matrix(1.00, 0.00, -0.00, -1.00, 138.1, 191.0)"> </text><text xml:space="preserve" font-family="Arial-Black" font-weight="bold" font-size="35.0" fill="#FFFFFF" transform="matrix(1.00, 0.00, -0.00, -1.00, 149.8, 191.0)">M</text><text xml:space="preserve" font-family="Arial-Black" font-weight="bold" font-size="35.0" fill="#FFFFFF" transform="matrix(1.00, 0.00, -0.00, -1.00, 182.8, 191.0)">A</text><text xml:space="preserve" font-family="Arial-Black" font-weight="bold" font-size="35.0" fill="#FFFFFF" transform="matrix(1.00, 0.00, -0.00, -1.00, 210.0, 191.0)">K</text><text xml:space="preserve" font-family="Arial-Black" font-weight="bold" font-size="35.0" fill="#FFFFFF" transform="matrix(1.00, 0.00, -0.00, -1.00, 239.1, 191.0)">E</text><text xml:space="preserve" font-family="Arial-Black" font-weight="bold" font-size="35.0" fill="#FFFFFF" transform="matrix(1.00, 0.00, -0.00, -1.00, 264.3, 191.0)">S</text><text xml:space="preserve" font-family="Arial-Black" font-weight="bold" font-size="35.0" fill="#FFFFFF" transform="matrix(1.00, 0.00, -0.00, -1.00, 289.6, 191.0)"> </text><text xml:space="preserve" font-family="Arial-Black" font-weight="bold" font-size="35.0" fill="#FFFFFF" transform="matrix(1.00, 0.00, -0.00, -1.00, 301.3, 191.0)">A</text><text xml:space="preserve" font-family="Arial-Black" font-weight="bold" font-size="35.0" fill="#FFFFFF" transform="matrix(1.00, 0.00, -0.00, -1.00, 328.5, 191.0)"> </text><text xml:space="preserve" font-family="Arial-Black" font-weight="bold" font-size="35.0" fill="#FFFFFF" transform="matrix(1.00, 0.00, -0.00, -1.00, 340.1, 191.0)">C</text><text xml:space="preserve" font-family="Arial-Black" font-weight="bold" font-size="35.0" fill="#FFFFFF" transform="matrix(1.00, 0.00, -0.00, -1.00, 367.3, 191.0)">A</text><text xml:space="preserve" font-family="Arial-Black" font-weight="bold" font-size="35.0" fill="#FFFFFF" transform="matrix(1.00, 0.00, -0.00, -1.00, 394.5, 191.0)">S</text><text xml:space="preserve" font-family="Arial-Black" font-weight="bold" font-size="35.0" fill="#FFFFFF" transform="matrix(1.00, 0.00, -0.00, -1.00, 419.8, 191.0)">H</text><text xml:space="preserve" font-family="Arial-Black" font-weight="bold" font-size="35.0" fill="#FFFFFF" transform="matrix(1.00, 0.00, -0.00, -1.00, 448.9, 191.0)">L</text><text xml:space="preserve" font-family="Arial-Black" font-weight="bold" font-size="35.0" fill="#FFFFFF" transform="matrix(1.00, 0.00, -0.00, -1.00, 472.2, 191.0)">E</text><text xml:space="preserve" font-family="Arial-Black" font-weight="bold" font-size="35.0" fill="#FFFFFF" transform="matrix(1.00, 0.00, -0.00, -1.00, 497.5, 191.0)">S</text><text xml:space="preserve" font-family="Arial-Black" font-weight="bold" font-size="35.0" fill="#FFFFFF" transform="matrix(1.00, 0.00, -0.00, -1.00, 522.7, 191.0)">S</text></g></g><path d="M 21.9 176.8 L 689.5 176.8 L 689.5 122.5 L 21.9 122.5 Z M 21.9 176.8 " fill="#2EC1D9"></path><text xml:space="preserve" font-family="Arial-Black" font-weight="bold" font-size="35.0" fill="#FFFFFF" transform="matrix(1.00, 0.00, -0.00, -1.00, 24.0, 137.0)">P</text><text xml:space="preserve" font-family="Arial-Black" font-weight="bold" font-size="35.0" fill="#FFFFFF" transform="matrix(1.00, 0.00, -0.00, -1.00, 46.3, 137.0)">A</text><text xml:space="preserve" font-family="Arial-Black" font-weight="bold" font-size="35.0" fill="#FFFFFF" transform="matrix(1.00, 0.00, -0.00, -1.00, 70.5, 137.0)">Y</text><text xml:space="preserve" font-family="Arial-Black" font-weight="bold" font-size="35.0" fill="#FFFFFF" transform="matrix(1.00, 0.00, -0.00, -1.00, 97.7, 137.0)">M</text><text xml:space="preserve" font-family="Arial-Black" font-weight="bold" font-size="35.0" fill="#FFFFFF" transform="matrix(1.00, 0.00, -0.00, -1.00, 130.7, 137.0)">E</text><text xml:space="preserve" font-family="Arial-Black" font-weight="bold" font-size="35.0" fill="#FFFFFF" transform="matrix(1.00, 0.00, -0.00, -1.00, 155.9, 137.0)">N</text><text xml:space="preserve" font-family="Arial-Black" font-weight="bold" font-size="35.0" fill="#FFFFFF" transform="matrix(1.00, 0.00, -0.00, -1.00, 185.1, 137.0)">T</text><text xml:space="preserve" font-family="Arial-Black" font-weight="bold" font-size="35.0" fill="#FFFFFF" transform="matrix(1.00, 0.00, -0.00, -1.00, 210.3, 137.0)"> </text><text xml:space="preserve" font-family="Arial-Black" font-weight="bold" font-size="35.0" fill="#FFFFFF" transform="matrix(1.00, 0.00, -0.00, -1.00, 222.0, 137.0)">S</text><text xml:space="preserve" font-family="Arial-Black" font-weight="bold" font-size="35.0" fill="#FFFFFF" transform="matrix(1.00, 0.00, -0.00, -1.00, 247.2, 137.0)">E</text><text xml:space="preserve" font-family="Arial-Black" font-weight="bold" font-size="35.0" fill="#FFFFFF" transform="matrix(1.00, 0.00, -0.00, -1.00, 272.5, 137.0)">R</text><text xml:space="preserve" font-family="Arial-Black" font-weight="bold" font-size="35.0" fill="#FFFFFF" transform="matrix(1.00, 0.00, -0.00, -1.00, 299.1, 137.0)">V</text><text xml:space="preserve" font-family="Arial-Black" font-weight="bold" font-size="35.0" fill="#FFFFFF" transform="matrix(1.00, 0.00, -0.00, -1.00, 326.3, 137.0)">I</text><text xml:space="preserve" font-family="Arial-Black" font-weight="bold" font-size="35.0" fill="#FFFFFF" transform="matrix(1.00, 0.00, -0.00, -1.00, 339.9, 137.0)">C</text><text xml:space="preserve" font-family="Arial-Black" font-weight="bold" font-size="35.0" fill="#FFFFFF" transform="matrix(1.00, 0.00, -0.00, -1.00, 367.1, 137.0)">E</text><text xml:space="preserve" font-family="Arial-Black" font-weight="bold" font-size="35.0" fill="#FFFFFF" transform="matrix(1.00, 0.00, -0.00, -1.00, 392.3, 137.0)"> </text><text xml:space="preserve" font-family="Arial-Black" font-weight="bold" font-size="35.0" fill="#FFFFFF" transform="matrix(1.00, 0.00, -0.00, -1.00, 404.0, 137.0)">S</text><text xml:space="preserve" font-family="Arial-Black" font-weight="bold" font-size="35.0" fill="#FFFFFF" transform="matrix(1.00, 0.00, -0.00, -1.00, 429.2, 137.0)">U</text><text xml:space="preserve" font-family="Arial-Black" font-weight="bold" font-size="35.0" fill="#FFFFFF" transform="matrix(1.00, 0.00, -0.00, -1.00, 458.4, 137.0)">C</text><text xml:space="preserve" font-family="Arial-Black" font-weight="bold" font-size="35.0" fill="#FFFFFF" transform="matrix(1.00, 0.00, -0.00, -1.00, 485.6, 137.0)">C</text><text xml:space="preserve" font-family="Arial-Black" font-weight="bold" font-size="35.0" fill="#FFFFFF" transform="matrix(1.00, 0.00, -0.00, -1.00, 512.7, 137.0)">E</text><text xml:space="preserve" font-family="Arial-Black" font-weight="bold" font-size="35.0" fill="#FFFFFF" transform="matrix(1.00, 0.00, -0.00, -1.00, 538.0, 137.0)">S</text><text xml:space="preserve" font-family="Arial-Black" font-weight="bold" font-size="35.0" fill="#FFFFFF" transform="matrix(1.00, 0.00, -0.00, -1.00, 563.2, 137.0)">S</text><text xml:space="preserve" font-family="Arial-Black" font-weight="bold" font-size="35.0" fill="#FFFFFF" transform="matrix(1.00, 0.00, -0.00, -1.00, 588.5, 137.0)">F</text><text xml:space="preserve" font-family="Arial-Black" font-weight="bold" font-size="35.0" fill="#FFFFFF" transform="matrix(1.00, 0.00, -0.00, -1.00, 611.8, 137.0)">U</text><text xml:space="preserve" font-family="Arial-Black" font-weight="bold" font-size="35.0" fill="#FFFFFF" transform="matrix(1.00, 0.00, -0.00, -1.00, 640.9, 137.0)">L</text><text xml:space="preserve" font-family="Arial-Black" font-weight="bold" font-size="35.0" fill="#FFFFFF" transform="matrix(1.00, 0.00, -0.00, -1.00, 664.3, 137.0)">?</text><g><clipPath id="clip-54"><path d="M 49.0 500.0 L 147.0 500.0 L 147.0 464.0 L 49.0 464.0 Z M 49.4 500.2 "></path></clipPath><g clip-path="url(#clip-54)"><image xlink:href="../../99926EC3-3614-4C70-A445-D3AA65276E24/assets/A1F0E628E27F8A21FD07BA687C6249E0.png" width="98.00" height="38.00" transform="matrix(1.00, 0.00, -0.00, -1.03, 49.0, 502.0)"></image></g></g></g></svg>