<?xml version="1.0" encoding="UTF-8" standalone="no"?>
<!-- Created with Inkscape (http://www.inkscape.org/) -->

<svg
   xmlns:svg="http://www.w3.org/2000/svg"
   xmlns="http://www.w3.org/2000/svg"
   xmlns:xlink="http://www.w3.org/1999/xlink"
   version="1.0"
   width="1024"
   height="268"
   viewBox="0 0 56.785 14.862608"
   id="svg2516">
  <defs
     id="defs2518">
    <linearGradient
       id="linearGradient3713">
      <stop
         id="stop3715"
         style="stop-color:#e04498;stop-opacity:1"
         offset="0" />
      <stop
         id="stop3717"
         style="stop-color:#f1c7d1;stop-opacity:1"
         offset="1" />
    </linearGradient>
    <linearGradient
       x1="30.653524"
       y1="-18.579493"
       x2="30.443195"
       y2="0.66548944"
       id="linearGradient3727"
       xlink:href="#linearGradient3713"
       gradientUnits="userSpaceOnUse"
       gradientTransform="translate(0.44617238,18.441792)" />
  </defs>
  <rect
     width="57.103962"
     height="15.35392"
     x="-0.0017361667"
     y="-0.17582044"
     id="rect2838"
     style="fill:#0066cc;fill-opacity:1" />
  <g
     transform="matrix(0.95555297,0,0,0.95555297,20.412373,-421.78908)"
     id="layer1"
     style="fill:#ffffff;fill-opacity:1">
    <path
       d="m 15.815554,449.00407 c 0,-2.012 1.631125,-3.64313 3.643125,-3.64313 2.012125,0 3.64325,1.63113 3.64325,3.64313 0,2.01225 -1.631125,3.64337 -3.64325,3.64337 -2.012,0 -3.643125,-1.63112 -3.643125,-3.64337 z m 19.105875,-6.04175 1.32475,0 c 0.396375,0 0.71775,0.32137 0.71775,0.71762 l 0,7.949 c 0,0.39638 -0.321375,0.71763 -0.71775,0.71763 l -1.32475,0 c -0.3965,0 -0.7175,-0.32125 -0.7175,-0.71763 l 0,-7.949 c 0,-0.39625 0.321,-0.71762 0.7175,-0.71762 z m -0.601875,8.008 c 0,-0.699 0.567,-1.26575 1.265875,-1.26575 0.699125,0 1.265875,0.56675 1.265875,1.26575 0,0.69912 -0.56675,1.26587 -1.265875,1.26587 -0.698875,0 -1.265875,-0.56675 -1.265875,-1.26587 z m 0.13275,0 c 0,-0.629 0.50725,-1.13875 1.133125,-1.13875 0.625875,0 1.133375,0.50975 1.133375,1.13875 0,0.629 -0.5075,1.139 -1.133375,1.139 -0.625875,0 -1.133125,-0.51 -1.133125,-1.139 z m 1.31925,0.067 c 0.219125,0 0.3415,-0.1665 0.3415,-0.38288 0,-0.2165 -0.18825,-0.37412 -0.405,-0.37412 l -0.592625,0 0,1.38012 0.206375,0 0,-0.60375 0.220875,0 0.369875,0.594 0.253375,0 -0.394375,-0.61337 z m -0.04875,-0.16438 -0.399875,0 0,-0.41012 0.40475,0 c 0.10775,0 0.198375,0.103 0.198375,0.21062 0,0.1075 -0.09587,0.1995 -0.20325,0.1995 z M 5.3409286,448.61882 c 0,-1.81113 1.446,-3.25688 3.229375,-3.25688 0.687875,0 1.325375,0.215 1.8493754,0.5815 0.52375,-0.3665 1.16125,-0.5815 1.849125,-0.5815 1.783375,0 3.229375,1.44575 3.229375,3.22925 l 0,3.00838 c 0,0.366 -0.351875,0.71762 -0.71775,0.71762 l -1.324875,0 c -0.365875,0 -0.717375,-0.35162 -0.717375,-0.71762 l 0,-3.00838 c 0,-0.25912 -0.21025,-0.46925 -0.469375,-0.46925 -0.259125,0 -0.469125,0.21013 -0.469125,0.46925 l 0,3.00838 c 0,0.366 -0.351875,0.71762 -0.71775,0.71762 l -1.3247504,0 c -0.365875,0 -0.71775,-0.35162 -0.71775,-0.71762 l 0,-2.98075 c 0,-0.28675 -0.21,-0.49688 -0.469125,-0.49688 -0.259,0 -0.469,0.21013 -0.469,0.46925 l 0,3.00838 c 0,0.366 -0.351875,0.71787 -0.71775,0.71787 l -1.32475,0 c -0.366,0 -0.717875,-0.35187 -0.717875,-0.71787 l 0,-2.98075 z m -0.339625,-2.20913 c 0,-0.39637 -0.321,-0.71762 -0.7175,-0.71762 l -1.32475,0 c -0.396375,0 -0.71775,0.32125 -0.71775,0.71762 l -0.0015,3.07663 c 0,0.25925 -0.21,0.46937 -0.469125,0.46937 -0.259,0 -0.46925,-0.21012 -0.46925,-0.46937 l 0,-3.06375 c 0,-0.39625 -0.32137503,-0.7305 -0.71750003,-0.7305 l -1.32475,0 c -0.39649997,0 -0.71787497,0.26612 -0.71787497,0.6625 l 0,3.53287 c 0,1.04875 0.78737497,2.18463 2.19912497,2.18463 l 0.039125,0 c 0.77875003,0 1.07175003,-0.25913 1.37600003,-0.50713 0.109625,-0.14137 0.166875,-0.11062 0.166875,-0.0279 0,0.79512 -0.841875,1.48162 -1.52400003,1.47487 l -0.961625,-0.01 c -0.28475,-0.003 -0.448,0.33112 -0.4465,0.51612 0.0025,0.28113 0.00525,0.40875 0,0.72038 -0.010875,0.701 0.618625,0.8375 1.441375,0.8375 l 0.96650003,0 c 1.050375,0 3.201,-1.2655 3.201625,-3.41913 l 0.0015,-5.2475 z m -22.0623746,2.59438 0,5.35462 c 0,0.39625 -0.321375,0.71763 -0.71775,0.71763 l -1.32475,0 c -0.396125,0 -0.7175,-0.32138 -0.7175,-0.71763 l 0,-5.35462 c 0,-2.012 1.631125,-3.64313 3.64325,-3.64313 2.012,0 3.643125,1.63113 3.643125,3.64313 0,2.01225 -1.655875,3.64337 -3.42225,3.64337 0,0 -0.6625,0 -0.6625,-0.66237 l 0,-1.4905 c 0,-0.40375 0.38475,-0.60713 0.6625,-0.64925 0.425125,-0.0644 0.66225,-0.35338 0.66225,-0.84125 0,-0.48763 -0.3955,-0.88313 -0.883125,-0.88313 -0.48775,0 -0.88325,0.3955 -0.88325,0.88313 l 0,0 z m 5.5765,-6.072 1.32475,0 c 0.3963746,0 0.7174996,0.32125 0.7174996,0.71762 l 0,7.94888 c 0,0.39637 -0.321125,0.71762 -0.7174996,0.71762 l -1.32475,0 c -0.396375,0 -0.71775,-0.32125 -0.71775,-0.71762 l 0,-7.94888 c 0,-0.39637 0.321375,-0.71762 0.71775,-0.71762 z m 6.9063746,6.072 0,2.58637 c 0,0.39613 0.321375,0.7175 0.717875,0.7175 l 1.32475,0 c 0.396125,0 0.717375,-0.32137 0.717375,-0.7175 l 0,-2.58637 c 0,-2.012 -1.631125,-3.64313 -3.643125,-3.64313 -2.012,0 -3.64325,1.63113 -3.64325,3.64313 0,2.01225 1.656,3.64337 3.42225,3.64337 0,0 0.662625,0 0.662625,-0.66237 l 0,-1.4905 c 0,-0.40375 -0.384875,-0.60713 -0.662625,-0.64925 -0.425,-0.0644 -0.662125,-0.35338 -0.662125,-0.84125 0,-0.48763 0.3955,-0.88313 0.883125,-0.88313 0.487625,0 0.883125,0.3955 0.883125,0.88313 l 0,0 z m 30.7755004,0.0221 0,-5.35437 c 0,-0.3965 -0.321375,-0.71763 -0.7175,-0.71763 l -1.325,0 c -0.396125,0 -0.7175,0.32113 -0.7175,0.71763 l 0,5.35437 c 0,2.01225 1.631125,3.64338 3.643125,3.64338 2.012375,0 3.6435,-1.63113 3.6435,-3.64338 0,-2.01212 -1.656125,-3.64312 -3.4225,-3.64312 0,0 -0.6625,-2.5e-4 -0.6625,0.66237 l 0,1.4905 c 0,0.40375 0.385125,0.60713 0.6625,0.649 0.425125,0.0645 0.66225,0.3535 0.66225,0.84125 0,0.48788 -0.39525,0.88338 -0.88325,0.88338 -0.487625,0 -0.883125,-0.3955 -0.883125,-0.88338 z m 5.567625,-3.30375 1.32475,0 c 0.3965,0 0.71775,0.32125 0.71775,0.71763 l 0,5.18887 c 0,0.39638 -0.32125,0.71763 -0.71775,0.71763 l -1.32475,0 c -0.396375,0 -0.7175,-0.32125 -0.7175,-0.71763 l 0,-5.18887 c 0,-0.39638 0.321125,-0.71763 0.7175,-0.71763 z m 0.997625,-0.67087 c -0.70775,0.47737 -1.668125,0.29075 -2.145375,-0.417 l -1.12275,-1.68038 3.680375,0 c 0.477375,0.70763 0.29575,1.62 -0.41225,2.09738 z m -14.187,4.01887 c 0,-0.48775 0.3955,-0.88325 0.883125,-0.88325 0.48775,0 0.88325,0.3955 0.88325,0.88325 0,0.48788 -0.3955,0.88325 -0.88325,0.88325 -0.487625,0 -0.883125,-0.39537 -0.883125,-0.88325 z"
       id="path10915"
       style="fill:#ffffff;fill-opacity:1;fill-rule:evenodd;stroke:none" />
  </g>
</svg>
