<?xml version="1.0" encoding="UTF-8" standalone="no"?><svg xmlns="http://www.w3.org/2000/svg" xmlns:xlink="http://www.w3.org/1999/xlink" clip-rule="evenodd" stroke-miterlimit="4.00" viewBox="0 0 317 110"><desc>SVG generated by Keynote</desc><defs></defs><g transform="matrix(1.00, 0.00, -0.00, -1.00, 0.0, 110.0)"><text xml:space="preserve" font-family="TrebuchetMS" font-size="24.0" fill="#444444" transform="matrix(1.00, 0.00, -0.00, -1.00, 2.0, 90.0)">I</text><text xml:space="preserve" font-family="TrebuchetMS" font-size="24.0" fill="#444444" transform="matrix(1.00, 0.00, -0.00, -1.00, 8.7, 90.0)">n</text><text xml:space="preserve" font-family="TrebuchetMS" font-size="24.0" fill="#444444" transform="matrix(1.00, 0.00, -0.00, -1.00, 21.8, 90.0)">s</text><text xml:space="preserve" font-family="TrebuchetMS" font-size="24.0" fill="#444444" transform="matrix(1.00, 0.00, -0.00, -1.00, 31.5, 90.0)">t</text><text xml:space="preserve" font-family="TrebuchetMS" font-size="24.0" fill="#444444" transform="matrix(1.00, 0.00, -0.00, -1.00, 41.0, 90.0)">a</text><text xml:space="preserve" font-family="TrebuchetMS" font-size="24.0" fill="#444444" transform="matrix(1.00, 0.00, -0.00, -1.00, 53.7, 90.0)">n</text><text xml:space="preserve" font-family="TrebuchetMS" font-size="24.0" fill="#444444" transform="matrix(1.00, 0.00, -0.00, -1.00, 66.8, 90.0)">t</text><text xml:space="preserve" font-family="TrebuchetMS" font-size="24.0" fill="#444444" transform="matrix(1.00, 0.00, -0.00, -1.00, 76.3, 90.0)">,</text><text xml:space="preserve" font-family="TrebuchetMS" font-size="24.0" fill="#444444" transform="matrix(1.00, 0.00, -0.00, -1.00, 85.1, 90.0)"> </text><text xml:space="preserve" font-family="TrebuchetMS" font-size="24.0" fill="#444444" transform="matrix(1.00, 0.00, -0.00, -1.00, 92.4, 90.0)">t</text><text xml:space="preserve" font-family="TrebuchetMS" font-size="24.0" fill="#444444" transform="matrix(1.00, 0.00, -0.00, -1.00, 101.9, 90.0)">r</text><text xml:space="preserve" font-family="TrebuchetMS" font-size="24.0" fill="#444444" transform="matrix(1.00, 0.00, -0.00, -1.00, 111.2, 90.0)">a</text><text xml:space="preserve" font-family="TrebuchetMS" font-size="24.0" fill="#444444" transform="matrix(1.00, 0.00, -0.00, -1.00, 123.8, 90.0)">n</text><text xml:space="preserve" font-family="TrebuchetMS" font-size="24.0" fill="#444444" transform="matrix(1.00, 0.00, -0.00, -1.00, 137.0, 90.0)">s</text><text xml:space="preserve" font-family="TrebuchetMS" font-size="24.0" fill="#444444" transform="matrix(1.00, 0.00, -0.00, -1.00, 146.7, 90.0)">p</text><text xml:space="preserve" font-family="TrebuchetMS" font-size="24.0" fill="#444444" transform="matrix(1.00, 0.00, -0.00, -1.00, 160.0, 90.0)">a</text><text xml:space="preserve" font-family="TrebuchetMS" font-size="24.0" fill="#444444" transform="matrix(1.00, 0.00, -0.00, -1.00, 172.7, 90.0)">r</text><text xml:space="preserve" font-family="TrebuchetMS" font-size="24.0" fill="#444444" transform="matrix(1.00, 0.00, -0.00, -1.00, 182.0, 90.0)">e</text><text xml:space="preserve" font-family="TrebuchetMS" font-size="24.0" fill="#444444" transform="matrix(1.00, 0.00, -0.00, -1.00, 195.1, 90.0)">n</text><text xml:space="preserve" font-family="TrebuchetMS" font-size="24.0" fill="#444444" transform="matrix(1.00, 0.00, -0.00, -1.00, 208.2, 90.0)">t</text><text xml:space="preserve" font-family="TrebuchetMS" font-size="24.0" fill="#444444" transform="matrix(1.00, 0.00, -0.00, -1.00, 217.7, 90.0)"> </text><text xml:space="preserve" font-family="TrebuchetMS" font-size="24.0" fill="#444444" transform="matrix(1.00, 0.00, -0.00, -1.00, 225.0, 90.0)">o</text><text xml:space="preserve" font-family="TrebuchetMS" font-size="24.0" fill="#444444" transform="matrix(1.00, 0.00, -0.00, -1.00, 237.8, 90.0)">r</text><text xml:space="preserve" font-family="TrebuchetMS" font-size="24.0" fill="#444444" transform="matrix(1.00, 0.00, -0.00, -1.00, 247.2, 90.0)">d</text><text xml:space="preserve" font-family="TrebuchetMS" font-size="24.0" fill="#444444" transform="matrix(1.00, 0.00, -0.00, -1.00, 260.5, 90.0)">e</text><text xml:space="preserve" font-family="TrebuchetMS" font-size="24.0" fill="#444444" transform="matrix(1.00, 0.00, -0.00, -1.00, 273.6, 90.0)">r</text><text xml:space="preserve" font-family="TrebuchetMS" font-size="24.0" fill="#444444" transform="matrix(1.00, 0.00, -0.00, -1.00, 283.0, 90.0)">i</text><text xml:space="preserve" font-family="TrebuchetMS" font-size="24.0" fill="#444444" transform="matrix(1.00, 0.00, -0.00, -1.00, 289.8, 90.0)">n</text><text xml:space="preserve" font-family="TrebuchetMS" font-size="24.0" fill="#444444" transform="matrix(1.00, 0.00, -0.00, -1.00, 302.9, 90.0)">g</text><text xml:space="preserve" font-family="TrebuchetMS" font-size="24.0" fill="#444444" transform="matrix(1.00, 0.00, -0.00, -1.00, 315.0, 90.0)"> </text><text xml:space="preserve" font-family="TrebuchetMS" font-size="24.0" fill="#444444" transform="matrix(1.00, 0.00, -0.00, -1.00, 2.0, 48.0)">W</text><text xml:space="preserve" font-family="TrebuchetMS" font-size="24.0" fill="#444444" transform="matrix(1.00, 0.00, -0.00, -1.00, 21.1, 48.0)">a</text><text xml:space="preserve" font-family="TrebuchetMS" font-size="24.0" fill="#444444" transform="matrix(1.00, 0.00, -0.00, -1.00, 33.7, 48.0)">i</text><text xml:space="preserve" font-family="TrebuchetMS" font-size="24.0" fill="#444444" transform="matrix(1.00, 0.00, -0.00, -1.00, 40.6, 48.0)">t</text><text xml:space="preserve" font-family="TrebuchetMS" font-size="24.0" fill="#444444" transform="matrix(1.00, 0.00, -0.00, -1.00, 50.1, 48.0)">i</text><text xml:space="preserve" font-family="TrebuchetMS" font-size="24.0" fill="#444444" transform="matrix(1.00, 0.00, -0.00, -1.00, 57.0, 48.0)">n</text><text xml:space="preserve" font-family="TrebuchetMS" font-size="24.0" fill="#444444" transform="matrix(1.00, 0.00, -0.00, -1.00, 70.1, 48.0)">g</text><text xml:space="preserve" font-family="TrebuchetMS" font-size="24.0" fill="#444444" transform="matrix(1.00, 0.00, -0.00, -1.00, 82.1, 48.0)"> </text><text xml:space="preserve" font-family="TrebuchetMS" font-size="24.0" fill="#444444" transform="matrix(1.00, 0.00, -0.00, -1.00, 89.4, 48.0)">f</text><text xml:space="preserve" font-family="TrebuchetMS" font-size="24.0" fill="#444444" transform="matrix(1.00, 0.00, -0.00, -1.00, 98.2, 48.0)">o</text><text xml:space="preserve" font-family="TrebuchetMS" font-size="24.0" fill="#444444" transform="matrix(1.00, 0.00, -0.00, -1.00, 111.1, 48.0)">r</text><text xml:space="preserve" font-family="TrebuchetMS" font-size="24.0" fill="#444444" transform="matrix(1.00, 0.00, -0.00, -1.00, 120.4, 48.0)"> </text><text xml:space="preserve" font-family="TrebuchetMS" font-size="24.0" fill="#444444" transform="matrix(1.00, 0.00, -0.00, -1.00, 127.7, 48.0)">y</text><text xml:space="preserve" font-family="TrebuchetMS" font-size="24.0" fill="#444444" transform="matrix(1.00, 0.00, -0.00, -1.00, 139.5, 48.0)">o</text><text xml:space="preserve" font-family="TrebuchetMS" font-size="24.0" fill="#444444" transform="matrix(1.00, 0.00, -0.00, -1.00, 152.4, 48.0)">u</text><text xml:space="preserve" font-family="TrebuchetMS" font-size="24.0" fill="#444444" transform="matrix(1.00, 0.00, -0.00, -1.00, 165.5, 48.0)">r</text><text xml:space="preserve" font-family="TrebuchetMS" font-size="24.0" fill="#444444" transform="matrix(1.00, 0.00, -0.00, -1.00, 174.8, 48.0)"> </text><text xml:space="preserve" font-family="TrebuchetMS" font-size="24.0" fill="#444444" transform="matrix(1.00, 0.00, -0.00, -1.00, 182.0, 48.0)">o</text><text xml:space="preserve" font-family="TrebuchetMS" font-size="24.0" fill="#444444" transform="matrix(1.00, 0.00, -0.00, -1.00, 194.9, 48.0)">r</text><text xml:space="preserve" font-family="TrebuchetMS" font-size="24.0" fill="#444444" transform="matrix(1.00, 0.00, -0.00, -1.00, 204.2, 48.0)">d</text><text xml:space="preserve" font-family="TrebuchetMS" font-size="24.0" fill="#444444" transform="matrix(1.00, 0.00, -0.00, -1.00, 217.6, 48.0)">e</text><text xml:space="preserve" font-family="TrebuchetMS" font-size="24.0" fill="#444444" transform="matrix(1.00, 0.00, -0.00, -1.00, 230.7, 48.0)">r</text><text xml:space="preserve" font-family="TrebuchetMS" font-size="24.0" fill="#444444" transform="matrix(1.00, 0.00, -0.00, -1.00, 240.0, 48.0)"> </text><text xml:space="preserve" font-family="TrebuchetMS" font-size="24.0" fill="#444444" transform="matrix(1.00, 0.00, -0.00, -1.00, 2.0, 7.0)">I</text><text xml:space="preserve" font-family="TrebuchetMS" font-size="24.0" fill="#444444" transform="matrix(1.00, 0.00, -0.00, -1.00, 8.7, 7.0)">n</text><text xml:space="preserve" font-family="TrebuchetMS" font-size="24.0" fill="#444444" transform="matrix(1.00, 0.00, -0.00, -1.00, 21.8, 7.0)">s</text><text xml:space="preserve" font-family="TrebuchetMS" font-size="24.0" fill="#444444" transform="matrix(1.00, 0.00, -0.00, -1.00, 31.5, 7.0)">t</text><text xml:space="preserve" font-family="TrebuchetMS" font-size="24.0" fill="#444444" transform="matrix(1.00, 0.00, -0.00, -1.00, 41.0, 7.0)">a</text><text xml:space="preserve" font-family="TrebuchetMS" font-size="24.0" fill="#444444" transform="matrix(1.00, 0.00, -0.00, -1.00, 53.6, 7.0)">n</text><text xml:space="preserve" font-family="TrebuchetMS" font-size="24.0" fill="#444444" transform="matrix(1.00, 0.00, -0.00, -1.00, 66.8, 7.0)">t</text><text xml:space="preserve" font-family="TrebuchetMS" font-size="24.0" fill="#444444" transform="matrix(1.00, 0.00, -0.00, -1.00, 76.3, 7.0)"> </text><text xml:space="preserve" font-family="TrebuchetMS" font-size="24.0" fill="#444444" transform="matrix(1.00, 0.00, -0.00, -1.00, 83.5, 7.0)">p</text><text xml:space="preserve" font-family="TrebuchetMS" font-size="24.0" fill="#444444" transform="matrix(1.00, 0.00, -0.00, -1.00, 96.9, 7.0)">a</text><text xml:space="preserve" font-family="TrebuchetMS" font-size="24.0" fill="#444444" transform="matrix(1.00, 0.00, -0.00, -1.00, 109.5, 7.0)">y</text><text xml:space="preserve" font-family="TrebuchetMS" font-size="24.0" fill="#444444" transform="matrix(1.00, 0.00, -0.00, -1.00, 121.4, 7.0)">m</text><text xml:space="preserve" font-family="TrebuchetMS" font-size="24.0" fill="#444444" transform="matrix(1.00, 0.00, -0.00, -1.00, 141.3, 7.0)">e</text><text xml:space="preserve" font-family="TrebuchetMS" font-size="24.0" fill="#444444" transform="matrix(1.00, 0.00, -0.00, -1.00, 154.4, 7.0)">n</text><text xml:space="preserve" font-family="TrebuchetMS" font-size="24.0" fill="#444444" transform="matrix(1.00, 0.00, -0.00, -1.00, 167.5, 7.0)">t</text></g></svg>