<?xml version="1.0" encoding="UTF-8" standalone="no"?><svg xmlns="http://www.w3.org/2000/svg" xmlns:xlink="http://www.w3.org/1999/xlink" clip-rule="evenodd" stroke-miterlimit="4.00" viewBox="0 0 261 110"><desc>SVG generated by Keynote</desc><defs></defs><g transform="matrix(1.00, 0.00, -0.00, -1.00, 0.0, 110.0)"><text xml:space="preserve" font-family="TrebuchetMS" font-size="24.0" fill="#444444" transform="matrix(1.00, 0.00, -0.00, -1.00, 2.0, 90.0)">W</text><text xml:space="preserve" font-family="TrebuchetMS" font-size="24.0" fill="#444444" transform="matrix(1.00, 0.00, -0.00, -1.00, 21.1, 90.0)">a</text><text xml:space="preserve" font-family="TrebuchetMS" font-size="24.0" fill="#444444" transform="matrix(1.00, 0.00, -0.00, -1.00, 33.7, 90.0)">i</text><text xml:space="preserve" font-family="TrebuchetMS" font-size="24.0" fill="#444444" transform="matrix(1.00, 0.00, -0.00, -1.00, 40.6, 90.0)">t</text><text xml:space="preserve" font-family="TrebuchetMS" font-size="24.0" fill="#444444" transform="matrix(1.00, 0.00, -0.00, -1.00, 50.1, 90.0)">i</text><text xml:space="preserve" font-family="TrebuchetMS" font-size="24.0" fill="#444444" transform="matrix(1.00, 0.00, -0.00, -1.00, 57.0, 90.0)">n</text><text xml:space="preserve" font-family="TrebuchetMS" font-size="24.0" fill="#444444" transform="matrix(1.00, 0.00, -0.00, -1.00, 70.1, 90.0)">g</text><text xml:space="preserve" font-family="TrebuchetMS" font-size="24.0" fill="#444444" transform="matrix(1.00, 0.00, -0.00, -1.00, 82.1, 90.0)"> </text><text xml:space="preserve" font-family="TrebuchetMS" font-size="24.0" fill="#444444" transform="matrix(1.00, 0.00, -0.00, -1.00, 89.4, 90.0)">f</text><text xml:space="preserve" font-family="TrebuchetMS" font-size="24.0" fill="#444444" transform="matrix(1.00, 0.00, -0.00, -1.00, 98.2, 90.0)">o</text><text xml:space="preserve" font-family="TrebuchetMS" font-size="24.0" fill="#444444" transform="matrix(1.00, 0.00, -0.00, -1.00, 111.1, 90.0)">r</text><text xml:space="preserve" font-family="TrebuchetMS" font-size="24.0" fill="#444444" transform="matrix(1.00, 0.00, -0.00, -1.00, 120.4, 90.0)"> </text><text xml:space="preserve" font-family="TrebuchetMS" font-size="24.0" fill="#444444" transform="matrix(1.00, 0.00, -0.00, -1.00, 127.7, 90.0)">t</text><text xml:space="preserve" font-family="TrebuchetMS" font-size="24.0" fill="#444444" transform="matrix(1.00, 0.00, -0.00, -1.00, 137.2, 90.0)">h</text><text xml:space="preserve" font-family="TrebuchetMS" font-size="24.0" fill="#444444" transform="matrix(1.00, 0.00, -0.00, -1.00, 150.3, 90.0)">e</text><text xml:space="preserve" font-family="TrebuchetMS" font-size="24.0" fill="#444444" transform="matrix(1.00, 0.00, -0.00, -1.00, 163.4, 90.0)"> </text><text xml:space="preserve" font-family="TrebuchetMS" font-size="24.0" fill="#444444" transform="matrix(1.00, 0.00, -0.00, -1.00, 170.6, 90.0)">w</text><text xml:space="preserve" font-family="TrebuchetMS" font-size="24.0" fill="#444444" transform="matrix(1.00, 0.00, -0.00, -1.00, 188.5, 90.0)">a</text><text xml:space="preserve" font-family="TrebuchetMS" font-size="24.0" fill="#444444" transform="matrix(1.00, 0.00, -0.00, -1.00, 201.1, 90.0)">i</text><text xml:space="preserve" font-family="TrebuchetMS" font-size="24.0" fill="#444444" transform="matrix(1.00, 0.00, -0.00, -1.00, 208.0, 90.0)">t</text><text xml:space="preserve" font-family="TrebuchetMS" font-size="24.0" fill="#444444" transform="matrix(1.00, 0.00, -0.00, -1.00, 217.5, 90.0)">r</text><text xml:space="preserve" font-family="TrebuchetMS" font-size="24.0" fill="#444444" transform="matrix(1.00, 0.00, -0.00, -1.00, 226.8, 90.0)">e</text><text xml:space="preserve" font-family="TrebuchetMS" font-size="24.0" fill="#444444" transform="matrix(1.00, 0.00, -0.00, -1.00, 239.9, 90.0)">s</text><text xml:space="preserve" font-family="TrebuchetMS" font-size="24.0" fill="#444444" transform="matrix(1.00, 0.00, -0.00, -1.00, 249.6, 90.0)">s</text><text xml:space="preserve" font-family="TrebuchetMS" font-size="24.0" fill="#444444" transform="matrix(1.00, 0.00, -0.00, -1.00, 259.3, 90.0)"> </text><text xml:space="preserve" font-family="TrebuchetMS" font-size="24.0" fill="#444444" transform="matrix(1.00, 0.00, -0.00, -1.00, 2.0, 48.0)">W</text><text xml:space="preserve" font-family="TrebuchetMS" font-size="24.0" fill="#444444" transform="matrix(1.00, 0.00, -0.00, -1.00, 21.1, 48.0)">a</text><text xml:space="preserve" font-family="TrebuchetMS" font-size="24.0" fill="#444444" transform="matrix(1.00, 0.00, -0.00, -1.00, 33.7, 48.0)">i</text><text xml:space="preserve" font-family="TrebuchetMS" font-size="24.0" fill="#444444" transform="matrix(1.00, 0.00, -0.00, -1.00, 40.6, 48.0)">t</text><text xml:space="preserve" font-family="TrebuchetMS" font-size="24.0" fill="#444444" transform="matrix(1.00, 0.00, -0.00, -1.00, 50.1, 48.0)">i</text><text xml:space="preserve" font-family="TrebuchetMS" font-size="24.0" fill="#444444" transform="matrix(1.00, 0.00, -0.00, -1.00, 57.0, 48.0)">n</text><text xml:space="preserve" font-family="TrebuchetMS" font-size="24.0" fill="#444444" transform="matrix(1.00, 0.00, -0.00, -1.00, 70.1, 48.0)">g</text><text xml:space="preserve" font-family="TrebuchetMS" font-size="24.0" fill="#444444" transform="matrix(1.00, 0.00, -0.00, -1.00, 82.1, 48.0)"> </text><text xml:space="preserve" font-family="TrebuchetMS" font-size="24.0" fill="#444444" transform="matrix(1.00, 0.00, -0.00, -1.00, 89.4, 48.0)">f</text><text xml:space="preserve" font-family="TrebuchetMS" font-size="24.0" fill="#444444" transform="matrix(1.00, 0.00, -0.00, -1.00, 98.2, 48.0)">o</text><text xml:space="preserve" font-family="TrebuchetMS" font-size="24.0" fill="#444444" transform="matrix(1.00, 0.00, -0.00, -1.00, 111.1, 48.0)">r</text><text xml:space="preserve" font-family="TrebuchetMS" font-size="24.0" fill="#444444" transform="matrix(1.00, 0.00, -0.00, -1.00, 120.4, 48.0)"> </text><text xml:space="preserve" font-family="TrebuchetMS" font-size="24.0" fill="#444444" transform="matrix(1.00, 0.00, -0.00, -1.00, 127.7, 48.0)">y</text><text xml:space="preserve" font-family="TrebuchetMS" font-size="24.0" fill="#444444" transform="matrix(1.00, 0.00, -0.00, -1.00, 139.5, 48.0)">o</text><text xml:space="preserve" font-family="TrebuchetMS" font-size="24.0" fill="#444444" transform="matrix(1.00, 0.00, -0.00, -1.00, 152.4, 48.0)">u</text><text xml:space="preserve" font-family="TrebuchetMS" font-size="24.0" fill="#444444" transform="matrix(1.00, 0.00, -0.00, -1.00, 165.5, 48.0)">r</text><text xml:space="preserve" font-family="TrebuchetMS" font-size="24.0" fill="#444444" transform="matrix(1.00, 0.00, -0.00, -1.00, 174.8, 48.0)"> </text><text xml:space="preserve" font-family="TrebuchetMS" font-size="24.0" fill="#444444" transform="matrix(1.00, 0.00, -0.00, -1.00, 182.0, 48.0)">o</text><text xml:space="preserve" font-family="TrebuchetMS" font-size="24.0" fill="#444444" transform="matrix(1.00, 0.00, -0.00, -1.00, 194.9, 48.0)">r</text><text xml:space="preserve" font-family="TrebuchetMS" font-size="24.0" fill="#444444" transform="matrix(1.00, 0.00, -0.00, -1.00, 204.2, 48.0)">d</text><text xml:space="preserve" font-family="TrebuchetMS" font-size="24.0" fill="#444444" transform="matrix(1.00, 0.00, -0.00, -1.00, 217.6, 48.0)">e</text><text xml:space="preserve" font-family="TrebuchetMS" font-size="24.0" fill="#444444" transform="matrix(1.00, 0.00, -0.00, -1.00, 230.7, 48.0)">r</text><text xml:space="preserve" font-family="TrebuchetMS" font-size="24.0" fill="#444444" transform="matrix(1.00, 0.00, -0.00, -1.00, 240.0, 48.0)"> </text><text xml:space="preserve" font-family="TrebuchetMS" font-size="24.0" fill="#444444" transform="matrix(1.00, 0.00, -0.00, -1.00, 2.0, 7.0)">W</text><text xml:space="preserve" font-family="TrebuchetMS" font-size="24.0" fill="#444444" transform="matrix(1.00, 0.00, -0.00, -1.00, 21.1, 7.0)">a</text><text xml:space="preserve" font-family="TrebuchetMS" font-size="24.0" fill="#444444" transform="matrix(1.00, 0.00, -0.00, -1.00, 33.7, 7.0)">i</text><text xml:space="preserve" font-family="TrebuchetMS" font-size="24.0" fill="#444444" transform="matrix(1.00, 0.00, -0.00, -1.00, 40.6, 7.0)">t</text><text xml:space="preserve" font-family="TrebuchetMS" font-size="24.0" fill="#444444" transform="matrix(1.00, 0.00, -0.00, -1.00, 50.1, 7.0)">i</text><text xml:space="preserve" font-family="TrebuchetMS" font-size="24.0" fill="#444444" transform="matrix(1.00, 0.00, -0.00, -1.00, 57.0, 7.0)">n</text><text xml:space="preserve" font-family="TrebuchetMS" font-size="24.0" fill="#444444" transform="matrix(1.00, 0.00, -0.00, -1.00, 70.1, 7.0)">g</text><text xml:space="preserve" font-family="TrebuchetMS" font-size="24.0" fill="#444444" transform="matrix(1.00, 0.00, -0.00, -1.00, 82.1, 7.0)"> </text><text xml:space="preserve" font-family="TrebuchetMS" font-size="24.0" fill="#444444" transform="matrix(1.00, 0.00, -0.00, -1.00, 89.3, 7.0)">f</text><text xml:space="preserve" font-family="TrebuchetMS" font-size="24.0" fill="#444444" transform="matrix(1.00, 0.00, -0.00, -1.00, 98.2, 7.0)">o</text><text xml:space="preserve" font-family="TrebuchetMS" font-size="24.0" fill="#444444" transform="matrix(1.00, 0.00, -0.00, -1.00, 111.0, 7.0)">r</text><text xml:space="preserve" font-family="TrebuchetMS" font-size="24.0" fill="#444444" transform="matrix(1.00, 0.00, -0.00, -1.00, 120.4, 7.0)"> </text><text xml:space="preserve" font-family="TrebuchetMS" font-size="24.0" fill="#444444" transform="matrix(1.00, 0.00, -0.00, -1.00, 127.6, 7.0)">t</text><text xml:space="preserve" font-family="TrebuchetMS" font-size="24.0" fill="#444444" transform="matrix(1.00, 0.00, -0.00, -1.00, 137.1, 7.0)">h</text><text xml:space="preserve" font-family="TrebuchetMS" font-size="24.0" fill="#444444" transform="matrix(1.00, 0.00, -0.00, -1.00, 150.2, 7.0)">e</text><text xml:space="preserve" font-family="TrebuchetMS" font-size="24.0" fill="#444444" transform="matrix(1.00, 0.00, -0.00, -1.00, 163.3, 7.0)"> </text><text xml:space="preserve" font-family="TrebuchetMS" font-size="24.0" fill="#444444" transform="matrix(1.00, 0.00, -0.00, -1.00, 170.6, 7.0)">b</text><text xml:space="preserve" font-family="TrebuchetMS" font-size="24.0" fill="#444444" transform="matrix(1.00, 0.00, -0.00, -1.00, 183.9, 7.0)">i</text><text xml:space="preserve" font-family="TrebuchetMS" font-size="24.0" fill="#444444" transform="matrix(1.00, 0.00, -0.00, -1.00, 190.8, 7.0)">l</text><text xml:space="preserve" font-family="TrebuchetMS" font-size="24.0" fill="#444444" transform="matrix(1.00, 0.00, -0.00, -1.00, 197.9, 7.0)">l</text></g></svg>