<?xml version="1.0" encoding="UTF-8" standalone="no"?><svg xmlns="http://www.w3.org/2000/svg" xmlns:xlink="http://www.w3.org/1999/xlink" clip-rule="evenodd" stroke-miterlimit="4.00" viewBox="0 0 62 11"><desc>SVG generated by Keynote</desc><defs></defs><g transform="matrix(1.00, 0.00, -0.00, -1.00, 0.0, 11.0)"><text xml:space="preserve" font-family="TrebuchetMS-Italic" font-style="italic" font-size="10.0" fill="#444444" transform="matrix(1.00, 0.00, -0.00, -1.00, 2.0, 2.0)">H</text><text xml:space="preserve" font-family="TrebuchetMS-Italic" font-style="italic" font-size="10.0" fill="#444444" transform="matrix(1.00, 0.00, -0.00, -1.00, 8.5, 2.0)">O</text><text xml:space="preserve" font-family="TrebuchetMS-Italic" font-style="italic" font-size="10.0" fill="#444444" transform="matrix(1.00, 0.00, -0.00, -1.00, 15.3, 2.0)">T</text><text xml:space="preserve" font-family="TrebuchetMS-Italic" font-style="italic" font-size="10.0" fill="#444444" transform="matrix(1.00, 0.00, -0.00, -1.00, 21.1, 2.0)">E</text><text xml:space="preserve" font-family="TrebuchetMS-Italic" font-style="italic" font-size="10.0" fill="#444444" transform="matrix(1.00, 0.00, -0.00, -1.00, 26.4, 2.0)">L</text><text xml:space="preserve" font-family="TrebuchetMS-Italic" font-style="italic" font-size="10.0" fill="#444444" transform="matrix(1.00, 0.00, -0.00, -1.00, 31.5, 2.0)">S</text><text xml:space="preserve" font-family="TrebuchetMS-Italic" font-style="italic" font-size="10.0" fill="#444444" transform="matrix(1.00, 0.00, -0.00, -1.00, 36.3, 2.0)">.</text><text xml:space="preserve" font-family="TrebuchetMS-Italic" font-style="italic" font-size="10.0" fill="#444444" transform="matrix(1.00, 0.00, -0.00, -1.00, 40.0, 2.0)">C</text><text xml:space="preserve" font-family="TrebuchetMS-Italic" font-style="italic" font-size="10.0" fill="#444444" transform="matrix(1.00, 0.00, -0.00, -1.00, 46.0, 2.0)">O</text><text xml:space="preserve" font-family="TrebuchetMS-Italic" font-style="italic" font-size="10.0" fill="#444444" transform="matrix(1.00, 0.00, -0.00, -1.00, 52.7, 2.0)">M</text></g></svg>