<?xml version="1.0" encoding="UTF-8" standalone="no"?><svg xmlns="http://www.w3.org/2000/svg" xmlns:xlink="http://www.w3.org/1999/xlink" clip-rule="evenodd" stroke-miterlimit="4.00" viewBox="0 0 134 27"><desc>SVG generated by Keynote</desc><defs></defs><g transform="matrix(1.00, 0.00, -0.00, -1.00, 0.0, 27.0)"><path d="M 1.7 25.7 L 132.3 25.7 L 132.3 1.9 L 1.7 1.9 Z M 1.7 25.7 " fill="#2EC1D9"></path><g><clipPath id="clip-123"><path d="M 0.0 -5.2 L 134.0 -5.2 L 134.0 27.4 L 0.0 27.4 Z M 0.0 -5.2 "></path></clipPath><g clip-path="url(#clip-123)"><text xml:space="preserve" font-family="Arial-Black" font-weight="bold" font-size="13.0" fill="#FFFFFF" transform="matrix(1.00, 0.00, -0.00, -1.00, 5.0, 9.0)">C</text><text xml:space="preserve" font-family="Arial-Black" font-weight="bold" font-size="13.0" fill="#FFFFFF" transform="matrix(1.00, 0.00, -0.00, -1.00, 15.1, 9.0)">O</text><text xml:space="preserve" font-family="Arial-Black" font-weight="bold" font-size="13.0" fill="#FFFFFF" transform="matrix(1.00, 0.00, -0.00, -1.00, 25.9, 9.0)">N</text><text xml:space="preserve" font-family="Arial-Black" font-weight="bold" font-size="13.0" fill="#FFFFFF" transform="matrix(1.00, 0.00, -0.00, -1.00, 36.8, 9.0)">T</text><text xml:space="preserve" font-family="Arial-Black" font-weight="bold" font-size="13.0" fill="#FFFFFF" transform="matrix(1.00, 0.00, -0.00, -1.00, 46.2, 9.0)">E</text><text xml:space="preserve" font-family="Arial-Black" font-weight="bold" font-size="13.0" fill="#FFFFFF" transform="matrix(1.00, 0.00, -0.00, -1.00, 55.5, 9.0)">X</text><text xml:space="preserve" font-family="Arial-Black" font-weight="bold" font-size="13.0" fill="#FFFFFF" transform="matrix(1.00, 0.00, -0.00, -1.00, 65.7, 9.0)">T</text><text xml:space="preserve" font-family="Arial-Black" font-weight="bold" font-size="13.0" fill="#FFFFFF" transform="matrix(1.00, 0.00, -0.00, -1.00, 75.0, 9.0)">U</text><text xml:space="preserve" font-family="Arial-Black" font-weight="bold" font-size="13.0" fill="#FFFFFF" transform="matrix(1.00, 0.00, -0.00, -1.00, 85.4, 9.0)">A</text><text xml:space="preserve" font-family="Arial-Black" font-weight="bold" font-size="13.0" fill="#FFFFFF" transform="matrix(1.00, 0.00, -0.00, -1.00, 95.5, 9.0)">L</text><text xml:space="preserve" font-family="Arial-Black" font-weight="bold" font-size="13.0" fill="#FFFFFF" transform="matrix(1.00, 0.00, -0.00, -1.00, 104.2, 9.0)">I</text><text xml:space="preserve" font-family="Arial-Black" font-weight="bold" font-size="13.0" fill="#FFFFFF" transform="matrix(1.00, 0.00, -0.00, -1.00, 109.3, 9.0)">T</text><text xml:space="preserve" font-family="Arial-Black" font-weight="bold" font-size="13.0" fill="#FFFFFF" transform="matrix(1.00, 0.00, -0.00, -1.00, 118.7, 9.0)">Y</text></g></g></g></svg>