<?xml version="1.0" encoding="UTF-8" standalone="no"?><svg xmlns="http://www.w3.org/2000/svg" xmlns:xlink="http://www.w3.org/1999/xlink" clip-rule="evenodd" stroke-miterlimit="4.00" viewBox="0 0 147 17"><desc>SVG generated by Keynote</desc><defs></defs><g transform="matrix(1.00, 0.00, -0.00, -1.00, 0.0, 17.0)"><text xml:space="preserve" font-family="TrebuchetMS" font-size="14.0" fill="#444444" transform="matrix(1.00, 0.00, -0.00, -1.00, 1.0, 5.0)">“</text><text xml:space="preserve" font-family="TrebuchetMS" font-size="14.0" fill="#444444" transform="matrix(1.00, 0.00, -0.00, -1.00, 8.3, 5.0)">P</text><text xml:space="preserve" font-family="TrebuchetMS" font-size="14.0" fill="#444444" transform="matrix(1.00, 0.00, -0.00, -1.00, 15.5, 5.0)">e</text><text xml:space="preserve" font-family="TrebuchetMS" font-size="14.0" fill="#444444" transform="matrix(1.00, 0.00, -0.00, -1.00, 23.1, 5.0)">r</text><text xml:space="preserve" font-family="TrebuchetMS" font-size="14.0" fill="#444444" transform="matrix(1.00, 0.00, -0.00, -1.00, 28.6, 5.0)">s</text><text xml:space="preserve" font-family="TrebuchetMS" font-size="14.0" fill="#444444" transform="matrix(1.00, 0.00, -0.00, -1.00, 34.2, 5.0)">o</text><text xml:space="preserve" font-family="TrebuchetMS" font-size="14.0" fill="#444444" transform="matrix(1.00, 0.00, -0.00, -1.00, 41.7, 5.0)">n</text><text xml:space="preserve" font-family="TrebuchetMS" font-size="14.0" fill="#444444" transform="matrix(1.00, 0.00, -0.00, -1.00, 49.4, 5.0)">a</text><text xml:space="preserve" font-family="TrebuchetMS" font-size="14.0" fill="#444444" transform="matrix(1.00, 0.00, -0.00, -1.00, 56.8, 5.0)">l</text><text xml:space="preserve" font-family="TrebuchetMS" font-size="14.0" fill="#444444" transform="matrix(1.00, 0.00, -0.00, -1.00, 60.9, 5.0)">i</text><text xml:space="preserve" font-family="TrebuchetMS" font-size="14.0" fill="#444444" transform="matrix(1.00, 0.00, -0.00, -1.00, 64.9, 5.0)">s</text><text xml:space="preserve" font-family="TrebuchetMS" font-size="14.0" fill="#444444" transform="matrix(1.00, 0.00, -0.00, -1.00, 70.5, 5.0)">e</text><text xml:space="preserve" font-family="TrebuchetMS" font-size="14.0" fill="#444444" transform="matrix(1.00, 0.00, -0.00, -1.00, 78.2, 5.0)">d</text><text xml:space="preserve" font-family="TrebuchetMS" font-size="14.0" fill="#444444" transform="matrix(1.00, 0.00, -0.00, -1.00, 86.0, 5.0)"> </text><text xml:space="preserve" font-family="TrebuchetMS" font-size="14.0" fill="#444444" transform="matrix(1.00, 0.00, -0.00, -1.00, 90.2, 5.0)">i</text><text xml:space="preserve" font-family="TrebuchetMS" font-size="14.0" fill="#444444" transform="matrix(1.00, 0.00, -0.00, -1.00, 94.2, 5.0)">n</text><text xml:space="preserve" font-family="TrebuchetMS" font-size="14.0" fill="#444444" transform="matrix(1.00, 0.00, -0.00, -1.00, 101.9, 5.0)">s</text><text xml:space="preserve" font-family="TrebuchetMS" font-size="14.0" fill="#444444" transform="matrix(1.00, 0.00, -0.00, -1.00, 107.5, 5.0)">i</text><text xml:space="preserve" font-family="TrebuchetMS" font-size="14.0" fill="#444444" transform="matrix(1.00, 0.00, -0.00, -1.00, 111.5, 5.0)">g</text><text xml:space="preserve" font-family="TrebuchetMS" font-size="14.0" fill="#444444" transform="matrix(1.00, 0.00, -0.00, -1.00, 118.5, 5.0)">h</text><text xml:space="preserve" font-family="TrebuchetMS" font-size="14.0" fill="#444444" transform="matrix(1.00, 0.00, -0.00, -1.00, 126.2, 5.0)">t</text><text xml:space="preserve" font-family="TrebuchetMS" font-size="14.0" fill="#444444" transform="matrix(1.00, 0.00, -0.00, -1.00, 131.8, 5.0)">s</text><text xml:space="preserve" font-family="TrebuchetMS" font-size="14.0" fill="#444444" transform="matrix(1.00, 0.00, -0.00, -1.00, 137.4, 5.0)">”</text></g></svg>