<?xml version="1.0" encoding="UTF-8" standalone="no"?><svg xmlns="http://www.w3.org/2000/svg" xmlns:xlink="http://www.w3.org/1999/xlink" clip-rule="evenodd" stroke-miterlimit="4.00" viewBox="0 0 237 53"><desc>SVG generated by Keynote</desc><defs></defs><g transform="matrix(1.00, 0.00, -0.00, -1.00, 0.0, 53.0)"><text xml:space="preserve" font-family="ArialMT" font-size="22.0" fill="#38C1D7" transform="matrix(1.00, 0.00, -0.00, -1.00, 0.6, 32.4)">•</text><text xml:space="preserve" font-family="TrebuchetMS" font-size="22.0" fill="#000000" transform="matrix(1.00, 0.00, -0.00, -1.00, 18.0, 32.0)">C</text><text xml:space="preserve" font-family="TrebuchetMS" font-size="22.0" fill="#000000" transform="matrix(1.00, 0.00, -0.00, -1.00, 31.2, 32.0)">r</text><text xml:space="preserve" font-family="TrebuchetMS" font-size="22.0" fill="#000000" transform="matrix(1.00, 0.00, -0.00, -1.00, 39.7, 32.0)">o</text><text xml:space="preserve" font-family="TrebuchetMS" font-size="22.0" fill="#000000" transform="matrix(1.00, 0.00, -0.00, -1.00, 51.5, 32.0)">s</text><text xml:space="preserve" font-family="TrebuchetMS" font-size="22.0" fill="#000000" transform="matrix(1.00, 0.00, -0.00, -1.00, 60.4, 32.0)">s</text><text xml:space="preserve" font-family="TrebuchetMS" font-size="22.0" fill="#000000" transform="matrix(1.00, 0.00, -0.00, -1.00, 69.3, 32.0)">-</text><text xml:space="preserve" font-family="TrebuchetMS" font-size="22.0" fill="#000000" transform="matrix(1.00, 0.00, -0.00, -1.00, 77.4, 32.0)">b</text><text xml:space="preserve" font-family="TrebuchetMS" font-size="22.0" fill="#000000" transform="matrix(1.00, 0.00, -0.00, -1.00, 89.7, 32.0)">o</text><text xml:space="preserve" font-family="TrebuchetMS" font-size="22.0" fill="#000000" transform="matrix(1.00, 0.00, -0.00, -1.00, 101.4, 32.0)">r</text><text xml:space="preserve" font-family="TrebuchetMS" font-size="22.0" fill="#000000" transform="matrix(1.00, 0.00, -0.00, -1.00, 110.0, 32.0)">d</text><text xml:space="preserve" font-family="TrebuchetMS" font-size="22.0" fill="#000000" transform="matrix(1.00, 0.00, -0.00, -1.00, 122.3, 32.0)">e</text><text xml:space="preserve" font-family="TrebuchetMS" font-size="22.0" fill="#000000" transform="matrix(1.00, 0.00, -0.00, -1.00, 134.3, 32.0)">r</text><text xml:space="preserve" font-family="TrebuchetMS" font-size="22.0" fill="#000000" transform="matrix(1.00, 0.00, -0.00, -1.00, 142.8, 32.0)"> </text><text xml:space="preserve" font-family="TrebuchetMS" font-size="22.0" fill="#000000" transform="matrix(1.00, 0.00, -0.00, -1.00, 149.4, 32.0)">p</text><text xml:space="preserve" font-family="TrebuchetMS" font-size="22.0" fill="#000000" transform="matrix(1.00, 0.00, -0.00, -1.00, 161.7, 32.0)">a</text><text xml:space="preserve" font-family="TrebuchetMS" font-size="22.0" fill="#000000" transform="matrix(1.00, 0.00, -0.00, -1.00, 173.3, 32.0)">y</text><text xml:space="preserve" font-family="TrebuchetMS" font-size="22.0" fill="#000000" transform="matrix(1.00, 0.00, -0.00, -1.00, 184.1, 32.0)">m</text><text xml:space="preserve" font-family="TrebuchetMS" font-size="22.0" fill="#000000" transform="matrix(1.00, 0.00, -0.00, -1.00, 202.4, 32.0)">e</text><text xml:space="preserve" font-family="TrebuchetMS" font-size="22.0" fill="#000000" transform="matrix(1.00, 0.00, -0.00, -1.00, 214.4, 32.0)">n</text><text xml:space="preserve" font-family="TrebuchetMS" font-size="22.0" fill="#000000" transform="matrix(1.00, 0.00, -0.00, -1.00, 226.4, 32.0)">t</text><text xml:space="preserve" font-family="LucidaGrande" font-size="22.0" fill="#000000" transform="matrix(1.00, 0.00, -0.00, -1.00, 235.1, 32.0)"> </text><text xml:space="preserve" font-family="TrebuchetMS" font-size="22.0" fill="#000000" transform="matrix(1.00, 0.00, -0.00, -1.00, 18.0, 6.0)">p</text><text xml:space="preserve" font-family="TrebuchetMS" font-size="22.0" fill="#000000" transform="matrix(1.00, 0.00, -0.00, -1.00, 30.3, 6.0)">r</text><text xml:space="preserve" font-family="TrebuchetMS" font-size="22.0" fill="#000000" transform="matrix(1.00, 0.00, -0.00, -1.00, 38.8, 6.0)">o</text><text xml:space="preserve" font-family="TrebuchetMS" font-size="22.0" fill="#000000" transform="matrix(1.00, 0.00, -0.00, -1.00, 50.6, 6.0)">t</text><text xml:space="preserve" font-family="TrebuchetMS" font-size="22.0" fill="#000000" transform="matrix(1.00, 0.00, -0.00, -1.00, 59.3, 6.0)">e</text><text xml:space="preserve" font-family="TrebuchetMS" font-size="22.0" fill="#000000" transform="matrix(1.00, 0.00, -0.00, -1.00, 71.3, 6.0)">c</text><text xml:space="preserve" font-family="TrebuchetMS" font-size="22.0" fill="#000000" transform="matrix(1.00, 0.00, -0.00, -1.00, 82.2, 6.0)">t</text><text xml:space="preserve" font-family="TrebuchetMS" font-size="22.0" fill="#000000" transform="matrix(1.00, 0.00, -0.00, -1.00, 90.9, 6.0)">i</text><text xml:space="preserve" font-family="TrebuchetMS" font-size="22.0" fill="#000000" transform="matrix(1.00, 0.00, -0.00, -1.00, 97.2, 6.0)">o</text><text xml:space="preserve" font-family="TrebuchetMS" font-size="22.0" fill="#000000" transform="matrix(1.00, 0.00, -0.00, -1.00, 109.0, 6.0)">n</text><text xml:space="preserve" font-family="LucidaGrande" font-size="22.0" fill="#000000" transform="matrix(1.00, 0.00, -0.00, -1.00, 121.0, 6.0)"> </text></g></svg>