<?xml version="1.0" encoding="UTF-8" standalone="no"?><svg xmlns="http://www.w3.org/2000/svg" xmlns:xlink="http://www.w3.org/1999/xlink" clip-rule="evenodd" stroke-miterlimit="4.00" viewBox="0 0 264 27"><desc>SVG generated by Keynote</desc><defs></defs><g transform="matrix(1.00, 0.00, -0.00, -1.00, 0.0, 27.0)"><text xml:space="preserve" font-family="ArialMT" font-size="22.0" fill="#38C1D7" transform="matrix(1.00, 0.00, -0.00, -1.00, 0.6, 6.4)">•</text><text xml:space="preserve" font-family="TrebuchetMS" font-size="22.0" fill="#000000" transform="matrix(1.00, 0.00, -0.00, -1.00, 18.0, 6.0)">C</text><text xml:space="preserve" font-family="TrebuchetMS" font-size="22.0" fill="#000000" transform="matrix(1.00, 0.00, -0.00, -1.00, 31.2, 6.0)">o</text><text xml:space="preserve" font-family="TrebuchetMS" font-size="22.0" fill="#000000" transform="matrix(1.00, 0.00, -0.00, -1.00, 42.9, 6.0)">m</text><text xml:space="preserve" font-family="TrebuchetMS" font-size="22.0" fill="#000000" transform="matrix(1.00, 0.00, -0.00, -1.00, 61.2, 6.0)">p</text><text xml:space="preserve" font-family="TrebuchetMS" font-size="22.0" fill="#000000" transform="matrix(1.00, 0.00, -0.00, -1.00, 73.5, 6.0)">l</text><text xml:space="preserve" font-family="TrebuchetMS" font-size="22.0" fill="#000000" transform="matrix(1.00, 0.00, -0.00, -1.00, 80.0, 6.0)">i</text><text xml:space="preserve" font-family="TrebuchetMS" font-size="22.0" fill="#000000" transform="matrix(1.00, 0.00, -0.00, -1.00, 86.2, 6.0)">a</text><text xml:space="preserve" font-family="TrebuchetMS" font-size="22.0" fill="#000000" transform="matrix(1.00, 0.00, -0.00, -1.00, 97.8, 6.0)">n</text><text xml:space="preserve" font-family="TrebuchetMS" font-size="22.0" fill="#000000" transform="matrix(1.00, 0.00, -0.00, -1.00, 109.8, 6.0)">c</text><text xml:space="preserve" font-family="TrebuchetMS" font-size="22.0" fill="#000000" transform="matrix(1.00, 0.00, -0.00, -1.00, 120.7, 6.0)">e</text><text xml:space="preserve" font-family="TrebuchetMS" font-size="22.0" fill="#000000" transform="matrix(1.00, 0.00, -0.00, -1.00, 132.7, 6.0)"> </text><text xml:space="preserve" font-family="TrebuchetMS" font-size="22.0" fill="#000000" transform="matrix(1.00, 0.00, -0.00, -1.00, 139.3, 6.0)">r</text><text xml:space="preserve" font-family="TrebuchetMS" font-size="22.0" fill="#000000" transform="matrix(1.00, 0.00, -0.00, -1.00, 147.9, 6.0)">e</text><text xml:space="preserve" font-family="TrebuchetMS" font-size="22.0" fill="#000000" transform="matrix(1.00, 0.00, -0.00, -1.00, 159.9, 6.0)">q</text><text xml:space="preserve" font-family="TrebuchetMS" font-size="22.0" fill="#000000" transform="matrix(1.00, 0.00, -0.00, -1.00, 172.2, 6.0)">u</text><text xml:space="preserve" font-family="TrebuchetMS" font-size="22.0" fill="#000000" transform="matrix(1.00, 0.00, -0.00, -1.00, 184.2, 6.0)">i</text><text xml:space="preserve" font-family="TrebuchetMS" font-size="22.0" fill="#000000" transform="matrix(1.00, 0.00, -0.00, -1.00, 190.5, 6.0)">r</text><text xml:space="preserve" font-family="TrebuchetMS" font-size="22.0" fill="#000000" transform="matrix(1.00, 0.00, -0.00, -1.00, 199.0, 6.0)">e</text><text xml:space="preserve" font-family="TrebuchetMS" font-size="22.0" fill="#000000" transform="matrix(1.00, 0.00, -0.00, -1.00, 211.0, 6.0)">m</text><text xml:space="preserve" font-family="TrebuchetMS" font-size="22.0" fill="#000000" transform="matrix(1.00, 0.00, -0.00, -1.00, 229.3, 6.0)">e</text><text xml:space="preserve" font-family="TrebuchetMS" font-size="22.0" fill="#000000" transform="matrix(1.00, 0.00, -0.00, -1.00, 241.3, 6.0)">n</text><text xml:space="preserve" font-family="TrebuchetMS" font-size="22.0" fill="#000000" transform="matrix(1.00, 0.00, -0.00, -1.00, 253.3, 6.0)">t</text></g></svg>