<?xml version="1.0" encoding="UTF-8" standalone="no"?><svg xmlns="http://www.w3.org/2000/svg" xmlns:xlink="http://www.w3.org/1999/xlink" clip-rule="evenodd" stroke-miterlimit="4.00" viewBox="0 0 171 28"><desc>SVG generated by Keynote</desc><defs></defs><g transform="matrix(1.00, 0.00, -0.00, -1.00, 0.0, 28.0)"><text xml:space="preserve" font-family="ArialMT" font-size="23.8" fill="#38C1D7" transform="matrix(1.00, 0.00, -0.00, -1.00, 1.0, 5.4)">•</text><text xml:space="preserve" font-family="TrebuchetMS" font-size="23.8" fill="#000000" transform="matrix(1.00, 0.00, -0.00, -1.00, 15.0, 6.0)">N</text><text xml:space="preserve" font-family="TrebuchetMS" font-size="23.8" fill="#000000" transform="matrix(1.00, 0.00, -0.00, -1.00, 30.2, 6.0)">F</text><text xml:space="preserve" font-family="TrebuchetMS" font-size="23.8" fill="#000000" transform="matrix(1.00, 0.00, -0.00, -1.00, 42.7, 6.0)">C</text><text xml:space="preserve" font-family="TrebuchetMS" font-size="23.8" fill="#000000" transform="matrix(1.00, 0.00, -0.00, -1.00, 56.9, 6.0)">,</text><text xml:space="preserve" font-family="TrebuchetMS" font-size="23.8" fill="#000000" transform="matrix(1.00, 0.00, -0.00, -1.00, 65.7, 6.0)"> </text><text xml:space="preserve" font-family="TrebuchetMS" font-size="23.8" fill="#000000" transform="matrix(1.00, 0.00, -0.00, -1.00, 72.9, 6.0)">H</text><text xml:space="preserve" font-family="TrebuchetMS" font-size="23.8" fill="#000000" transform="matrix(1.00, 0.00, -0.00, -1.00, 88.4, 6.0)">C</text><text xml:space="preserve" font-family="TrebuchetMS" font-size="23.8" fill="#000000" transform="matrix(1.00, 0.00, -0.00, -1.00, 102.7, 6.0)">E</text><text xml:space="preserve" font-family="TrebuchetMS" font-size="23.8" fill="#000000" transform="matrix(1.00, 0.00, -0.00, -1.00, 115.4, 6.0)">,</text><text xml:space="preserve" font-family="TrebuchetMS" font-size="23.8" fill="#000000" transform="matrix(1.00, 0.00, -0.00, -1.00, 124.1, 6.0)"> </text><text xml:space="preserve" font-family="TrebuchetMS" font-size="23.8" fill="#000000" transform="matrix(1.00, 0.00, -0.00, -1.00, 131.3, 6.0)">B</text><text xml:space="preserve" font-family="TrebuchetMS" font-size="23.8" fill="#000000" transform="matrix(1.00, 0.00, -0.00, -1.00, 144.8, 6.0)">L</text><text xml:space="preserve" font-family="TrebuchetMS" font-size="23.8" fill="#000000" transform="matrix(1.00, 0.00, -0.00, -1.00, 156.8, 6.0)">E</text></g></svg>