<?xml version="1.0" encoding="UTF-8" standalone="no"?><svg xmlns="http://www.w3.org/2000/svg" xmlns:xlink="http://www.w3.org/1999/xlink" clip-rule="evenodd" stroke-miterlimit="4.00" viewBox="0 0 126 27"><desc>SVG generated by Keynote</desc><defs></defs><g transform="matrix(1.00, 0.00, -0.00, -1.00, 0.0, 27.0)"><text xml:space="preserve" font-family="ArialMT" font-size="23.8" fill="#38C1D7" transform="matrix(1.00, 0.00, -0.00, -1.00, 1.0, 4.4)">•</text><text xml:space="preserve" font-family="TrebuchetMS" font-size="23.8" fill="#000000" transform="matrix(1.00, 0.00, -0.00, -1.00, 15.0, 5.0)">W</text><text xml:space="preserve" font-family="TrebuchetMS" font-size="23.8" fill="#000000" transform="matrix(1.00, 0.00, -0.00, -1.00, 34.2, 5.0)">e</text><text xml:space="preserve" font-family="TrebuchetMS" font-size="23.8" fill="#000000" transform="matrix(1.00, 0.00, -0.00, -1.00, 47.2, 5.0)">a</text><text xml:space="preserve" font-family="TrebuchetMS" font-size="23.8" fill="#000000" transform="matrix(1.00, 0.00, -0.00, -1.00, 59.7, 5.0)">r</text><text xml:space="preserve" font-family="TrebuchetMS" font-size="23.8" fill="#000000" transform="matrix(1.00, 0.00, -0.00, -1.00, 68.9, 5.0)">a</text><text xml:space="preserve" font-family="TrebuchetMS" font-size="23.8" fill="#000000" transform="matrix(1.00, 0.00, -0.00, -1.00, 81.4, 5.0)">b</text><text xml:space="preserve" font-family="TrebuchetMS" font-size="23.8" fill="#000000" transform="matrix(1.00, 0.00, -0.00, -1.00, 94.7, 5.0)">l</text><text xml:space="preserve" font-family="TrebuchetMS" font-size="23.8" fill="#000000" transform="matrix(1.00, 0.00, -0.00, -1.00, 101.7, 5.0)">e</text><text xml:space="preserve" font-family="TrebuchetMS" font-size="23.8" fill="#000000" transform="matrix(1.00, 0.00, -0.00, -1.00, 114.7, 5.0)">s</text></g></svg>