<?xml version="1.0" encoding="UTF-8" standalone="no"?><svg xmlns="http://www.w3.org/2000/svg" xmlns:xlink="http://www.w3.org/1999/xlink" clip-rule="evenodd" stroke-miterlimit="4.00" viewBox="0 0 720 540"><desc>SVG generated by Keynote</desc><defs></defs><g transform="matrix(1.00, 0.00, -0.00, -1.00, 0.0, 540.0)"><path d="M 0.0 540.0 L 720.0 540.0 L 720.0 0.0 L 0.0 0.0 Z M 0.0 540.0 " fill="#FFFFFF"></path><path d="M 0.0 28.1 L 720.0 28.1 L 720.0 -0.7 L 0.0 -0.7 Z M 0.0 28.1 " fill="#454447"></path><text xml:space="preserve" font-family="TrebuchetMS" font-size="8.0" fill="#CCCCCC" transform="matrix(1.00, 0.00, -0.00, -1.00, 96.0, 11.0)">I</text><text xml:space="preserve" font-family="TrebuchetMS" font-size="8.0" fill="#CCCCCC" transform="matrix(1.00, 0.00, -0.00, -1.00, 98.4, 11.0)">T</text><text xml:space="preserve" font-family="TrebuchetMS" font-size="8.0" fill="#CCCCCC" transform="matrix(1.00, 0.00, -0.00, -1.00, 103.1, 11.0)"> </text><text xml:space="preserve" font-family="TrebuchetMS" font-size="8.0" fill="#CCCCCC" transform="matrix(1.00, 0.00, -0.00, -1.00, 105.7, 11.0)">W</text><text xml:space="preserve" font-family="TrebuchetMS" font-size="8.0" fill="#CCCCCC" transform="matrix(1.00, 0.00, -0.00, -1.00, 112.8, 11.0)">E</text><text xml:space="preserve" font-family="TrebuchetMS" font-size="8.0" fill="#CCCCCC" transform="matrix(1.00, 0.00, -0.00, -1.00, 117.2, 11.0)">E</text><text xml:space="preserve" font-family="TrebuchetMS" font-size="8.0" fill="#CCCCCC" transform="matrix(1.00, 0.00, -0.00, -1.00, 121.7, 11.0)">K</text><text xml:space="preserve" font-family="TrebuchetMS" font-size="8.0" fill="#CCCCCC" transform="matrix(1.00, 0.00, -0.00, -1.00, 126.5, 11.0)"> </text><text xml:space="preserve" font-family="TrebuchetMS" font-size="8.0" fill="#CCCCCC" transform="matrix(1.00, 0.00, -0.00, -1.00, 129.1, 11.0)">2</text><text xml:space="preserve" font-family="TrebuchetMS" font-size="8.0" fill="#CCCCCC" transform="matrix(1.00, 0.00, -0.00, -1.00, 133.5, 11.0)">0</text><text xml:space="preserve" font-family="TrebuchetMS" font-size="8.0" fill="#CCCCCC" transform="matrix(1.00, 0.00, -0.00, -1.00, 137.9, 11.0)">1</text><text xml:space="preserve" font-family="TrebuchetMS" font-size="8.0" fill="#CCCCCC" transform="matrix(1.00, 0.00, -0.00, -1.00, 142.3, 11.0)">6</text><text xml:space="preserve" font-family="TrebuchetMS" font-size="8.0" fill="#CCCCCC" transform="matrix(1.00, 0.00, -0.00, -1.00, 146.7, 11.0)"> </text><text xml:space="preserve" font-family="TrebuchetMS" font-size="8.0" fill="#CCCCCC" transform="matrix(1.00, 0.00, -0.00, -1.00, 149.3, 11.0)">-</text><text xml:space="preserve" font-family="TrebuchetMS" font-size="8.0" fill="#CCCCCC" transform="matrix(1.00, 0.00, -0.00, -1.00, 152.5, 11.0)"> </text><text xml:space="preserve" font-family="TrebuchetMS" font-size="8.0" fill="#CCCCCC" transform="matrix(1.00, 0.00, -0.00, -1.00, 155.1, 11.0)">F</text><text xml:space="preserve" font-family="TrebuchetMS" font-size="8.0" fill="#CCCCCC" transform="matrix(1.00, 0.00, -0.00, -1.00, 159.5, 11.0)">u</text><text xml:space="preserve" font-family="TrebuchetMS" font-size="8.0" fill="#CCCCCC" transform="matrix(1.00, 0.00, -0.00, -1.00, 164.1, 11.0)">t</text><text xml:space="preserve" font-family="TrebuchetMS" font-size="8.0" fill="#CCCCCC" transform="matrix(1.00, 0.00, -0.00, -1.00, 167.4, 11.0)">u</text><text xml:space="preserve" font-family="TrebuchetMS" font-size="8.0" fill="#CCCCCC" transform="matrix(1.00, 0.00, -0.00, -1.00, 172.0, 11.0)">r</text><text xml:space="preserve" font-family="TrebuchetMS" font-size="8.0" fill="#CCCCCC" transform="matrix(1.00, 0.00, -0.00, -1.00, 175.3, 11.0)">e</text><text xml:space="preserve" font-family="TrebuchetMS" font-size="8.0" fill="#CCCCCC" transform="matrix(1.00, 0.00, -0.00, -1.00, 179.9, 11.0)"> </text><text xml:space="preserve" font-family="TrebuchetMS" font-size="8.0" fill="#CCCCCC" transform="matrix(1.00, 0.00, -0.00, -1.00, 182.5, 11.0)">o</text><text xml:space="preserve" font-family="TrebuchetMS" font-size="8.0" fill="#CCCCCC" transform="matrix(1.00, 0.00, -0.00, -1.00, 187.0, 11.0)">f</text><text xml:space="preserve" font-family="TrebuchetMS" font-size="8.0" fill="#CCCCCC" transform="matrix(1.00, 0.00, -0.00, -1.00, 190.1, 11.0)"> </text><text xml:space="preserve" font-family="TrebuchetMS" font-size="8.0" fill="#CCCCCC" transform="matrix(1.00, 0.00, -0.00, -1.00, 192.7, 11.0)">C</text><text xml:space="preserve" font-family="TrebuchetMS" font-size="8.0" fill="#CCCCCC" transform="matrix(1.00, 0.00, -0.00, -1.00, 197.7, 11.0)">a</text><text xml:space="preserve" font-family="TrebuchetMS" font-size="8.0" fill="#CCCCCC" transform="matrix(1.00, 0.00, -0.00, -1.00, 202.1, 11.0)">s</text><text xml:space="preserve" font-family="TrebuchetMS" font-size="8.0" fill="#CCCCCC" transform="matrix(1.00, 0.00, -0.00, -1.00, 205.6, 11.0)">h</text><text xml:space="preserve" font-family="TrebuchetMS" font-size="8.0" fill="#CCCCCC" transform="matrix(1.00, 0.00, -0.00, -1.00, 210.1, 11.0)">l</text><text xml:space="preserve" font-family="TrebuchetMS" font-size="8.0" fill="#CCCCCC" transform="matrix(1.00, 0.00, -0.00, -1.00, 212.7, 11.0)">e</text><text xml:space="preserve" font-family="TrebuchetMS" font-size="8.0" fill="#CCCCCC" transform="matrix(1.00, 0.00, -0.00, -1.00, 217.3, 11.0)">s</text><text xml:space="preserve" font-family="TrebuchetMS" font-size="8.0" fill="#CCCCCC" transform="matrix(1.00, 0.00, -0.00, -1.00, 220.7, 11.0)">s</text><text xml:space="preserve" font-family="TrebuchetMS" font-size="8.0" fill="#CCCCCC" transform="matrix(1.00, 0.00, -0.00, -1.00, 224.1, 11.0)"> </text><text xml:space="preserve" font-family="TrebuchetMS" font-size="8.0" fill="#CCCCCC" transform="matrix(1.00, 0.00, -0.00, -1.00, 226.7, 11.0)">P</text><text xml:space="preserve" font-family="TrebuchetMS" font-size="8.0" fill="#CCCCCC" transform="matrix(1.00, 0.00, -0.00, -1.00, 231.0, 11.0)">a</text><text xml:space="preserve" font-family="TrebuchetMS" font-size="8.0" fill="#CCCCCC" transform="matrix(1.00, 0.00, -0.00, -1.00, 235.4, 11.0)">y</text><text xml:space="preserve" font-family="TrebuchetMS" font-size="8.0" fill="#CCCCCC" transform="matrix(1.00, 0.00, -0.00, -1.00, 239.6, 11.0)">m</text><text xml:space="preserve" font-family="TrebuchetMS" font-size="8.0" fill="#CCCCCC" transform="matrix(1.00, 0.00, -0.00, -1.00, 246.4, 11.0)">e</text><text xml:space="preserve" font-family="TrebuchetMS" font-size="8.0" fill="#CCCCCC" transform="matrix(1.00, 0.00, -0.00, -1.00, 251.0, 11.0)">n</text><text xml:space="preserve" font-family="TrebuchetMS" font-size="8.0" fill="#CCCCCC" transform="matrix(1.00, 0.00, -0.00, -1.00, 255.6, 11.0)">t</text><text xml:space="preserve" font-family="TrebuchetMS" font-size="8.0" fill="#CCCCCC" transform="matrix(1.00, 0.00, -0.00, -1.00, 258.9, 11.0)">s</text><text xml:space="preserve" font-family="TrebuchetMS" font-size="8.0" fill="#CCCCCC" transform="matrix(1.00, 0.00, -0.00, -1.00, 262.4, 11.0)"> </text><text xml:space="preserve" font-family="TrebuchetMS" font-size="8.0" fill="#CCCCCC" transform="matrix(1.00, 0.00, -0.00, -1.00, 265.0, 11.0)">-</text><text xml:space="preserve" font-family="TrebuchetMS" font-size="8.0" fill="#CCCCCC" transform="matrix(1.00, 0.00, -0.00, -1.00, 268.1, 11.0)"> </text><text xml:space="preserve" font-family="TrebuchetMS" font-size="8.0" fill="#CCCCCC" transform="matrix(1.00, 0.00, -0.00, -1.00, 270.7, 11.0)">K</text><text xml:space="preserve" font-family="TrebuchetMS" font-size="8.0" fill="#CCCCCC" transform="matrix(1.00, 0.00, -0.00, -1.00, 275.3, 11.0)">o</text><text xml:space="preserve" font-family="TrebuchetMS" font-size="8.0" fill="#CCCCCC" transform="matrix(1.00, 0.00, -0.00, -1.00, 279.8, 11.0)">n</text><text xml:space="preserve" font-family="TrebuchetMS" font-size="8.0" fill="#CCCCCC" transform="matrix(1.00, 0.00, -0.00, -1.00, 284.3, 11.0)">r</text><text xml:space="preserve" font-family="TrebuchetMS" font-size="8.0" fill="#CCCCCC" transform="matrix(1.00, 0.00, -0.00, -1.00, 287.6, 11.0)">a</text><text xml:space="preserve" font-family="TrebuchetMS" font-size="8.0" fill="#CCCCCC" transform="matrix(1.00, 0.00, -0.00, -1.00, 292.1, 11.0)">d</text><text xml:space="preserve" font-family="TrebuchetMS" font-size="8.0" fill="#CCCCCC" transform="matrix(1.00, 0.00, -0.00, -1.00, 296.7, 11.0)"> </text><text xml:space="preserve" font-family="TrebuchetMS" font-size="8.0" fill="#CCCCCC" transform="matrix(1.00, 0.00, -0.00, -1.00, 299.3, 11.0)">H</text><text xml:space="preserve" font-family="TrebuchetMS" font-size="8.0" fill="#CCCCCC" transform="matrix(1.00, 0.00, -0.00, -1.00, 304.8, 11.0)">e</text><text xml:space="preserve" font-family="TrebuchetMS" font-size="8.0" fill="#CCCCCC" transform="matrix(1.00, 0.00, -0.00, -1.00, 309.3, 11.0)">f</text><text xml:space="preserve" font-family="TrebuchetMS" font-size="8.0" fill="#CCCCCC" transform="matrix(1.00, 0.00, -0.00, -1.00, 312.5, 11.0)">e</text><text xml:space="preserve" font-family="TrebuchetMS" font-size="8.0" fill="#CCCCCC" transform="matrix(1.00, 0.00, -0.00, -1.00, 317.0, 11.0)">l</text><text xml:space="preserve" font-family="TrebuchetMS" font-size="8.0" fill="#CCCCCC" transform="matrix(1.00, 0.00, -0.00, -1.00, 319.6, 11.0)">l</text><text xml:space="preserve" font-family="TrebuchetMS" font-size="8.0" fill="#CCCCCC" transform="matrix(1.00, 0.00, -0.00, -1.00, 322.2, 11.0)">e</text><text xml:space="preserve" font-family="TrebuchetMS" font-size="8.0" fill="#CCCCCC" transform="matrix(1.00, 0.00, -0.00, -1.00, 326.7, 11.0)">,</text><text xml:space="preserve" font-family="TrebuchetMS" font-size="8.0" fill="#CCCCCC" transform="matrix(1.00, 0.00, -0.00, -1.00, 329.9, 11.0)"> </text><text xml:space="preserve" font-family="TrebuchetMS" font-size="8.0" fill="#CCCCCC" transform="matrix(1.00, 0.00, -0.00, -1.00, 332.5, 11.0)">2</text><text xml:space="preserve" font-family="TrebuchetMS" font-size="8.0" fill="#CCCCCC" transform="matrix(1.00, 0.00, -0.00, -1.00, 336.9, 11.0)">0</text><text xml:space="preserve" font-family="TrebuchetMS" font-size="8.0" fill="#CCCCCC" transform="matrix(1.00, 0.00, -0.00, -1.00, 341.3, 11.0)">.</text><text xml:space="preserve" font-family="TrebuchetMS" font-size="8.0" fill="#CCCCCC" transform="matrix(1.00, 0.00, -0.00, -1.00, 344.4, 11.0)"> </text><text xml:space="preserve" font-family="TrebuchetMS" font-size="8.0" fill="#CCCCCC" transform="matrix(1.00, 0.00, -0.00, -1.00, 346.6, 11.0)">A</text><text xml:space="preserve" font-family="TrebuchetMS" font-size="8.0" fill="#CCCCCC" transform="matrix(1.00, 0.00, -0.00, -1.00, 351.5, 11.0)">p</text><text xml:space="preserve" font-family="TrebuchetMS" font-size="8.0" fill="#CCCCCC" transform="matrix(1.00, 0.00, -0.00, -1.00, 356.2, 11.0)">r</text><text xml:space="preserve" font-family="TrebuchetMS" font-size="8.0" fill="#CCCCCC" transform="matrix(1.00, 0.00, -0.00, -1.00, 359.5, 11.0)">i</text><text xml:space="preserve" font-family="TrebuchetMS" font-size="8.0" fill="#CCCCCC" transform="matrix(1.00, 0.00, -0.00, -1.00, 362.0, 11.0)">l</text><text xml:space="preserve" font-family="TrebuchetMS" font-size="8.0" fill="#CCCCCC" transform="matrix(1.00, 0.00, -0.00, -1.00, 364.5, 11.0)"> </text><text xml:space="preserve" font-family="TrebuchetMS" font-size="8.0" fill="#CCCCCC" transform="matrix(1.00, 0.00, -0.00, -1.00, 367.1, 11.0)">2</text><text xml:space="preserve" font-family="TrebuchetMS" font-size="8.0" fill="#CCCCCC" transform="matrix(1.00, 0.00, -0.00, -1.00, 371.5, 11.0)">0</text><text xml:space="preserve" font-family="TrebuchetMS" font-size="8.0" fill="#CCCCCC" transform="matrix(1.00, 0.00, -0.00, -1.00, 375.9, 11.0)">1</text><text xml:space="preserve" font-family="TrebuchetMS" font-size="8.0" fill="#CCCCCC" transform="matrix(1.00, 0.00, -0.00, -1.00, 380.3, 11.0)">6</text><path d="M 0.0 0.0 L 13.0 0.0 " fill="none" stroke="#CCCCCC" stroke-width="0.25" stroke-linejoin="round" transform="matrix(0.00, -1.00, -1.00, 0.00, 87.0, 20.2)"></path><image xlink:href="../../99926EC3-3614-4C70-A445-D3AA65276E24/assets/FCA234F62485E16A639918F8658267AA.png" width="38.00" height="13.00" transform="matrix(0.97, 0.00, -0.00, -1.00, 37.0, 19.0)"></image><text xml:space="preserve" font-family="TrebuchetMS" font-size="10.0" fill="#CCCCCC" transform="matrix(1.00, 0.00, -0.00, -1.00, 682.1, 11.0)">4</text><image xlink:href="../../E3CCD7FC-4CC6-4379-8F12-393AEC6D6D66/assets/D8EAC996D507BFBCE2171B60B53A42D7.png" width="726.00" height="79.00" transform="matrix(1.00, 0.00, -0.00, -1.01, -3.0, 542.7)" opacity="0.30"></image><path d="M 0.0 541.7 L 720.0 541.7 L 720.0 468.3 L 0.0 468.3 Z M 0.0 541.7 " fill="#FFFFFF"></path><g><clipPath id="clip-27"><path d="M -5.6 468.3 L 725.6 468.3 L 725.6 541.7 L -5.6 541.7 Z M -5.6 468.3 "></path></clipPath><g clip-path="url(#clip-27)"><text xml:space="preserve" font-family="Arial-Black" font-weight="bold" font-size="26.0" fill="#454447" transform="matrix(1.00, 0.00, -0.00, -1.00, 4.0, 495.0)">C</text><text xml:space="preserve" font-family="Arial-Black" font-weight="bold" font-size="26.0" fill="#454447" transform="matrix(1.00, 0.00, -0.00, -1.00, 24.2, 495.0)">O</text><text xml:space="preserve" font-family="Arial-Black" font-weight="bold" font-size="26.0" fill="#454447" transform="matrix(1.00, 0.00, -0.00, -1.00, 45.9, 495.0)">M</text><text xml:space="preserve" font-family="Arial-Black" font-weight="bold" font-size="26.0" fill="#454447" transform="matrix(1.00, 0.00, -0.00, -1.00, 70.4, 495.0)">P</text><text xml:space="preserve" font-family="Arial-Black" font-weight="bold" font-size="26.0" fill="#454447" transform="matrix(1.00, 0.00, -0.00, -1.00, 89.2, 495.0)">L</text><text xml:space="preserve" font-family="Arial-Black" font-weight="bold" font-size="26.0" fill="#454447" transform="matrix(1.00, 0.00, -0.00, -1.00, 106.5, 495.0)">E</text><text xml:space="preserve" font-family="Arial-Black" font-weight="bold" font-size="26.0" fill="#454447" transform="matrix(1.00, 0.00, -0.00, -1.00, 125.3, 495.0)">X</text><text xml:space="preserve" font-family="Arial-Black" font-weight="bold" font-size="26.0" fill="#454447" transform="matrix(1.00, 0.00, -0.00, -1.00, 145.5, 495.0)"> </text><text xml:space="preserve" font-family="Arial-Black" font-weight="bold" font-size="26.0" fill="#454447" transform="matrix(1.00, 0.00, -0.00, -1.00, 154.2, 495.0)">T</text><text xml:space="preserve" font-family="Arial-Black" font-weight="bold" font-size="26.0" fill="#454447" transform="matrix(1.00, 0.00, -0.00, -1.00, 173.0, 495.0)">E</text><text xml:space="preserve" font-family="Arial-Black" font-weight="bold" font-size="26.0" fill="#454447" transform="matrix(1.00, 0.00, -0.00, -1.00, 191.8, 495.0)">C</text><text xml:space="preserve" font-family="Arial-Black" font-weight="bold" font-size="26.0" fill="#454447" transform="matrix(1.00, 0.00, -0.00, -1.00, 212.0, 495.0)">H</text><text xml:space="preserve" font-family="Arial-Black" font-weight="bold" font-size="26.0" fill="#454447" transform="matrix(1.00, 0.00, -0.00, -1.00, 233.7, 495.0)">N</text><text xml:space="preserve" font-family="Arial-Black" font-weight="bold" font-size="26.0" fill="#454447" transform="matrix(1.00, 0.00, -0.00, -1.00, 255.3, 495.0)">O</text><text xml:space="preserve" font-family="Arial-Black" font-weight="bold" font-size="26.0" fill="#454447" transform="matrix(1.00, 0.00, -0.00, -1.00, 277.0, 495.0)">L</text><text xml:space="preserve" font-family="Arial-Black" font-weight="bold" font-size="26.0" fill="#454447" transform="matrix(1.00, 0.00, -0.00, -1.00, 293.9, 495.0)">O</text><text xml:space="preserve" font-family="Arial-Black" font-weight="bold" font-size="26.0" fill="#454447" transform="matrix(1.00, 0.00, -0.00, -1.00, 315.5, 495.0)">G</text><text xml:space="preserve" font-family="Arial-Black" font-weight="bold" font-size="26.0" fill="#454447" transform="matrix(1.00, 0.00, -0.00, -1.00, 337.2, 495.0)">Y</text><text xml:space="preserve" font-family="Arial-Black" font-weight="bold" font-size="26.0" fill="#454447" transform="matrix(1.00, 0.00, -0.00, -1.00, 357.4, 495.0)"> </text><text xml:space="preserve" font-family="Arial-Black" font-weight="bold" font-size="26.0" fill="#454447" transform="matrix(1.00, 0.00, -0.00, -1.00, 366.1, 495.0)">L</text><text xml:space="preserve" font-family="Arial-Black" font-weight="bold" font-size="26.0" fill="#454447" transform="matrix(1.00, 0.00, -0.00, -1.00, 383.4, 495.0)">A</text><text xml:space="preserve" font-family="Arial-Black" font-weight="bold" font-size="26.0" fill="#454447" transform="matrix(1.00, 0.00, -0.00, -1.00, 403.7, 495.0)">N</text><text xml:space="preserve" font-family="Arial-Black" font-weight="bold" font-size="26.0" fill="#454447" transform="matrix(1.00, 0.00, -0.00, -1.00, 425.3, 495.0)">D</text><text xml:space="preserve" font-family="Arial-Black" font-weight="bold" font-size="26.0" fill="#454447" transform="matrix(1.00, 0.00, -0.00, -1.00, 445.5, 495.0)">S</text><text xml:space="preserve" font-family="Arial-Black" font-weight="bold" font-size="26.0" fill="#454447" transform="matrix(1.00, 0.00, -0.00, -1.00, 464.3, 495.0)">C</text><text xml:space="preserve" font-family="Arial-Black" font-weight="bold" font-size="26.0" fill="#454447" transform="matrix(1.00, 0.00, -0.00, -1.00, 484.5, 495.0)">A</text><text xml:space="preserve" font-family="Arial-Black" font-weight="bold" font-size="26.0" fill="#454447" transform="matrix(1.00, 0.00, -0.00, -1.00, 504.7, 495.0)">P</text><text xml:space="preserve" font-family="Arial-Black" font-weight="bold" font-size="26.0" fill="#454447" transform="matrix(1.00, 0.00, -0.00, -1.00, 523.5, 495.0)">E</text></g></g><text xml:space="preserve" font-family="ArialMT" font-size="23.8" fill="#38C1D7" transform="matrix(1.00, 0.00, -0.00, -1.00, 45.0, 333.4)">•</text><text xml:space="preserve" font-family="TrebuchetMS" font-size="23.8" fill="#000000" transform="matrix(1.00, 0.00, -0.00, -1.00, 59.0, 334.0)">P</text><text xml:space="preserve" font-family="TrebuchetMS" font-size="23.8" fill="#000000" transform="matrix(1.00, 0.00, -0.00, -1.00, 72.3, 334.0)">O</text><text xml:space="preserve" font-family="TrebuchetMS" font-size="23.8" fill="#000000" transform="matrix(1.00, 0.00, -0.00, -1.00, 88.3, 334.0)">S</text><text xml:space="preserve" font-family="ArialMT" font-size="23.8" fill="#38C1D7" transform="matrix(1.00, 0.00, -0.00, -1.00, 45.0, 279.4)">•</text><text xml:space="preserve" font-family="TrebuchetMS" font-size="23.8" fill="#000000" transform="matrix(1.00, 0.00, -0.00, -1.00, 59.0, 280.0)">W</text><text xml:space="preserve" font-family="TrebuchetMS" font-size="23.8" fill="#000000" transform="matrix(1.00, 0.00, -0.00, -1.00, 78.2, 280.0)">e</text><text xml:space="preserve" font-family="TrebuchetMS" font-size="23.8" fill="#000000" transform="matrix(1.00, 0.00, -0.00, -1.00, 91.2, 280.0)">a</text><text xml:space="preserve" font-family="TrebuchetMS" font-size="23.8" fill="#000000" transform="matrix(1.00, 0.00, -0.00, -1.00, 103.7, 280.0)">r</text><text xml:space="preserve" font-family="TrebuchetMS" font-size="23.8" fill="#000000" transform="matrix(1.00, 0.00, -0.00, -1.00, 112.9, 280.0)">a</text><text xml:space="preserve" font-family="TrebuchetMS" font-size="23.8" fill="#000000" transform="matrix(1.00, 0.00, -0.00, -1.00, 125.4, 280.0)">b</text><text xml:space="preserve" font-family="TrebuchetMS" font-size="23.8" fill="#000000" transform="matrix(1.00, 0.00, -0.00, -1.00, 138.7, 280.0)">l</text><text xml:space="preserve" font-family="TrebuchetMS" font-size="23.8" fill="#000000" transform="matrix(1.00, 0.00, -0.00, -1.00, 145.7, 280.0)">e</text><text xml:space="preserve" font-family="TrebuchetMS" font-size="23.8" fill="#000000" transform="matrix(1.00, 0.00, -0.00, -1.00, 158.7, 280.0)">s</text><text xml:space="preserve" font-family="ArialMT" font-size="23.8" fill="#38C1D7" transform="matrix(1.00, 0.00, -0.00, -1.00, 45.0, 225.4)">•</text><text xml:space="preserve" font-family="TrebuchetMS" font-size="23.8" fill="#000000" transform="matrix(1.00, 0.00, -0.00, -1.00, 59.0, 226.0)">B</text><text xml:space="preserve" font-family="TrebuchetMS" font-size="23.8" fill="#000000" transform="matrix(1.00, 0.00, -0.00, -1.00, 72.5, 226.0)">e</text><text xml:space="preserve" font-family="TrebuchetMS" font-size="23.8" fill="#000000" transform="matrix(1.00, 0.00, -0.00, -1.00, 85.5, 226.0)">a</text><text xml:space="preserve" font-family="TrebuchetMS" font-size="23.8" fill="#000000" transform="matrix(1.00, 0.00, -0.00, -1.00, 98.0, 226.0)">c</text><text xml:space="preserve" font-family="TrebuchetMS" font-size="23.8" fill="#000000" transform="matrix(1.00, 0.00, -0.00, -1.00, 109.8, 226.0)">o</text><text xml:space="preserve" font-family="TrebuchetMS" font-size="23.8" fill="#000000" transform="matrix(1.00, 0.00, -0.00, -1.00, 122.5, 226.0)">n</text><text xml:space="preserve" font-family="ArialMT" font-size="23.8" fill="#38C1D7" transform="matrix(1.00, 0.00, -0.00, -1.00, 45.0, 171.4)">•</text><text xml:space="preserve" font-family="TrebuchetMS" font-size="23.8" fill="#000000" transform="matrix(1.00, 0.00, -0.00, -1.00, 59.0, 172.0)">N</text><text xml:space="preserve" font-family="TrebuchetMS" font-size="23.8" fill="#000000" transform="matrix(1.00, 0.00, -0.00, -1.00, 74.2, 172.0)">F</text><text xml:space="preserve" font-family="TrebuchetMS" font-size="23.8" fill="#000000" transform="matrix(1.00, 0.00, -0.00, -1.00, 86.7, 172.0)">C</text><text xml:space="preserve" font-family="TrebuchetMS" font-size="23.8" fill="#000000" transform="matrix(1.00, 0.00, -0.00, -1.00, 100.9, 172.0)">,</text><text xml:space="preserve" font-family="TrebuchetMS" font-size="23.8" fill="#000000" transform="matrix(1.00, 0.00, -0.00, -1.00, 109.7, 172.0)"> </text><text xml:space="preserve" font-family="TrebuchetMS" font-size="23.8" fill="#000000" transform="matrix(1.00, 0.00, -0.00, -1.00, 116.9, 172.0)">H</text><text xml:space="preserve" font-family="TrebuchetMS" font-size="23.8" fill="#000000" transform="matrix(1.00, 0.00, -0.00, -1.00, 132.4, 172.0)">C</text><text xml:space="preserve" font-family="TrebuchetMS" font-size="23.8" fill="#000000" transform="matrix(1.00, 0.00, -0.00, -1.00, 146.7, 172.0)">E</text><text xml:space="preserve" font-family="TrebuchetMS" font-size="23.8" fill="#000000" transform="matrix(1.00, 0.00, -0.00, -1.00, 159.4, 172.0)">,</text><text xml:space="preserve" font-family="TrebuchetMS" font-size="23.8" fill="#000000" transform="matrix(1.00, 0.00, -0.00, -1.00, 168.1, 172.0)"> </text><text xml:space="preserve" font-family="TrebuchetMS" font-size="23.8" fill="#000000" transform="matrix(1.00, 0.00, -0.00, -1.00, 175.3, 172.0)">B</text><text xml:space="preserve" font-family="TrebuchetMS" font-size="23.8" fill="#000000" transform="matrix(1.00, 0.00, -0.00, -1.00, 188.8, 172.0)">L</text><text xml:space="preserve" font-family="TrebuchetMS" font-size="23.8" fill="#000000" transform="matrix(1.00, 0.00, -0.00, -1.00, 200.8, 172.0)">E</text><g><clipPath id="clip-28"><path d="M 297.0 467.0 L 722.0 467.0 L 722.0 27.0 L 297.0 27.0 Z M 297.2 467.3 "></path></clipPath><g clip-path="url(#clip-28)"><image xlink:href="../../DEF63753-8D06-4204-A610-88AFCDB81841/assets/8D6E0814E0C6092FBEF6413BDA140B5B.jpeg" width="872.00" height="580.00" transform="matrix(1.00, 0.00, -0.00, -1.00, 257.0, 479.0)"></image></g></g></g></svg>