<?xml version="1.0" encoding="UTF-8" standalone="no"?><svg xmlns="http://www.w3.org/2000/svg" xmlns:xlink="http://www.w3.org/1999/xlink" clip-rule="evenodd" stroke-miterlimit="4.00" viewBox="0 0 273 59"><desc>SVG generated by Keynote</desc><defs></defs><g transform="matrix(1.00, 0.00, -0.00, -1.00, 0.0, 59.0)"><text xml:space="preserve" font-family="Trebuchet-BoldItalic" font-style="italic" font-weight="bold" font-size="18.0" fill="#525252" transform="matrix(1.00, 0.00, -0.00, -1.00, 0.0, 44.0)">“</text><text xml:space="preserve" font-family="Trebuchet-BoldItalic" font-style="italic" font-weight="bold" font-size="18.0" fill="#525252" transform="matrix(1.00, 0.00, -0.00, -1.00, 10.5, 44.0)">S</text><text xml:space="preserve" font-family="Trebuchet-BoldItalic" font-style="italic" font-weight="bold" font-size="18.0" fill="#525252" transform="matrix(1.00, 0.00, -0.00, -1.00, 19.6, 44.0)">W</text><text xml:space="preserve" font-family="Trebuchet-BoldItalic" font-style="italic" font-weight="bold" font-size="18.0" fill="#525252" transform="matrix(1.00, 0.00, -0.00, -1.00, 36.3, 44.0)">I</text><text xml:space="preserve" font-family="Trebuchet-BoldItalic" font-style="italic" font-weight="bold" font-size="18.0" fill="#525252" transform="matrix(1.00, 0.00, -0.00, -1.00, 41.3, 44.0)">P</text><text xml:space="preserve" font-family="Trebuchet-BoldItalic" font-style="italic" font-weight="bold" font-size="18.0" fill="#525252" transform="matrix(1.00, 0.00, -0.00, -1.00, 51.8, 44.0)">I</text><text xml:space="preserve" font-family="Trebuchet-BoldItalic" font-style="italic" font-weight="bold" font-size="18.0" fill="#525252" transform="matrix(1.00, 0.00, -0.00, -1.00, 56.8, 44.0)">N</text><text xml:space="preserve" font-family="Trebuchet-BoldItalic" font-style="italic" font-weight="bold" font-size="18.0" fill="#525252" transform="matrix(1.00, 0.00, -0.00, -1.00, 68.7, 44.0)">G</text><text xml:space="preserve" font-family="Trebuchet-BoldItalic" font-style="italic" font-weight="bold" font-size="18.0" fill="#525252" transform="matrix(1.00, 0.00, -0.00, -1.00, 80.8, 44.0)"> </text><text xml:space="preserve" font-family="Trebuchet-BoldItalic" font-style="italic" font-weight="bold" font-size="18.0" fill="#525252" transform="matrix(1.00, 0.00, -0.00, -1.00, 85.6, 44.0)">A</text><text xml:space="preserve" font-family="Trebuchet-BoldItalic" font-style="italic" font-weight="bold" font-size="18.0" fill="#525252" transform="matrix(1.00, 0.00, -0.00, -1.00, 96.0, 44.0)"> </text><text xml:space="preserve" font-family="Trebuchet-BoldItalic" font-style="italic" font-weight="bold" font-size="18.0" fill="#525252" transform="matrix(1.00, 0.00, -0.00, -1.00, 101.4, 44.0)">C</text><text xml:space="preserve" font-family="Trebuchet-BoldItalic" font-style="italic" font-weight="bold" font-size="18.0" fill="#525252" transform="matrix(1.00, 0.00, -0.00, -1.00, 112.4, 44.0)">A</text><text xml:space="preserve" font-family="Trebuchet-BoldItalic" font-style="italic" font-weight="bold" font-size="18.0" fill="#525252" transform="matrix(1.00, 0.00, -0.00, -1.00, 123.5, 44.0)">R</text><text xml:space="preserve" font-family="Trebuchet-BoldItalic" font-style="italic" font-weight="bold" font-size="18.0" fill="#525252" transform="matrix(1.00, 0.00, -0.00, -1.00, 134.7, 44.0)">D</text><text xml:space="preserve" font-family="Trebuchet-BoldItalic" font-style="italic" font-weight="bold" font-size="18.0" fill="#525252" transform="matrix(1.00, 0.00, -0.00, -1.00, 146.1, 44.0)"> </text><text xml:space="preserve" font-family="Trebuchet-BoldItalic" font-style="italic" font-weight="bold" font-size="18.0" fill="#525252" transform="matrix(1.00, 0.00, -0.00, -1.00, 150.8, 44.0)">A</text><text xml:space="preserve" font-family="Trebuchet-BoldItalic" font-style="italic" font-weight="bold" font-size="18.0" fill="#525252" transform="matrix(1.00, 0.00, -0.00, -1.00, 160.2, 44.0)">T</text><text xml:space="preserve" font-family="Trebuchet-BoldItalic" font-style="italic" font-weight="bold" font-size="18.0" fill="#525252" transform="matrix(1.00, 0.00, -0.00, -1.00, 172.6, 44.0)"> </text><text xml:space="preserve" font-family="Trebuchet-BoldItalic" font-style="italic" font-weight="bold" font-size="18.0" fill="#525252" transform="matrix(1.00, 0.00, -0.00, -1.00, 178.0, 44.0)">C</text><text xml:space="preserve" font-family="Trebuchet-BoldItalic" font-style="italic" font-weight="bold" font-size="18.0" fill="#525252" transform="matrix(1.00, 0.00, -0.00, -1.00, 189.0, 44.0)">H</text><text xml:space="preserve" font-family="Trebuchet-BoldItalic" font-style="italic" font-weight="bold" font-size="18.0" fill="#525252" transform="matrix(1.00, 0.00, -0.00, -1.00, 201.2, 44.0)">E</text><text xml:space="preserve" font-family="Trebuchet-BoldItalic" font-style="italic" font-weight="bold" font-size="18.0" fill="#525252" transform="matrix(1.00, 0.00, -0.00, -1.00, 211.9, 44.0)">C</text><text xml:space="preserve" font-family="Trebuchet-BoldItalic" font-style="italic" font-weight="bold" font-size="18.0" fill="#525252" transform="matrix(1.00, 0.00, -0.00, -1.00, 222.9, 44.0)">K</text><text xml:space="preserve" font-family="Trebuchet-BoldItalic" font-style="italic" font-weight="bold" font-size="18.0" fill="#525252" transform="matrix(1.00, 0.00, -0.00, -1.00, 234.6, 44.0)">O</text><text xml:space="preserve" font-family="Trebuchet-BoldItalic" font-style="italic" font-weight="bold" font-size="18.0" fill="#525252" transform="matrix(1.00, 0.00, -0.00, -1.00, 247.3, 44.0)">U</text><text xml:space="preserve" font-family="Trebuchet-BoldItalic" font-style="italic" font-weight="bold" font-size="18.0" fill="#525252" transform="matrix(1.00, 0.00, -0.00, -1.00, 259.2, 44.0)">T</text><text xml:space="preserve" font-family="Trebuchet-BoldItalic" font-style="italic" font-weight="bold" font-size="18.0" fill="#525252" transform="matrix(1.00, 0.00, -0.00, -1.00, 271.5, 44.0)"> </text><text xml:space="preserve" font-family="Trebuchet-BoldItalic" font-style="italic" font-weight="bold" font-size="18.0" fill="#525252" transform="matrix(1.00, 0.00, -0.00, -1.00, 3.0, 23.0)">I</text><text xml:space="preserve" font-family="Trebuchet-BoldItalic" font-style="italic" font-weight="bold" font-size="18.0" fill="#525252" transform="matrix(1.00, 0.00, -0.00, -1.00, 8.0, 23.0)">S</text><text xml:space="preserve" font-family="Trebuchet-BoldItalic" font-style="italic" font-weight="bold" font-size="18.0" fill="#525252" transform="matrix(1.00, 0.00, -0.00, -1.00, 17.0, 23.0)"> </text><text xml:space="preserve" font-family="Trebuchet-BoldItalic" font-style="italic" font-weight="bold" font-size="18.0" fill="#525252" transform="matrix(1.00, 0.00, -0.00, -1.00, 22.5, 23.0)">O</text><text xml:space="preserve" font-family="Trebuchet-BoldItalic" font-style="italic" font-weight="bold" font-size="18.0" fill="#525252" transform="matrix(1.00, 0.00, -0.00, -1.00, 35.1, 23.0)">N</text><text xml:space="preserve" font-family="Trebuchet-BoldItalic" font-style="italic" font-weight="bold" font-size="18.0" fill="#525252" transform="matrix(1.00, 0.00, -0.00, -1.00, 47.0, 23.0)">E</text><text xml:space="preserve" font-family="Trebuchet-BoldItalic" font-style="italic" font-weight="bold" font-size="18.0" fill="#525252" transform="matrix(1.00, 0.00, -0.00, -1.00, 57.7, 23.0)"> </text><text xml:space="preserve" font-family="Trebuchet-BoldItalic" font-style="italic" font-weight="bold" font-size="18.0" fill="#525252" transform="matrix(1.00, 0.00, -0.00, -1.00, 63.1, 23.0)">O</text><text xml:space="preserve" font-family="Trebuchet-BoldItalic" font-style="italic" font-weight="bold" font-size="18.0" fill="#525252" transform="matrix(1.00, 0.00, -0.00, -1.00, 75.8, 23.0)">F</text><text xml:space="preserve" font-family="Trebuchet-BoldItalic" font-style="italic" font-weight="bold" font-size="18.0" fill="#525252" transform="matrix(1.00, 0.00, -0.00, -1.00, 86.3, 23.0)"> </text><text xml:space="preserve" font-family="Trebuchet-BoldItalic" font-style="italic" font-weight="bold" font-size="18.0" fill="#525252" transform="matrix(1.00, 0.00, -0.00, -1.00, 91.7, 23.0)">T</text><text xml:space="preserve" font-family="Trebuchet-BoldItalic" font-style="italic" font-weight="bold" font-size="18.0" fill="#525252" transform="matrix(1.00, 0.00, -0.00, -1.00, 104.1, 23.0)">H</text><text xml:space="preserve" font-family="Trebuchet-BoldItalic" font-style="italic" font-weight="bold" font-size="18.0" fill="#525252" transform="matrix(1.00, 0.00, -0.00, -1.00, 116.3, 23.0)">E</text><text xml:space="preserve" font-family="Trebuchet-BoldItalic" font-style="italic" font-weight="bold" font-size="18.0" fill="#525252" transform="matrix(1.00, 0.00, -0.00, -1.00, 127.0, 23.0)"> </text><text xml:space="preserve" font-family="Trebuchet-BoldItalic" font-style="italic" font-weight="bold" font-size="18.0" fill="#525252" transform="matrix(1.00, 0.00, -0.00, -1.00, 132.4, 23.0)">E</text><text xml:space="preserve" font-family="Trebuchet-BoldItalic" font-style="italic" font-weight="bold" font-size="18.0" fill="#525252" transform="matrix(1.00, 0.00, -0.00, -1.00, 143.1, 23.0)">A</text><text xml:space="preserve" font-family="Trebuchet-BoldItalic" font-style="italic" font-weight="bold" font-size="18.0" fill="#525252" transform="matrix(1.00, 0.00, -0.00, -1.00, 154.1, 23.0)">S</text><text xml:space="preserve" font-family="Trebuchet-BoldItalic" font-style="italic" font-weight="bold" font-size="18.0" fill="#525252" transform="matrix(1.00, 0.00, -0.00, -1.00, 163.1, 23.0)">I</text><text xml:space="preserve" font-family="Trebuchet-BoldItalic" font-style="italic" font-weight="bold" font-size="18.0" fill="#525252" transform="matrix(1.00, 0.00, -0.00, -1.00, 168.2, 23.0)">E</text><text xml:space="preserve" font-family="Trebuchet-BoldItalic" font-style="italic" font-weight="bold" font-size="18.0" fill="#525252" transform="matrix(1.00, 0.00, -0.00, -1.00, 178.8, 23.0)">S</text><text xml:space="preserve" font-family="Trebuchet-BoldItalic" font-style="italic" font-weight="bold" font-size="18.0" fill="#525252" transform="matrix(1.00, 0.00, -0.00, -1.00, 187.9, 23.0)">T</text><text xml:space="preserve" font-family="Trebuchet-BoldItalic" font-style="italic" font-weight="bold" font-size="18.0" fill="#525252" transform="matrix(1.00, 0.00, -0.00, -1.00, 200.2, 23.0)"> </text><text xml:space="preserve" font-family="Trebuchet-BoldItalic" font-style="italic" font-weight="bold" font-size="18.0" fill="#525252" transform="matrix(1.00, 0.00, -0.00, -1.00, 205.6, 23.0)">T</text><text xml:space="preserve" font-family="Trebuchet-BoldItalic" font-style="italic" font-weight="bold" font-size="18.0" fill="#525252" transform="matrix(1.00, 0.00, -0.00, -1.00, 218.0, 23.0)">H</text><text xml:space="preserve" font-family="Trebuchet-BoldItalic" font-style="italic" font-weight="bold" font-size="18.0" fill="#525252" transform="matrix(1.00, 0.00, -0.00, -1.00, 230.2, 23.0)">I</text><text xml:space="preserve" font-family="Trebuchet-BoldItalic" font-style="italic" font-weight="bold" font-size="18.0" fill="#525252" transform="matrix(1.00, 0.00, -0.00, -1.00, 235.2, 23.0)">N</text><text xml:space="preserve" font-family="Trebuchet-BoldItalic" font-style="italic" font-weight="bold" font-size="18.0" fill="#525252" transform="matrix(1.00, 0.00, -0.00, -1.00, 247.1, 23.0)">G</text><text xml:space="preserve" font-family="Trebuchet-BoldItalic" font-style="italic" font-weight="bold" font-size="18.0" fill="#525252" transform="matrix(1.00, 0.00, -0.00, -1.00, 259.3, 23.0)">S</text><text xml:space="preserve" font-family="Trebuchet-BoldItalic" font-style="italic" font-weight="bold" font-size="18.0" fill="#525252" transform="matrix(1.00, 0.00, -0.00, -1.00, 268.3, 23.0)"> </text><text xml:space="preserve" font-family="Trebuchet-BoldItalic" font-style="italic" font-weight="bold" font-size="18.0" fill="#525252" transform="matrix(1.00, 0.00, -0.00, -1.00, 17.0, 2.0)">C</text><text xml:space="preserve" font-family="Trebuchet-BoldItalic" font-style="italic" font-weight="bold" font-size="18.0" fill="#525252" transform="matrix(1.00, 0.00, -0.00, -1.00, 28.0, 2.0)">O</text><text xml:space="preserve" font-family="Trebuchet-BoldItalic" font-style="italic" font-weight="bold" font-size="18.0" fill="#525252" transform="matrix(1.00, 0.00, -0.00, -1.00, 40.7, 2.0)">N</text><text xml:space="preserve" font-family="Trebuchet-BoldItalic" font-style="italic" font-weight="bold" font-size="18.0" fill="#525252" transform="matrix(1.00, 0.00, -0.00, -1.00, 52.5, 2.0)">S</text><text xml:space="preserve" font-family="Trebuchet-BoldItalic" font-style="italic" font-weight="bold" font-size="18.0" fill="#525252" transform="matrix(1.00, 0.00, -0.00, -1.00, 61.6, 2.0)">U</text><text xml:space="preserve" font-family="Trebuchet-BoldItalic" font-style="italic" font-weight="bold" font-size="18.0" fill="#525252" transform="matrix(1.00, 0.00, -0.00, -1.00, 73.5, 2.0)">M</text><text xml:space="preserve" font-family="Trebuchet-BoldItalic" font-style="italic" font-weight="bold" font-size="18.0" fill="#525252" transform="matrix(1.00, 0.00, -0.00, -1.00, 87.6, 2.0)">E</text><text xml:space="preserve" font-family="Trebuchet-BoldItalic" font-style="italic" font-weight="bold" font-size="18.0" fill="#525252" transform="matrix(1.00, 0.00, -0.00, -1.00, 98.3, 2.0)">R</text><text xml:space="preserve" font-family="Trebuchet-BoldItalic" font-style="italic" font-weight="bold" font-size="18.0" fill="#525252" transform="matrix(1.00, 0.00, -0.00, -1.00, 109.5, 2.0)">S</text><text xml:space="preserve" font-family="Trebuchet-BoldItalic" font-style="italic" font-weight="bold" font-size="18.0" fill="#525252" transform="matrix(1.00, 0.00, -0.00, -1.00, 118.6, 2.0)"> </text><text xml:space="preserve" font-family="Trebuchet-BoldItalic" font-style="italic" font-weight="bold" font-size="18.0" fill="#525252" transform="matrix(1.00, 0.00, -0.00, -1.00, 124.0, 2.0)">W</text><text xml:space="preserve" font-family="Trebuchet-BoldItalic" font-style="italic" font-weight="bold" font-size="18.0" fill="#525252" transform="matrix(1.00, 0.00, -0.00, -1.00, 140.7, 2.0)">I</text><text xml:space="preserve" font-family="Trebuchet-BoldItalic" font-style="italic" font-weight="bold" font-size="18.0" fill="#525252" transform="matrix(1.00, 0.00, -0.00, -1.00, 145.7, 2.0)">L</text><text xml:space="preserve" font-family="Trebuchet-BoldItalic" font-style="italic" font-weight="bold" font-size="18.0" fill="#525252" transform="matrix(1.00, 0.00, -0.00, -1.00, 155.3, 2.0)">L</text><text xml:space="preserve" font-family="Trebuchet-BoldItalic" font-style="italic" font-weight="bold" font-size="18.0" fill="#525252" transform="matrix(1.00, 0.00, -0.00, -1.00, 164.4, 2.0)"> </text><text xml:space="preserve" font-family="Trebuchet-BoldItalic" font-style="italic" font-weight="bold" font-size="18.0" fill="#525252" transform="matrix(1.00, 0.00, -0.00, -1.00, 169.9, 2.0)">E</text><text xml:space="preserve" font-family="Trebuchet-BoldItalic" font-style="italic" font-weight="bold" font-size="18.0" fill="#525252" transform="matrix(1.00, 0.00, -0.00, -1.00, 180.6, 2.0)">V</text><text xml:space="preserve" font-family="Trebuchet-BoldItalic" font-style="italic" font-weight="bold" font-size="18.0" fill="#525252" transform="matrix(1.00, 0.00, -0.00, -1.00, 192.9, 2.0)">E</text><text xml:space="preserve" font-family="Trebuchet-BoldItalic" font-style="italic" font-weight="bold" font-size="18.0" fill="#525252" transform="matrix(1.00, 0.00, -0.00, -1.00, 203.6, 2.0)">R</text><text xml:space="preserve" font-family="Trebuchet-BoldItalic" font-style="italic" font-weight="bold" font-size="18.0" fill="#525252" transform="matrix(1.00, 0.00, -0.00, -1.00, 214.8, 2.0)"> </text><text xml:space="preserve" font-family="Trebuchet-BoldItalic" font-style="italic" font-weight="bold" font-size="18.0" fill="#525252" transform="matrix(1.00, 0.00, -0.00, -1.00, 220.2, 2.0)">D</text><text xml:space="preserve" font-family="Trebuchet-BoldItalic" font-style="italic" font-weight="bold" font-size="18.0" fill="#525252" transform="matrix(1.00, 0.00, -0.00, -1.00, 231.6, 2.0)">O</text><text xml:space="preserve" font-family="Trebuchet-BoldItalic" font-style="italic" font-weight="bold" font-size="18.0" fill="#525252" transform="matrix(1.00, 0.00, -0.00, -1.00, 244.2, 2.0)">”</text><text xml:space="preserve" font-family="Trebuchet-BoldItalic" font-style="italic" font-weight="bold" font-size="18.0" fill="#525252" transform="matrix(1.00, 0.00, -0.00, -1.00, 254.8, 2.0)"> </text></g></svg>