<?xml version="1.0" encoding="UTF-8" standalone="no"?><svg xmlns="http://www.w3.org/2000/svg" xmlns:xlink="http://www.w3.org/1999/xlink" clip-rule="evenodd" stroke-miterlimit="4.00" viewBox="0 0 720 540"><desc>SVG generated by Keynote</desc><defs></defs><g transform="matrix(1.00, 0.00, -0.00, -1.00, 0.0, 540.0)"><path d="M 0.0 540.0 L 720.0 540.0 L 720.0 0.0 L 0.0 0.0 Z M 0.0 540.0 " fill="#FFFFFF"></path><path d="M 0.0 28.1 L 720.0 28.1 L 720.0 -0.7 L 0.0 -0.7 Z M 0.0 28.1 " fill="#454447"></path><text xml:space="preserve" font-family="TrebuchetMS" font-size="8.0" fill="#CCCCCC" transform="matrix(1.00, 0.00, -0.00, -1.00, 96.0, 11.0)">I</text><text xml:space="preserve" font-family="TrebuchetMS" font-size="8.0" fill="#CCCCCC" transform="matrix(1.00, 0.00, -0.00, -1.00, 98.4, 11.0)">T</text><text xml:space="preserve" font-family="TrebuchetMS" font-size="8.0" fill="#CCCCCC" transform="matrix(1.00, 0.00, -0.00, -1.00, 103.1, 11.0)"> </text><text xml:space="preserve" font-family="TrebuchetMS" font-size="8.0" fill="#CCCCCC" transform="matrix(1.00, 0.00, -0.00, -1.00, 105.7, 11.0)">W</text><text xml:space="preserve" font-family="TrebuchetMS" font-size="8.0" fill="#CCCCCC" transform="matrix(1.00, 0.00, -0.00, -1.00, 112.8, 11.0)">E</text><text xml:space="preserve" font-family="TrebuchetMS" font-size="8.0" fill="#CCCCCC" transform="matrix(1.00, 0.00, -0.00, -1.00, 117.2, 11.0)">E</text><text xml:space="preserve" font-family="TrebuchetMS" font-size="8.0" fill="#CCCCCC" transform="matrix(1.00, 0.00, -0.00, -1.00, 121.7, 11.0)">K</text><text xml:space="preserve" font-family="TrebuchetMS" font-size="8.0" fill="#CCCCCC" transform="matrix(1.00, 0.00, -0.00, -1.00, 126.5, 11.0)"> </text><text xml:space="preserve" font-family="TrebuchetMS" font-size="8.0" fill="#CCCCCC" transform="matrix(1.00, 0.00, -0.00, -1.00, 129.1, 11.0)">2</text><text xml:space="preserve" font-family="TrebuchetMS" font-size="8.0" fill="#CCCCCC" transform="matrix(1.00, 0.00, -0.00, -1.00, 133.5, 11.0)">0</text><text xml:space="preserve" font-family="TrebuchetMS" font-size="8.0" fill="#CCCCCC" transform="matrix(1.00, 0.00, -0.00, -1.00, 137.9, 11.0)">1</text><text xml:space="preserve" font-family="TrebuchetMS" font-size="8.0" fill="#CCCCCC" transform="matrix(1.00, 0.00, -0.00, -1.00, 142.3, 11.0)">6</text><text xml:space="preserve" font-family="TrebuchetMS" font-size="8.0" fill="#CCCCCC" transform="matrix(1.00, 0.00, -0.00, -1.00, 146.7, 11.0)"> </text><text xml:space="preserve" font-family="TrebuchetMS" font-size="8.0" fill="#CCCCCC" transform="matrix(1.00, 0.00, -0.00, -1.00, 149.3, 11.0)">-</text><text xml:space="preserve" font-family="TrebuchetMS" font-size="8.0" fill="#CCCCCC" transform="matrix(1.00, 0.00, -0.00, -1.00, 152.5, 11.0)"> </text><text xml:space="preserve" font-family="TrebuchetMS" font-size="8.0" fill="#CCCCCC" transform="matrix(1.00, 0.00, -0.00, -1.00, 155.1, 11.0)">F</text><text xml:space="preserve" font-family="TrebuchetMS" font-size="8.0" fill="#CCCCCC" transform="matrix(1.00, 0.00, -0.00, -1.00, 159.5, 11.0)">u</text><text xml:space="preserve" font-family="TrebuchetMS" font-size="8.0" fill="#CCCCCC" transform="matrix(1.00, 0.00, -0.00, -1.00, 164.1, 11.0)">t</text><text xml:space="preserve" font-family="TrebuchetMS" font-size="8.0" fill="#CCCCCC" transform="matrix(1.00, 0.00, -0.00, -1.00, 167.4, 11.0)">u</text><text xml:space="preserve" font-family="TrebuchetMS" font-size="8.0" fill="#CCCCCC" transform="matrix(1.00, 0.00, -0.00, -1.00, 172.0, 11.0)">r</text><text xml:space="preserve" font-family="TrebuchetMS" font-size="8.0" fill="#CCCCCC" transform="matrix(1.00, 0.00, -0.00, -1.00, 175.3, 11.0)">e</text><text xml:space="preserve" font-family="TrebuchetMS" font-size="8.0" fill="#CCCCCC" transform="matrix(1.00, 0.00, -0.00, -1.00, 179.9, 11.0)"> </text><text xml:space="preserve" font-family="TrebuchetMS" font-size="8.0" fill="#CCCCCC" transform="matrix(1.00, 0.00, -0.00, -1.00, 182.5, 11.0)">o</text><text xml:space="preserve" font-family="TrebuchetMS" font-size="8.0" fill="#CCCCCC" transform="matrix(1.00, 0.00, -0.00, -1.00, 187.0, 11.0)">f</text><text xml:space="preserve" font-family="TrebuchetMS" font-size="8.0" fill="#CCCCCC" transform="matrix(1.00, 0.00, -0.00, -1.00, 190.1, 11.0)"> </text><text xml:space="preserve" font-family="TrebuchetMS" font-size="8.0" fill="#CCCCCC" transform="matrix(1.00, 0.00, -0.00, -1.00, 192.7, 11.0)">C</text><text xml:space="preserve" font-family="TrebuchetMS" font-size="8.0" fill="#CCCCCC" transform="matrix(1.00, 0.00, -0.00, -1.00, 197.7, 11.0)">a</text><text xml:space="preserve" font-family="TrebuchetMS" font-size="8.0" fill="#CCCCCC" transform="matrix(1.00, 0.00, -0.00, -1.00, 202.1, 11.0)">s</text><text xml:space="preserve" font-family="TrebuchetMS" font-size="8.0" fill="#CCCCCC" transform="matrix(1.00, 0.00, -0.00, -1.00, 205.6, 11.0)">h</text><text xml:space="preserve" font-family="TrebuchetMS" font-size="8.0" fill="#CCCCCC" transform="matrix(1.00, 0.00, -0.00, -1.00, 210.1, 11.0)">l</text><text xml:space="preserve" font-family="TrebuchetMS" font-size="8.0" fill="#CCCCCC" transform="matrix(1.00, 0.00, -0.00, -1.00, 212.7, 11.0)">e</text><text xml:space="preserve" font-family="TrebuchetMS" font-size="8.0" fill="#CCCCCC" transform="matrix(1.00, 0.00, -0.00, -1.00, 217.3, 11.0)">s</text><text xml:space="preserve" font-family="TrebuchetMS" font-size="8.0" fill="#CCCCCC" transform="matrix(1.00, 0.00, -0.00, -1.00, 220.7, 11.0)">s</text><text xml:space="preserve" font-family="TrebuchetMS" font-size="8.0" fill="#CCCCCC" transform="matrix(1.00, 0.00, -0.00, -1.00, 224.1, 11.0)"> </text><text xml:space="preserve" font-family="TrebuchetMS" font-size="8.0" fill="#CCCCCC" transform="matrix(1.00, 0.00, -0.00, -1.00, 226.7, 11.0)">P</text><text xml:space="preserve" font-family="TrebuchetMS" font-size="8.0" fill="#CCCCCC" transform="matrix(1.00, 0.00, -0.00, -1.00, 231.0, 11.0)">a</text><text xml:space="preserve" font-family="TrebuchetMS" font-size="8.0" fill="#CCCCCC" transform="matrix(1.00, 0.00, -0.00, -1.00, 235.4, 11.0)">y</text><text xml:space="preserve" font-family="TrebuchetMS" font-size="8.0" fill="#CCCCCC" transform="matrix(1.00, 0.00, -0.00, -1.00, 239.6, 11.0)">m</text><text xml:space="preserve" font-family="TrebuchetMS" font-size="8.0" fill="#CCCCCC" transform="matrix(1.00, 0.00, -0.00, -1.00, 246.4, 11.0)">e</text><text xml:space="preserve" font-family="TrebuchetMS" font-size="8.0" fill="#CCCCCC" transform="matrix(1.00, 0.00, -0.00, -1.00, 251.0, 11.0)">n</text><text xml:space="preserve" font-family="TrebuchetMS" font-size="8.0" fill="#CCCCCC" transform="matrix(1.00, 0.00, -0.00, -1.00, 255.6, 11.0)">t</text><text xml:space="preserve" font-family="TrebuchetMS" font-size="8.0" fill="#CCCCCC" transform="matrix(1.00, 0.00, -0.00, -1.00, 258.9, 11.0)">s</text><text xml:space="preserve" font-family="TrebuchetMS" font-size="8.0" fill="#CCCCCC" transform="matrix(1.00, 0.00, -0.00, -1.00, 262.4, 11.0)"> </text><text xml:space="preserve" font-family="TrebuchetMS" font-size="8.0" fill="#CCCCCC" transform="matrix(1.00, 0.00, -0.00, -1.00, 265.0, 11.0)">-</text><text xml:space="preserve" font-family="TrebuchetMS" font-size="8.0" fill="#CCCCCC" transform="matrix(1.00, 0.00, -0.00, -1.00, 268.1, 11.0)"> </text><text xml:space="preserve" font-family="TrebuchetMS" font-size="8.0" fill="#CCCCCC" transform="matrix(1.00, 0.00, -0.00, -1.00, 270.7, 11.0)">K</text><text xml:space="preserve" font-family="TrebuchetMS" font-size="8.0" fill="#CCCCCC" transform="matrix(1.00, 0.00, -0.00, -1.00, 275.3, 11.0)">o</text><text xml:space="preserve" font-family="TrebuchetMS" font-size="8.0" fill="#CCCCCC" transform="matrix(1.00, 0.00, -0.00, -1.00, 279.8, 11.0)">n</text><text xml:space="preserve" font-family="TrebuchetMS" font-size="8.0" fill="#CCCCCC" transform="matrix(1.00, 0.00, -0.00, -1.00, 284.3, 11.0)">r</text><text xml:space="preserve" font-family="TrebuchetMS" font-size="8.0" fill="#CCCCCC" transform="matrix(1.00, 0.00, -0.00, -1.00, 287.6, 11.0)">a</text><text xml:space="preserve" font-family="TrebuchetMS" font-size="8.0" fill="#CCCCCC" transform="matrix(1.00, 0.00, -0.00, -1.00, 292.1, 11.0)">d</text><text xml:space="preserve" font-family="TrebuchetMS" font-size="8.0" fill="#CCCCCC" transform="matrix(1.00, 0.00, -0.00, -1.00, 296.7, 11.0)"> </text><text xml:space="preserve" font-family="TrebuchetMS" font-size="8.0" fill="#CCCCCC" transform="matrix(1.00, 0.00, -0.00, -1.00, 299.3, 11.0)">H</text><text xml:space="preserve" font-family="TrebuchetMS" font-size="8.0" fill="#CCCCCC" transform="matrix(1.00, 0.00, -0.00, -1.00, 304.8, 11.0)">e</text><text xml:space="preserve" font-family="TrebuchetMS" font-size="8.0" fill="#CCCCCC" transform="matrix(1.00, 0.00, -0.00, -1.00, 309.3, 11.0)">f</text><text xml:space="preserve" font-family="TrebuchetMS" font-size="8.0" fill="#CCCCCC" transform="matrix(1.00, 0.00, -0.00, -1.00, 312.5, 11.0)">e</text><text xml:space="preserve" font-family="TrebuchetMS" font-size="8.0" fill="#CCCCCC" transform="matrix(1.00, 0.00, -0.00, -1.00, 317.0, 11.0)">l</text><text xml:space="preserve" font-family="TrebuchetMS" font-size="8.0" fill="#CCCCCC" transform="matrix(1.00, 0.00, -0.00, -1.00, 319.6, 11.0)">l</text><text xml:space="preserve" font-family="TrebuchetMS" font-size="8.0" fill="#CCCCCC" transform="matrix(1.00, 0.00, -0.00, -1.00, 322.2, 11.0)">e</text><text xml:space="preserve" font-family="TrebuchetMS" font-size="8.0" fill="#CCCCCC" transform="matrix(1.00, 0.00, -0.00, -1.00, 326.7, 11.0)">,</text><text xml:space="preserve" font-family="TrebuchetMS" font-size="8.0" fill="#CCCCCC" transform="matrix(1.00, 0.00, -0.00, -1.00, 329.9, 11.0)"> </text><text xml:space="preserve" font-family="TrebuchetMS" font-size="8.0" fill="#CCCCCC" transform="matrix(1.00, 0.00, -0.00, -1.00, 332.5, 11.0)">2</text><text xml:space="preserve" font-family="TrebuchetMS" font-size="8.0" fill="#CCCCCC" transform="matrix(1.00, 0.00, -0.00, -1.00, 336.9, 11.0)">0</text><text xml:space="preserve" font-family="TrebuchetMS" font-size="8.0" fill="#CCCCCC" transform="matrix(1.00, 0.00, -0.00, -1.00, 341.3, 11.0)">.</text><text xml:space="preserve" font-family="TrebuchetMS" font-size="8.0" fill="#CCCCCC" transform="matrix(1.00, 0.00, -0.00, -1.00, 344.4, 11.0)"> </text><text xml:space="preserve" font-family="TrebuchetMS" font-size="8.0" fill="#CCCCCC" transform="matrix(1.00, 0.00, -0.00, -1.00, 346.6, 11.0)">A</text><text xml:space="preserve" font-family="TrebuchetMS" font-size="8.0" fill="#CCCCCC" transform="matrix(1.00, 0.00, -0.00, -1.00, 351.5, 11.0)">p</text><text xml:space="preserve" font-family="TrebuchetMS" font-size="8.0" fill="#CCCCCC" transform="matrix(1.00, 0.00, -0.00, -1.00, 356.2, 11.0)">r</text><text xml:space="preserve" font-family="TrebuchetMS" font-size="8.0" fill="#CCCCCC" transform="matrix(1.00, 0.00, -0.00, -1.00, 359.5, 11.0)">i</text><text xml:space="preserve" font-family="TrebuchetMS" font-size="8.0" fill="#CCCCCC" transform="matrix(1.00, 0.00, -0.00, -1.00, 362.0, 11.0)">l</text><text xml:space="preserve" font-family="TrebuchetMS" font-size="8.0" fill="#CCCCCC" transform="matrix(1.00, 0.00, -0.00, -1.00, 364.5, 11.0)"> </text><text xml:space="preserve" font-family="TrebuchetMS" font-size="8.0" fill="#CCCCCC" transform="matrix(1.00, 0.00, -0.00, -1.00, 367.1, 11.0)">2</text><text xml:space="preserve" font-family="TrebuchetMS" font-size="8.0" fill="#CCCCCC" transform="matrix(1.00, 0.00, -0.00, -1.00, 371.5, 11.0)">0</text><text xml:space="preserve" font-family="TrebuchetMS" font-size="8.0" fill="#CCCCCC" transform="matrix(1.00, 0.00, -0.00, -1.00, 375.9, 11.0)">1</text><text xml:space="preserve" font-family="TrebuchetMS" font-size="8.0" fill="#CCCCCC" transform="matrix(1.00, 0.00, -0.00, -1.00, 380.3, 11.0)">6</text><path d="M 0.0 0.0 L 13.0 0.0 " fill="none" stroke="#CCCCCC" stroke-width="0.25" stroke-linejoin="round" transform="matrix(0.00, -1.00, -1.00, 0.00, 87.0, 20.2)"></path><image xlink:href="../../99926EC3-3614-4C70-A445-D3AA65276E24/assets/FCA234F62485E16A639918F8658267AA.png" width="38.00" height="13.00" transform="matrix(0.97, 0.00, -0.00, -1.00, 37.0, 19.0)"></image><text xml:space="preserve" font-family="TrebuchetMS" font-size="10.0" fill="#CCCCCC" transform="matrix(1.00, 0.00, -0.00, -1.00, 676.8, 11.0)">1</text><text xml:space="preserve" font-family="TrebuchetMS" font-size="10.0" fill="#CCCCCC" transform="matrix(1.00, 0.00, -0.00, -1.00, 682.1, 11.0)">3</text><g><clipPath id="clip-75"><path d="M 361.0 466.0 L 720.0 466.0 L 720.0 27.0 L 361.0 27.0 Z M 360.9 466.4 "></path></clipPath><g clip-path="url(#clip-75)"><image xlink:href="../../D0D7E7BD-59A9-4BF9-AFBA-E382583CEB6C/assets/A6582AFB060C31E70D965645DE0CEFEA.jpeg" width="781.00" height="439.00" transform="matrix(1.00, 0.00, -0.00, -1.00, 150.0, 466.0)"></image></g></g><image xlink:href="../../E3CCD7FC-4CC6-4379-8F12-393AEC6D6D66/assets/D8EAC996D507BFBCE2171B60B53A42D7.png" width="726.00" height="79.00" transform="matrix(1.00, 0.00, -0.00, -1.01, -3.0, 542.7)" opacity="0.30"></image><path d="M 0.0 541.7 L 720.0 541.7 L 720.0 468.3 L 0.0 468.3 Z M 0.0 541.7 " fill="#FFFFFF"></path><g><clipPath id="clip-76"><path d="M -5.6 468.3 L 725.6 468.3 L 725.6 541.7 L -5.6 541.7 Z M -5.6 468.3 "></path></clipPath><g clip-path="url(#clip-76)"><text xml:space="preserve" font-family="Arial-Black" font-weight="bold" font-size="26.0" fill="#454447" transform="matrix(1.00, 0.00, -0.00, -1.00, 4.0, 495.0)">D</text><text xml:space="preserve" font-family="Arial-Black" font-weight="bold" font-size="26.0" fill="#454447" transform="matrix(1.00, 0.00, -0.00, -1.00, 24.2, 495.0)">E</text><text xml:space="preserve" font-family="Arial-Black" font-weight="bold" font-size="26.0" fill="#454447" transform="matrix(1.00, 0.00, -0.00, -1.00, 43.0, 495.0)">L</text><text xml:space="preserve" font-family="Arial-Black" font-weight="bold" font-size="26.0" fill="#454447" transform="matrix(1.00, 0.00, -0.00, -1.00, 60.3, 495.0)">I</text><text xml:space="preserve" font-family="Arial-Black" font-weight="bold" font-size="26.0" fill="#454447" transform="matrix(1.00, 0.00, -0.00, -1.00, 70.5, 495.0)">V</text><text xml:space="preserve" font-family="Arial-Black" font-weight="bold" font-size="26.0" fill="#454447" transform="matrix(1.00, 0.00, -0.00, -1.00, 90.7, 495.0)">E</text><text xml:space="preserve" font-family="Arial-Black" font-weight="bold" font-size="26.0" fill="#454447" transform="matrix(1.00, 0.00, -0.00, -1.00, 109.5, 495.0)">R</text><text xml:space="preserve" font-family="Arial-Black" font-weight="bold" font-size="26.0" fill="#454447" transform="matrix(1.00, 0.00, -0.00, -1.00, 129.7, 495.0)">E</text><text xml:space="preserve" font-family="Arial-Black" font-weight="bold" font-size="26.0" fill="#454447" transform="matrix(1.00, 0.00, -0.00, -1.00, 148.5, 495.0)">D</text><text xml:space="preserve" font-family="Arial-Black" font-weight="bold" font-size="26.0" fill="#454447" transform="matrix(1.00, 0.00, -0.00, -1.00, 168.7, 495.0)"> </text><text xml:space="preserve" font-family="Arial-Black" font-weight="bold" font-size="26.0" fill="#454447" transform="matrix(1.00, 0.00, -0.00, -1.00, 177.4, 495.0)">A</text><text xml:space="preserve" font-family="Arial-Black" font-weight="bold" font-size="26.0" fill="#454447" transform="matrix(1.00, 0.00, -0.00, -1.00, 197.1, 495.0)">G</text><text xml:space="preserve" font-family="Arial-Black" font-weight="bold" font-size="26.0" fill="#454447" transform="matrix(1.00, 0.00, -0.00, -1.00, 218.8, 495.0)">A</text><text xml:space="preserve" font-family="Arial-Black" font-weight="bold" font-size="26.0" fill="#454447" transform="matrix(1.00, 0.00, -0.00, -1.00, 239.0, 495.0)">I</text><text xml:space="preserve" font-family="Arial-Black" font-weight="bold" font-size="26.0" fill="#454447" transform="matrix(1.00, 0.00, -0.00, -1.00, 249.1, 495.0)">N</text><text xml:space="preserve" font-family="Arial-Black" font-weight="bold" font-size="26.0" fill="#454447" transform="matrix(1.00, 0.00, -0.00, -1.00, 270.8, 495.0)">S</text><text xml:space="preserve" font-family="Arial-Black" font-weight="bold" font-size="26.0" fill="#454447" transform="matrix(1.00, 0.00, -0.00, -1.00, 289.6, 495.0)">T</text><text xml:space="preserve" font-family="Arial-Black" font-weight="bold" font-size="26.0" fill="#454447" transform="matrix(1.00, 0.00, -0.00, -1.00, 308.3, 495.0)"> </text><text xml:space="preserve" font-family="Arial-Black" font-weight="bold" font-size="26.0" fill="#454447" transform="matrix(1.00, 0.00, -0.00, -1.00, 317.0, 495.0)">K</text><text xml:space="preserve" font-family="Arial-Black" font-weight="bold" font-size="26.0" fill="#454447" transform="matrix(1.00, 0.00, -0.00, -1.00, 338.7, 495.0)">E</text><text xml:space="preserve" font-family="Arial-Black" font-weight="bold" font-size="26.0" fill="#454447" transform="matrix(1.00, 0.00, -0.00, -1.00, 357.5, 495.0)">Y</text><text xml:space="preserve" font-family="Arial-Black" font-weight="bold" font-size="26.0" fill="#454447" transform="matrix(1.00, 0.00, -0.00, -1.00, 377.7, 495.0)"> </text><text xml:space="preserve" font-family="Arial-Black" font-weight="bold" font-size="26.0" fill="#454447" transform="matrix(1.00, 0.00, -0.00, -1.00, 386.4, 495.0)">P</text><text xml:space="preserve" font-family="Arial-Black" font-weight="bold" font-size="26.0" fill="#454447" transform="matrix(1.00, 0.00, -0.00, -1.00, 402.9, 495.0)">A</text><text xml:space="preserve" font-family="Arial-Black" font-weight="bold" font-size="26.0" fill="#454447" transform="matrix(1.00, 0.00, -0.00, -1.00, 423.2, 495.0)">I</text><text xml:space="preserve" font-family="Arial-Black" font-weight="bold" font-size="26.0" fill="#454447" transform="matrix(1.00, 0.00, -0.00, -1.00, 433.3, 495.0)">N</text><text xml:space="preserve" font-family="Arial-Black" font-weight="bold" font-size="26.0" fill="#454447" transform="matrix(1.00, 0.00, -0.00, -1.00, 454.9, 495.0)"> </text><text xml:space="preserve" font-family="Arial-Black" font-weight="bold" font-size="26.0" fill="#454447" transform="matrix(1.00, 0.00, -0.00, -1.00, 463.6, 495.0)">P</text><text xml:space="preserve" font-family="Arial-Black" font-weight="bold" font-size="26.0" fill="#454447" transform="matrix(1.00, 0.00, -0.00, -1.00, 482.4, 495.0)">O</text><text xml:space="preserve" font-family="Arial-Black" font-weight="bold" font-size="26.0" fill="#454447" transform="matrix(1.00, 0.00, -0.00, -1.00, 504.1, 495.0)">I</text><text xml:space="preserve" font-family="Arial-Black" font-weight="bold" font-size="26.0" fill="#454447" transform="matrix(1.00, 0.00, -0.00, -1.00, 514.2, 495.0)">N</text><text xml:space="preserve" font-family="Arial-Black" font-weight="bold" font-size="26.0" fill="#454447" transform="matrix(1.00, 0.00, -0.00, -1.00, 535.8, 495.0)">T</text></g></g><text xml:space="preserve" font-family="Arial-Black" font-weight="bold" font-size="18.0" fill="#525252" transform="matrix(1.00, 0.00, -0.00, -1.00, 69.0, 343.0)">U</text><text xml:space="preserve" font-family="Arial-Black" font-weight="bold" font-size="18.0" fill="#525252" transform="matrix(1.00, 0.00, -0.00, -1.00, 84.0, 343.0)">S</text><text xml:space="preserve" font-family="Arial-Black" font-weight="bold" font-size="18.0" fill="#525252" transform="matrix(1.00, 0.00, -0.00, -1.00, 97.0, 343.0)">I</text><text xml:space="preserve" font-family="Arial-Black" font-weight="bold" font-size="18.0" fill="#525252" transform="matrix(1.00, 0.00, -0.00, -1.00, 104.0, 343.0)">N</text><text xml:space="preserve" font-family="Arial-Black" font-weight="bold" font-size="18.0" fill="#525252" transform="matrix(1.00, 0.00, -0.00, -1.00, 119.0, 343.0)">G</text><text xml:space="preserve" font-family="Arial-Black" font-weight="bold" font-size="18.0" fill="#525252" transform="matrix(1.00, 0.00, -0.00, -1.00, 134.0, 343.0)"> </text><text xml:space="preserve" font-family="Arial-Black" font-weight="bold" font-size="18.0" fill="#525252" transform="matrix(1.00, 0.00, -0.00, -1.00, 140.0, 343.0)">A</text><text xml:space="preserve" font-family="Arial-Black" font-weight="bold" font-size="18.0" fill="#525252" transform="matrix(1.00, 0.00, -0.00, -1.00, 154.0, 343.0)"> </text><text xml:space="preserve" font-family="Arial-Black" font-weight="bold" font-size="18.0" fill="#525252" transform="matrix(1.00, 0.00, -0.00, -1.00, 160.0, 343.0)">C</text><text xml:space="preserve" font-family="Arial-Black" font-weight="bold" font-size="18.0" fill="#525252" transform="matrix(1.00, 0.00, -0.00, -1.00, 174.0, 343.0)">R</text><text xml:space="preserve" font-family="Arial-Black" font-weight="bold" font-size="18.0" fill="#525252" transform="matrix(1.00, 0.00, -0.00, -1.00, 188.0, 343.0)">E</text><text xml:space="preserve" font-family="Arial-Black" font-weight="bold" font-size="18.0" fill="#525252" transform="matrix(1.00, 0.00, -0.00, -1.00, 201.0, 343.0)">D</text><text xml:space="preserve" font-family="Arial-Black" font-weight="bold" font-size="18.0" fill="#525252" transform="matrix(1.00, 0.00, -0.00, -1.00, 215.0, 343.0)">I</text><text xml:space="preserve" font-family="Arial-Black" font-weight="bold" font-size="18.0" fill="#525252" transform="matrix(1.00, 0.00, -0.00, -1.00, 222.0, 343.0)">T</text><text xml:space="preserve" font-family="Arial-Black" font-weight="bold" font-size="18.0" fill="#525252" transform="matrix(1.00, 0.00, -0.00, -1.00, 235.0, 343.0)"> </text><text xml:space="preserve" font-family="Arial-Black" font-weight="bold" font-size="18.0" fill="#525252" transform="matrix(1.00, 0.00, -0.00, -1.00, 241.0, 343.0)">C</text><text xml:space="preserve" font-family="Arial-Black" font-weight="bold" font-size="18.0" fill="#525252" transform="matrix(1.00, 0.00, -0.00, -1.00, 255.0, 343.0)">A</text><text xml:space="preserve" font-family="Arial-Black" font-weight="bold" font-size="18.0" fill="#525252" transform="matrix(1.00, 0.00, -0.00, -1.00, 269.0, 343.0)">R</text><text xml:space="preserve" font-family="Arial-Black" font-weight="bold" font-size="18.0" fill="#525252" transform="matrix(1.00, 0.00, -0.00, -1.00, 283.0, 343.0)">D</text><text xml:space="preserve" font-family="Arial-Black" font-weight="bold" font-size="18.0" fill="#525252" transform="matrix(1.00, 0.00, -0.00, -1.00, 297.0, 343.0)"> </text><text xml:space="preserve" font-family="Arial-Black" font-weight="bold" font-size="18.0" fill="#525252" transform="matrix(1.00, 0.00, -0.00, -1.00, 77.0, 317.0)">I</text><text xml:space="preserve" font-family="Arial-Black" font-weight="bold" font-size="18.0" fill="#525252" transform="matrix(1.00, 0.00, -0.00, -1.00, 84.0, 317.0)">S</text><text xml:space="preserve" font-family="Arial-Black" font-weight="bold" font-size="18.0" fill="#525252" transform="matrix(1.00, 0.00, -0.00, -1.00, 97.0, 317.0)"> </text><text xml:space="preserve" font-family="Arial-Black" font-weight="bold" font-size="18.0" fill="#525252" transform="matrix(1.00, 0.00, -0.00, -1.00, 103.0, 317.0)">A</text><text xml:space="preserve" font-family="Arial-Black" font-weight="bold" font-size="18.0" fill="#525252" transform="matrix(1.00, 0.00, -0.00, -1.00, 117.0, 317.0)"> </text><text xml:space="preserve" font-family="Arial-Black" font-weight="bold" font-size="18.0" fill="#525252" transform="matrix(1.00, 0.00, -0.00, -1.00, 123.0, 317.0)">G</text><text xml:space="preserve" font-family="Arial-Black" font-weight="bold" font-size="18.0" fill="#525252" transform="matrix(1.00, 0.00, -0.00, -1.00, 138.0, 317.0)">O</text><text xml:space="preserve" font-family="Arial-Black" font-weight="bold" font-size="18.0" fill="#525252" transform="matrix(1.00, 0.00, -0.00, -1.00, 153.0, 317.0)">O</text><text xml:space="preserve" font-family="Arial-Black" font-weight="bold" font-size="18.0" fill="#525252" transform="matrix(1.00, 0.00, -0.00, -1.00, 168.0, 317.0)">D</text><text xml:space="preserve" font-family="Arial-Black" font-weight="bold" font-size="18.0" fill="#525252" transform="matrix(1.00, 0.00, -0.00, -1.00, 182.0, 317.0)"> </text><text xml:space="preserve" font-family="Arial-Black" font-weight="bold" font-size="18.0" fill="#525252" transform="matrix(1.00, 0.00, -0.00, -1.00, 188.0, 317.0)">P</text><text xml:space="preserve" font-family="Arial-Black" font-weight="bold" font-size="18.0" fill="#525252" transform="matrix(1.00, 0.00, -0.00, -1.00, 201.0, 317.0)">R</text><text xml:space="preserve" font-family="Arial-Black" font-weight="bold" font-size="18.0" fill="#525252" transform="matrix(1.00, 0.00, -0.00, -1.00, 215.0, 317.0)">A</text><text xml:space="preserve" font-family="Arial-Black" font-weight="bold" font-size="18.0" fill="#525252" transform="matrix(1.00, 0.00, -0.00, -1.00, 228.7, 317.0)">C</text><text xml:space="preserve" font-family="Arial-Black" font-weight="bold" font-size="18.0" fill="#525252" transform="matrix(1.00, 0.00, -0.00, -1.00, 242.7, 317.0)">T</text><text xml:space="preserve" font-family="Arial-Black" font-weight="bold" font-size="18.0" fill="#525252" transform="matrix(1.00, 0.00, -0.00, -1.00, 255.7, 317.0)">I</text><text xml:space="preserve" font-family="Arial-Black" font-weight="bold" font-size="18.0" fill="#525252" transform="matrix(1.00, 0.00, -0.00, -1.00, 262.7, 317.0)">C</text><text xml:space="preserve" font-family="Arial-Black" font-weight="bold" font-size="18.0" fill="#525252" transform="matrix(1.00, 0.00, -0.00, -1.00, 276.7, 317.0)">E</text><text xml:space="preserve" font-family="Trebuchet-BoldItalic" font-style="italic" font-weight="bold" font-size="18.0" fill="#525252" transform="matrix(1.00, 0.00, -0.00, -1.00, 39.0, 249.0)">“</text><text xml:space="preserve" font-family="Trebuchet-BoldItalic" font-style="italic" font-weight="bold" font-size="18.0" fill="#525252" transform="matrix(1.00, 0.00, -0.00, -1.00, 49.5, 249.0)">S</text><text xml:space="preserve" font-family="Trebuchet-BoldItalic" font-style="italic" font-weight="bold" font-size="18.0" fill="#525252" transform="matrix(1.00, 0.00, -0.00, -1.00, 58.6, 249.0)">W</text><text xml:space="preserve" font-family="Trebuchet-BoldItalic" font-style="italic" font-weight="bold" font-size="18.0" fill="#525252" transform="matrix(1.00, 0.00, -0.00, -1.00, 75.3, 249.0)">I</text><text xml:space="preserve" font-family="Trebuchet-BoldItalic" font-style="italic" font-weight="bold" font-size="18.0" fill="#525252" transform="matrix(1.00, 0.00, -0.00, -1.00, 80.3, 249.0)">P</text><text xml:space="preserve" font-family="Trebuchet-BoldItalic" font-style="italic" font-weight="bold" font-size="18.0" fill="#525252" transform="matrix(1.00, 0.00, -0.00, -1.00, 90.8, 249.0)">I</text><text xml:space="preserve" font-family="Trebuchet-BoldItalic" font-style="italic" font-weight="bold" font-size="18.0" fill="#525252" transform="matrix(1.00, 0.00, -0.00, -1.00, 95.8, 249.0)">N</text><text xml:space="preserve" font-family="Trebuchet-BoldItalic" font-style="italic" font-weight="bold" font-size="18.0" fill="#525252" transform="matrix(1.00, 0.00, -0.00, -1.00, 107.7, 249.0)">G</text><text xml:space="preserve" font-family="Trebuchet-BoldItalic" font-style="italic" font-weight="bold" font-size="18.0" fill="#525252" transform="matrix(1.00, 0.00, -0.00, -1.00, 119.8, 249.0)"> </text><text xml:space="preserve" font-family="Trebuchet-BoldItalic" font-style="italic" font-weight="bold" font-size="18.0" fill="#525252" transform="matrix(1.00, 0.00, -0.00, -1.00, 124.6, 249.0)">A</text><text xml:space="preserve" font-family="Trebuchet-BoldItalic" font-style="italic" font-weight="bold" font-size="18.0" fill="#525252" transform="matrix(1.00, 0.00, -0.00, -1.00, 135.0, 249.0)"> </text><text xml:space="preserve" font-family="Trebuchet-BoldItalic" font-style="italic" font-weight="bold" font-size="18.0" fill="#525252" transform="matrix(1.00, 0.00, -0.00, -1.00, 140.4, 249.0)">C</text><text xml:space="preserve" font-family="Trebuchet-BoldItalic" font-style="italic" font-weight="bold" font-size="18.0" fill="#525252" transform="matrix(1.00, 0.00, -0.00, -1.00, 151.4, 249.0)">A</text><text xml:space="preserve" font-family="Trebuchet-BoldItalic" font-style="italic" font-weight="bold" font-size="18.0" fill="#525252" transform="matrix(1.00, 0.00, -0.00, -1.00, 162.5, 249.0)">R</text><text xml:space="preserve" font-family="Trebuchet-BoldItalic" font-style="italic" font-weight="bold" font-size="18.0" fill="#525252" transform="matrix(1.00, 0.00, -0.00, -1.00, 173.7, 249.0)">D</text><text xml:space="preserve" font-family="Trebuchet-BoldItalic" font-style="italic" font-weight="bold" font-size="18.0" fill="#525252" transform="matrix(1.00, 0.00, -0.00, -1.00, 185.1, 249.0)"> </text><text xml:space="preserve" font-family="Trebuchet-BoldItalic" font-style="italic" font-weight="bold" font-size="18.0" fill="#525252" transform="matrix(1.00, 0.00, -0.00, -1.00, 189.8, 249.0)">A</text><text xml:space="preserve" font-family="Trebuchet-BoldItalic" font-style="italic" font-weight="bold" font-size="18.0" fill="#525252" transform="matrix(1.00, 0.00, -0.00, -1.00, 199.2, 249.0)">T</text><text xml:space="preserve" font-family="Trebuchet-BoldItalic" font-style="italic" font-weight="bold" font-size="18.0" fill="#525252" transform="matrix(1.00, 0.00, -0.00, -1.00, 211.6, 249.0)"> </text><text xml:space="preserve" font-family="Trebuchet-BoldItalic" font-style="italic" font-weight="bold" font-size="18.0" fill="#525252" transform="matrix(1.00, 0.00, -0.00, -1.00, 217.0, 249.0)">C</text><text xml:space="preserve" font-family="Trebuchet-BoldItalic" font-style="italic" font-weight="bold" font-size="18.0" fill="#525252" transform="matrix(1.00, 0.00, -0.00, -1.00, 228.0, 249.0)">H</text><text xml:space="preserve" font-family="Trebuchet-BoldItalic" font-style="italic" font-weight="bold" font-size="18.0" fill="#525252" transform="matrix(1.00, 0.00, -0.00, -1.00, 240.2, 249.0)">E</text><text xml:space="preserve" font-family="Trebuchet-BoldItalic" font-style="italic" font-weight="bold" font-size="18.0" fill="#525252" transform="matrix(1.00, 0.00, -0.00, -1.00, 250.9, 249.0)">C</text><text xml:space="preserve" font-family="Trebuchet-BoldItalic" font-style="italic" font-weight="bold" font-size="18.0" fill="#525252" transform="matrix(1.00, 0.00, -0.00, -1.00, 261.9, 249.0)">K</text><text xml:space="preserve" font-family="Trebuchet-BoldItalic" font-style="italic" font-weight="bold" font-size="18.0" fill="#525252" transform="matrix(1.00, 0.00, -0.00, -1.00, 273.6, 249.0)">O</text><text xml:space="preserve" font-family="Trebuchet-BoldItalic" font-style="italic" font-weight="bold" font-size="18.0" fill="#525252" transform="matrix(1.00, 0.00, -0.00, -1.00, 286.3, 249.0)">U</text><text xml:space="preserve" font-family="Trebuchet-BoldItalic" font-style="italic" font-weight="bold" font-size="18.0" fill="#525252" transform="matrix(1.00, 0.00, -0.00, -1.00, 298.2, 249.0)">T</text><text xml:space="preserve" font-family="Trebuchet-BoldItalic" font-style="italic" font-weight="bold" font-size="18.0" fill="#525252" transform="matrix(1.00, 0.00, -0.00, -1.00, 310.5, 249.0)"> </text><text xml:space="preserve" font-family="Trebuchet-BoldItalic" font-style="italic" font-weight="bold" font-size="18.0" fill="#525252" transform="matrix(1.00, 0.00, -0.00, -1.00, 42.0, 228.0)">I</text><text xml:space="preserve" font-family="Trebuchet-BoldItalic" font-style="italic" font-weight="bold" font-size="18.0" fill="#525252" transform="matrix(1.00, 0.00, -0.00, -1.00, 47.0, 228.0)">S</text><text xml:space="preserve" font-family="Trebuchet-BoldItalic" font-style="italic" font-weight="bold" font-size="18.0" fill="#525252" transform="matrix(1.00, 0.00, -0.00, -1.00, 56.0, 228.0)"> </text><text xml:space="preserve" font-family="Trebuchet-BoldItalic" font-style="italic" font-weight="bold" font-size="18.0" fill="#525252" transform="matrix(1.00, 0.00, -0.00, -1.00, 61.5, 228.0)">O</text><text xml:space="preserve" font-family="Trebuchet-BoldItalic" font-style="italic" font-weight="bold" font-size="18.0" fill="#525252" transform="matrix(1.00, 0.00, -0.00, -1.00, 74.1, 228.0)">N</text><text xml:space="preserve" font-family="Trebuchet-BoldItalic" font-style="italic" font-weight="bold" font-size="18.0" fill="#525252" transform="matrix(1.00, 0.00, -0.00, -1.00, 86.0, 228.0)">E</text><text xml:space="preserve" font-family="Trebuchet-BoldItalic" font-style="italic" font-weight="bold" font-size="18.0" fill="#525252" transform="matrix(1.00, 0.00, -0.00, -1.00, 96.7, 228.0)"> </text><text xml:space="preserve" font-family="Trebuchet-BoldItalic" font-style="italic" font-weight="bold" font-size="18.0" fill="#525252" transform="matrix(1.00, 0.00, -0.00, -1.00, 102.1, 228.0)">O</text><text xml:space="preserve" font-family="Trebuchet-BoldItalic" font-style="italic" font-weight="bold" font-size="18.0" fill="#525252" transform="matrix(1.00, 0.00, -0.00, -1.00, 114.8, 228.0)">F</text><text xml:space="preserve" font-family="Trebuchet-BoldItalic" font-style="italic" font-weight="bold" font-size="18.0" fill="#525252" transform="matrix(1.00, 0.00, -0.00, -1.00, 125.3, 228.0)"> </text><text xml:space="preserve" font-family="Trebuchet-BoldItalic" font-style="italic" font-weight="bold" font-size="18.0" fill="#525252" transform="matrix(1.00, 0.00, -0.00, -1.00, 130.7, 228.0)">T</text><text xml:space="preserve" font-family="Trebuchet-BoldItalic" font-style="italic" font-weight="bold" font-size="18.0" fill="#525252" transform="matrix(1.00, 0.00, -0.00, -1.00, 143.1, 228.0)">H</text><text xml:space="preserve" font-family="Trebuchet-BoldItalic" font-style="italic" font-weight="bold" font-size="18.0" fill="#525252" transform="matrix(1.00, 0.00, -0.00, -1.00, 155.3, 228.0)">E</text><text xml:space="preserve" font-family="Trebuchet-BoldItalic" font-style="italic" font-weight="bold" font-size="18.0" fill="#525252" transform="matrix(1.00, 0.00, -0.00, -1.00, 166.0, 228.0)"> </text><text xml:space="preserve" font-family="Trebuchet-BoldItalic" font-style="italic" font-weight="bold" font-size="18.0" fill="#525252" transform="matrix(1.00, 0.00, -0.00, -1.00, 171.4, 228.0)">E</text><text xml:space="preserve" font-family="Trebuchet-BoldItalic" font-style="italic" font-weight="bold" font-size="18.0" fill="#525252" transform="matrix(1.00, 0.00, -0.00, -1.00, 182.1, 228.0)">A</text><text xml:space="preserve" font-family="Trebuchet-BoldItalic" font-style="italic" font-weight="bold" font-size="18.0" fill="#525252" transform="matrix(1.00, 0.00, -0.00, -1.00, 193.1, 228.0)">S</text><text xml:space="preserve" font-family="Trebuchet-BoldItalic" font-style="italic" font-weight="bold" font-size="18.0" fill="#525252" transform="matrix(1.00, 0.00, -0.00, -1.00, 202.1, 228.0)">I</text><text xml:space="preserve" font-family="Trebuchet-BoldItalic" font-style="italic" font-weight="bold" font-size="18.0" fill="#525252" transform="matrix(1.00, 0.00, -0.00, -1.00, 207.2, 228.0)">E</text><text xml:space="preserve" font-family="Trebuchet-BoldItalic" font-style="italic" font-weight="bold" font-size="18.0" fill="#525252" transform="matrix(1.00, 0.00, -0.00, -1.00, 217.8, 228.0)">S</text><text xml:space="preserve" font-family="Trebuchet-BoldItalic" font-style="italic" font-weight="bold" font-size="18.0" fill="#525252" transform="matrix(1.00, 0.00, -0.00, -1.00, 226.9, 228.0)">T</text><text xml:space="preserve" font-family="Trebuchet-BoldItalic" font-style="italic" font-weight="bold" font-size="18.0" fill="#525252" transform="matrix(1.00, 0.00, -0.00, -1.00, 239.2, 228.0)"> </text><text xml:space="preserve" font-family="Trebuchet-BoldItalic" font-style="italic" font-weight="bold" font-size="18.0" fill="#525252" transform="matrix(1.00, 0.00, -0.00, -1.00, 244.6, 228.0)">T</text><text xml:space="preserve" font-family="Trebuchet-BoldItalic" font-style="italic" font-weight="bold" font-size="18.0" fill="#525252" transform="matrix(1.00, 0.00, -0.00, -1.00, 257.0, 228.0)">H</text><text xml:space="preserve" font-family="Trebuchet-BoldItalic" font-style="italic" font-weight="bold" font-size="18.0" fill="#525252" transform="matrix(1.00, 0.00, -0.00, -1.00, 269.2, 228.0)">I</text><text xml:space="preserve" font-family="Trebuchet-BoldItalic" font-style="italic" font-weight="bold" font-size="18.0" fill="#525252" transform="matrix(1.00, 0.00, -0.00, -1.00, 274.2, 228.0)">N</text><text xml:space="preserve" font-family="Trebuchet-BoldItalic" font-style="italic" font-weight="bold" font-size="18.0" fill="#525252" transform="matrix(1.00, 0.00, -0.00, -1.00, 286.1, 228.0)">G</text><text xml:space="preserve" font-family="Trebuchet-BoldItalic" font-style="italic" font-weight="bold" font-size="18.0" fill="#525252" transform="matrix(1.00, 0.00, -0.00, -1.00, 298.3, 228.0)">S</text><text xml:space="preserve" font-family="Trebuchet-BoldItalic" font-style="italic" font-weight="bold" font-size="18.0" fill="#525252" transform="matrix(1.00, 0.00, -0.00, -1.00, 307.3, 228.0)"> </text><text xml:space="preserve" font-family="Trebuchet-BoldItalic" font-style="italic" font-weight="bold" font-size="18.0" fill="#525252" transform="matrix(1.00, 0.00, -0.00, -1.00, 56.0, 207.0)">C</text><text xml:space="preserve" font-family="Trebuchet-BoldItalic" font-style="italic" font-weight="bold" font-size="18.0" fill="#525252" transform="matrix(1.00, 0.00, -0.00, -1.00, 67.0, 207.0)">O</text><text xml:space="preserve" font-family="Trebuchet-BoldItalic" font-style="italic" font-weight="bold" font-size="18.0" fill="#525252" transform="matrix(1.00, 0.00, -0.00, -1.00, 79.7, 207.0)">N</text><text xml:space="preserve" font-family="Trebuchet-BoldItalic" font-style="italic" font-weight="bold" font-size="18.0" fill="#525252" transform="matrix(1.00, 0.00, -0.00, -1.00, 91.5, 207.0)">S</text><text xml:space="preserve" font-family="Trebuchet-BoldItalic" font-style="italic" font-weight="bold" font-size="18.0" fill="#525252" transform="matrix(1.00, 0.00, -0.00, -1.00, 100.6, 207.0)">U</text><text xml:space="preserve" font-family="Trebuchet-BoldItalic" font-style="italic" font-weight="bold" font-size="18.0" fill="#525252" transform="matrix(1.00, 0.00, -0.00, -1.00, 112.5, 207.0)">M</text><text xml:space="preserve" font-family="Trebuchet-BoldItalic" font-style="italic" font-weight="bold" font-size="18.0" fill="#525252" transform="matrix(1.00, 0.00, -0.00, -1.00, 126.6, 207.0)">E</text><text xml:space="preserve" font-family="Trebuchet-BoldItalic" font-style="italic" font-weight="bold" font-size="18.0" fill="#525252" transform="matrix(1.00, 0.00, -0.00, -1.00, 137.3, 207.0)">R</text><text xml:space="preserve" font-family="Trebuchet-BoldItalic" font-style="italic" font-weight="bold" font-size="18.0" fill="#525252" transform="matrix(1.00, 0.00, -0.00, -1.00, 148.5, 207.0)">S</text><text xml:space="preserve" font-family="Trebuchet-BoldItalic" font-style="italic" font-weight="bold" font-size="18.0" fill="#525252" transform="matrix(1.00, 0.00, -0.00, -1.00, 157.6, 207.0)"> </text><text xml:space="preserve" font-family="Trebuchet-BoldItalic" font-style="italic" font-weight="bold" font-size="18.0" fill="#525252" transform="matrix(1.00, 0.00, -0.00, -1.00, 163.0, 207.0)">W</text><text xml:space="preserve" font-family="Trebuchet-BoldItalic" font-style="italic" font-weight="bold" font-size="18.0" fill="#525252" transform="matrix(1.00, 0.00, -0.00, -1.00, 179.7, 207.0)">I</text><text xml:space="preserve" font-family="Trebuchet-BoldItalic" font-style="italic" font-weight="bold" font-size="18.0" fill="#525252" transform="matrix(1.00, 0.00, -0.00, -1.00, 184.7, 207.0)">L</text><text xml:space="preserve" font-family="Trebuchet-BoldItalic" font-style="italic" font-weight="bold" font-size="18.0" fill="#525252" transform="matrix(1.00, 0.00, -0.00, -1.00, 194.3, 207.0)">L</text><text xml:space="preserve" font-family="Trebuchet-BoldItalic" font-style="italic" font-weight="bold" font-size="18.0" fill="#525252" transform="matrix(1.00, 0.00, -0.00, -1.00, 203.4, 207.0)"> </text><text xml:space="preserve" font-family="Trebuchet-BoldItalic" font-style="italic" font-weight="bold" font-size="18.0" fill="#525252" transform="matrix(1.00, 0.00, -0.00, -1.00, 208.9, 207.0)">E</text><text xml:space="preserve" font-family="Trebuchet-BoldItalic" font-style="italic" font-weight="bold" font-size="18.0" fill="#525252" transform="matrix(1.00, 0.00, -0.00, -1.00, 219.6, 207.0)">V</text><text xml:space="preserve" font-family="Trebuchet-BoldItalic" font-style="italic" font-weight="bold" font-size="18.0" fill="#525252" transform="matrix(1.00, 0.00, -0.00, -1.00, 231.9, 207.0)">E</text><text xml:space="preserve" font-family="Trebuchet-BoldItalic" font-style="italic" font-weight="bold" font-size="18.0" fill="#525252" transform="matrix(1.00, 0.00, -0.00, -1.00, 242.6, 207.0)">R</text><text xml:space="preserve" font-family="Trebuchet-BoldItalic" font-style="italic" font-weight="bold" font-size="18.0" fill="#525252" transform="matrix(1.00, 0.00, -0.00, -1.00, 253.8, 207.0)"> </text><text xml:space="preserve" font-family="Trebuchet-BoldItalic" font-style="italic" font-weight="bold" font-size="18.0" fill="#525252" transform="matrix(1.00, 0.00, -0.00, -1.00, 259.2, 207.0)">D</text><text xml:space="preserve" font-family="Trebuchet-BoldItalic" font-style="italic" font-weight="bold" font-size="18.0" fill="#525252" transform="matrix(1.00, 0.00, -0.00, -1.00, 270.6, 207.0)">O</text><text xml:space="preserve" font-family="Trebuchet-BoldItalic" font-style="italic" font-weight="bold" font-size="18.0" fill="#525252" transform="matrix(1.00, 0.00, -0.00, -1.00, 283.2, 207.0)">”</text><text xml:space="preserve" font-family="Trebuchet-BoldItalic" font-style="italic" font-weight="bold" font-size="18.0" fill="#525252" transform="matrix(1.00, 0.00, -0.00, -1.00, 293.8, 207.0)"> </text><text xml:space="preserve" font-family="TrebuchetMS" font-size="12.0" fill="#525252" transform="matrix(1.00, 0.00, -0.00, -1.00, 166.0, 176.0)">-</text><text xml:space="preserve" font-family="TrebuchetMS" font-size="12.0" fill="#525252" transform="matrix(1.00, 0.00, -0.00, -1.00, 170.4, 176.0)"> </text><text xml:space="preserve" font-family="TrebuchetMS" font-size="12.0" fill="#525252" transform="matrix(1.00, 0.00, -0.00, -1.00, 174.0, 176.0)">B</text><text xml:space="preserve" font-family="TrebuchetMS" font-size="12.0" fill="#525252" transform="matrix(1.00, 0.00, -0.00, -1.00, 180.8, 176.0)">i</text><text xml:space="preserve" font-family="TrebuchetMS" font-size="12.0" fill="#525252" transform="matrix(1.00, 0.00, -0.00, -1.00, 184.2, 176.0)">l</text><text xml:space="preserve" font-family="TrebuchetMS" font-size="12.0" fill="#525252" transform="matrix(1.00, 0.00, -0.00, -1.00, 187.8, 176.0)">l</text><text xml:space="preserve" font-family="TrebuchetMS" font-size="12.0" fill="#525252" transform="matrix(1.00, 0.00, -0.00, -1.00, 191.3, 176.0)"> </text><text xml:space="preserve" font-family="TrebuchetMS" font-size="12.0" fill="#525252" transform="matrix(1.00, 0.00, -0.00, -1.00, 194.9, 176.0)">R</text><text xml:space="preserve" font-family="TrebuchetMS" font-size="12.0" fill="#525252" transform="matrix(1.00, 0.00, -0.00, -1.00, 201.4, 176.0)">e</text><text xml:space="preserve" font-family="TrebuchetMS" font-size="12.0" fill="#525252" transform="matrix(1.00, 0.00, -0.00, -1.00, 208.0, 176.0)">a</text><text xml:space="preserve" font-family="TrebuchetMS" font-size="12.0" fill="#525252" transform="matrix(1.00, 0.00, -0.00, -1.00, 214.3, 176.0)">d</text><text xml:space="preserve" font-family="TrebuchetMS" font-size="12.0" fill="#525252" transform="matrix(1.00, 0.00, -0.00, -1.00, 221.0, 176.0)">y</text><text xml:space="preserve" font-family="TrebuchetMS" font-size="12.0" fill="#525252" transform="matrix(1.00, 0.00, -0.00, -1.00, 225.4, 176.0)">,</text><text xml:space="preserve" font-family="TrebuchetMS" font-size="12.0" fill="#525252" transform="matrix(1.00, 0.00, -0.00, -1.00, 229.8, 176.0)"> </text><text xml:space="preserve" font-family="TrebuchetMS" font-size="12.0" fill="#525252" transform="matrix(1.00, 0.00, -0.00, -1.00, 233.5, 176.0)">C</text><text xml:space="preserve" font-family="TrebuchetMS" font-size="12.0" fill="#525252" transform="matrix(1.00, 0.00, -0.00, -1.00, 240.6, 176.0)">E</text><text xml:space="preserve" font-family="TrebuchetMS" font-size="12.0" fill="#525252" transform="matrix(1.00, 0.00, -0.00, -1.00, 247.1, 176.0)">O</text><text xml:space="preserve" font-family="TrebuchetMS" font-size="12.0" fill="#525252" transform="matrix(1.00, 0.00, -0.00, -1.00, 255.2, 176.0)">,</text><text xml:space="preserve" font-family="TrebuchetMS" font-size="12.0" fill="#525252" transform="matrix(1.00, 0.00, -0.00, -1.00, 259.6, 176.0)"> </text><text xml:space="preserve" font-family="TrebuchetMS" font-size="12.0" fill="#525252" transform="matrix(1.00, 0.00, -0.00, -1.00, 263.2, 176.0)">B</text><text xml:space="preserve" font-family="TrebuchetMS" font-size="12.0" fill="#525252" transform="matrix(1.00, 0.00, -0.00, -1.00, 270.0, 176.0)">r</text><text xml:space="preserve" font-family="TrebuchetMS" font-size="12.0" fill="#525252" transform="matrix(1.00, 0.00, -0.00, -1.00, 274.6, 176.0)">a</text><text xml:space="preserve" font-family="TrebuchetMS" font-size="12.0" fill="#525252" transform="matrix(1.00, 0.00, -0.00, -1.00, 280.9, 176.0)">i</text><text xml:space="preserve" font-family="TrebuchetMS" font-size="12.0" fill="#525252" transform="matrix(1.00, 0.00, -0.00, -1.00, 284.4, 176.0)">n</text><text xml:space="preserve" font-family="TrebuchetMS" font-size="12.0" fill="#525252" transform="matrix(1.00, 0.00, -0.00, -1.00, 290.9, 176.0)">t</text><text xml:space="preserve" font-family="TrebuchetMS" font-size="12.0" fill="#525252" transform="matrix(1.00, 0.00, -0.00, -1.00, 295.7, 176.0)">r</text><text xml:space="preserve" font-family="TrebuchetMS" font-size="12.0" fill="#525252" transform="matrix(1.00, 0.00, -0.00, -1.00, 300.3, 176.0)">e</text><text xml:space="preserve" font-family="TrebuchetMS" font-size="12.0" fill="#525252" transform="matrix(1.00, 0.00, -0.00, -1.00, 306.9, 176.0)">e</text></g></svg>