<?xml version="1.0" encoding="UTF-8" standalone="no"?><svg xmlns="http://www.w3.org/2000/svg" xmlns:xlink="http://www.w3.org/1999/xlink" clip-rule="evenodd" stroke-miterlimit="4.00" viewBox="0 0 150 15"><desc>SVG generated by Keynote</desc><defs></defs><g transform="matrix(1.00, 0.00, -0.00, -1.00, 0.0, 15.0)"><text xml:space="preserve" font-family="TrebuchetMS" font-size="12.0" fill="#525252" transform="matrix(1.00, 0.00, -0.00, -1.00, 0.0, 5.0)">-</text><text xml:space="preserve" font-family="TrebuchetMS" font-size="12.0" fill="#525252" transform="matrix(1.00, 0.00, -0.00, -1.00, 4.4, 5.0)"> </text><text xml:space="preserve" font-family="TrebuchetMS" font-size="12.0" fill="#525252" transform="matrix(1.00, 0.00, -0.00, -1.00, 8.0, 5.0)">B</text><text xml:space="preserve" font-family="TrebuchetMS" font-size="12.0" fill="#525252" transform="matrix(1.00, 0.00, -0.00, -1.00, 14.8, 5.0)">i</text><text xml:space="preserve" font-family="TrebuchetMS" font-size="12.0" fill="#525252" transform="matrix(1.00, 0.00, -0.00, -1.00, 18.2, 5.0)">l</text><text xml:space="preserve" font-family="TrebuchetMS" font-size="12.0" fill="#525252" transform="matrix(1.00, 0.00, -0.00, -1.00, 21.8, 5.0)">l</text><text xml:space="preserve" font-family="TrebuchetMS" font-size="12.0" fill="#525252" transform="matrix(1.00, 0.00, -0.00, -1.00, 25.3, 5.0)"> </text><text xml:space="preserve" font-family="TrebuchetMS" font-size="12.0" fill="#525252" transform="matrix(1.00, 0.00, -0.00, -1.00, 28.9, 5.0)">R</text><text xml:space="preserve" font-family="TrebuchetMS" font-size="12.0" fill="#525252" transform="matrix(1.00, 0.00, -0.00, -1.00, 35.4, 5.0)">e</text><text xml:space="preserve" font-family="TrebuchetMS" font-size="12.0" fill="#525252" transform="matrix(1.00, 0.00, -0.00, -1.00, 42.0, 5.0)">a</text><text xml:space="preserve" font-family="TrebuchetMS" font-size="12.0" fill="#525252" transform="matrix(1.00, 0.00, -0.00, -1.00, 48.3, 5.0)">d</text><text xml:space="preserve" font-family="TrebuchetMS" font-size="12.0" fill="#525252" transform="matrix(1.00, 0.00, -0.00, -1.00, 55.0, 5.0)">y</text><text xml:space="preserve" font-family="TrebuchetMS" font-size="12.0" fill="#525252" transform="matrix(1.00, 0.00, -0.00, -1.00, 59.4, 5.0)">,</text><text xml:space="preserve" font-family="TrebuchetMS" font-size="12.0" fill="#525252" transform="matrix(1.00, 0.00, -0.00, -1.00, 63.8, 5.0)"> </text><text xml:space="preserve" font-family="TrebuchetMS" font-size="12.0" fill="#525252" transform="matrix(1.00, 0.00, -0.00, -1.00, 67.5, 5.0)">C</text><text xml:space="preserve" font-family="TrebuchetMS" font-size="12.0" fill="#525252" transform="matrix(1.00, 0.00, -0.00, -1.00, 74.6, 5.0)">E</text><text xml:space="preserve" font-family="TrebuchetMS" font-size="12.0" fill="#525252" transform="matrix(1.00, 0.00, -0.00, -1.00, 81.1, 5.0)">O</text><text xml:space="preserve" font-family="TrebuchetMS" font-size="12.0" fill="#525252" transform="matrix(1.00, 0.00, -0.00, -1.00, 89.2, 5.0)">,</text><text xml:space="preserve" font-family="TrebuchetMS" font-size="12.0" fill="#525252" transform="matrix(1.00, 0.00, -0.00, -1.00, 93.6, 5.0)"> </text><text xml:space="preserve" font-family="TrebuchetMS" font-size="12.0" fill="#525252" transform="matrix(1.00, 0.00, -0.00, -1.00, 97.2, 5.0)">B</text><text xml:space="preserve" font-family="TrebuchetMS" font-size="12.0" fill="#525252" transform="matrix(1.00, 0.00, -0.00, -1.00, 104.0, 5.0)">r</text><text xml:space="preserve" font-family="TrebuchetMS" font-size="12.0" fill="#525252" transform="matrix(1.00, 0.00, -0.00, -1.00, 108.6, 5.0)">a</text><text xml:space="preserve" font-family="TrebuchetMS" font-size="12.0" fill="#525252" transform="matrix(1.00, 0.00, -0.00, -1.00, 114.9, 5.0)">i</text><text xml:space="preserve" font-family="TrebuchetMS" font-size="12.0" fill="#525252" transform="matrix(1.00, 0.00, -0.00, -1.00, 118.4, 5.0)">n</text><text xml:space="preserve" font-family="TrebuchetMS" font-size="12.0" fill="#525252" transform="matrix(1.00, 0.00, -0.00, -1.00, 124.9, 5.0)">t</text><text xml:space="preserve" font-family="TrebuchetMS" font-size="12.0" fill="#525252" transform="matrix(1.00, 0.00, -0.00, -1.00, 129.7, 5.0)">r</text><text xml:space="preserve" font-family="TrebuchetMS" font-size="12.0" fill="#525252" transform="matrix(1.00, 0.00, -0.00, -1.00, 134.3, 5.0)">e</text><text xml:space="preserve" font-family="TrebuchetMS" font-size="12.0" fill="#525252" transform="matrix(1.00, 0.00, -0.00, -1.00, 140.9, 5.0)">e</text></g></svg>