<?xml version="1.0" encoding="UTF-8" standalone="no"?><svg xmlns="http://www.w3.org/2000/svg" xmlns:xlink="http://www.w3.org/1999/xlink" clip-rule="evenodd" stroke-miterlimit="4.00" viewBox="0 0 204 59"><desc>SVG generated by Keynote</desc><defs></defs><g transform="matrix(1.00, 0.00, -0.00, -1.00, 0.0, 59.0)"><text xml:space="preserve" font-family="TrebuchetMS" font-size="18.0" fill="#000000" transform="matrix(1.00, 0.00, -0.00, -1.00, 2.0, 44.0)">t</text><text xml:space="preserve" font-family="TrebuchetMS" font-size="18.0" fill="#000000" transform="matrix(1.00, 0.00, -0.00, -1.00, 9.1, 44.0)">u</text><text xml:space="preserve" font-family="TrebuchetMS" font-size="18.0" fill="#000000" transform="matrix(1.00, 0.00, -0.00, -1.00, 19.0, 44.0)">r</text><text xml:space="preserve" font-family="TrebuchetMS" font-size="18.0" fill="#000000" transform="matrix(1.00, 0.00, -0.00, -1.00, 26.0, 44.0)">n</text><text xml:space="preserve" font-family="TrebuchetMS" font-size="18.0" fill="#000000" transform="matrix(1.00, 0.00, -0.00, -1.00, 35.8, 44.0)"> </text><text xml:space="preserve" font-family="TrebuchetMS" font-size="18.0" fill="#000000" transform="matrix(1.00, 0.00, -0.00, -1.00, 41.3, 44.0)">t</text><text xml:space="preserve" font-family="TrebuchetMS" font-size="18.0" fill="#000000" transform="matrix(1.00, 0.00, -0.00, -1.00, 48.4, 44.0)">o</text><text xml:space="preserve" font-family="TrebuchetMS" font-size="18.0" fill="#000000" transform="matrix(1.00, 0.00, -0.00, -1.00, 58.0, 44.0)"> </text><text xml:space="preserve" font-family="TrebuchetMS" font-size="18.0" fill="#000000" transform="matrix(1.00, 0.00, -0.00, -1.00, 63.5, 44.0)">t</text><text xml:space="preserve" font-family="TrebuchetMS" font-size="18.0" fill="#000000" transform="matrix(1.00, 0.00, -0.00, -1.00, 70.6, 44.0)">h</text><text xml:space="preserve" font-family="TrebuchetMS" font-size="18.0" fill="#000000" transform="matrix(1.00, 0.00, -0.00, -1.00, 80.5, 44.0)">e</text><text xml:space="preserve" font-family="TrebuchetMS" font-size="18.0" fill="#000000" transform="matrix(1.00, 0.00, -0.00, -1.00, 90.3, 44.0)">i</text><text xml:space="preserve" font-family="TrebuchetMS" font-size="18.0" fill="#000000" transform="matrix(1.00, 0.00, -0.00, -1.00, 95.4, 44.0)">r</text><text xml:space="preserve" font-family="TrebuchetMS" font-size="18.0" fill="#000000" transform="matrix(1.00, 0.00, -0.00, -1.00, 102.4, 44.0)"> </text><text xml:space="preserve" font-family="TrebuchetMS" font-size="18.0" fill="#000000" transform="matrix(1.00, 0.00, -0.00, -1.00, 107.9, 44.0)">s</text><text xml:space="preserve" font-family="TrebuchetMS" font-size="18.0" fill="#000000" transform="matrix(1.00, 0.00, -0.00, -1.00, 115.1, 44.0)">m</text><text xml:space="preserve" font-family="TrebuchetMS" font-size="18.0" fill="#000000" transform="matrix(1.00, 0.00, -0.00, -1.00, 130.1, 44.0)">a</text><text xml:space="preserve" font-family="TrebuchetMS" font-size="18.0" fill="#000000" transform="matrix(1.00, 0.00, -0.00, -1.00, 139.6, 44.0)">r</text><text xml:space="preserve" font-family="TrebuchetMS" font-size="18.0" fill="#000000" transform="matrix(1.00, 0.00, -0.00, -1.00, 146.5, 44.0)">t</text><text xml:space="preserve" font-family="TrebuchetMS" font-size="18.0" fill="#000000" transform="matrix(1.00, 0.00, -0.00, -1.00, 153.7, 44.0)">p</text><text xml:space="preserve" font-family="TrebuchetMS" font-size="18.0" fill="#000000" transform="matrix(1.00, 0.00, -0.00, -1.00, 163.7, 44.0)">h</text><text xml:space="preserve" font-family="TrebuchetMS" font-size="18.0" fill="#000000" transform="matrix(1.00, 0.00, -0.00, -1.00, 173.6, 44.0)">o</text><text xml:space="preserve" font-family="TrebuchetMS" font-size="18.0" fill="#000000" transform="matrix(1.00, 0.00, -0.00, -1.00, 183.2, 44.0)">n</text><text xml:space="preserve" font-family="TrebuchetMS" font-size="18.0" fill="#000000" transform="matrix(1.00, 0.00, -0.00, -1.00, 193.1, 44.0)">e</text><text xml:space="preserve" font-family="TrebuchetMS" font-size="18.0" fill="#000000" transform="matrix(1.00, 0.00, -0.00, -1.00, 202.9, 44.0)"> </text><text xml:space="preserve" font-family="TrebuchetMS" font-size="18.0" fill="#000000" transform="matrix(1.00, 0.00, -0.00, -1.00, 2.0, 23.0)">t</text><text xml:space="preserve" font-family="TrebuchetMS" font-size="18.0" fill="#000000" transform="matrix(1.00, 0.00, -0.00, -1.00, 9.1, 23.0)">o</text><text xml:space="preserve" font-family="TrebuchetMS" font-size="18.0" fill="#000000" transform="matrix(1.00, 0.00, -0.00, -1.00, 18.8, 23.0)"> </text><text xml:space="preserve" font-family="TrebuchetMS" font-size="18.0" fill="#000000" transform="matrix(1.00, 0.00, -0.00, -1.00, 24.2, 23.0)">i</text><text xml:space="preserve" font-family="TrebuchetMS" font-size="18.0" fill="#000000" transform="matrix(1.00, 0.00, -0.00, -1.00, 29.4, 23.0)">n</text><text xml:space="preserve" font-family="TrebuchetMS" font-size="18.0" fill="#000000" transform="matrix(1.00, 0.00, -0.00, -1.00, 39.2, 23.0)">f</text><text xml:space="preserve" font-family="TrebuchetMS" font-size="18.0" fill="#000000" transform="matrix(1.00, 0.00, -0.00, -1.00, 45.9, 23.0)">l</text><text xml:space="preserve" font-family="TrebuchetMS" font-size="18.0" fill="#000000" transform="matrix(1.00, 0.00, -0.00, -1.00, 51.2, 23.0)">u</text><text xml:space="preserve" font-family="TrebuchetMS" font-size="18.0" fill="#000000" transform="matrix(1.00, 0.00, -0.00, -1.00, 61.0, 23.0)">e</text><text xml:space="preserve" font-family="TrebuchetMS" font-size="18.0" fill="#000000" transform="matrix(1.00, 0.00, -0.00, -1.00, 70.8, 23.0)">n</text><text xml:space="preserve" font-family="TrebuchetMS" font-size="18.0" fill="#000000" transform="matrix(1.00, 0.00, -0.00, -1.00, 80.7, 23.0)">c</text><text xml:space="preserve" font-family="TrebuchetMS" font-size="18.0" fill="#000000" transform="matrix(1.00, 0.00, -0.00, -1.00, 89.6, 23.0)">e</text><text xml:space="preserve" font-family="TrebuchetMS" font-size="18.0" fill="#000000" transform="matrix(1.00, 0.00, -0.00, -1.00, 99.4, 23.0)"> </text><text xml:space="preserve" font-family="TrebuchetMS" font-size="18.0" fill="#000000" transform="matrix(1.00, 0.00, -0.00, -1.00, 104.9, 23.0)">t</text><text xml:space="preserve" font-family="TrebuchetMS" font-size="18.0" fill="#000000" transform="matrix(1.00, 0.00, -0.00, -1.00, 112.0, 23.0)">h</text><text xml:space="preserve" font-family="TrebuchetMS" font-size="18.0" fill="#000000" transform="matrix(1.00, 0.00, -0.00, -1.00, 121.8, 23.0)">e</text><text xml:space="preserve" font-family="TrebuchetMS" font-size="18.0" fill="#000000" transform="matrix(1.00, 0.00, -0.00, -1.00, 131.7, 23.0)"> </text><text xml:space="preserve" font-family="TrebuchetMS" font-size="18.0" fill="#000000" transform="matrix(1.00, 0.00, -0.00, -1.00, 137.1, 23.0)">d</text><text xml:space="preserve" font-family="TrebuchetMS" font-size="18.0" fill="#000000" transform="matrix(1.00, 0.00, -0.00, -1.00, 147.1, 23.0)">e</text><text xml:space="preserve" font-family="TrebuchetMS" font-size="18.0" fill="#000000" transform="matrix(1.00, 0.00, -0.00, -1.00, 157.0, 23.0)">c</text><text xml:space="preserve" font-family="TrebuchetMS" font-size="18.0" fill="#000000" transform="matrix(1.00, 0.00, -0.00, -1.00, 165.9, 23.0)">i</text><text xml:space="preserve" font-family="TrebuchetMS" font-size="18.0" fill="#000000" transform="matrix(1.00, 0.00, -0.00, -1.00, 171.0, 23.0)">s</text><text xml:space="preserve" font-family="TrebuchetMS" font-size="18.0" fill="#000000" transform="matrix(1.00, 0.00, -0.00, -1.00, 178.3, 23.0)">i</text><text xml:space="preserve" font-family="TrebuchetMS" font-size="18.0" fill="#000000" transform="matrix(1.00, 0.00, -0.00, -1.00, 183.4, 23.0)">o</text><text xml:space="preserve" font-family="TrebuchetMS" font-size="18.0" fill="#000000" transform="matrix(1.00, 0.00, -0.00, -1.00, 193.1, 23.0)">n</text><text xml:space="preserve" font-family="TrebuchetMS" font-size="18.0" fill="#000000" transform="matrix(1.00, 0.00, -0.00, -1.00, 202.9, 23.0)"> </text><text xml:space="preserve" font-family="TrebuchetMS" font-size="18.0" fill="#000000" transform="matrix(1.00, 0.00, -0.00, -1.00, 2.0, 2.0)">i</text><text xml:space="preserve" font-family="TrebuchetMS" font-size="18.0" fill="#000000" transform="matrix(1.00, 0.00, -0.00, -1.00, 7.1, 2.0)">n</text><text xml:space="preserve" font-family="TrebuchetMS" font-size="18.0" fill="#000000" transform="matrix(1.00, 0.00, -0.00, -1.00, 17.0, 2.0)"> </text><text xml:space="preserve" font-family="TrebuchetMS" font-size="18.0" fill="#000000" transform="matrix(1.00, 0.00, -0.00, -1.00, 22.4, 2.0)">a</text><text xml:space="preserve" font-family="TrebuchetMS" font-size="18.0" fill="#000000" transform="matrix(1.00, 0.00, -0.00, -1.00, 31.9, 2.0)"> </text><text xml:space="preserve" font-family="TrebuchetMS" font-size="18.0" fill="#000000" transform="matrix(1.00, 0.00, -0.00, -1.00, 37.3, 2.0)">s</text><text xml:space="preserve" font-family="TrebuchetMS" font-size="18.0" fill="#000000" transform="matrix(1.00, 0.00, -0.00, -1.00, 44.6, 2.0)">t</text><text xml:space="preserve" font-family="TrebuchetMS" font-size="18.0" fill="#000000" transform="matrix(1.00, 0.00, -0.00, -1.00, 51.7, 2.0)">o</text><text xml:space="preserve" font-family="TrebuchetMS" font-size="18.0" fill="#000000" transform="matrix(1.00, 0.00, -0.00, -1.00, 61.4, 2.0)">r</text><text xml:space="preserve" font-family="TrebuchetMS" font-size="18.0" fill="#000000" transform="matrix(1.00, 0.00, -0.00, -1.00, 68.3, 2.0)">e</text></g></svg>