<?xml version="1.0" encoding="UTF-8" standalone="no"?><svg xmlns="http://www.w3.org/2000/svg" xmlns:xlink="http://www.w3.org/1999/xlink" clip-rule="evenodd" stroke-miterlimit="4.00" viewBox="0 0 187 84"><desc>SVG generated by Keynote</desc><defs></defs><g transform="matrix(1.00, 0.00, -0.00, -1.00, 0.0, 84.0)"><text xml:space="preserve" font-family="TrebuchetMS" font-size="18.0" fill="#000000" transform="matrix(1.00, 0.00, -0.00, -1.00, 1.0, 69.0)">t</text><text xml:space="preserve" font-family="TrebuchetMS" font-size="18.0" fill="#000000" transform="matrix(1.00, 0.00, -0.00, -1.00, 8.1, 69.0)">a</text><text xml:space="preserve" font-family="TrebuchetMS" font-size="18.0" fill="#000000" transform="matrix(1.00, 0.00, -0.00, -1.00, 17.6, 69.0)">k</text><text xml:space="preserve" font-family="TrebuchetMS" font-size="18.0" fill="#000000" transform="matrix(1.00, 0.00, -0.00, -1.00, 26.7, 69.0)">e</text><text xml:space="preserve" font-family="TrebuchetMS" font-size="18.0" fill="#000000" transform="matrix(1.00, 0.00, -0.00, -1.00, 36.5, 69.0)"> </text><text xml:space="preserve" font-family="TrebuchetMS" font-size="18.0" fill="#000000" transform="matrix(1.00, 0.00, -0.00, -1.00, 42.0, 69.0)">a</text><text xml:space="preserve" font-family="TrebuchetMS" font-size="18.0" fill="#000000" transform="matrix(1.00, 0.00, -0.00, -1.00, 51.4, 69.0)">c</text><text xml:space="preserve" font-family="TrebuchetMS" font-size="18.0" fill="#000000" transform="matrix(1.00, 0.00, -0.00, -1.00, 60.3, 69.0)">t</text><text xml:space="preserve" font-family="TrebuchetMS" font-size="18.0" fill="#000000" transform="matrix(1.00, 0.00, -0.00, -1.00, 67.5, 69.0)">i</text><text xml:space="preserve" font-family="TrebuchetMS" font-size="18.0" fill="#000000" transform="matrix(1.00, 0.00, -0.00, -1.00, 72.6, 69.0)">o</text><text xml:space="preserve" font-family="TrebuchetMS" font-size="18.0" fill="#000000" transform="matrix(1.00, 0.00, -0.00, -1.00, 82.3, 69.0)">n</text><text xml:space="preserve" font-family="TrebuchetMS" font-size="18.0" fill="#000000" transform="matrix(1.00, 0.00, -0.00, -1.00, 92.1, 69.0)"> </text><text xml:space="preserve" font-family="TrebuchetMS" font-size="18.0" fill="#000000" transform="matrix(1.00, 0.00, -0.00, -1.00, 97.6, 69.0)">t</text><text xml:space="preserve" font-family="TrebuchetMS" font-size="18.0" fill="#000000" transform="matrix(1.00, 0.00, -0.00, -1.00, 104.7, 69.0)">o</text><text xml:space="preserve" font-family="TrebuchetMS" font-size="18.0" fill="#000000" transform="matrix(1.00, 0.00, -0.00, -1.00, 114.4, 69.0)"> </text><text xml:space="preserve" font-family="TrebuchetMS" font-size="18.0" fill="#000000" transform="matrix(1.00, 0.00, -0.00, -1.00, 119.8, 69.0)">s</text><text xml:space="preserve" font-family="TrebuchetMS" font-size="18.0" fill="#000000" transform="matrix(1.00, 0.00, -0.00, -1.00, 127.1, 69.0)">o</text><text xml:space="preserve" font-family="TrebuchetMS" font-size="18.0" fill="#000000" transform="matrix(1.00, 0.00, -0.00, -1.00, 136.7, 69.0)">l</text><text xml:space="preserve" font-family="TrebuchetMS" font-size="18.0" fill="#000000" transform="matrix(1.00, 0.00, -0.00, -1.00, 142.0, 69.0)">v</text><text xml:space="preserve" font-family="TrebuchetMS" font-size="18.0" fill="#000000" transform="matrix(1.00, 0.00, -0.00, -1.00, 150.8, 69.0)">e</text><text xml:space="preserve" font-family="TrebuchetMS" font-size="18.0" fill="#000000" transform="matrix(1.00, 0.00, -0.00, -1.00, 160.6, 69.0)"> </text><text xml:space="preserve" font-family="TrebuchetMS" font-size="18.0" fill="#000000" transform="matrix(1.00, 0.00, -0.00, -1.00, 166.1, 69.0)">a</text><text xml:space="preserve" font-family="TrebuchetMS" font-size="18.0" fill="#000000" transform="matrix(1.00, 0.00, -0.00, -1.00, 175.5, 69.0)">n</text><text xml:space="preserve" font-family="TrebuchetMS" font-size="18.0" fill="#000000" transform="matrix(1.00, 0.00, -0.00, -1.00, 185.4, 69.0)"> </text><text xml:space="preserve" font-family="TrebuchetMS" font-size="18.0" fill="#000000" transform="matrix(1.00, 0.00, -0.00, -1.00, 1.0, 48.0)">u</text><text xml:space="preserve" font-family="TrebuchetMS" font-size="18.0" fill="#000000" transform="matrix(1.00, 0.00, -0.00, -1.00, 10.8, 48.0)">n</text><text xml:space="preserve" font-family="TrebuchetMS" font-size="18.0" fill="#000000" transform="matrix(1.00, 0.00, -0.00, -1.00, 20.7, 48.0)">e</text><text xml:space="preserve" font-family="TrebuchetMS" font-size="18.0" fill="#000000" transform="matrix(1.00, 0.00, -0.00, -1.00, 30.5, 48.0)">x</text><text xml:space="preserve" font-family="TrebuchetMS" font-size="18.0" fill="#000000" transform="matrix(1.00, 0.00, -0.00, -1.00, 39.5, 48.0)">p</text><text xml:space="preserve" font-family="TrebuchetMS" font-size="18.0" fill="#000000" transform="matrix(1.00, 0.00, -0.00, -1.00, 49.6, 48.0)">e</text><text xml:space="preserve" font-family="TrebuchetMS" font-size="18.0" fill="#000000" transform="matrix(1.00, 0.00, -0.00, -1.00, 59.4, 48.0)">c</text><text xml:space="preserve" font-family="TrebuchetMS" font-size="18.0" fill="#000000" transform="matrix(1.00, 0.00, -0.00, -1.00, 68.3, 48.0)">t</text><text xml:space="preserve" font-family="TrebuchetMS" font-size="18.0" fill="#000000" transform="matrix(1.00, 0.00, -0.00, -1.00, 75.4, 48.0)">e</text><text xml:space="preserve" font-family="TrebuchetMS" font-size="18.0" fill="#000000" transform="matrix(1.00, 0.00, -0.00, -1.00, 85.3, 48.0)">d</text><text xml:space="preserve" font-family="TrebuchetMS" font-size="18.0" fill="#000000" transform="matrix(1.00, 0.00, -0.00, -1.00, 95.3, 48.0)"> </text><text xml:space="preserve" font-family="TrebuchetMS" font-size="18.0" fill="#000000" transform="matrix(1.00, 0.00, -0.00, -1.00, 100.7, 48.0)">p</text><text xml:space="preserve" font-family="TrebuchetMS" font-size="18.0" fill="#000000" transform="matrix(1.00, 0.00, -0.00, -1.00, 110.8, 48.0)">r</text><text xml:space="preserve" font-family="TrebuchetMS" font-size="18.0" fill="#000000" transform="matrix(1.00, 0.00, -0.00, -1.00, 117.7, 48.0)">o</text><text xml:space="preserve" font-family="TrebuchetMS" font-size="18.0" fill="#000000" transform="matrix(1.00, 0.00, -0.00, -1.00, 127.4, 48.0)">b</text><text xml:space="preserve" font-family="TrebuchetMS" font-size="18.0" fill="#000000" transform="matrix(1.00, 0.00, -0.00, -1.00, 137.4, 48.0)">l</text><text xml:space="preserve" font-family="TrebuchetMS" font-size="18.0" fill="#000000" transform="matrix(1.00, 0.00, -0.00, -1.00, 142.7, 48.0)">e</text><text xml:space="preserve" font-family="TrebuchetMS" font-size="18.0" fill="#000000" transform="matrix(1.00, 0.00, -0.00, -1.00, 152.6, 48.0)">m</text><text xml:space="preserve" font-family="TrebuchetMS" font-size="18.0" fill="#000000" transform="matrix(1.00, 0.00, -0.00, -1.00, 167.5, 48.0)"> </text><text xml:space="preserve" font-family="TrebuchetMS" font-size="18.0" fill="#000000" transform="matrix(1.00, 0.00, -0.00, -1.00, 1.0, 27.0)">b</text><text xml:space="preserve" font-family="TrebuchetMS" font-size="18.0" fill="#000000" transform="matrix(1.00, 0.00, -0.00, -1.00, 11.0, 27.0)">e</text><text xml:space="preserve" font-family="TrebuchetMS" font-size="18.0" fill="#000000" transform="matrix(1.00, 0.00, -0.00, -1.00, 20.8, 27.0)">c</text><text xml:space="preserve" font-family="TrebuchetMS" font-size="18.0" fill="#000000" transform="matrix(1.00, 0.00, -0.00, -1.00, 29.8, 27.0)">a</text><text xml:space="preserve" font-family="TrebuchetMS" font-size="18.0" fill="#000000" transform="matrix(1.00, 0.00, -0.00, -1.00, 39.2, 27.0)">u</text><text xml:space="preserve" font-family="TrebuchetMS" font-size="18.0" fill="#000000" transform="matrix(1.00, 0.00, -0.00, -1.00, 49.1, 27.0)">s</text><text xml:space="preserve" font-family="TrebuchetMS" font-size="18.0" fill="#000000" transform="matrix(1.00, 0.00, -0.00, -1.00, 56.3, 27.0)">e</text><text xml:space="preserve" font-family="TrebuchetMS" font-size="18.0" fill="#000000" transform="matrix(1.00, 0.00, -0.00, -1.00, 66.2, 27.0)"> </text><text xml:space="preserve" font-family="TrebuchetMS" font-size="18.0" fill="#000000" transform="matrix(1.00, 0.00, -0.00, -1.00, 71.6, 27.0)">t</text><text xml:space="preserve" font-family="TrebuchetMS" font-size="18.0" fill="#000000" transform="matrix(1.00, 0.00, -0.00, -1.00, 78.7, 27.0)">h</text><text xml:space="preserve" font-family="TrebuchetMS" font-size="18.0" fill="#000000" transform="matrix(1.00, 0.00, -0.00, -1.00, 88.6, 27.0)">e</text><text xml:space="preserve" font-family="TrebuchetMS" font-size="18.0" fill="#000000" transform="matrix(1.00, 0.00, -0.00, -1.00, 98.4, 27.0)">y</text><text xml:space="preserve" font-family="TrebuchetMS" font-size="18.0" fill="#000000" transform="matrix(1.00, 0.00, -0.00, -1.00, 107.3, 27.0)"> </text><text xml:space="preserve" font-family="TrebuchetMS" font-size="18.0" fill="#000000" transform="matrix(1.00, 0.00, -0.00, -1.00, 112.7, 27.0)">h</text><text xml:space="preserve" font-family="TrebuchetMS" font-size="18.0" fill="#000000" transform="matrix(1.00, 0.00, -0.00, -1.00, 122.5, 27.0)">a</text><text xml:space="preserve" font-family="TrebuchetMS" font-size="18.0" fill="#000000" transform="matrix(1.00, 0.00, -0.00, -1.00, 132.0, 27.0)">v</text><text xml:space="preserve" font-family="TrebuchetMS" font-size="18.0" fill="#000000" transform="matrix(1.00, 0.00, -0.00, -1.00, 140.8, 27.0)">e</text><text xml:space="preserve" font-family="TrebuchetMS" font-size="18.0" fill="#000000" transform="matrix(1.00, 0.00, -0.00, -1.00, 150.6, 27.0)"> </text><text xml:space="preserve" font-family="TrebuchetMS" font-size="18.0" fill="#000000" transform="matrix(1.00, 0.00, -0.00, -1.00, 1.0, 6.0)">s</text><text xml:space="preserve" font-family="TrebuchetMS" font-size="18.0" fill="#000000" transform="matrix(1.00, 0.00, -0.00, -1.00, 8.3, 6.0)">m</text><text xml:space="preserve" font-family="TrebuchetMS" font-size="18.0" fill="#000000" transform="matrix(1.00, 0.00, -0.00, -1.00, 23.2, 6.0)">a</text><text xml:space="preserve" font-family="TrebuchetMS" font-size="18.0" fill="#000000" transform="matrix(1.00, 0.00, -0.00, -1.00, 32.7, 6.0)">r</text><text xml:space="preserve" font-family="TrebuchetMS" font-size="18.0" fill="#000000" transform="matrix(1.00, 0.00, -0.00, -1.00, 39.7, 6.0)">t</text><text xml:space="preserve" font-family="TrebuchetMS" font-size="18.0" fill="#000000" transform="matrix(1.00, 0.00, -0.00, -1.00, 46.8, 6.0)">p</text><text xml:space="preserve" font-family="TrebuchetMS" font-size="18.0" fill="#000000" transform="matrix(1.00, 0.00, -0.00, -1.00, 56.9, 6.0)">h</text><text xml:space="preserve" font-family="TrebuchetMS" font-size="18.0" fill="#000000" transform="matrix(1.00, 0.00, -0.00, -1.00, 66.7, 6.0)">o</text><text xml:space="preserve" font-family="TrebuchetMS" font-size="18.0" fill="#000000" transform="matrix(1.00, 0.00, -0.00, -1.00, 76.4, 6.0)">n</text><text xml:space="preserve" font-family="TrebuchetMS" font-size="18.0" fill="#000000" transform="matrix(1.00, 0.00, -0.00, -1.00, 86.2, 6.0)">e</text></g></svg>