<?xml version="1.0" encoding="UTF-8" standalone="no"?><svg xmlns="http://www.w3.org/2000/svg" xmlns:xlink="http://www.w3.org/1999/xlink" clip-rule="evenodd" stroke-miterlimit="4.00" viewBox="0 0 200 63"><desc>SVG generated by Keynote</desc><defs></defs><g transform="matrix(1.00, 0.00, -0.00, -1.00, 0.0, 63.0)"><text xml:space="preserve" font-family="TrebuchetMS" font-size="18.0" fill="#000000" transform="matrix(1.00, 0.00, -0.00, -1.00, 1.0, 48.0)">u</text><text xml:space="preserve" font-family="TrebuchetMS" font-size="18.0" fill="#000000" transform="matrix(1.00, 0.00, -0.00, -1.00, 10.8, 48.0)">s</text><text xml:space="preserve" font-family="TrebuchetMS" font-size="18.0" fill="#000000" transform="matrix(1.00, 0.00, -0.00, -1.00, 18.1, 48.0)">e</text><text xml:space="preserve" font-family="TrebuchetMS" font-size="18.0" fill="#000000" transform="matrix(1.00, 0.00, -0.00, -1.00, 27.9, 48.0)"> </text><text xml:space="preserve" font-family="TrebuchetMS" font-size="18.0" fill="#000000" transform="matrix(1.00, 0.00, -0.00, -1.00, 33.4, 48.0)">t</text><text xml:space="preserve" font-family="TrebuchetMS" font-size="18.0" fill="#000000" transform="matrix(1.00, 0.00, -0.00, -1.00, 40.5, 48.0)">h</text><text xml:space="preserve" font-family="TrebuchetMS" font-size="18.0" fill="#000000" transform="matrix(1.00, 0.00, -0.00, -1.00, 50.4, 48.0)">e</text><text xml:space="preserve" font-family="TrebuchetMS" font-size="18.0" fill="#000000" transform="matrix(1.00, 0.00, -0.00, -1.00, 60.2, 48.0)">i</text><text xml:space="preserve" font-family="TrebuchetMS" font-size="18.0" fill="#000000" transform="matrix(1.00, 0.00, -0.00, -1.00, 65.3, 48.0)">r</text><text xml:space="preserve" font-family="TrebuchetMS" font-size="18.0" fill="#000000" transform="matrix(1.00, 0.00, -0.00, -1.00, 72.3, 48.0)"> </text><text xml:space="preserve" font-family="TrebuchetMS" font-size="18.0" fill="#000000" transform="matrix(1.00, 0.00, -0.00, -1.00, 77.7, 48.0)">p</text><text xml:space="preserve" font-family="TrebuchetMS" font-size="18.0" fill="#000000" transform="matrix(1.00, 0.00, -0.00, -1.00, 87.8, 48.0)">h</text><text xml:space="preserve" font-family="TrebuchetMS" font-size="18.0" fill="#000000" transform="matrix(1.00, 0.00, -0.00, -1.00, 97.6, 48.0)">o</text><text xml:space="preserve" font-family="TrebuchetMS" font-size="18.0" fill="#000000" transform="matrix(1.00, 0.00, -0.00, -1.00, 107.3, 48.0)">n</text><text xml:space="preserve" font-family="TrebuchetMS" font-size="18.0" fill="#000000" transform="matrix(1.00, 0.00, -0.00, -1.00, 117.1, 48.0)">e</text><text xml:space="preserve" font-family="TrebuchetMS" font-size="18.0" fill="#000000" transform="matrix(1.00, 0.00, -0.00, -1.00, 126.9, 48.0)"> </text><text xml:space="preserve" font-family="TrebuchetMS" font-size="18.0" fill="#000000" transform="matrix(1.00, 0.00, -0.00, -1.00, 132.4, 48.0)">t</text><text xml:space="preserve" font-family="TrebuchetMS" font-size="18.0" fill="#000000" transform="matrix(1.00, 0.00, -0.00, -1.00, 139.5, 48.0)">o</text><text xml:space="preserve" font-family="TrebuchetMS" font-size="18.0" fill="#000000" transform="matrix(1.00, 0.00, -0.00, -1.00, 149.2, 48.0)"> </text><text xml:space="preserve" font-family="TrebuchetMS" font-size="18.0" fill="#000000" transform="matrix(1.00, 0.00, -0.00, -1.00, 154.6, 48.0)">m</text><text xml:space="preserve" font-family="TrebuchetMS" font-size="18.0" fill="#000000" transform="matrix(1.00, 0.00, -0.00, -1.00, 169.5, 48.0)">a</text><text xml:space="preserve" font-family="TrebuchetMS" font-size="18.0" fill="#000000" transform="matrix(1.00, 0.00, -0.00, -1.00, 179.0, 48.0)">k</text><text xml:space="preserve" font-family="TrebuchetMS" font-size="18.0" fill="#000000" transform="matrix(1.00, 0.00, -0.00, -1.00, 188.1, 48.0)">e</text><text xml:space="preserve" font-family="TrebuchetMS" font-size="18.0" fill="#000000" transform="matrix(1.00, 0.00, -0.00, -1.00, 197.9, 48.0)"> </text><text xml:space="preserve" font-family="TrebuchetMS" font-size="18.0" fill="#000000" transform="matrix(1.00, 0.00, -0.00, -1.00, 1.0, 27.0)">p</text><text xml:space="preserve" font-family="TrebuchetMS" font-size="18.0" fill="#000000" transform="matrix(1.00, 0.00, -0.00, -1.00, 11.0, 27.0)">r</text><text xml:space="preserve" font-family="TrebuchetMS" font-size="18.0" fill="#000000" transform="matrix(1.00, 0.00, -0.00, -1.00, 18.0, 27.0)">o</text><text xml:space="preserve" font-family="TrebuchetMS" font-size="18.0" fill="#000000" transform="matrix(1.00, 0.00, -0.00, -1.00, 27.7, 27.0)">g</text><text xml:space="preserve" font-family="TrebuchetMS" font-size="18.0" fill="#000000" transform="matrix(1.00, 0.00, -0.00, -1.00, 36.7, 27.0)">r</text><text xml:space="preserve" font-family="TrebuchetMS" font-size="18.0" fill="#000000" transform="matrix(1.00, 0.00, -0.00, -1.00, 43.7, 27.0)">e</text><text xml:space="preserve" font-family="TrebuchetMS" font-size="18.0" fill="#000000" transform="matrix(1.00, 0.00, -0.00, -1.00, 53.5, 27.0)">s</text><text xml:space="preserve" font-family="TrebuchetMS" font-size="18.0" fill="#000000" transform="matrix(1.00, 0.00, -0.00, -1.00, 60.8, 27.0)">s</text><text xml:space="preserve" font-family="TrebuchetMS" font-size="18.0" fill="#000000" transform="matrix(1.00, 0.00, -0.00, -1.00, 68.1, 27.0)"> </text><text xml:space="preserve" font-family="TrebuchetMS" font-size="18.0" fill="#000000" transform="matrix(1.00, 0.00, -0.00, -1.00, 73.5, 27.0)">t</text><text xml:space="preserve" font-family="TrebuchetMS" font-size="18.0" fill="#000000" transform="matrix(1.00, 0.00, -0.00, -1.00, 80.7, 27.0)">o</text><text xml:space="preserve" font-family="TrebuchetMS" font-size="18.0" fill="#000000" transform="matrix(1.00, 0.00, -0.00, -1.00, 90.3, 27.0)">w</text><text xml:space="preserve" font-family="TrebuchetMS" font-size="18.0" fill="#000000" transform="matrix(1.00, 0.00, -0.00, -1.00, 103.7, 27.0)">a</text><text xml:space="preserve" font-family="TrebuchetMS" font-size="18.0" fill="#000000" transform="matrix(1.00, 0.00, -0.00, -1.00, 113.2, 27.0)">r</text><text xml:space="preserve" font-family="TrebuchetMS" font-size="18.0" fill="#000000" transform="matrix(1.00, 0.00, -0.00, -1.00, 120.2, 27.0)">d</text><text xml:space="preserve" font-family="TrebuchetMS" font-size="18.0" fill="#000000" transform="matrix(1.00, 0.00, -0.00, -1.00, 130.2, 27.0)"> </text><text xml:space="preserve" font-family="TrebuchetMS" font-size="18.0" fill="#000000" transform="matrix(1.00, 0.00, -0.00, -1.00, 135.6, 27.0)">a</text><text xml:space="preserve" font-family="TrebuchetMS" font-size="18.0" fill="#000000" transform="matrix(1.00, 0.00, -0.00, -1.00, 145.1, 27.0)"> </text><text xml:space="preserve" font-family="TrebuchetMS" font-size="18.0" fill="#000000" transform="matrix(1.00, 0.00, -0.00, -1.00, 150.5, 27.0)">l</text><text xml:space="preserve" font-family="TrebuchetMS" font-size="18.0" fill="#000000" transform="matrix(1.00, 0.00, -0.00, -1.00, 155.8, 27.0)">o</text><text xml:space="preserve" font-family="TrebuchetMS" font-size="18.0" fill="#000000" transform="matrix(1.00, 0.00, -0.00, -1.00, 165.5, 27.0)">n</text><text xml:space="preserve" font-family="TrebuchetMS" font-size="18.0" fill="#000000" transform="matrix(1.00, 0.00, -0.00, -1.00, 175.3, 27.0)">g</text><text xml:space="preserve" font-family="TrebuchetMS" font-size="18.0" fill="#000000" transform="matrix(1.00, 0.00, -0.00, -1.00, 184.4, 27.0)"> </text><text xml:space="preserve" font-family="TrebuchetMS" font-size="18.0" fill="#000000" transform="matrix(1.00, 0.00, -0.00, -1.00, 1.0, 6.0)">t</text><text xml:space="preserve" font-family="TrebuchetMS" font-size="18.0" fill="#000000" transform="matrix(1.00, 0.00, -0.00, -1.00, 8.1, 6.0)">e</text><text xml:space="preserve" font-family="TrebuchetMS" font-size="18.0" fill="#000000" transform="matrix(1.00, 0.00, -0.00, -1.00, 18.0, 6.0)">r</text><text xml:space="preserve" font-family="TrebuchetMS" font-size="18.0" fill="#000000" transform="matrix(1.00, 0.00, -0.00, -1.00, 25.0, 6.0)">m</text><text xml:space="preserve" font-family="TrebuchetMS" font-size="18.0" fill="#000000" transform="matrix(1.00, 0.00, -0.00, -1.00, 39.9, 6.0)"> </text><text xml:space="preserve" font-family="TrebuchetMS" font-size="18.0" fill="#000000" transform="matrix(1.00, 0.00, -0.00, -1.00, 45.3, 6.0)">g</text><text xml:space="preserve" font-family="TrebuchetMS" font-size="18.0" fill="#000000" transform="matrix(1.00, 0.00, -0.00, -1.00, 54.4, 6.0)">o</text><text xml:space="preserve" font-family="TrebuchetMS" font-size="18.0" fill="#000000" transform="matrix(1.00, 0.00, -0.00, -1.00, 64.0, 6.0)">a</text><text xml:space="preserve" font-family="TrebuchetMS" font-size="18.0" fill="#000000" transform="matrix(1.00, 0.00, -0.00, -1.00, 73.5, 6.0)">l</text></g></svg>