<?xml version="1.0" encoding="UTF-8" standalone="no"?><svg xmlns="http://www.w3.org/2000/svg" xmlns:xlink="http://www.w3.org/1999/xlink" clip-rule="evenodd" stroke-miterlimit="4.00" viewBox="0 0 720 540"><desc>SVG generated by Keynote</desc><defs></defs><g transform="matrix(1.00, 0.00, -0.00, -1.00, 0.0, 540.0)"><path d="M 0.0 540.0 L 720.0 540.0 L 720.0 0.0 L 0.0 0.0 Z M 0.0 540.0 " fill="#FFFFFF"></path><path d="M 0.0 28.1 L 720.0 28.1 L 720.0 -0.7 L 0.0 -0.7 Z M 0.0 28.1 " fill="#454447"></path><text xml:space="preserve" font-family="TrebuchetMS" font-size="8.0" fill="#CCCCCC" transform="matrix(1.00, 0.00, -0.00, -1.00, 96.0, 11.0)">C</text><text xml:space="preserve" font-family="TrebuchetMS" font-size="8.0" fill="#CCCCCC" transform="matrix(1.00, 0.00, -0.00, -1.00, 101.0, 11.0)">O</text><text xml:space="preserve" font-family="TrebuchetMS" font-size="8.0" fill="#CCCCCC" transform="matrix(1.00, 0.00, -0.00, -1.00, 106.6, 11.0)">N</text><text xml:space="preserve" font-family="TrebuchetMS" font-size="8.0" fill="#CCCCCC" transform="matrix(1.00, 0.00, -0.00, -1.00, 111.9, 11.0)">F</text><text xml:space="preserve" font-family="TrebuchetMS" font-size="8.0" fill="#CCCCCC" transform="matrix(1.00, 0.00, -0.00, -1.00, 116.3, 11.0)">I</text><text xml:space="preserve" font-family="TrebuchetMS" font-size="8.0" fill="#CCCCCC" transform="matrix(1.00, 0.00, -0.00, -1.00, 118.7, 11.0)">D</text><text xml:space="preserve" font-family="TrebuchetMS" font-size="8.0" fill="#CCCCCC" transform="matrix(1.00, 0.00, -0.00, -1.00, 123.8, 11.0)">E</text><text xml:space="preserve" font-family="TrebuchetMS" font-size="8.0" fill="#CCCCCC" transform="matrix(1.00, 0.00, -0.00, -1.00, 128.3, 11.0)">N</text><text xml:space="preserve" font-family="TrebuchetMS" font-size="8.0" fill="#CCCCCC" transform="matrix(1.00, 0.00, -0.00, -1.00, 133.6, 11.0)">T</text><text xml:space="preserve" font-family="TrebuchetMS" font-size="8.0" fill="#CCCCCC" transform="matrix(1.00, 0.00, -0.00, -1.00, 138.4, 11.0)">I</text><text xml:space="preserve" font-family="TrebuchetMS" font-size="8.0" fill="#CCCCCC" transform="matrix(1.00, 0.00, -0.00, -1.00, 140.9, 11.0)">A</text><text xml:space="preserve" font-family="TrebuchetMS" font-size="8.0" fill="#CCCCCC" transform="matrix(1.00, 0.00, -0.00, -1.00, 145.8, 11.0)">L</text><path d="M 0.0 0.0 L 13.0 0.0 " fill="none" stroke="#CCCCCC" stroke-width="0.25" stroke-linejoin="round" transform="matrix(0.00, -1.00, -1.00, 0.00, 87.0, 20.2)"></path><image xlink:href="FCA234F62485E16A639918F8658267AA.png" width="38.00" height="13.00" transform="matrix(0.97, 0.00, -0.00, -1.00, 37.0, 19.0)"></image><path d="M 0.0 40.0 L 720.0 40.0 L 720.0 0.0 L 0.0 0.0 Z M 0.0 40.0 " fill="#FFFFFF"></path><text xml:space="preserve" font-family="TrebuchetMS" font-size="10.0" fill="#CCCCCC" transform="matrix(1.00, 0.00, -0.00, -1.00, 682.1, 11.0)">2</text><g><clipPath id="clip-3"><path d="M 0.0 540.0 L 720.0 540.0 L 720.0 0.0 L 0.0 0.0 Z M -0.0 540.0 "></path></clipPath><g clip-path="url(#clip-3)"><image xlink:href="630F9B45993BD90F2F2214B5E86097DA.jpeg" width="811.00" height="540.00" transform="matrix(1.00, 0.00, -0.00, -1.00, -45.0, 540.0)"></image></g></g><g><clipPath id="clip-4"><path d="M 49.0 500.0 L 147.0 500.0 L 147.0 464.0 L 49.0 464.0 Z M 49.4 500.2 "></path></clipPath><g clip-path="url(#clip-4)"><image xlink:href="../../99926EC3-3614-4C70-A445-D3AA65276E24/assets/A1F0E628E27F8A21FD07BA687C6249E0.png" width="98.00" height="38.00" transform="matrix(1.00, 0.00, -0.00, -1.03, 49.0, 502.0)"></image></g></g><text xml:space="preserve" font-family="Arial-Black" font-weight="bold" font-size="41.0" fill="#FFFFFF" transform="matrix(1.00, 0.00, -0.00, -1.00, 53.0, 129.0)">H</text><text xml:space="preserve" font-family="Arial-Black" font-weight="bold" font-size="41.0" fill="#FFFFFF" transform="matrix(1.00, 0.00, -0.00, -1.00, 85.2, 129.0)">O</text><text xml:space="preserve" font-family="Arial-Black" font-weight="bold" font-size="41.0" fill="#FFFFFF" transform="matrix(1.00, 0.00, -0.00, -1.00, 116.6, 129.0)">W</text><text xml:space="preserve" font-family="Arial-Black" font-weight="bold" font-size="41.0" fill="#FFFFFF" transform="matrix(1.00, 0.00, -0.00, -1.00, 155.6, 129.0)"> </text><text xml:space="preserve" font-family="Arial-Black" font-weight="bold" font-size="41.0" fill="#FFFFFF" transform="matrix(1.00, 0.00, -0.00, -1.00, 167.3, 129.0)">W</text><text xml:space="preserve" font-family="Arial-Black" font-weight="bold" font-size="41.0" fill="#FFFFFF" transform="matrix(1.00, 0.00, -0.00, -1.00, 206.3, 129.0)">E</text><text xml:space="preserve" font-family="Arial-Black" font-weight="bold" font-size="41.0" fill="#FFFFFF" transform="matrix(1.00, 0.00, -0.00, -1.00, 233.9, 129.0)"> </text><text xml:space="preserve" font-family="Arial-Black" font-weight="bold" font-size="41.0" fill="#FFFFFF" transform="matrix(1.00, 0.00, -0.00, -1.00, 245.6, 129.0)">S</text><text xml:space="preserve" font-family="Arial-Black" font-weight="bold" font-size="41.0" fill="#FFFFFF" transform="matrix(1.00, 0.00, -0.00, -1.00, 273.2, 129.0)">H</text><text xml:space="preserve" font-family="Arial-Black" font-weight="bold" font-size="41.0" fill="#FFFFFF" transform="matrix(1.00, 0.00, -0.00, -1.00, 305.4, 129.0)">O</text><text xml:space="preserve" font-family="Arial-Black" font-weight="bold" font-size="41.0" fill="#FFFFFF" transform="matrix(1.00, 0.00, -0.00, -1.00, 337.6, 129.0)">P</text><text xml:space="preserve" font-family="Arial-Black" font-weight="bold" font-size="41.0" fill="#FFFFFF" transform="matrix(1.00, 0.00, -0.00, -1.00, 365.2, 129.0)"> </text><text xml:space="preserve" font-family="Arial-Black" font-weight="bold" font-size="41.0" fill="#FFFFFF" transform="matrix(1.00, 0.00, -0.00, -1.00, 376.9, 129.0)">A</text><text xml:space="preserve" font-family="Arial-Black" font-weight="bold" font-size="41.0" fill="#FFFFFF" transform="matrix(1.00, 0.00, -0.00, -1.00, 406.8, 129.0)">N</text><text xml:space="preserve" font-family="Arial-Black" font-weight="bold" font-size="41.0" fill="#FFFFFF" transform="matrix(1.00, 0.00, -0.00, -1.00, 438.9, 129.0)">D</text><text xml:space="preserve" font-family="Arial-Black" font-weight="bold" font-size="41.0" fill="#FFFFFF" transform="matrix(1.00, 0.00, -0.00, -1.00, 468.8, 129.0)"> </text><text xml:space="preserve" font-family="Arial-Black" font-weight="bold" font-size="41.0" fill="#FFFFFF" transform="matrix(1.00, 0.00, -0.00, -1.00, 480.5, 129.0)">H</text><text xml:space="preserve" font-family="Arial-Black" font-weight="bold" font-size="41.0" fill="#FFFFFF" transform="matrix(1.00, 0.00, -0.00, -1.00, 512.7, 129.0)">O</text><text xml:space="preserve" font-family="Arial-Black" font-weight="bold" font-size="41.0" fill="#FFFFFF" transform="matrix(1.00, 0.00, -0.00, -1.00, 544.1, 129.0)">W</text><text xml:space="preserve" font-family="Arial-Black" font-weight="bold" font-size="41.0" fill="#FFFFFF" transform="matrix(1.00, 0.00, -0.00, -1.00, 583.1, 129.0)"> </text><text xml:space="preserve" font-family="Arial-Black" font-weight="bold" font-size="41.0" fill="#FFFFFF" transform="matrix(1.00, 0.00, -0.00, -1.00, 53.0, 82.0)">W</text><text xml:space="preserve" font-family="Arial-Black" font-weight="bold" font-size="41.0" fill="#FFFFFF" transform="matrix(1.00, 0.00, -0.00, -1.00, 92.0, 82.0)">E</text><text xml:space="preserve" font-family="Arial-Black" font-weight="bold" font-size="41.0" fill="#FFFFFF" transform="matrix(1.00, 0.00, -0.00, -1.00, 119.6, 82.0)"> </text><text xml:space="preserve" font-family="Arial-Black" font-weight="bold" font-size="41.0" fill="#FFFFFF" transform="matrix(1.00, 0.00, -0.00, -1.00, 131.3, 82.0)">P</text><text xml:space="preserve" font-family="Arial-Black" font-weight="bold" font-size="41.0" fill="#FFFFFF" transform="matrix(1.00, 0.00, -0.00, -1.00, 155.4, 82.0)">A</text><text xml:space="preserve" font-family="Arial-Black" font-weight="bold" font-size="41.0" fill="#FFFFFF" transform="matrix(1.00, 0.00, -0.00, -1.00, 181.8, 82.0)">Y</text><text xml:space="preserve" font-family="Arial-Black" font-weight="bold" font-size="41.0" fill="#FFFFFF" transform="matrix(1.00, 0.00, -0.00, -1.00, 211.7, 82.0)"> </text><text xml:space="preserve" font-family="Arial-Black" font-weight="bold" font-size="41.0" fill="#FFFFFF" transform="matrix(1.00, 0.00, -0.00, -1.00, 223.5, 82.0)">I</text><text xml:space="preserve" font-family="Arial-Black" font-weight="bold" font-size="41.0" fill="#FFFFFF" transform="matrix(1.00, 0.00, -0.00, -1.00, 237.4, 82.0)">S</text><text xml:space="preserve" font-family="Arial-Black" font-weight="bold" font-size="41.0" fill="#FFFFFF" transform="matrix(1.00, 0.00, -0.00, -1.00, 265.0, 82.0)"> </text><text xml:space="preserve" font-family="Arial-Black" font-weight="bold" font-size="41.0" fill="#FFFFFF" transform="matrix(1.00, 0.00, -0.00, -1.00, 276.7, 82.0)">G</text><text xml:space="preserve" font-family="Arial-Black" font-weight="bold" font-size="41.0" fill="#FFFFFF" transform="matrix(1.00, 0.00, -0.00, -1.00, 308.9, 82.0)">O</text><text xml:space="preserve" font-family="Arial-Black" font-weight="bold" font-size="41.0" fill="#FFFFFF" transform="matrix(1.00, 0.00, -0.00, -1.00, 341.0, 82.0)">I</text><text xml:space="preserve" font-family="Arial-Black" font-weight="bold" font-size="41.0" fill="#FFFFFF" transform="matrix(1.00, 0.00, -0.00, -1.00, 355.0, 82.0)">N</text><text xml:space="preserve" font-family="Arial-Black" font-weight="bold" font-size="41.0" fill="#FFFFFF" transform="matrix(1.00, 0.00, -0.00, -1.00, 387.1, 82.0)">G</text><text xml:space="preserve" font-family="Arial-Black" font-weight="bold" font-size="41.0" fill="#FFFFFF" transform="matrix(1.00, 0.00, -0.00, -1.00, 419.3, 82.0)"> </text><text xml:space="preserve" font-family="Arial-Black" font-weight="bold" font-size="41.0" fill="#FFFFFF" transform="matrix(1.00, 0.00, -0.00, -1.00, 431.0, 82.0)">T</text><text xml:space="preserve" font-family="Arial-Black" font-weight="bold" font-size="41.0" fill="#FFFFFF" transform="matrix(1.00, 0.00, -0.00, -1.00, 458.6, 82.0)">H</text><text xml:space="preserve" font-family="Arial-Black" font-weight="bold" font-size="41.0" fill="#FFFFFF" transform="matrix(1.00, 0.00, -0.00, -1.00, 490.8, 82.0)">R</text><text xml:space="preserve" font-family="Arial-Black" font-weight="bold" font-size="41.0" fill="#FFFFFF" transform="matrix(1.00, 0.00, -0.00, -1.00, 520.0, 82.0)">O</text><text xml:space="preserve" font-family="Arial-Black" font-weight="bold" font-size="41.0" fill="#FFFFFF" transform="matrix(1.00, 0.00, -0.00, -1.00, 552.1, 82.0)">U</text><text xml:space="preserve" font-family="Arial-Black" font-weight="bold" font-size="41.0" fill="#FFFFFF" transform="matrix(1.00, 0.00, -0.00, -1.00, 584.3, 82.0)">G</text><text xml:space="preserve" font-family="Arial-Black" font-weight="bold" font-size="41.0" fill="#FFFFFF" transform="matrix(1.00, 0.00, -0.00, -1.00, 616.4, 82.0)">H</text><text xml:space="preserve" font-family="Arial-Black" font-weight="bold" font-size="41.0" fill="#FFFFFF" transform="matrix(1.00, 0.00, -0.00, -1.00, 648.6, 82.0)"> </text><text xml:space="preserve" font-family="Arial-Black" font-weight="bold" font-size="41.0" fill="#FFFFFF" transform="matrix(1.00, 0.00, -0.00, -1.00, 53.0, 36.0)">A</text><text xml:space="preserve" font-family="Arial-Black" font-weight="bold" font-size="41.0" fill="#FFFFFF" transform="matrix(1.00, 0.00, -0.00, -1.00, 82.9, 36.0)"> </text><text xml:space="preserve" font-family="Arial-Black" font-weight="bold" font-size="41.0" fill="#FFFFFF" transform="matrix(1.00, 0.00, -0.00, -1.00, 94.6, 36.0)">S</text><text xml:space="preserve" font-family="Arial-Black" font-weight="bold" font-size="41.0" fill="#FFFFFF" transform="matrix(1.00, 0.00, -0.00, -1.00, 122.2, 36.0)">I</text><text xml:space="preserve" font-family="Arial-Black" font-weight="bold" font-size="41.0" fill="#FFFFFF" transform="matrix(1.00, 0.00, -0.00, -1.00, 136.2, 36.0)">G</text><text xml:space="preserve" font-family="Arial-Black" font-weight="bold" font-size="41.0" fill="#FFFFFF" transform="matrix(1.00, 0.00, -0.00, -1.00, 168.3, 36.0)">N</text><text xml:space="preserve" font-family="Arial-Black" font-weight="bold" font-size="41.0" fill="#FFFFFF" transform="matrix(1.00, 0.00, -0.00, -1.00, 200.4, 36.0)">I</text><text xml:space="preserve" font-family="Arial-Black" font-weight="bold" font-size="41.0" fill="#FFFFFF" transform="matrix(1.00, 0.00, -0.00, -1.00, 214.4, 36.0)">F</text><text xml:space="preserve" font-family="Arial-Black" font-weight="bold" font-size="41.0" fill="#FFFFFF" transform="matrix(1.00, 0.00, -0.00, -1.00, 239.7, 36.0)">I</text><text xml:space="preserve" font-family="Arial-Black" font-weight="bold" font-size="41.0" fill="#FFFFFF" transform="matrix(1.00, 0.00, -0.00, -1.00, 253.7, 36.0)">C</text><text xml:space="preserve" font-family="Arial-Black" font-weight="bold" font-size="41.0" fill="#FFFFFF" transform="matrix(1.00, 0.00, -0.00, -1.00, 283.6, 36.0)">A</text><text xml:space="preserve" font-family="Arial-Black" font-weight="bold" font-size="41.0" fill="#FFFFFF" transform="matrix(1.00, 0.00, -0.00, -1.00, 313.5, 36.0)">N</text><text xml:space="preserve" font-family="Arial-Black" font-weight="bold" font-size="41.0" fill="#FFFFFF" transform="matrix(1.00, 0.00, -0.00, -1.00, 345.6, 36.0)">T</text><text xml:space="preserve" font-family="Arial-Black" font-weight="bold" font-size="41.0" fill="#FFFFFF" transform="matrix(1.00, 0.00, -0.00, -1.00, 373.2, 36.0)"> </text><text xml:space="preserve" font-family="Arial-Black" font-weight="bold" font-size="41.0" fill="#FFFFFF" transform="matrix(1.00, 0.00, -0.00, -1.00, 384.9, 36.0)">C</text><text xml:space="preserve" font-family="Arial-Black" font-weight="bold" font-size="41.0" fill="#FFFFFF" transform="matrix(1.00, 0.00, -0.00, -1.00, 414.8, 36.0)">H</text><text xml:space="preserve" font-family="Arial-Black" font-weight="bold" font-size="41.0" fill="#FFFFFF" transform="matrix(1.00, 0.00, -0.00, -1.00, 447.0, 36.0)">A</text><text xml:space="preserve" font-family="Arial-Black" font-weight="bold" font-size="41.0" fill="#FFFFFF" transform="matrix(1.00, 0.00, -0.00, -1.00, 476.8, 36.0)">N</text><text xml:space="preserve" font-family="Arial-Black" font-weight="bold" font-size="41.0" fill="#FFFFFF" transform="matrix(1.00, 0.00, -0.00, -1.00, 509.0, 36.0)">G</text><text xml:space="preserve" font-family="Arial-Black" font-weight="bold" font-size="41.0" fill="#FFFFFF" transform="matrix(1.00, 0.00, -0.00, -1.00, 541.1, 36.0)">E</text></g></svg>