<?xml version="1.0" encoding="UTF-8" standalone="no"?><svg xmlns="http://www.w3.org/2000/svg" xmlns:xlink="http://www.w3.org/1999/xlink" clip-rule="evenodd" stroke-miterlimit="4.00" viewBox="0 0 720 540"><desc>SVG generated by Keynote</desc><defs></defs><g transform="matrix(1.00, 0.00, -0.00, -1.00, 0.0, 540.0)"><path d="M 0.0 540.0 L 720.0 540.0 L 720.0 0.0 L 0.0 0.0 Z M 0.0 540.0 " fill="#FFFFFF"></path><path d="M 0.0 28.1 L 720.0 28.1 L 720.0 -0.7 L 0.0 -0.7 Z M 0.0 28.1 " fill="#454447"></path><text xml:space="preserve" font-family="TrebuchetMS" font-size="8.0" fill="#CCCCCC" transform="matrix(1.00, 0.00, -0.00, -1.00, 96.0, 11.0)">I</text><text xml:space="preserve" font-family="TrebuchetMS" font-size="8.0" fill="#CCCCCC" transform="matrix(1.00, 0.00, -0.00, -1.00, 98.4, 11.0)">T</text><text xml:space="preserve" font-family="TrebuchetMS" font-size="8.0" fill="#CCCCCC" transform="matrix(1.00, 0.00, -0.00, -1.00, 103.1, 11.0)"> </text><text xml:space="preserve" font-family="TrebuchetMS" font-size="8.0" fill="#CCCCCC" transform="matrix(1.00, 0.00, -0.00, -1.00, 105.7, 11.0)">W</text><text xml:space="preserve" font-family="TrebuchetMS" font-size="8.0" fill="#CCCCCC" transform="matrix(1.00, 0.00, -0.00, -1.00, 112.8, 11.0)">E</text><text xml:space="preserve" font-family="TrebuchetMS" font-size="8.0" fill="#CCCCCC" transform="matrix(1.00, 0.00, -0.00, -1.00, 117.2, 11.0)">E</text><text xml:space="preserve" font-family="TrebuchetMS" font-size="8.0" fill="#CCCCCC" transform="matrix(1.00, 0.00, -0.00, -1.00, 121.7, 11.0)">K</text><text xml:space="preserve" font-family="TrebuchetMS" font-size="8.0" fill="#CCCCCC" transform="matrix(1.00, 0.00, -0.00, -1.00, 126.5, 11.0)"> </text><text xml:space="preserve" font-family="TrebuchetMS" font-size="8.0" fill="#CCCCCC" transform="matrix(1.00, 0.00, -0.00, -1.00, 129.1, 11.0)">2</text><text xml:space="preserve" font-family="TrebuchetMS" font-size="8.0" fill="#CCCCCC" transform="matrix(1.00, 0.00, -0.00, -1.00, 133.5, 11.0)">0</text><text xml:space="preserve" font-family="TrebuchetMS" font-size="8.0" fill="#CCCCCC" transform="matrix(1.00, 0.00, -0.00, -1.00, 137.9, 11.0)">1</text><text xml:space="preserve" font-family="TrebuchetMS" font-size="8.0" fill="#CCCCCC" transform="matrix(1.00, 0.00, -0.00, -1.00, 142.3, 11.0)">6</text><text xml:space="preserve" font-family="TrebuchetMS" font-size="8.0" fill="#CCCCCC" transform="matrix(1.00, 0.00, -0.00, -1.00, 146.7, 11.0)"> </text><text xml:space="preserve" font-family="TrebuchetMS" font-size="8.0" fill="#CCCCCC" transform="matrix(1.00, 0.00, -0.00, -1.00, 149.3, 11.0)">-</text><text xml:space="preserve" font-family="TrebuchetMS" font-size="8.0" fill="#CCCCCC" transform="matrix(1.00, 0.00, -0.00, -1.00, 152.5, 11.0)"> </text><text xml:space="preserve" font-family="TrebuchetMS" font-size="8.0" fill="#CCCCCC" transform="matrix(1.00, 0.00, -0.00, -1.00, 155.1, 11.0)">F</text><text xml:space="preserve" font-family="TrebuchetMS" font-size="8.0" fill="#CCCCCC" transform="matrix(1.00, 0.00, -0.00, -1.00, 159.5, 11.0)">u</text><text xml:space="preserve" font-family="TrebuchetMS" font-size="8.0" fill="#CCCCCC" transform="matrix(1.00, 0.00, -0.00, -1.00, 164.1, 11.0)">t</text><text xml:space="preserve" font-family="TrebuchetMS" font-size="8.0" fill="#CCCCCC" transform="matrix(1.00, 0.00, -0.00, -1.00, 167.4, 11.0)">u</text><text xml:space="preserve" font-family="TrebuchetMS" font-size="8.0" fill="#CCCCCC" transform="matrix(1.00, 0.00, -0.00, -1.00, 172.0, 11.0)">r</text><text xml:space="preserve" font-family="TrebuchetMS" font-size="8.0" fill="#CCCCCC" transform="matrix(1.00, 0.00, -0.00, -1.00, 175.3, 11.0)">e</text><text xml:space="preserve" font-family="TrebuchetMS" font-size="8.0" fill="#CCCCCC" transform="matrix(1.00, 0.00, -0.00, -1.00, 179.9, 11.0)"> </text><text xml:space="preserve" font-family="TrebuchetMS" font-size="8.0" fill="#CCCCCC" transform="matrix(1.00, 0.00, -0.00, -1.00, 182.5, 11.0)">o</text><text xml:space="preserve" font-family="TrebuchetMS" font-size="8.0" fill="#CCCCCC" transform="matrix(1.00, 0.00, -0.00, -1.00, 187.0, 11.0)">f</text><text xml:space="preserve" font-family="TrebuchetMS" font-size="8.0" fill="#CCCCCC" transform="matrix(1.00, 0.00, -0.00, -1.00, 190.1, 11.0)"> </text><text xml:space="preserve" font-family="TrebuchetMS" font-size="8.0" fill="#CCCCCC" transform="matrix(1.00, 0.00, -0.00, -1.00, 192.7, 11.0)">C</text><text xml:space="preserve" font-family="TrebuchetMS" font-size="8.0" fill="#CCCCCC" transform="matrix(1.00, 0.00, -0.00, -1.00, 197.7, 11.0)">a</text><text xml:space="preserve" font-family="TrebuchetMS" font-size="8.0" fill="#CCCCCC" transform="matrix(1.00, 0.00, -0.00, -1.00, 202.1, 11.0)">s</text><text xml:space="preserve" font-family="TrebuchetMS" font-size="8.0" fill="#CCCCCC" transform="matrix(1.00, 0.00, -0.00, -1.00, 205.6, 11.0)">h</text><text xml:space="preserve" font-family="TrebuchetMS" font-size="8.0" fill="#CCCCCC" transform="matrix(1.00, 0.00, -0.00, -1.00, 210.1, 11.0)">l</text><text xml:space="preserve" font-family="TrebuchetMS" font-size="8.0" fill="#CCCCCC" transform="matrix(1.00, 0.00, -0.00, -1.00, 212.7, 11.0)">e</text><text xml:space="preserve" font-family="TrebuchetMS" font-size="8.0" fill="#CCCCCC" transform="matrix(1.00, 0.00, -0.00, -1.00, 217.3, 11.0)">s</text><text xml:space="preserve" font-family="TrebuchetMS" font-size="8.0" fill="#CCCCCC" transform="matrix(1.00, 0.00, -0.00, -1.00, 220.7, 11.0)">s</text><text xml:space="preserve" font-family="TrebuchetMS" font-size="8.0" fill="#CCCCCC" transform="matrix(1.00, 0.00, -0.00, -1.00, 224.1, 11.0)"> </text><text xml:space="preserve" font-family="TrebuchetMS" font-size="8.0" fill="#CCCCCC" transform="matrix(1.00, 0.00, -0.00, -1.00, 226.7, 11.0)">P</text><text xml:space="preserve" font-family="TrebuchetMS" font-size="8.0" fill="#CCCCCC" transform="matrix(1.00, 0.00, -0.00, -1.00, 231.0, 11.0)">a</text><text xml:space="preserve" font-family="TrebuchetMS" font-size="8.0" fill="#CCCCCC" transform="matrix(1.00, 0.00, -0.00, -1.00, 235.4, 11.0)">y</text><text xml:space="preserve" font-family="TrebuchetMS" font-size="8.0" fill="#CCCCCC" transform="matrix(1.00, 0.00, -0.00, -1.00, 239.6, 11.0)">m</text><text xml:space="preserve" font-family="TrebuchetMS" font-size="8.0" fill="#CCCCCC" transform="matrix(1.00, 0.00, -0.00, -1.00, 246.4, 11.0)">e</text><text xml:space="preserve" font-family="TrebuchetMS" font-size="8.0" fill="#CCCCCC" transform="matrix(1.00, 0.00, -0.00, -1.00, 251.0, 11.0)">n</text><text xml:space="preserve" font-family="TrebuchetMS" font-size="8.0" fill="#CCCCCC" transform="matrix(1.00, 0.00, -0.00, -1.00, 255.6, 11.0)">t</text><text xml:space="preserve" font-family="TrebuchetMS" font-size="8.0" fill="#CCCCCC" transform="matrix(1.00, 0.00, -0.00, -1.00, 258.9, 11.0)">s</text><text xml:space="preserve" font-family="TrebuchetMS" font-size="8.0" fill="#CCCCCC" transform="matrix(1.00, 0.00, -0.00, -1.00, 262.4, 11.0)"> </text><text xml:space="preserve" font-family="TrebuchetMS" font-size="8.0" fill="#CCCCCC" transform="matrix(1.00, 0.00, -0.00, -1.00, 265.0, 11.0)">-</text><text xml:space="preserve" font-family="TrebuchetMS" font-size="8.0" fill="#CCCCCC" transform="matrix(1.00, 0.00, -0.00, -1.00, 268.1, 11.0)"> </text><text xml:space="preserve" font-family="TrebuchetMS" font-size="8.0" fill="#CCCCCC" transform="matrix(1.00, 0.00, -0.00, -1.00, 270.7, 11.0)">K</text><text xml:space="preserve" font-family="TrebuchetMS" font-size="8.0" fill="#CCCCCC" transform="matrix(1.00, 0.00, -0.00, -1.00, 275.3, 11.0)">o</text><text xml:space="preserve" font-family="TrebuchetMS" font-size="8.0" fill="#CCCCCC" transform="matrix(1.00, 0.00, -0.00, -1.00, 279.8, 11.0)">n</text><text xml:space="preserve" font-family="TrebuchetMS" font-size="8.0" fill="#CCCCCC" transform="matrix(1.00, 0.00, -0.00, -1.00, 284.3, 11.0)">r</text><text xml:space="preserve" font-family="TrebuchetMS" font-size="8.0" fill="#CCCCCC" transform="matrix(1.00, 0.00, -0.00, -1.00, 287.6, 11.0)">a</text><text xml:space="preserve" font-family="TrebuchetMS" font-size="8.0" fill="#CCCCCC" transform="matrix(1.00, 0.00, -0.00, -1.00, 292.1, 11.0)">d</text><text xml:space="preserve" font-family="TrebuchetMS" font-size="8.0" fill="#CCCCCC" transform="matrix(1.00, 0.00, -0.00, -1.00, 296.7, 11.0)"> </text><text xml:space="preserve" font-family="TrebuchetMS" font-size="8.0" fill="#CCCCCC" transform="matrix(1.00, 0.00, -0.00, -1.00, 299.3, 11.0)">H</text><text xml:space="preserve" font-family="TrebuchetMS" font-size="8.0" fill="#CCCCCC" transform="matrix(1.00, 0.00, -0.00, -1.00, 304.8, 11.0)">e</text><text xml:space="preserve" font-family="TrebuchetMS" font-size="8.0" fill="#CCCCCC" transform="matrix(1.00, 0.00, -0.00, -1.00, 309.3, 11.0)">f</text><text xml:space="preserve" font-family="TrebuchetMS" font-size="8.0" fill="#CCCCCC" transform="matrix(1.00, 0.00, -0.00, -1.00, 312.5, 11.0)">e</text><text xml:space="preserve" font-family="TrebuchetMS" font-size="8.0" fill="#CCCCCC" transform="matrix(1.00, 0.00, -0.00, -1.00, 317.0, 11.0)">l</text><text xml:space="preserve" font-family="TrebuchetMS" font-size="8.0" fill="#CCCCCC" transform="matrix(1.00, 0.00, -0.00, -1.00, 319.6, 11.0)">l</text><text xml:space="preserve" font-family="TrebuchetMS" font-size="8.0" fill="#CCCCCC" transform="matrix(1.00, 0.00, -0.00, -1.00, 322.2, 11.0)">e</text><text xml:space="preserve" font-family="TrebuchetMS" font-size="8.0" fill="#CCCCCC" transform="matrix(1.00, 0.00, -0.00, -1.00, 326.7, 11.0)">,</text><text xml:space="preserve" font-family="TrebuchetMS" font-size="8.0" fill="#CCCCCC" transform="matrix(1.00, 0.00, -0.00, -1.00, 329.9, 11.0)"> </text><text xml:space="preserve" font-family="TrebuchetMS" font-size="8.0" fill="#CCCCCC" transform="matrix(1.00, 0.00, -0.00, -1.00, 332.5, 11.0)">2</text><text xml:space="preserve" font-family="TrebuchetMS" font-size="8.0" fill="#CCCCCC" transform="matrix(1.00, 0.00, -0.00, -1.00, 336.9, 11.0)">0</text><text xml:space="preserve" font-family="TrebuchetMS" font-size="8.0" fill="#CCCCCC" transform="matrix(1.00, 0.00, -0.00, -1.00, 341.3, 11.0)">.</text><text xml:space="preserve" font-family="TrebuchetMS" font-size="8.0" fill="#CCCCCC" transform="matrix(1.00, 0.00, -0.00, -1.00, 344.4, 11.0)"> </text><text xml:space="preserve" font-family="TrebuchetMS" font-size="8.0" fill="#CCCCCC" transform="matrix(1.00, 0.00, -0.00, -1.00, 346.6, 11.0)">A</text><text xml:space="preserve" font-family="TrebuchetMS" font-size="8.0" fill="#CCCCCC" transform="matrix(1.00, 0.00, -0.00, -1.00, 351.5, 11.0)">p</text><text xml:space="preserve" font-family="TrebuchetMS" font-size="8.0" fill="#CCCCCC" transform="matrix(1.00, 0.00, -0.00, -1.00, 356.2, 11.0)">r</text><text xml:space="preserve" font-family="TrebuchetMS" font-size="8.0" fill="#CCCCCC" transform="matrix(1.00, 0.00, -0.00, -1.00, 359.5, 11.0)">i</text><text xml:space="preserve" font-family="TrebuchetMS" font-size="8.0" fill="#CCCCCC" transform="matrix(1.00, 0.00, -0.00, -1.00, 362.0, 11.0)">l</text><text xml:space="preserve" font-family="TrebuchetMS" font-size="8.0" fill="#CCCCCC" transform="matrix(1.00, 0.00, -0.00, -1.00, 364.5, 11.0)"> </text><text xml:space="preserve" font-family="TrebuchetMS" font-size="8.0" fill="#CCCCCC" transform="matrix(1.00, 0.00, -0.00, -1.00, 367.1, 11.0)">2</text><text xml:space="preserve" font-family="TrebuchetMS" font-size="8.0" fill="#CCCCCC" transform="matrix(1.00, 0.00, -0.00, -1.00, 371.5, 11.0)">0</text><text xml:space="preserve" font-family="TrebuchetMS" font-size="8.0" fill="#CCCCCC" transform="matrix(1.00, 0.00, -0.00, -1.00, 375.9, 11.0)">1</text><text xml:space="preserve" font-family="TrebuchetMS" font-size="8.0" fill="#CCCCCC" transform="matrix(1.00, 0.00, -0.00, -1.00, 380.3, 11.0)">6</text><path d="M 0.0 0.0 L 13.0 0.0 " fill="none" stroke="#CCCCCC" stroke-width="0.25" stroke-linejoin="round" transform="matrix(0.00, -1.00, -1.00, 0.00, 87.0, 20.2)"></path><image xlink:href="../../99926EC3-3614-4C70-A445-D3AA65276E24/assets/FCA234F62485E16A639918F8658267AA.png" width="38.00" height="13.00" transform="matrix(0.97, 0.00, -0.00, -1.00, 37.0, 19.0)"></image><text xml:space="preserve" font-family="TrebuchetMS" font-size="10.0" fill="#CCCCCC" transform="matrix(1.00, 0.00, -0.00, -1.00, 676.8, 11.0)">3</text><text xml:space="preserve" font-family="TrebuchetMS" font-size="10.0" fill="#CCCCCC" transform="matrix(1.00, 0.00, -0.00, -1.00, 682.1, 11.0)">7</text><image xlink:href="../../E3CCD7FC-4CC6-4379-8F12-393AEC6D6D66/assets/D8EAC996D507BFBCE2171B60B53A42D7.png" width="726.00" height="79.00" transform="matrix(1.00, 0.00, -0.00, -1.01, -3.0, 541.0)" opacity="0.30"></image><path d="M 0.0 540.0 L 720.0 540.0 L 720.0 466.6 L 0.0 466.6 Z M 0.0 540.0 " fill="#FFFFFF"></path><g><clipPath id="clip-277"><path d="M -5.6 466.6 L 725.6 466.6 L 725.6 540.0 L -5.6 540.0 Z M -5.6 466.6 "></path></clipPath><g clip-path="url(#clip-277)"><text xml:space="preserve" font-family="Arial-Black" font-weight="bold" font-size="26.0" fill="#454447" transform="matrix(1.00, 0.00, -0.00, -1.00, 4.0, 493.0)">G</text><text xml:space="preserve" font-family="Arial-Black" font-weight="bold" font-size="26.0" fill="#454447" transform="matrix(1.00, 0.00, -0.00, -1.00, 25.7, 493.0)">L</text><text xml:space="preserve" font-family="Arial-Black" font-weight="bold" font-size="26.0" fill="#454447" transform="matrix(1.00, 0.00, -0.00, -1.00, 42.6, 493.0)">O</text><text xml:space="preserve" font-family="Arial-Black" font-weight="bold" font-size="26.0" fill="#454447" transform="matrix(1.00, 0.00, -0.00, -1.00, 64.2, 493.0)">B</text><text xml:space="preserve" font-family="Arial-Black" font-weight="bold" font-size="26.0" fill="#454447" transform="matrix(1.00, 0.00, -0.00, -1.00, 84.0, 493.0)">A</text><text xml:space="preserve" font-family="Arial-Black" font-weight="bold" font-size="26.0" fill="#454447" transform="matrix(1.00, 0.00, -0.00, -1.00, 104.2, 493.0)">L</text><text xml:space="preserve" font-family="Arial-Black" font-weight="bold" font-size="26.0" fill="#454447" transform="matrix(1.00, 0.00, -0.00, -1.00, 121.5, 493.0)"> </text><text xml:space="preserve" font-family="Arial-Black" font-weight="bold" font-size="26.0" fill="#454447" transform="matrix(1.00, 0.00, -0.00, -1.00, 130.2, 493.0)">M</text><text xml:space="preserve" font-family="Arial-Black" font-weight="bold" font-size="26.0" fill="#454447" transform="matrix(1.00, 0.00, -0.00, -1.00, 154.8, 493.0)">O</text><text xml:space="preserve" font-family="Arial-Black" font-weight="bold" font-size="26.0" fill="#454447" transform="matrix(1.00, 0.00, -0.00, -1.00, 176.4, 493.0)">B</text><text xml:space="preserve" font-family="Arial-Black" font-weight="bold" font-size="26.0" fill="#454447" transform="matrix(1.00, 0.00, -0.00, -1.00, 196.6, 493.0)">I</text><text xml:space="preserve" font-family="Arial-Black" font-weight="bold" font-size="26.0" fill="#454447" transform="matrix(1.00, 0.00, -0.00, -1.00, 206.8, 493.0)">L</text><text xml:space="preserve" font-family="Arial-Black" font-weight="bold" font-size="26.0" fill="#454447" transform="matrix(1.00, 0.00, -0.00, -1.00, 224.1, 493.0)">E</text><text xml:space="preserve" font-family="Arial-Black" font-weight="bold" font-size="26.0" fill="#454447" transform="matrix(1.00, 0.00, -0.00, -1.00, 242.9, 493.0)"> </text><text xml:space="preserve" font-family="Arial-Black" font-weight="bold" font-size="26.0" fill="#454447" transform="matrix(1.00, 0.00, -0.00, -1.00, 251.6, 493.0)">P</text><text xml:space="preserve" font-family="Arial-Black" font-weight="bold" font-size="26.0" fill="#454447" transform="matrix(1.00, 0.00, -0.00, -1.00, 268.1, 493.0)">A</text><text xml:space="preserve" font-family="Arial-Black" font-weight="bold" font-size="26.0" fill="#454447" transform="matrix(1.00, 0.00, -0.00, -1.00, 286.2, 493.0)">Y</text><text xml:space="preserve" font-family="Arial-Black" font-weight="bold" font-size="26.0" fill="#454447" transform="matrix(1.00, 0.00, -0.00, -1.00, 306.4, 493.0)">M</text><text xml:space="preserve" font-family="Arial-Black" font-weight="bold" font-size="26.0" fill="#454447" transform="matrix(1.00, 0.00, -0.00, -1.00, 330.9, 493.0)">E</text><text xml:space="preserve" font-family="Arial-Black" font-weight="bold" font-size="26.0" fill="#454447" transform="matrix(1.00, 0.00, -0.00, -1.00, 349.7, 493.0)">N</text><text xml:space="preserve" font-family="Arial-Black" font-weight="bold" font-size="26.0" fill="#454447" transform="matrix(1.00, 0.00, -0.00, -1.00, 371.3, 493.0)">T</text><text xml:space="preserve" font-family="Arial-Black" font-weight="bold" font-size="26.0" fill="#454447" transform="matrix(1.00, 0.00, -0.00, -1.00, 390.1, 493.0)"> </text><text xml:space="preserve" font-family="Arial-Black" font-weight="bold" font-size="26.0" fill="#454447" transform="matrix(1.00, 0.00, -0.00, -1.00, 398.8, 493.0)">T</text><text xml:space="preserve" font-family="Arial-Black" font-weight="bold" font-size="26.0" fill="#454447" transform="matrix(1.00, 0.00, -0.00, -1.00, 417.6, 493.0)">R</text><text xml:space="preserve" font-family="Arial-Black" font-weight="bold" font-size="26.0" fill="#454447" transform="matrix(1.00, 0.00, -0.00, -1.00, 437.8, 493.0)">A</text><text xml:space="preserve" font-family="Arial-Black" font-weight="bold" font-size="26.0" fill="#454447" transform="matrix(1.00, 0.00, -0.00, -1.00, 458.0, 493.0)">N</text><text xml:space="preserve" font-family="Arial-Black" font-weight="bold" font-size="26.0" fill="#454447" transform="matrix(1.00, 0.00, -0.00, -1.00, 479.7, 493.0)">S</text><text xml:space="preserve" font-family="Arial-Black" font-weight="bold" font-size="26.0" fill="#454447" transform="matrix(1.00, 0.00, -0.00, -1.00, 498.5, 493.0)">A</text><text xml:space="preserve" font-family="Arial-Black" font-weight="bold" font-size="26.0" fill="#454447" transform="matrix(1.00, 0.00, -0.00, -1.00, 518.2, 493.0)">C</text><text xml:space="preserve" font-family="Arial-Black" font-weight="bold" font-size="26.0" fill="#454447" transform="matrix(1.00, 0.00, -0.00, -1.00, 538.4, 493.0)">T</text><text xml:space="preserve" font-family="Arial-Black" font-weight="bold" font-size="26.0" fill="#454447" transform="matrix(1.00, 0.00, -0.00, -1.00, 557.2, 493.0)">I</text><text xml:space="preserve" font-family="Arial-Black" font-weight="bold" font-size="26.0" fill="#454447" transform="matrix(1.00, 0.00, -0.00, -1.00, 567.3, 493.0)">O</text><text xml:space="preserve" font-family="Arial-Black" font-weight="bold" font-size="26.0" fill="#454447" transform="matrix(1.00, 0.00, -0.00, -1.00, 589.0, 493.0)">N</text><text xml:space="preserve" font-family="Arial-Black" font-weight="bold" font-size="26.0" fill="#454447" transform="matrix(1.00, 0.00, -0.00, -1.00, 610.7, 493.0)">S</text></g></g></g></svg>