<?xml version="1.0" encoding="UTF-8" standalone="no"?><svg xmlns="http://www.w3.org/2000/svg" xmlns:xlink="http://www.w3.org/1999/xlink" clip-rule="evenodd" stroke-miterlimit="4.00" viewBox="0 0 648 54"><desc>SVG generated by Keynote</desc><defs></defs><g transform="matrix(1.00, 0.00, -0.00, -1.00, 0.0, 54.0)"><path d="M 1.7 52.3 L 646.9 52.3 L 646.9 1.3 L 1.7 1.3 Z M 1.7 52.3 " fill="#2EC1D9"></path><g><clipPath id="clip-61"><path d="M -6.7 -2.5 L 655.3 -2.5 L 655.3 60.7 L -6.7 60.7 Z M -6.7 -2.5 "></path></clipPath><g clip-path="url(#clip-61)"><text xml:space="preserve" font-family="Arial-Black" font-weight="bold" font-size="30.0" fill="#FFFFFF" transform="matrix(1.00, 0.00, -0.00, -1.00, 4.0, 17.0)">D</text><text xml:space="preserve" font-family="Arial-Black" font-weight="bold" font-size="30.0" fill="#FFFFFF" transform="matrix(1.00, 0.00, -0.00, -1.00, 27.3, 17.0)">E</text><text xml:space="preserve" font-family="Arial-Black" font-weight="bold" font-size="30.0" fill="#FFFFFF" transform="matrix(1.00, 0.00, -0.00, -1.00, 49.0, 17.0)">L</text><text xml:space="preserve" font-family="Arial-Black" font-weight="bold" font-size="30.0" fill="#FFFFFF" transform="matrix(1.00, 0.00, -0.00, -1.00, 69.0, 17.0)">I</text><text xml:space="preserve" font-family="Arial-Black" font-weight="bold" font-size="30.0" fill="#FFFFFF" transform="matrix(1.00, 0.00, -0.00, -1.00, 80.7, 17.0)">V</text><text xml:space="preserve" font-family="Arial-Black" font-weight="bold" font-size="30.0" fill="#FFFFFF" transform="matrix(1.00, 0.00, -0.00, -1.00, 104.0, 17.0)">E</text><text xml:space="preserve" font-family="Arial-Black" font-weight="bold" font-size="30.0" fill="#FFFFFF" transform="matrix(1.00, 0.00, -0.00, -1.00, 125.7, 17.0)">R</text><text xml:space="preserve" font-family="Arial-Black" font-weight="bold" font-size="30.0" fill="#FFFFFF" transform="matrix(1.00, 0.00, -0.00, -1.00, 149.0, 17.0)">E</text><text xml:space="preserve" font-family="Arial-Black" font-weight="bold" font-size="30.0" fill="#FFFFFF" transform="matrix(1.00, 0.00, -0.00, -1.00, 170.7, 17.0)">D</text><text xml:space="preserve" font-family="Arial-Black" font-weight="bold" font-size="30.0" fill="#FFFFFF" transform="matrix(1.00, 0.00, -0.00, -1.00, 194.0, 17.0)"> </text><text xml:space="preserve" font-family="Arial-Black" font-weight="bold" font-size="30.0" fill="#FFFFFF" transform="matrix(1.00, 0.00, -0.00, -1.00, 204.0, 17.0)">A</text><text xml:space="preserve" font-family="Arial-Black" font-weight="bold" font-size="30.0" fill="#FFFFFF" transform="matrix(1.00, 0.00, -0.00, -1.00, 226.8, 17.0)">G</text><text xml:space="preserve" font-family="Arial-Black" font-weight="bold" font-size="30.0" fill="#FFFFFF" transform="matrix(1.00, 0.00, -0.00, -1.00, 251.8, 17.0)">A</text><text xml:space="preserve" font-family="Arial-Black" font-weight="bold" font-size="30.0" fill="#FFFFFF" transform="matrix(1.00, 0.00, -0.00, -1.00, 275.1, 17.0)">I</text><text xml:space="preserve" font-family="Arial-Black" font-weight="bold" font-size="30.0" fill="#FFFFFF" transform="matrix(1.00, 0.00, -0.00, -1.00, 286.8, 17.0)">N</text><text xml:space="preserve" font-family="Arial-Black" font-weight="bold" font-size="30.0" fill="#FFFFFF" transform="matrix(1.00, 0.00, -0.00, -1.00, 311.8, 17.0)">S</text><text xml:space="preserve" font-family="Arial-Black" font-weight="bold" font-size="30.0" fill="#FFFFFF" transform="matrix(1.00, 0.00, -0.00, -1.00, 333.5, 17.0)">T</text><text xml:space="preserve" font-family="Arial-Black" font-weight="bold" font-size="30.0" fill="#FFFFFF" transform="matrix(1.00, 0.00, -0.00, -1.00, 355.2, 17.0)"> </text><text xml:space="preserve" font-family="Arial-Black" font-weight="bold" font-size="30.0" fill="#FFFFFF" transform="matrix(1.00, 0.00, -0.00, -1.00, 365.2, 17.0)">K</text><text xml:space="preserve" font-family="Arial-Black" font-weight="bold" font-size="30.0" fill="#FFFFFF" transform="matrix(1.00, 0.00, -0.00, -1.00, 390.2, 17.0)">E</text><text xml:space="preserve" font-family="Arial-Black" font-weight="bold" font-size="30.0" fill="#FFFFFF" transform="matrix(1.00, 0.00, -0.00, -1.00, 411.8, 17.0)">Y</text><text xml:space="preserve" font-family="Arial-Black" font-weight="bold" font-size="30.0" fill="#FFFFFF" transform="matrix(1.00, 0.00, -0.00, -1.00, 435.2, 17.0)"> </text><text xml:space="preserve" font-family="Arial-Black" font-weight="bold" font-size="30.0" fill="#FFFFFF" transform="matrix(1.00, 0.00, -0.00, -1.00, 445.2, 17.0)">P</text><text xml:space="preserve" font-family="Arial-Black" font-weight="bold" font-size="30.0" fill="#FFFFFF" transform="matrix(1.00, 0.00, -0.00, -1.00, 464.3, 17.0)">A</text><text xml:space="preserve" font-family="Arial-Black" font-weight="bold" font-size="30.0" fill="#FFFFFF" transform="matrix(1.00, 0.00, -0.00, -1.00, 487.6, 17.0)">I</text><text xml:space="preserve" font-family="Arial-Black" font-weight="bold" font-size="30.0" fill="#FFFFFF" transform="matrix(1.00, 0.00, -0.00, -1.00, 499.3, 17.0)">N</text><text xml:space="preserve" font-family="Arial-Black" font-weight="bold" font-size="30.0" fill="#FFFFFF" transform="matrix(1.00, 0.00, -0.00, -1.00, 524.3, 17.0)"> </text><text xml:space="preserve" font-family="Arial-Black" font-weight="bold" font-size="30.0" fill="#FFFFFF" transform="matrix(1.00, 0.00, -0.00, -1.00, 534.3, 17.0)">P</text><text xml:space="preserve" font-family="Arial-Black" font-weight="bold" font-size="30.0" fill="#FFFFFF" transform="matrix(1.00, 0.00, -0.00, -1.00, 556.0, 17.0)">O</text><text xml:space="preserve" font-family="Arial-Black" font-weight="bold" font-size="30.0" fill="#FFFFFF" transform="matrix(1.00, 0.00, -0.00, -1.00, 581.0, 17.0)">I</text><text xml:space="preserve" font-family="Arial-Black" font-weight="bold" font-size="30.0" fill="#FFFFFF" transform="matrix(1.00, 0.00, -0.00, -1.00, 592.7, 17.0)">N</text><text xml:space="preserve" font-family="Arial-Black" font-weight="bold" font-size="30.0" fill="#FFFFFF" transform="matrix(1.00, 0.00, -0.00, -1.00, 617.7, 17.0)">T</text></g></g></g></svg>