<?xml version="1.0" encoding="UTF-8" standalone="no"?><svg xmlns="http://www.w3.org/2000/svg" xmlns:xlink="http://www.w3.org/1999/xlink" clip-rule="evenodd" stroke-miterlimit="4.00" viewBox="0 0 720 540"><desc>SVG generated by Keynote</desc><defs></defs><g transform="matrix(1.00, 0.00, -0.00, -1.00, 0.0, 540.0)"><path d="M 0.0 540.0 L 720.0 540.0 L 720.0 0.0 L 0.0 0.0 Z M 0.0 540.0 " fill="#FFFFFF"></path><path d="M 0.0 28.1 L 720.0 28.1 L 720.0 -0.7 L 0.0 -0.7 Z M 0.0 28.1 " fill="#454447"></path><text xml:space="preserve" font-family="TrebuchetMS" font-size="8.0" fill="#CCCCCC" transform="matrix(1.00, 0.00, -0.00, -1.00, 96.0, 11.0)">C</text><text xml:space="preserve" font-family="TrebuchetMS" font-size="8.0" fill="#CCCCCC" transform="matrix(1.00, 0.00, -0.00, -1.00, 101.0, 11.0)">O</text><text xml:space="preserve" font-family="TrebuchetMS" font-size="8.0" fill="#CCCCCC" transform="matrix(1.00, 0.00, -0.00, -1.00, 106.6, 11.0)">N</text><text xml:space="preserve" font-family="TrebuchetMS" font-size="8.0" fill="#CCCCCC" transform="matrix(1.00, 0.00, -0.00, -1.00, 111.9, 11.0)">F</text><text xml:space="preserve" font-family="TrebuchetMS" font-size="8.0" fill="#CCCCCC" transform="matrix(1.00, 0.00, -0.00, -1.00, 116.3, 11.0)">I</text><text xml:space="preserve" font-family="TrebuchetMS" font-size="8.0" fill="#CCCCCC" transform="matrix(1.00, 0.00, -0.00, -1.00, 118.7, 11.0)">D</text><text xml:space="preserve" font-family="TrebuchetMS" font-size="8.0" fill="#CCCCCC" transform="matrix(1.00, 0.00, -0.00, -1.00, 123.8, 11.0)">E</text><text xml:space="preserve" font-family="TrebuchetMS" font-size="8.0" fill="#CCCCCC" transform="matrix(1.00, 0.00, -0.00, -1.00, 128.3, 11.0)">N</text><text xml:space="preserve" font-family="TrebuchetMS" font-size="8.0" fill="#CCCCCC" transform="matrix(1.00, 0.00, -0.00, -1.00, 133.6, 11.0)">T</text><text xml:space="preserve" font-family="TrebuchetMS" font-size="8.0" fill="#CCCCCC" transform="matrix(1.00, 0.00, -0.00, -1.00, 138.4, 11.0)">I</text><text xml:space="preserve" font-family="TrebuchetMS" font-size="8.0" fill="#CCCCCC" transform="matrix(1.00, 0.00, -0.00, -1.00, 140.9, 11.0)">A</text><text xml:space="preserve" font-family="TrebuchetMS" font-size="8.0" fill="#CCCCCC" transform="matrix(1.00, 0.00, -0.00, -1.00, 145.8, 11.0)">L</text><path d="M 0.0 0.0 L 13.0 0.0 " fill="none" stroke="#CCCCCC" stroke-width="0.25" stroke-linejoin="round" transform="matrix(0.00, -1.00, -1.00, 0.00, 87.0, 20.2)"></path><image xlink:href="../../99926EC3-3614-4C70-A445-D3AA65276E24/assets/FCA234F62485E16A639918F8658267AA.png" width="38.00" height="13.00" transform="matrix(0.97, 0.00, -0.00, -1.00, 37.0, 19.0)"></image><image xlink:href="../../93C96C55-CF83-4234-9ED3-BEF096DC65B3/assets/E413D7FCC30E702D7E55DA32A4EC9C4D.jpeg" width="720.00" height="539.00" transform="matrix(1.00, 0.00, -0.00, -1.00, 0.0, 540.0)"></image><text xml:space="preserve" font-family="TrebuchetMS" font-size="10.0" fill="#CCCCCC" transform="matrix(1.00, 0.00, -0.00, -1.00, 676.8, 11.0)">1</text><text xml:space="preserve" font-family="TrebuchetMS" font-size="10.0" fill="#CCCCCC" transform="matrix(1.00, 0.00, -0.00, -1.00, 682.1, 11.0)">1</text><path d="M 38.7 278.3 L 512.3 278.3 L 512.3 227.3 L 38.7 227.3 Z M 38.7 278.3 " fill="#2EC1D9"></path><g><clipPath id="clip-63"><path d="M 30.3 223.5 L 520.7 223.5 L 520.7 286.7 L 30.3 286.7 Z M 30.3 223.5 "></path></clipPath><g clip-path="url(#clip-63)"><text xml:space="preserve" font-family="Arial-Black" font-weight="bold" font-size="30.0" fill="#FFFFFF" transform="matrix(1.00, 0.00, -0.00, -1.00, 41.0, 243.0)">A</text><text xml:space="preserve" font-family="Arial-Black" font-weight="bold" font-size="30.0" fill="#FFFFFF" transform="matrix(1.00, 0.00, -0.00, -1.00, 64.3, 243.0)">D</text><text xml:space="preserve" font-family="Arial-Black" font-weight="bold" font-size="30.0" fill="#FFFFFF" transform="matrix(1.00, 0.00, -0.00, -1.00, 87.7, 243.0)">D</text><text xml:space="preserve" font-family="Arial-Black" font-weight="bold" font-size="30.0" fill="#FFFFFF" transform="matrix(1.00, 0.00, -0.00, -1.00, 111.0, 243.0)">E</text><text xml:space="preserve" font-family="Arial-Black" font-weight="bold" font-size="30.0" fill="#FFFFFF" transform="matrix(1.00, 0.00, -0.00, -1.00, 132.7, 243.0)">D</text><text xml:space="preserve" font-family="Arial-Black" font-weight="bold" font-size="30.0" fill="#FFFFFF" transform="matrix(1.00, 0.00, -0.00, -1.00, 156.0, 243.0)"> </text><text xml:space="preserve" font-family="Arial-Black" font-weight="bold" font-size="30.0" fill="#FFFFFF" transform="matrix(1.00, 0.00, -0.00, -1.00, 166.0, 243.0)">U</text><text xml:space="preserve" font-family="Arial-Black" font-weight="bold" font-size="30.0" fill="#FFFFFF" transform="matrix(1.00, 0.00, -0.00, -1.00, 191.0, 243.0)">N</text><text xml:space="preserve" font-family="Arial-Black" font-weight="bold" font-size="30.0" fill="#FFFFFF" transform="matrix(1.00, 0.00, -0.00, -1.00, 216.0, 243.0)">I</text><text xml:space="preserve" font-family="Arial-Black" font-weight="bold" font-size="30.0" fill="#FFFFFF" transform="matrix(1.00, 0.00, -0.00, -1.00, 227.7, 243.0)">Q</text><text xml:space="preserve" font-family="Arial-Black" font-weight="bold" font-size="30.0" fill="#FFFFFF" transform="matrix(1.00, 0.00, -0.00, -1.00, 252.7, 243.0)">U</text><text xml:space="preserve" font-family="Arial-Black" font-weight="bold" font-size="30.0" fill="#FFFFFF" transform="matrix(1.00, 0.00, -0.00, -1.00, 277.6, 243.0)">E</text><text xml:space="preserve" font-family="Arial-Black" font-weight="bold" font-size="30.0" fill="#FFFFFF" transform="matrix(1.00, 0.00, -0.00, -1.00, 299.3, 243.0)"> </text><text xml:space="preserve" font-family="Arial-Black" font-weight="bold" font-size="30.0" fill="#FFFFFF" transform="matrix(1.00, 0.00, -0.00, -1.00, 309.3, 243.0)">V</text><text xml:space="preserve" font-family="Arial-Black" font-weight="bold" font-size="30.0" fill="#FFFFFF" transform="matrix(1.00, 0.00, -0.00, -1.00, 331.0, 243.0)">A</text><text xml:space="preserve" font-family="Arial-Black" font-weight="bold" font-size="30.0" fill="#FFFFFF" transform="matrix(1.00, 0.00, -0.00, -1.00, 354.3, 243.0)">L</text><text xml:space="preserve" font-family="Arial-Black" font-weight="bold" font-size="30.0" fill="#FFFFFF" transform="matrix(1.00, 0.00, -0.00, -1.00, 373.5, 243.0)">U</text><text xml:space="preserve" font-family="Arial-Black" font-weight="bold" font-size="30.0" fill="#FFFFFF" transform="matrix(1.00, 0.00, -0.00, -1.00, 398.5, 243.0)">E</text><text xml:space="preserve" font-family="Arial-Black" font-weight="bold" font-size="30.0" fill="#FFFFFF" transform="matrix(1.00, 0.00, -0.00, -1.00, 420.2, 243.0)"> </text><text xml:space="preserve" font-family="Arial-Black" font-weight="bold" font-size="30.0" fill="#FFFFFF" transform="matrix(1.00, 0.00, -0.00, -1.00, 430.2, 243.0)">A</text><text xml:space="preserve" font-family="Arial-Black" font-weight="bold" font-size="30.0" fill="#FFFFFF" transform="matrix(1.00, 0.00, -0.00, -1.00, 453.5, 243.0)">N</text><text xml:space="preserve" font-family="Arial-Black" font-weight="bold" font-size="30.0" fill="#FFFFFF" transform="matrix(1.00, 0.00, -0.00, -1.00, 478.5, 243.0)">D</text></g></g><path d="M 38.7 227.3 L 683.9 227.3 L 683.9 176.3 L 38.7 176.3 Z M 38.7 227.3 " fill="#2EC1D9"></path><g><clipPath id="clip-64"><path d="M 30.3 172.5 L 692.3 172.5 L 692.3 235.7 L 30.3 235.7 Z M 30.3 172.5 "></path></clipPath><g clip-path="url(#clip-64)"><text xml:space="preserve" font-family="Arial-Black" font-weight="bold" font-size="30.0" fill="#FFFFFF" transform="matrix(1.00, 0.00, -0.00, -1.00, 41.0, 192.0)">D</text><text xml:space="preserve" font-family="Arial-Black" font-weight="bold" font-size="30.0" fill="#FFFFFF" transform="matrix(1.00, 0.00, -0.00, -1.00, 64.3, 192.0)">E</text><text xml:space="preserve" font-family="Arial-Black" font-weight="bold" font-size="30.0" fill="#FFFFFF" transform="matrix(1.00, 0.00, -0.00, -1.00, 86.0, 192.0)">L</text><text xml:space="preserve" font-family="Arial-Black" font-weight="bold" font-size="30.0" fill="#FFFFFF" transform="matrix(1.00, 0.00, -0.00, -1.00, 106.0, 192.0)">I</text><text xml:space="preserve" font-family="Arial-Black" font-weight="bold" font-size="30.0" fill="#FFFFFF" transform="matrix(1.00, 0.00, -0.00, -1.00, 117.7, 192.0)">V</text><text xml:space="preserve" font-family="Arial-Black" font-weight="bold" font-size="30.0" fill="#FFFFFF" transform="matrix(1.00, 0.00, -0.00, -1.00, 141.0, 192.0)">E</text><text xml:space="preserve" font-family="Arial-Black" font-weight="bold" font-size="30.0" fill="#FFFFFF" transform="matrix(1.00, 0.00, -0.00, -1.00, 162.7, 192.0)">R</text><text xml:space="preserve" font-family="Arial-Black" font-weight="bold" font-size="30.0" fill="#FFFFFF" transform="matrix(1.00, 0.00, -0.00, -1.00, 186.0, 192.0)">E</text><text xml:space="preserve" font-family="Arial-Black" font-weight="bold" font-size="30.0" fill="#FFFFFF" transform="matrix(1.00, 0.00, -0.00, -1.00, 207.7, 192.0)">D</text><text xml:space="preserve" font-family="Arial-Black" font-weight="bold" font-size="30.0" fill="#FFFFFF" transform="matrix(1.00, 0.00, -0.00, -1.00, 231.0, 192.0)"> </text><text xml:space="preserve" font-family="Arial-Black" font-weight="bold" font-size="30.0" fill="#FFFFFF" transform="matrix(1.00, 0.00, -0.00, -1.00, 241.0, 192.0)">A</text><text xml:space="preserve" font-family="Arial-Black" font-weight="bold" font-size="30.0" fill="#FFFFFF" transform="matrix(1.00, 0.00, -0.00, -1.00, 263.8, 192.0)">G</text><text xml:space="preserve" font-family="Arial-Black" font-weight="bold" font-size="30.0" fill="#FFFFFF" transform="matrix(1.00, 0.00, -0.00, -1.00, 288.8, 192.0)">A</text><text xml:space="preserve" font-family="Arial-Black" font-weight="bold" font-size="30.0" fill="#FFFFFF" transform="matrix(1.00, 0.00, -0.00, -1.00, 312.1, 192.0)">I</text><text xml:space="preserve" font-family="Arial-Black" font-weight="bold" font-size="30.0" fill="#FFFFFF" transform="matrix(1.00, 0.00, -0.00, -1.00, 323.8, 192.0)">N</text><text xml:space="preserve" font-family="Arial-Black" font-weight="bold" font-size="30.0" fill="#FFFFFF" transform="matrix(1.00, 0.00, -0.00, -1.00, 348.8, 192.0)">S</text><text xml:space="preserve" font-family="Arial-Black" font-weight="bold" font-size="30.0" fill="#FFFFFF" transform="matrix(1.00, 0.00, -0.00, -1.00, 370.5, 192.0)">T</text><text xml:space="preserve" font-family="Arial-Black" font-weight="bold" font-size="30.0" fill="#FFFFFF" transform="matrix(1.00, 0.00, -0.00, -1.00, 392.2, 192.0)"> </text><text xml:space="preserve" font-family="Arial-Black" font-weight="bold" font-size="30.0" fill="#FFFFFF" transform="matrix(1.00, 0.00, -0.00, -1.00, 402.2, 192.0)">K</text><text xml:space="preserve" font-family="Arial-Black" font-weight="bold" font-size="30.0" fill="#FFFFFF" transform="matrix(1.00, 0.00, -0.00, -1.00, 427.2, 192.0)">E</text><text xml:space="preserve" font-family="Arial-Black" font-weight="bold" font-size="30.0" fill="#FFFFFF" transform="matrix(1.00, 0.00, -0.00, -1.00, 448.8, 192.0)">Y</text><text xml:space="preserve" font-family="Arial-Black" font-weight="bold" font-size="30.0" fill="#FFFFFF" transform="matrix(1.00, 0.00, -0.00, -1.00, 472.2, 192.0)"> </text><text xml:space="preserve" font-family="Arial-Black" font-weight="bold" font-size="30.0" fill="#FFFFFF" transform="matrix(1.00, 0.00, -0.00, -1.00, 482.2, 192.0)">P</text><text xml:space="preserve" font-family="Arial-Black" font-weight="bold" font-size="30.0" fill="#FFFFFF" transform="matrix(1.00, 0.00, -0.00, -1.00, 501.3, 192.0)">A</text><text xml:space="preserve" font-family="Arial-Black" font-weight="bold" font-size="30.0" fill="#FFFFFF" transform="matrix(1.00, 0.00, -0.00, -1.00, 524.6, 192.0)">I</text><text xml:space="preserve" font-family="Arial-Black" font-weight="bold" font-size="30.0" fill="#FFFFFF" transform="matrix(1.00, 0.00, -0.00, -1.00, 536.3, 192.0)">N</text><text xml:space="preserve" font-family="Arial-Black" font-weight="bold" font-size="30.0" fill="#FFFFFF" transform="matrix(1.00, 0.00, -0.00, -1.00, 561.3, 192.0)"> </text><text xml:space="preserve" font-family="Arial-Black" font-weight="bold" font-size="30.0" fill="#FFFFFF" transform="matrix(1.00, 0.00, -0.00, -1.00, 571.3, 192.0)">P</text><text xml:space="preserve" font-family="Arial-Black" font-weight="bold" font-size="30.0" fill="#FFFFFF" transform="matrix(1.00, 0.00, -0.00, -1.00, 593.0, 192.0)">O</text><text xml:space="preserve" font-family="Arial-Black" font-weight="bold" font-size="30.0" fill="#FFFFFF" transform="matrix(1.00, 0.00, -0.00, -1.00, 618.0, 192.0)">I</text><text xml:space="preserve" font-family="Arial-Black" font-weight="bold" font-size="30.0" fill="#FFFFFF" transform="matrix(1.00, 0.00, -0.00, -1.00, 629.7, 192.0)">N</text><text xml:space="preserve" font-family="Arial-Black" font-weight="bold" font-size="30.0" fill="#FFFFFF" transform="matrix(1.00, 0.00, -0.00, -1.00, 654.7, 192.0)">T</text></g></g><g><clipPath id="clip-65"><path d="M 49.0 500.0 L 147.0 500.0 L 147.0 464.0 L 49.0 464.0 Z M 49.4 500.2 "></path></clipPath><g clip-path="url(#clip-65)"><image xlink:href="../../99926EC3-3614-4C70-A445-D3AA65276E24/assets/A1F0E628E27F8A21FD07BA687C6249E0.png" width="98.00" height="38.00" transform="matrix(1.00, 0.00, -0.00, -1.03, 49.0, 502.0)"></image></g></g></g></svg>