<?xml version="1.0" encoding="UTF-8" standalone="no"?><svg xmlns="http://www.w3.org/2000/svg" xmlns:xlink="http://www.w3.org/1999/xlink" clip-rule="evenodd" stroke-miterlimit="4.00" viewBox="0 0 477 54"><desc>SVG generated by Keynote</desc><defs></defs><g transform="matrix(1.00, 0.00, -0.00, -1.00, 0.0, 54.0)"><path d="M 1.7 52.3 L 475.3 52.3 L 475.3 1.3 L 1.7 1.3 Z M 1.7 52.3 " fill="#2EC1D9"></path><g><clipPath id="clip-60"><path d="M -6.7 -2.5 L 483.7 -2.5 L 483.7 60.7 L -6.7 60.7 Z M -6.7 -2.5 "></path></clipPath><g clip-path="url(#clip-60)"><text xml:space="preserve" font-family="Arial-Black" font-weight="bold" font-size="30.0" fill="#FFFFFF" transform="matrix(1.00, 0.00, -0.00, -1.00, 4.0, 17.0)">A</text><text xml:space="preserve" font-family="Arial-Black" font-weight="bold" font-size="30.0" fill="#FFFFFF" transform="matrix(1.00, 0.00, -0.00, -1.00, 27.3, 17.0)">D</text><text xml:space="preserve" font-family="Arial-Black" font-weight="bold" font-size="30.0" fill="#FFFFFF" transform="matrix(1.00, 0.00, -0.00, -1.00, 50.7, 17.0)">D</text><text xml:space="preserve" font-family="Arial-Black" font-weight="bold" font-size="30.0" fill="#FFFFFF" transform="matrix(1.00, 0.00, -0.00, -1.00, 74.0, 17.0)">E</text><text xml:space="preserve" font-family="Arial-Black" font-weight="bold" font-size="30.0" fill="#FFFFFF" transform="matrix(1.00, 0.00, -0.00, -1.00, 95.7, 17.0)">D</text><text xml:space="preserve" font-family="Arial-Black" font-weight="bold" font-size="30.0" fill="#FFFFFF" transform="matrix(1.00, 0.00, -0.00, -1.00, 119.0, 17.0)"> </text><text xml:space="preserve" font-family="Arial-Black" font-weight="bold" font-size="30.0" fill="#FFFFFF" transform="matrix(1.00, 0.00, -0.00, -1.00, 129.0, 17.0)">U</text><text xml:space="preserve" font-family="Arial-Black" font-weight="bold" font-size="30.0" fill="#FFFFFF" transform="matrix(1.00, 0.00, -0.00, -1.00, 154.0, 17.0)">N</text><text xml:space="preserve" font-family="Arial-Black" font-weight="bold" font-size="30.0" fill="#FFFFFF" transform="matrix(1.00, 0.00, -0.00, -1.00, 179.0, 17.0)">I</text><text xml:space="preserve" font-family="Arial-Black" font-weight="bold" font-size="30.0" fill="#FFFFFF" transform="matrix(1.00, 0.00, -0.00, -1.00, 190.7, 17.0)">Q</text><text xml:space="preserve" font-family="Arial-Black" font-weight="bold" font-size="30.0" fill="#FFFFFF" transform="matrix(1.00, 0.00, -0.00, -1.00, 215.7, 17.0)">U</text><text xml:space="preserve" font-family="Arial-Black" font-weight="bold" font-size="30.0" fill="#FFFFFF" transform="matrix(1.00, 0.00, -0.00, -1.00, 240.6, 17.0)">E</text><text xml:space="preserve" font-family="Arial-Black" font-weight="bold" font-size="30.0" fill="#FFFFFF" transform="matrix(1.00, 0.00, -0.00, -1.00, 262.3, 17.0)"> </text><text xml:space="preserve" font-family="Arial-Black" font-weight="bold" font-size="30.0" fill="#FFFFFF" transform="matrix(1.00, 0.00, -0.00, -1.00, 272.3, 17.0)">V</text><text xml:space="preserve" font-family="Arial-Black" font-weight="bold" font-size="30.0" fill="#FFFFFF" transform="matrix(1.00, 0.00, -0.00, -1.00, 294.0, 17.0)">A</text><text xml:space="preserve" font-family="Arial-Black" font-weight="bold" font-size="30.0" fill="#FFFFFF" transform="matrix(1.00, 0.00, -0.00, -1.00, 317.3, 17.0)">L</text><text xml:space="preserve" font-family="Arial-Black" font-weight="bold" font-size="30.0" fill="#FFFFFF" transform="matrix(1.00, 0.00, -0.00, -1.00, 336.5, 17.0)">U</text><text xml:space="preserve" font-family="Arial-Black" font-weight="bold" font-size="30.0" fill="#FFFFFF" transform="matrix(1.00, 0.00, -0.00, -1.00, 361.5, 17.0)">E</text><text xml:space="preserve" font-family="Arial-Black" font-weight="bold" font-size="30.0" fill="#FFFFFF" transform="matrix(1.00, 0.00, -0.00, -1.00, 383.2, 17.0)"> </text><text xml:space="preserve" font-family="Arial-Black" font-weight="bold" font-size="30.0" fill="#FFFFFF" transform="matrix(1.00, 0.00, -0.00, -1.00, 393.2, 17.0)">A</text><text xml:space="preserve" font-family="Arial-Black" font-weight="bold" font-size="30.0" fill="#FFFFFF" transform="matrix(1.00, 0.00, -0.00, -1.00, 416.5, 17.0)">N</text><text xml:space="preserve" font-family="Arial-Black" font-weight="bold" font-size="30.0" fill="#FFFFFF" transform="matrix(1.00, 0.00, -0.00, -1.00, 441.5, 17.0)">D</text></g></g></g></svg>