<?xml version="1.0" encoding="UTF-8" standalone="no"?><svg xmlns="http://www.w3.org/2000/svg" xmlns:xlink="http://www.w3.org/1999/xlink" clip-rule="evenodd" stroke-miterlimit="4.00" viewBox="0 0 720 540"><desc>SVG generated by Keynote</desc><defs></defs><g transform="matrix(1.00, 0.00, -0.00, -1.00, 0.0, 540.0)"><path d="M 0.0 540.0 L 720.0 540.0 L 720.0 0.0 L 0.0 0.0 Z M 0.0 540.0 " fill="#FFFFFF"></path><path d="M 0.0 28.1 L 720.0 28.1 L 720.0 -0.7 L 0.0 -0.7 Z M 0.0 28.1 " fill="#454447"></path><text xml:space="preserve" font-family="TrebuchetMS" font-size="8.0" fill="#CCCCCC" transform="matrix(1.00, 0.00, -0.00, -1.00, 96.0, 11.0)">C</text><text xml:space="preserve" font-family="TrebuchetMS" font-size="8.0" fill="#CCCCCC" transform="matrix(1.00, 0.00, -0.00, -1.00, 101.0, 11.0)">O</text><text xml:space="preserve" font-family="TrebuchetMS" font-size="8.0" fill="#CCCCCC" transform="matrix(1.00, 0.00, -0.00, -1.00, 106.6, 11.0)">N</text><text xml:space="preserve" font-family="TrebuchetMS" font-size="8.0" fill="#CCCCCC" transform="matrix(1.00, 0.00, -0.00, -1.00, 111.9, 11.0)">F</text><text xml:space="preserve" font-family="TrebuchetMS" font-size="8.0" fill="#CCCCCC" transform="matrix(1.00, 0.00, -0.00, -1.00, 116.3, 11.0)">I</text><text xml:space="preserve" font-family="TrebuchetMS" font-size="8.0" fill="#CCCCCC" transform="matrix(1.00, 0.00, -0.00, -1.00, 118.7, 11.0)">D</text><text xml:space="preserve" font-family="TrebuchetMS" font-size="8.0" fill="#CCCCCC" transform="matrix(1.00, 0.00, -0.00, -1.00, 123.8, 11.0)">E</text><text xml:space="preserve" font-family="TrebuchetMS" font-size="8.0" fill="#CCCCCC" transform="matrix(1.00, 0.00, -0.00, -1.00, 128.3, 11.0)">N</text><text xml:space="preserve" font-family="TrebuchetMS" font-size="8.0" fill="#CCCCCC" transform="matrix(1.00, 0.00, -0.00, -1.00, 133.6, 11.0)">T</text><text xml:space="preserve" font-family="TrebuchetMS" font-size="8.0" fill="#CCCCCC" transform="matrix(1.00, 0.00, -0.00, -1.00, 138.4, 11.0)">I</text><text xml:space="preserve" font-family="TrebuchetMS" font-size="8.0" fill="#CCCCCC" transform="matrix(1.00, 0.00, -0.00, -1.00, 140.9, 11.0)">A</text><text xml:space="preserve" font-family="TrebuchetMS" font-size="8.0" fill="#CCCCCC" transform="matrix(1.00, 0.00, -0.00, -1.00, 145.8, 11.0)">L</text><path d="M 0.0 0.0 L 13.0 0.0 " fill="none" stroke="#CCCCCC" stroke-width="0.25" stroke-linejoin="round" transform="matrix(0.00, -1.00, -1.00, 0.00, 87.0, 20.2)"></path><image xlink:href="../../99926EC3-3614-4C70-A445-D3AA65276E24/assets/FCA234F62485E16A639918F8658267AA.png" width="38.00" height="13.00" transform="matrix(0.97, 0.00, -0.00, -1.00, 37.0, 19.0)"></image><text xml:space="preserve" font-family="TrebuchetMS" font-size="10.0" fill="#CCCCCC" transform="matrix(1.00, 0.00, -0.00, -1.00, 676.8, 11.0)">2</text><text xml:space="preserve" font-family="TrebuchetMS" font-size="10.0" fill="#CCCCCC" transform="matrix(1.00, 0.00, -0.00, -1.00, 682.1, 11.0)">8</text><text xml:space="preserve" font-family="TrebuchetMS" font-size="18.0" fill="#454447" transform="matrix(1.00, 0.00, -0.00, -1.00, 25.0, 416.0)">B</text><text xml:space="preserve" font-family="TrebuchetMS" font-size="18.0" fill="#454447" transform="matrix(1.00, 0.00, -0.00, -1.00, 35.2, 416.0)">u</text><text xml:space="preserve" font-family="TrebuchetMS" font-size="18.0" fill="#454447" transform="matrix(1.00, 0.00, -0.00, -1.00, 45.0, 416.0)">y</text><text xml:space="preserve" font-family="TrebuchetMS" font-size="18.0" fill="#454447" transform="matrix(1.00, 0.00, -0.00, -1.00, 53.9, 416.0)">a</text><text xml:space="preserve" font-family="TrebuchetMS" font-size="18.0" fill="#454447" transform="matrix(1.00, 0.00, -0.00, -1.00, 63.4, 416.0)">b</text><text xml:space="preserve" font-family="TrebuchetMS" font-size="18.0" fill="#454447" transform="matrix(1.00, 0.00, -0.00, -1.00, 73.4, 416.0)">l</text><text xml:space="preserve" font-family="TrebuchetMS" font-size="18.0" fill="#454447" transform="matrix(1.00, 0.00, -0.00, -1.00, 78.7, 416.0)">e</text><text xml:space="preserve" font-family="TrebuchetMS" font-size="18.0" fill="#454447" transform="matrix(1.00, 0.00, -0.00, -1.00, 88.6, 416.0)"> </text><text xml:space="preserve" font-family="TrebuchetMS" font-size="18.0" fill="#454447" transform="matrix(1.00, 0.00, -0.00, -1.00, 94.0, 416.0)">p</text><text xml:space="preserve" font-family="TrebuchetMS" font-size="18.0" fill="#454447" transform="matrix(1.00, 0.00, -0.00, -1.00, 104.0, 416.0)">i</text><text xml:space="preserve" font-family="TrebuchetMS" font-size="18.0" fill="#454447" transform="matrix(1.00, 0.00, -0.00, -1.00, 109.1, 416.0)">n</text><text xml:space="preserve" font-family="TrebuchetMS" font-size="18.0" fill="#454447" transform="matrix(1.00, 0.00, -0.00, -1.00, 119.0, 416.0)">s</text><image xlink:href="../../E3CCD7FC-4CC6-4379-8F12-393AEC6D6D66/assets/D8EAC996D507BFBCE2171B60B53A42D7.png" width="726.00" height="79.00" transform="matrix(1.00, 0.00, -0.00, -1.01, -3.0, 541.0)" opacity="0.30"></image><path d="M 0.0 540.0 L 720.0 540.0 L 720.0 466.6 L 0.0 466.6 Z M 0.0 540.0 " fill="#FFFFFF"></path><g><clipPath id="clip-210"><path d="M -5.6 466.6 L 725.6 466.6 L 725.6 540.0 L -5.6 540.0 Z M -5.6 466.6 "></path></clipPath><g clip-path="url(#clip-210)"><text xml:space="preserve" font-family="Arial-Black" font-weight="bold" font-size="26.0" fill="#454447" transform="matrix(1.00, 0.00, -0.00, -1.00, 4.0, 493.0)">P</text><text xml:space="preserve" font-family="Arial-Black" font-weight="bold" font-size="26.0" fill="#454447" transform="matrix(1.00, 0.00, -0.00, -1.00, 22.8, 493.0)">i</text><text xml:space="preserve" font-family="Arial-Black" font-weight="bold" font-size="26.0" fill="#454447" transform="matrix(1.00, 0.00, -0.00, -1.00, 31.4, 493.0)">n</text><text xml:space="preserve" font-family="Arial-Black" font-weight="bold" font-size="26.0" fill="#454447" transform="matrix(1.00, 0.00, -0.00, -1.00, 48.8, 493.0)">t</text><text xml:space="preserve" font-family="Arial-Black" font-weight="bold" font-size="26.0" fill="#454447" transform="matrix(1.00, 0.00, -0.00, -1.00, 60.3, 493.0)">e</text><text xml:space="preserve" font-family="Arial-Black" font-weight="bold" font-size="26.0" fill="#454447" transform="matrix(1.00, 0.00, -0.00, -1.00, 77.7, 493.0)">r</text><text xml:space="preserve" font-family="Arial-Black" font-weight="bold" font-size="26.0" fill="#454447" transform="matrix(1.00, 0.00, -0.00, -1.00, 89.6, 493.0)">e</text><text xml:space="preserve" font-family="Arial-Black" font-weight="bold" font-size="26.0" fill="#454447" transform="matrix(1.00, 0.00, -0.00, -1.00, 107.0, 493.0)">s</text><text xml:space="preserve" font-family="Arial-Black" font-weight="bold" font-size="26.0" fill="#454447" transform="matrix(1.00, 0.00, -0.00, -1.00, 122.8, 493.0)">t</text><text xml:space="preserve" font-family="Arial-Black" font-weight="bold" font-size="26.0" fill="#454447" transform="matrix(1.00, 0.00, -0.00, -1.00, 134.4, 493.0)"> </text></g></g><image xlink:href="71E3BFFAC40416077C125044C136E638.png" width="442.00" height="248.00" transform="matrix(1.00, 0.00, -0.00, -1.00, 279.4, 376.9)"></image></g></svg>