<?xml version="1.0" encoding="UTF-8" standalone="no"?><svg xmlns="http://www.w3.org/2000/svg" xmlns:xlink="http://www.w3.org/1999/xlink" clip-rule="evenodd" stroke-miterlimit="4.00" viewBox="0 0 303 19"><desc>SVG generated by Keynote</desc><defs></defs><g transform="matrix(1.00, 0.00, -0.00, -1.00, 0.0, 19.0)"><text xml:space="preserve" font-family="ArialMT" font-size="16.0" fill="#38C1D7" transform="matrix(1.00, 0.00, -0.00, -1.00, 0.4, 4.2)">•</text><text xml:space="preserve" font-family="TrebuchetMS" font-size="16.0" fill="#000000" transform="matrix(1.00, 0.00, -0.00, -1.00, 12.0, 4.0)">I</text><text xml:space="preserve" font-family="TrebuchetMS" font-size="16.0" fill="#000000" transform="matrix(1.00, 0.00, -0.00, -1.00, 16.5, 4.0)">n</text><text xml:space="preserve" font-family="TrebuchetMS" font-size="16.0" fill="#000000" transform="matrix(1.00, 0.00, -0.00, -1.00, 25.2, 4.0)">n</text><text xml:space="preserve" font-family="TrebuchetMS" font-size="16.0" fill="#000000" transform="matrix(1.00, 0.00, -0.00, -1.00, 34.0, 4.0)">o</text><text xml:space="preserve" font-family="TrebuchetMS" font-size="16.0" fill="#000000" transform="matrix(1.00, 0.00, -0.00, -1.00, 42.5, 4.0)">v</text><text xml:space="preserve" font-family="TrebuchetMS" font-size="16.0" fill="#000000" transform="matrix(1.00, 0.00, -0.00, -1.00, 50.4, 4.0)">a</text><text xml:space="preserve" font-family="TrebuchetMS" font-size="16.0" fill="#000000" transform="matrix(1.00, 0.00, -0.00, -1.00, 58.8, 4.0)">t</text><text xml:space="preserve" font-family="TrebuchetMS" font-size="16.0" fill="#000000" transform="matrix(1.00, 0.00, -0.00, -1.00, 65.1, 4.0)">i</text><text xml:space="preserve" font-family="TrebuchetMS" font-size="16.0" fill="#000000" transform="matrix(1.00, 0.00, -0.00, -1.00, 69.7, 4.0)">v</text><text xml:space="preserve" font-family="TrebuchetMS" font-size="16.0" fill="#000000" transform="matrix(1.00, 0.00, -0.00, -1.00, 77.5, 4.0)">e</text><text xml:space="preserve" font-family="TrebuchetMS" font-size="16.0" fill="#000000" transform="matrix(1.00, 0.00, -0.00, -1.00, 86.2, 4.0)"> </text><text xml:space="preserve" font-family="TrebuchetMS" font-size="16.0" fill="#000000" transform="matrix(1.00, 0.00, -0.00, -1.00, 91.1, 4.0)">r</text><text xml:space="preserve" font-family="TrebuchetMS" font-size="16.0" fill="#000000" transform="matrix(1.00, 0.00, -0.00, -1.00, 97.3, 4.0)">e</text><text xml:space="preserve" font-family="TrebuchetMS" font-size="16.0" fill="#000000" transform="matrix(1.00, 0.00, -0.00, -1.00, 106.0, 4.0)">l</text><text xml:space="preserve" font-family="TrebuchetMS" font-size="16.0" fill="#000000" transform="matrix(1.00, 0.00, -0.00, -1.00, 110.7, 4.0)">e</text><text xml:space="preserve" font-family="TrebuchetMS" font-size="16.0" fill="#000000" transform="matrix(1.00, 0.00, -0.00, -1.00, 119.5, 4.0)">v</text><text xml:space="preserve" font-family="TrebuchetMS" font-size="16.0" fill="#000000" transform="matrix(1.00, 0.00, -0.00, -1.00, 127.3, 4.0)">a</text><text xml:space="preserve" font-family="TrebuchetMS" font-size="16.0" fill="#000000" transform="matrix(1.00, 0.00, -0.00, -1.00, 135.7, 4.0)">n</text><text xml:space="preserve" font-family="TrebuchetMS" font-size="16.0" fill="#000000" transform="matrix(1.00, 0.00, -0.00, -1.00, 144.4, 4.0)">t</text><text xml:space="preserve" font-family="TrebuchetMS" font-size="16.0" fill="#000000" transform="matrix(1.00, 0.00, -0.00, -1.00, 150.8, 4.0)"> </text><text xml:space="preserve" font-family="TrebuchetMS" font-size="16.0" fill="#000000" transform="matrix(1.00, 0.00, -0.00, -1.00, 155.6, 4.0)">a</text><text xml:space="preserve" font-family="TrebuchetMS" font-size="16.0" fill="#000000" transform="matrix(1.00, 0.00, -0.00, -1.00, 164.0, 4.0)">n</text><text xml:space="preserve" font-family="TrebuchetMS" font-size="16.0" fill="#000000" transform="matrix(1.00, 0.00, -0.00, -1.00, 172.8, 4.0)">d</text><text xml:space="preserve" font-family="TrebuchetMS" font-size="16.0" fill="#000000" transform="matrix(1.00, 0.00, -0.00, -1.00, 181.7, 4.0)"> </text><text xml:space="preserve" font-family="TrebuchetMS" font-size="16.0" fill="#000000" transform="matrix(1.00, 0.00, -0.00, -1.00, 186.5, 4.0)">s</text><text xml:space="preserve" font-family="TrebuchetMS" font-size="16.0" fill="#000000" transform="matrix(1.00, 0.00, -0.00, -1.00, 193.0, 4.0)">e</text><text xml:space="preserve" font-family="TrebuchetMS" font-size="16.0" fill="#000000" transform="matrix(1.00, 0.00, -0.00, -1.00, 201.7, 4.0)">c</text><text xml:space="preserve" font-family="TrebuchetMS" font-size="16.0" fill="#000000" transform="matrix(1.00, 0.00, -0.00, -1.00, 209.6, 4.0)">u</text><text xml:space="preserve" font-family="TrebuchetMS" font-size="16.0" fill="#000000" transform="matrix(1.00, 0.00, -0.00, -1.00, 218.4, 4.0)">r</text><text xml:space="preserve" font-family="TrebuchetMS" font-size="16.0" fill="#000000" transform="matrix(1.00, 0.00, -0.00, -1.00, 224.6, 4.0)">e</text><text xml:space="preserve" font-family="TrebuchetMS" font-size="16.0" fill="#000000" transform="matrix(1.00, 0.00, -0.00, -1.00, 233.3, 4.0)"> </text><text xml:space="preserve" font-family="TrebuchetMS" font-size="16.0" fill="#000000" transform="matrix(1.00, 0.00, -0.00, -1.00, 238.1, 4.0)">s</text><text xml:space="preserve" font-family="TrebuchetMS" font-size="16.0" fill="#000000" transform="matrix(1.00, 0.00, -0.00, -1.00, 244.6, 4.0)">o</text><text xml:space="preserve" font-family="TrebuchetMS" font-size="16.0" fill="#000000" transform="matrix(1.00, 0.00, -0.00, -1.00, 253.2, 4.0)">l</text><text xml:space="preserve" font-family="TrebuchetMS" font-size="16.0" fill="#000000" transform="matrix(1.00, 0.00, -0.00, -1.00, 257.9, 4.0)">u</text><text xml:space="preserve" font-family="TrebuchetMS" font-size="16.0" fill="#000000" transform="matrix(1.00, 0.00, -0.00, -1.00, 266.7, 4.0)">t</text><text xml:space="preserve" font-family="TrebuchetMS" font-size="16.0" fill="#000000" transform="matrix(1.00, 0.00, -0.00, -1.00, 273.0, 4.0)">i</text><text xml:space="preserve" font-family="TrebuchetMS" font-size="16.0" fill="#000000" transform="matrix(1.00, 0.00, -0.00, -1.00, 277.6, 4.0)">o</text><text xml:space="preserve" font-family="TrebuchetMS" font-size="16.0" fill="#000000" transform="matrix(1.00, 0.00, -0.00, -1.00, 286.1, 4.0)">n</text><text xml:space="preserve" font-family="TrebuchetMS" font-size="16.0" fill="#000000" transform="matrix(1.00, 0.00, -0.00, -1.00, 294.9, 4.0)">s</text></g></svg>