<?xml version="1.0" encoding="UTF-8" standalone="no"?><svg xmlns="http://www.w3.org/2000/svg" xmlns:xlink="http://www.w3.org/1999/xlink" clip-rule="evenodd" stroke-miterlimit="4.00" viewBox="0 0 286 19"><desc>SVG generated by Keynote</desc><defs></defs><g transform="matrix(1.00, 0.00, -0.00, -1.00, 0.0, 19.0)"><text xml:space="preserve" font-family="ArialMT" font-size="16.0" fill="#38C1D7" transform="matrix(1.00, 0.00, -0.00, -1.00, 0.4, 4.2)">•</text><text xml:space="preserve" font-family="TrebuchetMS" font-size="16.0" fill="#000000" transform="matrix(1.00, 0.00, -0.00, -1.00, 12.0, 4.0)">S</text><text xml:space="preserve" font-family="TrebuchetMS" font-size="16.0" fill="#000000" transform="matrix(1.00, 0.00, -0.00, -1.00, 19.7, 4.0)">e</text><text xml:space="preserve" font-family="TrebuchetMS" font-size="16.0" fill="#000000" transform="matrix(1.00, 0.00, -0.00, -1.00, 28.4, 4.0)">a</text><text xml:space="preserve" font-family="TrebuchetMS" font-size="16.0" fill="#000000" transform="matrix(1.00, 0.00, -0.00, -1.00, 36.8, 4.0)">m</text><text xml:space="preserve" font-family="TrebuchetMS" font-size="16.0" fill="#000000" transform="matrix(1.00, 0.00, -0.00, -1.00, 50.1, 4.0)">l</text><text xml:space="preserve" font-family="TrebuchetMS" font-size="16.0" fill="#000000" transform="matrix(1.00, 0.00, -0.00, -1.00, 54.8, 4.0)">e</text><text xml:space="preserve" font-family="TrebuchetMS" font-size="16.0" fill="#000000" transform="matrix(1.00, 0.00, -0.00, -1.00, 63.6, 4.0)">s</text><text xml:space="preserve" font-family="TrebuchetMS" font-size="16.0" fill="#000000" transform="matrix(1.00, 0.00, -0.00, -1.00, 70.0, 4.0)">s</text><text xml:space="preserve" font-family="TrebuchetMS" font-size="16.0" fill="#000000" transform="matrix(1.00, 0.00, -0.00, -1.00, 76.5, 4.0)"> </text><text xml:space="preserve" font-family="TrebuchetMS" font-size="16.0" fill="#000000" transform="matrix(1.00, 0.00, -0.00, -1.00, 81.3, 4.0)">t</text><text xml:space="preserve" font-family="TrebuchetMS" font-size="16.0" fill="#000000" transform="matrix(1.00, 0.00, -0.00, -1.00, 87.7, 4.0)">r</text><text xml:space="preserve" font-family="TrebuchetMS" font-size="16.0" fill="#000000" transform="matrix(1.00, 0.00, -0.00, -1.00, 93.9, 4.0)">a</text><text xml:space="preserve" font-family="TrebuchetMS" font-size="16.0" fill="#000000" transform="matrix(1.00, 0.00, -0.00, -1.00, 102.3, 4.0)">n</text><text xml:space="preserve" font-family="TrebuchetMS" font-size="16.0" fill="#000000" transform="matrix(1.00, 0.00, -0.00, -1.00, 111.1, 4.0)">s</text><text xml:space="preserve" font-family="TrebuchetMS" font-size="16.0" fill="#000000" transform="matrix(1.00, 0.00, -0.00, -1.00, 117.5, 4.0)">i</text><text xml:space="preserve" font-family="TrebuchetMS" font-size="16.0" fill="#000000" transform="matrix(1.00, 0.00, -0.00, -1.00, 122.1, 4.0)">t</text><text xml:space="preserve" font-family="TrebuchetMS" font-size="16.0" fill="#000000" transform="matrix(1.00, 0.00, -0.00, -1.00, 128.5, 4.0)">i</text><text xml:space="preserve" font-family="TrebuchetMS" font-size="16.0" fill="#000000" transform="matrix(1.00, 0.00, -0.00, -1.00, 133.0, 4.0)">o</text><text xml:space="preserve" font-family="TrebuchetMS" font-size="16.0" fill="#000000" transform="matrix(1.00, 0.00, -0.00, -1.00, 141.6, 4.0)">n</text><text xml:space="preserve" font-family="TrebuchetMS" font-size="16.0" fill="#000000" transform="matrix(1.00, 0.00, -0.00, -1.00, 150.4, 4.0)"> </text><text xml:space="preserve" font-family="TrebuchetMS" font-size="16.0" fill="#000000" transform="matrix(1.00, 0.00, -0.00, -1.00, 155.2, 4.0)">b</text><text xml:space="preserve" font-family="TrebuchetMS" font-size="16.0" fill="#000000" transform="matrix(1.00, 0.00, -0.00, -1.00, 164.1, 4.0)">e</text><text xml:space="preserve" font-family="TrebuchetMS" font-size="16.0" fill="#000000" transform="matrix(1.00, 0.00, -0.00, -1.00, 172.8, 4.0)">t</text><text xml:space="preserve" font-family="TrebuchetMS" font-size="16.0" fill="#000000" transform="matrix(1.00, 0.00, -0.00, -1.00, 179.2, 4.0)">w</text><text xml:space="preserve" font-family="TrebuchetMS" font-size="16.0" fill="#000000" transform="matrix(1.00, 0.00, -0.00, -1.00, 191.1, 4.0)">e</text><text xml:space="preserve" font-family="TrebuchetMS" font-size="16.0" fill="#000000" transform="matrix(1.00, 0.00, -0.00, -1.00, 199.8, 4.0)">e</text><text xml:space="preserve" font-family="TrebuchetMS" font-size="16.0" fill="#000000" transform="matrix(1.00, 0.00, -0.00, -1.00, 208.6, 4.0)">n</text><text xml:space="preserve" font-family="TrebuchetMS" font-size="16.0" fill="#000000" transform="matrix(1.00, 0.00, -0.00, -1.00, 217.3, 4.0)"> </text><text xml:space="preserve" font-family="TrebuchetMS" font-size="16.0" fill="#000000" transform="matrix(1.00, 0.00, -0.00, -1.00, 222.1, 4.0)">c</text><text xml:space="preserve" font-family="TrebuchetMS" font-size="16.0" fill="#000000" transform="matrix(1.00, 0.00, -0.00, -1.00, 230.1, 4.0)">h</text><text xml:space="preserve" font-family="TrebuchetMS" font-size="16.0" fill="#000000" transform="matrix(1.00, 0.00, -0.00, -1.00, 238.8, 4.0)">a</text><text xml:space="preserve" font-family="TrebuchetMS" font-size="16.0" fill="#000000" transform="matrix(1.00, 0.00, -0.00, -1.00, 247.2, 4.0)">n</text><text xml:space="preserve" font-family="TrebuchetMS" font-size="16.0" fill="#000000" transform="matrix(1.00, 0.00, -0.00, -1.00, 256.0, 4.0)">n</text><text xml:space="preserve" font-family="TrebuchetMS" font-size="16.0" fill="#000000" transform="matrix(1.00, 0.00, -0.00, -1.00, 264.7, 4.0)">e</text><text xml:space="preserve" font-family="TrebuchetMS" font-size="16.0" fill="#000000" transform="matrix(1.00, 0.00, -0.00, -1.00, 273.4, 4.0)">l</text><text xml:space="preserve" font-family="TrebuchetMS" font-size="16.0" fill="#000000" transform="matrix(1.00, 0.00, -0.00, -1.00, 278.2, 4.0)">s</text></g></svg>