<?xml version="1.0" encoding="UTF-8" standalone="no"?><svg xmlns="http://www.w3.org/2000/svg" xmlns:xlink="http://www.w3.org/1999/xlink" clip-rule="evenodd" stroke-miterlimit="4.00" viewBox="0 0 157 19"><desc>SVG generated by Keynote</desc><defs></defs><g transform="matrix(1.00, 0.00, -0.00, -1.00, 0.0, 19.0)"><text xml:space="preserve" font-family="ArialMT" font-size="16.0" fill="#38C1D7" transform="matrix(1.00, 0.00, -0.00, -1.00, 0.4, 4.2)">•</text><text xml:space="preserve" font-family="TrebuchetMS" font-size="16.0" fill="#000000" transform="matrix(1.00, 0.00, -0.00, -1.00, 12.0, 4.0)">P</text><text xml:space="preserve" font-family="TrebuchetMS" font-size="16.0" fill="#000000" transform="matrix(1.00, 0.00, -0.00, -1.00, 20.2, 4.0)">e</text><text xml:space="preserve" font-family="TrebuchetMS" font-size="16.0" fill="#000000" transform="matrix(1.00, 0.00, -0.00, -1.00, 28.9, 4.0)">r</text><text xml:space="preserve" font-family="TrebuchetMS" font-size="16.0" fill="#000000" transform="matrix(1.00, 0.00, -0.00, -1.00, 35.1, 4.0)">s</text><text xml:space="preserve" font-family="TrebuchetMS" font-size="16.0" fill="#000000" transform="matrix(1.00, 0.00, -0.00, -1.00, 41.6, 4.0)">o</text><text xml:space="preserve" font-family="TrebuchetMS" font-size="16.0" fill="#000000" transform="matrix(1.00, 0.00, -0.00, -1.00, 50.2, 4.0)">n</text><text xml:space="preserve" font-family="TrebuchetMS" font-size="16.0" fill="#000000" transform="matrix(1.00, 0.00, -0.00, -1.00, 58.9, 4.0)">a</text><text xml:space="preserve" font-family="TrebuchetMS" font-size="16.0" fill="#000000" transform="matrix(1.00, 0.00, -0.00, -1.00, 67.3, 4.0)">l</text><text xml:space="preserve" font-family="TrebuchetMS" font-size="16.0" fill="#000000" transform="matrix(1.00, 0.00, -0.00, -1.00, 72.1, 4.0)">i</text><text xml:space="preserve" font-family="TrebuchetMS" font-size="16.0" fill="#000000" transform="matrix(1.00, 0.00, -0.00, -1.00, 76.6, 4.0)">s</text><text xml:space="preserve" font-family="TrebuchetMS" font-size="16.0" fill="#000000" transform="matrix(1.00, 0.00, -0.00, -1.00, 83.1, 4.0)">e</text><text xml:space="preserve" font-family="TrebuchetMS" font-size="16.0" fill="#000000" transform="matrix(1.00, 0.00, -0.00, -1.00, 91.8, 4.0)">d</text><text xml:space="preserve" font-family="TrebuchetMS" font-size="16.0" fill="#000000" transform="matrix(1.00, 0.00, -0.00, -1.00, 100.7, 4.0)"> </text><text xml:space="preserve" font-family="TrebuchetMS" font-size="16.0" fill="#000000" transform="matrix(1.00, 0.00, -0.00, -1.00, 105.6, 4.0)">s</text><text xml:space="preserve" font-family="TrebuchetMS" font-size="16.0" fill="#000000" transform="matrix(1.00, 0.00, -0.00, -1.00, 112.1, 4.0)">e</text><text xml:space="preserve" font-family="TrebuchetMS" font-size="16.0" fill="#000000" transform="matrix(1.00, 0.00, -0.00, -1.00, 120.8, 4.0)">r</text><text xml:space="preserve" font-family="TrebuchetMS" font-size="16.0" fill="#000000" transform="matrix(1.00, 0.00, -0.00, -1.00, 127.0, 4.0)">v</text><text xml:space="preserve" font-family="TrebuchetMS" font-size="16.0" fill="#000000" transform="matrix(1.00, 0.00, -0.00, -1.00, 134.8, 4.0)">i</text><text xml:space="preserve" font-family="TrebuchetMS" font-size="16.0" fill="#000000" transform="matrix(1.00, 0.00, -0.00, -1.00, 139.4, 4.0)">c</text><text xml:space="preserve" font-family="TrebuchetMS" font-size="16.0" fill="#000000" transform="matrix(1.00, 0.00, -0.00, -1.00, 147.3, 4.0)">e</text></g></svg>