<?xml version="1.0" encoding="UTF-8" standalone="no"?><svg xmlns="http://www.w3.org/2000/svg" xmlns:xlink="http://www.w3.org/1999/xlink" clip-rule="evenodd" stroke-miterlimit="4.00" viewBox="0 0 158 17"><desc>SVG generated by Keynote</desc><defs></defs><g transform="matrix(1.00, 0.00, -0.00, -1.00, 0.0, 17.0)"><text xml:space="preserve" font-family="Arial-Black" font-weight="bold" font-size="18.0" fill="#525252" transform="matrix(1.00, 0.00, -0.00, -1.00, 2.0, 2.0)">A</text><text xml:space="preserve" font-family="Arial-Black" font-weight="bold" font-size="18.0" fill="#525252" transform="matrix(1.00, 0.00, -0.00, -1.00, 16.0, 2.0)">L</text><text xml:space="preserve" font-family="Arial-Black" font-weight="bold" font-size="18.0" fill="#525252" transform="matrix(1.00, 0.00, -0.00, -1.00, 28.0, 2.0)">R</text><text xml:space="preserve" font-family="Arial-Black" font-weight="bold" font-size="18.0" fill="#525252" transform="matrix(1.00, 0.00, -0.00, -1.00, 42.0, 2.0)">E</text><text xml:space="preserve" font-family="Arial-Black" font-weight="bold" font-size="18.0" fill="#525252" transform="matrix(1.00, 0.00, -0.00, -1.00, 55.0, 2.0)">A</text><text xml:space="preserve" font-family="Arial-Black" font-weight="bold" font-size="18.0" fill="#525252" transform="matrix(1.00, 0.00, -0.00, -1.00, 69.0, 2.0)">D</text><text xml:space="preserve" font-family="Arial-Black" font-weight="bold" font-size="18.0" fill="#525252" transform="matrix(1.00, 0.00, -0.00, -1.00, 82.4, 2.0)">Y</text><text xml:space="preserve" font-family="Arial-Black" font-weight="bold" font-size="18.0" fill="#525252" transform="matrix(1.00, 0.00, -0.00, -1.00, 96.4, 2.0)"> </text><text xml:space="preserve" font-family="Arial-Black" font-weight="bold" font-size="18.0" fill="#525252" transform="matrix(1.00, 0.00, -0.00, -1.00, 102.4, 2.0)">H</text><text xml:space="preserve" font-family="Arial-Black" font-weight="bold" font-size="18.0" fill="#525252" transform="matrix(1.00, 0.00, -0.00, -1.00, 117.4, 2.0)">A</text><text xml:space="preserve" font-family="Arial-Black" font-weight="bold" font-size="18.0" fill="#525252" transform="matrix(1.00, 0.00, -0.00, -1.00, 130.4, 2.0)">V</text><text xml:space="preserve" font-family="Arial-Black" font-weight="bold" font-size="18.0" fill="#525252" transform="matrix(1.00, 0.00, -0.00, -1.00, 144.4, 2.0)">E</text></g></svg>