<?xml version="1.0" encoding="UTF-8" standalone="no"?><svg xmlns="http://www.w3.org/2000/svg" xmlns:xlink="http://www.w3.org/1999/xlink" clip-rule="evenodd" stroke-miterlimit="4.00" viewBox="0 0 324 20"><desc>SVG generated by Keynote</desc><defs></defs><g transform="matrix(1.00, 0.00, -0.00, -1.00, 0.0, 20.0)"><text xml:space="preserve" font-family="ArialMT" font-size="16.0" fill="#38C1D7" transform="matrix(1.00, 0.00, -0.00, -1.00, 0.9, 5.6)">•</text><text xml:space="preserve" font-family="TrebuchetMS" font-size="16.0" fill="#000000" transform="matrix(1.00, 0.00, -0.00, -1.00, 13.0, 5.0)">T</text><text xml:space="preserve" font-family="TrebuchetMS" font-size="16.0" fill="#000000" transform="matrix(1.00, 0.00, -0.00, -1.00, 22.3, 5.0)">h</text><text xml:space="preserve" font-family="TrebuchetMS" font-size="16.0" fill="#000000" transform="matrix(1.00, 0.00, -0.00, -1.00, 31.0, 5.0)">e</text><text xml:space="preserve" font-family="TrebuchetMS" font-size="16.0" fill="#000000" transform="matrix(1.00, 0.00, -0.00, -1.00, 39.8, 5.0)">y</text><text xml:space="preserve" font-family="TrebuchetMS" font-size="16.0" fill="#000000" transform="matrix(1.00, 0.00, -0.00, -1.00, 47.7, 5.0)"> </text><text xml:space="preserve" font-family="TrebuchetMS" font-size="16.0" fill="#000000" transform="matrix(1.00, 0.00, -0.00, -1.00, 52.5, 5.0)">c</text><text xml:space="preserve" font-family="TrebuchetMS" font-size="16.0" fill="#000000" transform="matrix(1.00, 0.00, -0.00, -1.00, 60.4, 5.0)">h</text><text xml:space="preserve" font-family="TrebuchetMS" font-size="16.0" fill="#000000" transform="matrix(1.00, 0.00, -0.00, -1.00, 69.2, 5.0)">o</text><text xml:space="preserve" font-family="TrebuchetMS" font-size="16.0" fill="#000000" transform="matrix(1.00, 0.00, -0.00, -1.00, 77.8, 5.0)">o</text><text xml:space="preserve" font-family="TrebuchetMS" font-size="16.0" fill="#000000" transform="matrix(1.00, 0.00, -0.00, -1.00, 86.3, 5.0)">s</text><text xml:space="preserve" font-family="TrebuchetMS" font-size="16.0" fill="#000000" transform="matrix(1.00, 0.00, -0.00, -1.00, 92.8, 5.0)">e</text><text xml:space="preserve" font-family="TrebuchetMS" font-size="16.0" fill="#000000" transform="matrix(1.00, 0.00, -0.00, -1.00, 101.5, 5.0)"> </text><text xml:space="preserve" font-family="TrebuchetMS" font-size="16.0" fill="#000000" transform="matrix(1.00, 0.00, -0.00, -1.00, 106.4, 5.0)">w</text><text xml:space="preserve" font-family="TrebuchetMS" font-size="16.0" fill="#000000" transform="matrix(1.00, 0.00, -0.00, -1.00, 118.3, 5.0)">h</text><text xml:space="preserve" font-family="TrebuchetMS" font-size="16.0" fill="#000000" transform="matrix(1.00, 0.00, -0.00, -1.00, 127.0, 5.0)">a</text><text xml:space="preserve" font-family="TrebuchetMS" font-size="16.0" fill="#000000" transform="matrix(1.00, 0.00, -0.00, -1.00, 135.5, 5.0)">t</text><text xml:space="preserve" font-family="TrebuchetMS" font-size="16.0" fill="#000000" transform="matrix(1.00, 0.00, -0.00, -1.00, 141.8, 5.0)">,</text><text xml:space="preserve" font-family="TrebuchetMS" font-size="16.0" fill="#000000" transform="matrix(1.00, 0.00, -0.00, -1.00, 147.7, 5.0)"> </text><text xml:space="preserve" font-family="TrebuchetMS" font-size="16.0" fill="#000000" transform="matrix(1.00, 0.00, -0.00, -1.00, 152.5, 5.0)">w</text><text xml:space="preserve" font-family="TrebuchetMS" font-size="16.0" fill="#000000" transform="matrix(1.00, 0.00, -0.00, -1.00, 164.4, 5.0)">h</text><text xml:space="preserve" font-family="TrebuchetMS" font-size="16.0" fill="#000000" transform="matrix(1.00, 0.00, -0.00, -1.00, 173.2, 5.0)">e</text><text xml:space="preserve" font-family="TrebuchetMS" font-size="16.0" fill="#000000" transform="matrix(1.00, 0.00, -0.00, -1.00, 181.9, 5.0)">n</text><text xml:space="preserve" font-family="TrebuchetMS" font-size="16.0" fill="#000000" transform="matrix(1.00, 0.00, -0.00, -1.00, 190.7, 5.0)"> </text><text xml:space="preserve" font-family="TrebuchetMS" font-size="16.0" fill="#000000" transform="matrix(1.00, 0.00, -0.00, -1.00, 195.5, 5.0)">a</text><text xml:space="preserve" font-family="TrebuchetMS" font-size="16.0" fill="#000000" transform="matrix(1.00, 0.00, -0.00, -1.00, 203.9, 5.0)">n</text><text xml:space="preserve" font-family="TrebuchetMS" font-size="16.0" fill="#000000" transform="matrix(1.00, 0.00, -0.00, -1.00, 212.7, 5.0)">d</text><text xml:space="preserve" font-family="TrebuchetMS" font-size="16.0" fill="#000000" transform="matrix(1.00, 0.00, -0.00, -1.00, 221.6, 5.0)"> </text><text xml:space="preserve" font-family="TrebuchetMS" font-size="16.0" fill="#000000" transform="matrix(1.00, 0.00, -0.00, -1.00, 226.4, 5.0)">h</text><text xml:space="preserve" font-family="TrebuchetMS" font-size="16.0" fill="#000000" transform="matrix(1.00, 0.00, -0.00, -1.00, 235.2, 5.0)">o</text><text xml:space="preserve" font-family="TrebuchetMS" font-size="16.0" fill="#000000" transform="matrix(1.00, 0.00, -0.00, -1.00, 243.8, 5.0)">w</text><text xml:space="preserve" font-family="TrebuchetMS" font-size="16.0" fill="#000000" transform="matrix(1.00, 0.00, -0.00, -1.00, 255.7, 5.0)"> </text><text xml:space="preserve" font-family="TrebuchetMS" font-size="16.0" fill="#000000" transform="matrix(1.00, 0.00, -0.00, -1.00, 260.5, 5.0)">t</text><text xml:space="preserve" font-family="TrebuchetMS" font-size="16.0" fill="#000000" transform="matrix(1.00, 0.00, -0.00, -1.00, 266.9, 5.0)">h</text><text xml:space="preserve" font-family="TrebuchetMS" font-size="16.0" fill="#000000" transform="matrix(1.00, 0.00, -0.00, -1.00, 275.6, 5.0)">e</text><text xml:space="preserve" font-family="TrebuchetMS" font-size="16.0" fill="#000000" transform="matrix(1.00, 0.00, -0.00, -1.00, 284.4, 5.0)">y</text><text xml:space="preserve" font-family="TrebuchetMS" font-size="16.0" fill="#000000" transform="matrix(1.00, 0.00, -0.00, -1.00, 292.3, 5.0)"> </text><text xml:space="preserve" font-family="TrebuchetMS" font-size="16.0" fill="#000000" transform="matrix(1.00, 0.00, -0.00, -1.00, 297.1, 5.0)">b</text><text xml:space="preserve" font-family="TrebuchetMS" font-size="16.0" fill="#000000" transform="matrix(1.00, 0.00, -0.00, -1.00, 306.0, 5.0)">u</text><text xml:space="preserve" font-family="TrebuchetMS" font-size="16.0" fill="#000000" transform="matrix(1.00, 0.00, -0.00, -1.00, 314.8, 5.0)">y</text></g></svg>