<?xml version="1.0" encoding="UTF-8" standalone="no"?><svg xmlns="http://www.w3.org/2000/svg" xmlns:xlink="http://www.w3.org/1999/xlink" clip-rule="evenodd" stroke-miterlimit="4.00" viewBox="0 0 167 23"><desc>SVG generated by Keynote</desc><defs></defs><g transform="matrix(1.00, 0.00, -0.00, -1.00, 0.0, 23.0)"><text xml:space="preserve" font-family="ArialMT" font-size="18.0" fill="#38C1D7" transform="matrix(1.00, 0.00, -0.00, -1.00, 0.5, 6.3)">•</text><text xml:space="preserve" font-family="TrebuchetMS" font-size="18.0" fill="#454447" transform="matrix(1.00, 0.00, -0.00, -1.00, 18.0, 6.0)">B</text><text xml:space="preserve" font-family="TrebuchetMS" font-size="18.0" fill="#454447" transform="matrix(1.00, 0.00, -0.00, -1.00, 28.2, 6.0)">u</text><text xml:space="preserve" font-family="TrebuchetMS" font-size="18.0" fill="#454447" transform="matrix(1.00, 0.00, -0.00, -1.00, 38.0, 6.0)">y</text><text xml:space="preserve" font-family="TrebuchetMS" font-size="18.0" fill="#454447" transform="matrix(1.00, 0.00, -0.00, -1.00, 46.9, 6.0)"> </text><text xml:space="preserve" font-family="TrebuchetMS" font-size="18.0" fill="#454447" transform="matrix(1.00, 0.00, -0.00, -1.00, 52.3, 6.0)">i</text><text xml:space="preserve" font-family="TrebuchetMS" font-size="18.0" fill="#454447" transform="matrix(1.00, 0.00, -0.00, -1.00, 57.5, 6.0)">t</text><text xml:space="preserve" font-family="TrebuchetMS" font-size="18.0" fill="#454447" transform="matrix(1.00, 0.00, -0.00, -1.00, 64.6, 6.0)">e</text><text xml:space="preserve" font-family="TrebuchetMS" font-size="18.0" fill="#454447" transform="matrix(1.00, 0.00, -0.00, -1.00, 74.4, 6.0)">m</text><text xml:space="preserve" font-family="TrebuchetMS" font-size="18.0" fill="#454447" transform="matrix(1.00, 0.00, -0.00, -1.00, 89.4, 6.0)">s</text><text xml:space="preserve" font-family="TrebuchetMS" font-size="18.0" fill="#454447" transform="matrix(1.00, 0.00, -0.00, -1.00, 96.7, 6.0)"> </text><text xml:space="preserve" font-family="TrebuchetMS" font-size="18.0" fill="#454447" transform="matrix(1.00, 0.00, -0.00, -1.00, 102.1, 6.0)">d</text><text xml:space="preserve" font-family="TrebuchetMS" font-size="18.0" fill="#454447" transform="matrix(1.00, 0.00, -0.00, -1.00, 112.1, 6.0)">i</text><text xml:space="preserve" font-family="TrebuchetMS" font-size="18.0" fill="#454447" transform="matrix(1.00, 0.00, -0.00, -1.00, 117.3, 6.0)">r</text><text xml:space="preserve" font-family="TrebuchetMS" font-size="18.0" fill="#454447" transform="matrix(1.00, 0.00, -0.00, -1.00, 124.2, 6.0)">e</text><text xml:space="preserve" font-family="TrebuchetMS" font-size="18.0" fill="#454447" transform="matrix(1.00, 0.00, -0.00, -1.00, 134.1, 6.0)">c</text><text xml:space="preserve" font-family="TrebuchetMS" font-size="18.0" fill="#454447" transform="matrix(1.00, 0.00, -0.00, -1.00, 143.0, 6.0)">t</text><text xml:space="preserve" font-family="TrebuchetMS" font-size="18.0" fill="#454447" transform="matrix(1.00, 0.00, -0.00, -1.00, 150.1, 6.0)">l</text><text xml:space="preserve" font-family="TrebuchetMS" font-size="18.0" fill="#454447" transform="matrix(1.00, 0.00, -0.00, -1.00, 155.5, 6.0)">y</text><text xml:space="preserve" font-family="LucidaGrande" font-size="18.0" fill="#454447" transform="matrix(1.00, 0.00, -0.00, -1.00, 164.3, 6.0)"> </text></g></svg>