<?xml version="1.0" encoding="UTF-8" standalone="no"?><svg xmlns="http://www.w3.org/2000/svg" xmlns:xlink="http://www.w3.org/1999/xlink" clip-rule="evenodd" stroke-miterlimit="4.00" viewBox="0 0 244 46"><desc>SVG generated by Keynote</desc><defs></defs><g transform="matrix(1.00, 0.00, -0.00, -1.00, 0.0, 46.0)"><text xml:space="preserve" font-family="Arial-Black" font-weight="bold" font-size="16.0" fill="#454447" transform="matrix(1.00, 0.00, -0.00, -1.00, 0.3, 31.5)">F</text><text xml:space="preserve" font-family="Arial-Black" font-weight="bold" font-size="16.0" fill="#454447" transform="matrix(1.00, 0.00, -0.00, -1.00, 10.4, 31.5)">o</text><text xml:space="preserve" font-family="Arial-Black" font-weight="bold" font-size="16.0" fill="#454447" transform="matrix(1.00, 0.00, -0.00, -1.00, 21.1, 31.5)">r</text><text xml:space="preserve" font-family="Arial-Black" font-weight="bold" font-size="16.0" fill="#454447" transform="matrix(1.00, 0.00, -0.00, -1.00, 28.5, 31.5)">e</text><text xml:space="preserve" font-family="Arial-Black" font-weight="bold" font-size="16.0" fill="#454447" transform="matrix(1.00, 0.00, -0.00, -1.00, 39.1, 31.5)">c</text><text xml:space="preserve" font-family="Arial-Black" font-weight="bold" font-size="16.0" fill="#454447" transform="matrix(1.00, 0.00, -0.00, -1.00, 49.8, 31.5)">a</text><text xml:space="preserve" font-family="Arial-Black" font-weight="bold" font-size="16.0" fill="#454447" transform="matrix(1.00, 0.00, -0.00, -1.00, 60.5, 31.5)">s</text><text xml:space="preserve" font-family="Arial-Black" font-weight="bold" font-size="16.0" fill="#454447" transform="matrix(1.00, 0.00, -0.00, -1.00, 70.3, 31.5)">t</text><text xml:space="preserve" font-family="Arial-Black" font-weight="bold" font-size="16.0" fill="#454447" transform="matrix(1.00, 0.00, -0.00, -1.00, 77.4, 31.5)"> </text><text xml:space="preserve" font-family="Arial-Black" font-weight="bold" font-size="16.0" fill="#454447" transform="matrix(1.00, 0.00, -0.00, -1.00, 82.7, 31.5)">f</text><text xml:space="preserve" font-family="Arial-Black" font-weight="bold" font-size="16.0" fill="#454447" transform="matrix(1.00, 0.00, -0.00, -1.00, 88.9, 31.5)">r</text><text xml:space="preserve" font-family="Arial-Black" font-weight="bold" font-size="16.0" fill="#454447" transform="matrix(1.00, 0.00, -0.00, -1.00, 96.3, 31.5)">o</text><text xml:space="preserve" font-family="Arial-Black" font-weight="bold" font-size="16.0" fill="#454447" transform="matrix(1.00, 0.00, -0.00, -1.00, 107.0, 31.5)">m</text><text xml:space="preserve" font-family="Arial-Black" font-weight="bold" font-size="16.0" fill="#454447" transform="matrix(1.00, 0.00, -0.00, -1.00, 123.0, 31.5)"> </text><text xml:space="preserve" font-family="Arial-Black" font-weight="bold" font-size="16.0" fill="#454447" transform="matrix(1.00, 0.00, -0.00, -1.00, 128.3, 31.5)">2</text><text xml:space="preserve" font-family="Arial-Black" font-weight="bold" font-size="16.0" fill="#454447" transform="matrix(1.00, 0.00, -0.00, -1.00, 139.0, 31.5)">0</text><text xml:space="preserve" font-family="Arial-Black" font-weight="bold" font-size="16.0" fill="#454447" transform="matrix(1.00, 0.00, -0.00, -1.00, 149.6, 31.5)">1</text><text xml:space="preserve" font-family="Arial-Black" font-weight="bold" font-size="16.0" fill="#454447" transform="matrix(1.00, 0.00, -0.00, -1.00, 160.3, 31.5)">5</text><text xml:space="preserve" font-family="Arial-Black" font-weight="bold" font-size="16.0" fill="#454447" transform="matrix(1.00, 0.00, -0.00, -1.00, 171.0, 31.5)"> </text><text xml:space="preserve" font-family="Arial-Black" font-weight="bold" font-size="16.0" fill="#454447" transform="matrix(1.00, 0.00, -0.00, -1.00, 176.3, 31.5)">t</text><text xml:space="preserve" font-family="Arial-Black" font-weight="bold" font-size="16.0" fill="#454447" transform="matrix(1.00, 0.00, -0.00, -1.00, 183.4, 31.5)">o</text><text xml:space="preserve" font-family="Arial-Black" font-weight="bold" font-size="16.0" fill="#454447" transform="matrix(1.00, 0.00, -0.00, -1.00, 194.1, 31.5)"> </text><text xml:space="preserve" font-family="Arial-Black" font-weight="bold" font-size="16.0" fill="#454447" transform="matrix(1.00, 0.00, -0.00, -1.00, 199.5, 31.5)">2</text><text xml:space="preserve" font-family="Arial-Black" font-weight="bold" font-size="16.0" fill="#454447" transform="matrix(1.00, 0.00, -0.00, -1.00, 210.1, 31.5)">0</text><text xml:space="preserve" font-family="Arial-Black" font-weight="bold" font-size="16.0" fill="#454447" transform="matrix(1.00, 0.00, -0.00, -1.00, 220.8, 31.5)">1</text><text xml:space="preserve" font-family="Arial-Black" font-weight="bold" font-size="16.0" fill="#454447" transform="matrix(1.00, 0.00, -0.00, -1.00, 231.5, 31.5)">9</text><text xml:space="preserve" font-family="Arial-Black" font-weight="bold" font-size="16.0" fill="#454447" transform="matrix(1.00, 0.00, -0.00, -1.00, 242.1, 31.5)"> </text><text xml:space="preserve" font-family="Arial-Black" font-weight="bold" font-size="16.0" fill="#454447" transform="matrix(1.00, 0.00, -0.00, -1.00, 49.4, 4.7)">(</text><text xml:space="preserve" font-family="Arial-Black" font-weight="bold" font-size="16.0" fill="#454447" transform="matrix(1.00, 0.00, -0.00, -1.00, 55.6, 4.7)">i</text><text xml:space="preserve" font-family="Arial-Black" font-weight="bold" font-size="16.0" fill="#454447" transform="matrix(1.00, 0.00, -0.00, -1.00, 60.9, 4.7)">n</text><text xml:space="preserve" font-family="Arial-Black" font-weight="bold" font-size="16.0" fill="#454447" transform="matrix(1.00, 0.00, -0.00, -1.00, 71.6, 4.7)"> </text><text xml:space="preserve" font-family="Arial-Black" font-weight="bold" font-size="16.0" fill="#454447" transform="matrix(1.00, 0.00, -0.00, -1.00, 77.0, 4.7)">b</text><text xml:space="preserve" font-family="Arial-Black" font-weight="bold" font-size="16.0" fill="#454447" transform="matrix(1.00, 0.00, -0.00, -1.00, 87.6, 4.7)">i</text><text xml:space="preserve" font-family="Arial-Black" font-weight="bold" font-size="16.0" fill="#454447" transform="matrix(1.00, 0.00, -0.00, -1.00, 93.0, 4.7)">l</text><text xml:space="preserve" font-family="Arial-Black" font-weight="bold" font-size="16.0" fill="#454447" transform="matrix(1.00, 0.00, -0.00, -1.00, 98.3, 4.7)">l</text><text xml:space="preserve" font-family="Arial-Black" font-weight="bold" font-size="16.0" fill="#454447" transform="matrix(1.00, 0.00, -0.00, -1.00, 103.6, 4.7)">i</text><text xml:space="preserve" font-family="Arial-Black" font-weight="bold" font-size="16.0" fill="#454447" transform="matrix(1.00, 0.00, -0.00, -1.00, 108.9, 4.7)">o</text><text xml:space="preserve" font-family="Arial-Black" font-weight="bold" font-size="16.0" fill="#454447" transform="matrix(1.00, 0.00, -0.00, -1.00, 119.6, 4.7)">n</text><text xml:space="preserve" font-family="Arial-Black" font-weight="bold" font-size="16.0" fill="#454447" transform="matrix(1.00, 0.00, -0.00, -1.00, 130.3, 4.7)"> </text><text xml:space="preserve" font-family="Arial-Black" font-weight="bold" font-size="16.0" fill="#454447" transform="matrix(1.00, 0.00, -0.00, -1.00, 135.6, 4.7)">U</text><text xml:space="preserve" font-family="Arial-Black" font-weight="bold" font-size="16.0" fill="#454447" transform="matrix(1.00, 0.00, -0.00, -1.00, 148.4, 4.7)">.</text><text xml:space="preserve" font-family="Arial-Black" font-weight="bold" font-size="16.0" fill="#454447" transform="matrix(1.00, 0.00, -0.00, -1.00, 153.7, 4.7)">S</text><text xml:space="preserve" font-family="Arial-Black" font-weight="bold" font-size="16.0" fill="#454447" transform="matrix(1.00, 0.00, -0.00, -1.00, 165.3, 4.7)">.</text><text xml:space="preserve" font-family="Arial-Black" font-weight="bold" font-size="16.0" fill="#454447" transform="matrix(1.00, 0.00, -0.00, -1.00, 170.6, 4.7)"> </text><text xml:space="preserve" font-family="Arial-Black" font-weight="bold" font-size="16.0" fill="#454447" transform="matrix(1.00, 0.00, -0.00, -1.00, 176.0, 4.7)">d</text><text xml:space="preserve" font-family="Arial-Black" font-weight="bold" font-size="16.0" fill="#454447" transform="matrix(1.00, 0.00, -0.00, -1.00, 186.6, 4.7)">o</text><text xml:space="preserve" font-family="Arial-Black" font-weight="bold" font-size="16.0" fill="#454447" transform="matrix(1.00, 0.00, -0.00, -1.00, 197.3, 4.7)">l</text><text xml:space="preserve" font-family="Arial-Black" font-weight="bold" font-size="16.0" fill="#454447" transform="matrix(1.00, 0.00, -0.00, -1.00, 202.6, 4.7)">l</text><text xml:space="preserve" font-family="Arial-Black" font-weight="bold" font-size="16.0" fill="#454447" transform="matrix(1.00, 0.00, -0.00, -1.00, 208.0, 4.7)">a</text><text xml:space="preserve" font-family="Arial-Black" font-weight="bold" font-size="16.0" fill="#454447" transform="matrix(1.00, 0.00, -0.00, -1.00, 218.6, 4.7)">r</text><text xml:space="preserve" font-family="Arial-Black" font-weight="bold" font-size="16.0" fill="#454447" transform="matrix(1.00, 0.00, -0.00, -1.00, 226.1, 4.7)">s</text><text xml:space="preserve" font-family="Arial-Black" font-weight="bold" font-size="16.0" fill="#454447" transform="matrix(1.00, 0.00, -0.00, -1.00, 235.9, 4.7)">)</text></g></svg>