<?xml version="1.0" encoding="UTF-8" standalone="no"?><svg xmlns="http://www.w3.org/2000/svg" xmlns:xlink="http://www.w3.org/1999/xlink" clip-rule="evenodd" stroke-miterlimit="4.00" viewBox="0 0 623 398"><desc>SVG generated by Keynote</desc><defs></defs><g transform="matrix(1.00, 0.00, -0.00, -1.00, 0.0, 398.0)"><path d="M 48.0 371.0 L 597.0 371.0 L 597.0 38.0 L 48.0 38.0 Z M 48.0 371.0 " fill="#000000" fill-opacity="0.00"></path><path d="M 46.1 358.3 L 46.1 26.3 " fill="none" stroke="#CCCCCC" stroke-width="1.00" stroke-linecap="square" stroke-linejoin="round" transform="matrix(1.00, 0.00, 0.00, -1.00, 1.4, 396.8)"></path><g><clipPath id="clip-278"><path d="M 0.4 328.1 L 34.5 328.1 L 34.5 347.1 L 0.4 347.1 Z M 0.4 328.1 "></path></clipPath><g clip-path="url(#clip-278)"><text xml:space="preserve" font-family="TrebuchetMS" font-size="14.8" fill="#666666" transform="matrix(1.00, 0.00, -0.00, -1.00, 2.0, 332.0)">2</text><text xml:space="preserve" font-family="TrebuchetMS" font-size="14.8" fill="#666666" transform="matrix(1.00, 0.00, -0.00, -1.00, 9.8, 332.0)">0</text><text xml:space="preserve" font-family="TrebuchetMS" font-size="14.8" fill="#666666" transform="matrix(1.00, 0.00, -0.00, -1.00, 17.6, 332.0)">1</text><text xml:space="preserve" font-family="TrebuchetMS" font-size="14.8" fill="#666666" transform="matrix(1.00, 0.00, -0.00, -1.00, 25.3, 332.0)">5</text></g></g><g><clipPath id="clip-279"><path d="M 0.4 261.5 L 34.5 261.5 L 34.5 280.5 L 0.4 280.5 Z M 0.4 261.5 "></path></clipPath><g clip-path="url(#clip-279)"><text xml:space="preserve" font-family="TrebuchetMS" font-size="14.8" fill="#666666" transform="matrix(1.00, 0.00, -0.00, -1.00, 2.0, 266.0)">2</text><text xml:space="preserve" font-family="TrebuchetMS" font-size="14.8" fill="#666666" transform="matrix(1.00, 0.00, -0.00, -1.00, 9.8, 266.0)">0</text><text xml:space="preserve" font-family="TrebuchetMS" font-size="14.8" fill="#666666" transform="matrix(1.00, 0.00, -0.00, -1.00, 17.6, 266.0)">1</text><text xml:space="preserve" font-family="TrebuchetMS" font-size="14.8" fill="#666666" transform="matrix(1.00, 0.00, -0.00, -1.00, 25.3, 266.0)">6</text></g></g><g><clipPath id="clip-280"><path d="M 0.4 195.0 L 34.5 195.0 L 34.5 214.0 L 0.4 214.0 Z M 0.4 195.0 "></path></clipPath><g clip-path="url(#clip-280)"><text xml:space="preserve" font-family="TrebuchetMS" font-size="14.8" fill="#666666" transform="matrix(1.00, 0.00, -0.00, -1.00, 2.0, 199.0)">2</text><text xml:space="preserve" font-family="TrebuchetMS" font-size="14.8" fill="#666666" transform="matrix(1.00, 0.00, -0.00, -1.00, 9.8, 199.0)">0</text><text xml:space="preserve" font-family="TrebuchetMS" font-size="14.8" fill="#666666" transform="matrix(1.00, 0.00, -0.00, -1.00, 17.6, 199.0)">1</text><text xml:space="preserve" font-family="TrebuchetMS" font-size="14.8" fill="#666666" transform="matrix(1.00, 0.00, -0.00, -1.00, 25.3, 199.0)">7</text></g></g><g><clipPath id="clip-281"><path d="M 0.4 128.5 L 34.5 128.5 L 34.5 147.5 L 0.4 147.5 Z M 0.4 128.5 "></path></clipPath><g clip-path="url(#clip-281)"><text xml:space="preserve" font-family="TrebuchetMS" font-size="14.8" fill="#666666" transform="matrix(1.00, 0.00, -0.00, -1.00, 2.0, 133.0)">2</text><text xml:space="preserve" font-family="TrebuchetMS" font-size="14.8" fill="#666666" transform="matrix(1.00, 0.00, -0.00, -1.00, 9.8, 133.0)">0</text><text xml:space="preserve" font-family="TrebuchetMS" font-size="14.8" fill="#666666" transform="matrix(1.00, 0.00, -0.00, -1.00, 17.6, 133.0)">1</text><text xml:space="preserve" font-family="TrebuchetMS" font-size="14.8" fill="#666666" transform="matrix(1.00, 0.00, -0.00, -1.00, 25.3, 133.0)">8</text></g></g><g><clipPath id="clip-282"><path d="M 0.4 62.0 L 34.5 62.0 L 34.5 81.0 L 0.4 81.0 Z M 0.4 62.0 "></path></clipPath><g clip-path="url(#clip-282)"><text xml:space="preserve" font-family="TrebuchetMS" font-size="14.8" fill="#666666" transform="matrix(1.00, 0.00, -0.00, -1.00, 2.0, 66.0)">2</text><text xml:space="preserve" font-family="TrebuchetMS" font-size="14.8" fill="#666666" transform="matrix(1.00, 0.00, -0.00, -1.00, 9.8, 66.0)">0</text><text xml:space="preserve" font-family="TrebuchetMS" font-size="14.8" fill="#666666" transform="matrix(1.00, 0.00, -0.00, -1.00, 17.6, 66.0)">1</text><text xml:space="preserve" font-family="TrebuchetMS" font-size="14.8" fill="#666666" transform="matrix(1.00, 0.00, -0.00, -1.00, 25.3, 66.0)">9</text></g></g><g><clipPath id="clip-283"><path d="M 40.3 0.4 L 55.0 0.4 L 55.0 28.4 L 40.3 28.4 Z M 40.3 0.4 "></path></clipPath><g clip-path="url(#clip-283)"><text xml:space="preserve" font-family="TrebuchetMS" font-size="22.2" fill="#FFFFFF" transform="matrix(1.00, 0.00, -0.00, -1.00, 42.0, 6.0)">0</text></g></g><g><clipPath id="clip-284"><path d="M 166.1 0.4 L 204.0 0.4 L 204.0 28.4 L 166.1 28.4 Z M 166.1 0.4 "></path></clipPath><g clip-path="url(#clip-284)"><text xml:space="preserve" font-family="TrebuchetMS" font-size="22.2" fill="#FFFFFF" transform="matrix(1.00, 0.00, -0.00, -1.00, 168.0, 6.0)">3</text><text xml:space="preserve" font-family="TrebuchetMS" font-size="22.2" fill="#FFFFFF" transform="matrix(1.00, 0.00, -0.00, -1.00, 179.7, 6.0)">0</text><text xml:space="preserve" font-family="TrebuchetMS" font-size="22.2" fill="#FFFFFF" transform="matrix(1.00, 0.00, -0.00, -1.00, 191.3, 6.0)">0</text></g></g><g><clipPath id="clip-285"><path d="M 303.5 0.4 L 341.4 0.4 L 341.4 28.4 L 303.5 28.4 Z M 303.5 0.4 "></path></clipPath><g clip-path="url(#clip-285)"><text xml:space="preserve" font-family="TrebuchetMS" font-size="22.2" fill="#FFFFFF" transform="matrix(1.00, 0.00, -0.00, -1.00, 305.0, 6.0)">6</text><text xml:space="preserve" font-family="TrebuchetMS" font-size="22.2" fill="#FFFFFF" transform="matrix(1.00, 0.00, -0.00, -1.00, 316.7, 6.0)">0</text><text xml:space="preserve" font-family="TrebuchetMS" font-size="22.2" fill="#FFFFFF" transform="matrix(1.00, 0.00, -0.00, -1.00, 328.3, 6.0)">0</text></g></g><g><clipPath id="clip-286"><path d="M 440.9 0.4 L 478.8 0.4 L 478.8 28.4 L 440.9 28.4 Z M 440.9 0.4 "></path></clipPath><g clip-path="url(#clip-286)"><text xml:space="preserve" font-family="TrebuchetMS" font-size="22.2" fill="#FFFFFF" transform="matrix(1.00, 0.00, -0.00, -1.00, 442.0, 6.0)">9</text><text xml:space="preserve" font-family="TrebuchetMS" font-size="22.2" fill="#FFFFFF" transform="matrix(1.00, 0.00, -0.00, -1.00, 453.7, 6.0)">0</text><text xml:space="preserve" font-family="TrebuchetMS" font-size="22.2" fill="#FFFFFF" transform="matrix(1.00, 0.00, -0.00, -1.00, 465.3, 6.0)">0</text></g></g><g><clipPath id="clip-287"><path d="M 572.4 0.4 L 622.1 0.4 L 622.1 28.4 L 572.4 28.4 Z M 572.4 0.4 "></path></clipPath><g clip-path="url(#clip-287)"><text xml:space="preserve" font-family="TrebuchetMS" font-size="22.2" fill="#FFFFFF" transform="matrix(1.00, 0.00, -0.00, -1.00, 574.0, 6.0)">1</text><text xml:space="preserve" font-family="TrebuchetMS" font-size="22.2" fill="#FFFFFF" transform="matrix(1.00, 0.00, -0.00, -1.00, 585.7, 6.0)">2</text><text xml:space="preserve" font-family="TrebuchetMS" font-size="22.2" fill="#FFFFFF" transform="matrix(1.00, 0.00, -0.00, -1.00, 597.3, 6.0)">0</text><text xml:space="preserve" font-family="TrebuchetMS" font-size="22.2" fill="#FFFFFF" transform="matrix(1.00, 0.00, -0.00, -1.00, 609.0, 6.0)">0</text></g></g><g><clipPath id="clip-288"><path d="M 47.6 38.3 L 597.2 38.3 L 597.2 370.8 L 47.6 370.8 Z M 47.6 38.3 "></path></clipPath><g clip-path="url(#clip-288)"><path d="M 48.0 367.0 L 254.0 367.0 L 254.0 307.0 L 48.0 307.0 Z M 48.0 367.0 " fill="#38C1D7"></path></g></g><g><clipPath id="clip-289"><path d="M 47.6 38.3 L 597.2 38.3 L 597.2 370.8 L 47.6 370.8 Z M 47.6 38.3 "></path></clipPath><g clip-path="url(#clip-289)"><path d="M 48.0 301.0 L 332.0 301.0 L 332.0 241.0 L 48.0 241.0 Z M 48.0 301.0 " fill="#38C1D7"></path></g></g><g><clipPath id="clip-290"><path d="M 47.6 38.3 L 597.2 38.3 L 597.2 370.8 L 47.6 370.8 Z M 47.6 38.3 "></path></clipPath><g clip-path="url(#clip-290)"><path d="M 48.0 235.0 L 405.0 235.0 L 405.0 175.0 L 48.0 175.0 Z M 48.0 235.0 " fill="#38C1D7"></path></g></g><g><clipPath id="clip-291"><path d="M 47.6 38.3 L 597.2 38.3 L 597.2 370.8 L 47.6 370.8 Z M 47.6 38.3 "></path></clipPath><g clip-path="url(#clip-291)"><path d="M 48.0 168.0 L 474.0 168.0 L 474.0 108.0 L 48.0 108.0 Z M 48.0 168.0 " fill="#38C1D7"></path></g></g><g><clipPath id="clip-292"><path d="M 47.6 38.3 L 597.2 38.3 L 597.2 370.8 L 47.6 370.8 Z M 47.6 38.3 "></path></clipPath><g clip-path="url(#clip-292)"><path d="M 48.0 102.0 L 542.0 102.0 L 542.0 42.0 L 48.0 42.0 Z M 48.0 102.0 " fill="#38C1D7"></path></g></g><g><g><clipPath id="clip-293"><path d="M 508.0 63.0 L 541.0 63.0 L 541.0 81.0 L 508.0 81.0 Z M 508.0 63.0 "></path></clipPath><g clip-path="url(#clip-293)"><text xml:space="preserve" font-family="TrebuchetMS" font-size="14.8" fill="#FFFFFF" transform="matrix(1.00, 0.00, -0.00, -1.00, 509.0, 67.0)">1</text><text xml:space="preserve" font-family="TrebuchetMS" font-size="14.8" fill="#FFFFFF" transform="matrix(1.00, 0.00, -0.00, -1.00, 516.8, 67.0)">0</text><text xml:space="preserve" font-family="TrebuchetMS" font-size="14.8" fill="#FFFFFF" transform="matrix(1.00, 0.00, -0.00, -1.00, 524.6, 67.0)">8</text><text xml:space="preserve" font-family="TrebuchetMS" font-size="14.8" fill="#FFFFFF" transform="matrix(1.00, 0.00, -0.00, -1.00, 532.3, 67.0)">0</text></g></g></g><g><g><clipPath id="clip-294"><path d="M 447.0 129.0 L 472.0 129.0 L 472.0 147.0 L 447.0 147.0 Z M 447.0 129.0 "></path></clipPath><g clip-path="url(#clip-294)"><text xml:space="preserve" font-family="TrebuchetMS" font-size="14.8" fill="#FFFFFF" transform="matrix(1.00, 0.00, -0.00, -1.00, 448.0, 133.0)">9</text><text xml:space="preserve" font-family="TrebuchetMS" font-size="14.8" fill="#FFFFFF" transform="matrix(1.00, 0.00, -0.00, -1.00, 455.8, 133.0)">3</text><text xml:space="preserve" font-family="TrebuchetMS" font-size="14.8" fill="#FFFFFF" transform="matrix(1.00, 0.00, -0.00, -1.00, 463.6, 133.0)">0</text></g></g></g><g><g><clipPath id="clip-295"><path d="M 378.0 196.0 L 403.0 196.0 L 403.0 214.0 L 378.0 214.0 Z M 378.0 196.0 "></path></clipPath><g clip-path="url(#clip-295)"><text xml:space="preserve" font-family="TrebuchetMS" font-size="14.8" fill="#FFFFFF" transform="matrix(1.00, 0.00, -0.00, -1.00, 379.0, 199.0)">7</text><text xml:space="preserve" font-family="TrebuchetMS" font-size="14.8" fill="#FFFFFF" transform="matrix(1.00, 0.00, -0.00, -1.00, 386.8, 199.0)">8</text><text xml:space="preserve" font-family="TrebuchetMS" font-size="14.8" fill="#FFFFFF" transform="matrix(1.00, 0.00, -0.00, -1.00, 394.6, 199.0)">0</text></g></g></g><g><g><clipPath id="clip-296"><path d="M 305.0 262.0 L 330.0 262.0 L 330.0 280.0 L 305.0 280.0 Z M 305.0 262.0 "></path></clipPath><g clip-path="url(#clip-296)"><text xml:space="preserve" font-family="TrebuchetMS" font-size="14.8" fill="#FFFFFF" transform="matrix(1.00, 0.00, -0.00, -1.00, 306.0, 265.0)">6</text><text xml:space="preserve" font-family="TrebuchetMS" font-size="14.8" fill="#FFFFFF" transform="matrix(1.00, 0.00, -0.00, -1.00, 313.8, 265.0)">2</text><text xml:space="preserve" font-family="TrebuchetMS" font-size="14.8" fill="#FFFFFF" transform="matrix(1.00, 0.00, -0.00, -1.00, 321.6, 265.0)">0</text></g></g></g><g><g><clipPath id="clip-297"><path d="M 227.0 328.0 L 252.0 328.0 L 252.0 346.0 L 227.0 346.0 Z M 227.0 328.0 "></path></clipPath><g clip-path="url(#clip-297)"><text xml:space="preserve" font-family="TrebuchetMS" font-size="14.8" fill="#FFFFFF" transform="matrix(1.00, 0.00, -0.00, -1.00, 228.0, 332.0)">4</text><text xml:space="preserve" font-family="TrebuchetMS" font-size="14.8" fill="#FFFFFF" transform="matrix(1.00, 0.00, -0.00, -1.00, 235.8, 332.0)">5</text><text xml:space="preserve" font-family="TrebuchetMS" font-size="14.8" fill="#FFFFFF" transform="matrix(1.00, 0.00, -0.00, -1.00, 243.6, 332.0)">0</text></g></g></g></g></svg>