<?xml version="1.0" encoding="UTF-8" standalone="no"?><svg xmlns="http://www.w3.org/2000/svg" xmlns:xlink="http://www.w3.org/1999/xlink" clip-rule="evenodd" stroke-miterlimit="4.00" viewBox="0 0 728 87"><desc>SVG generated by Keynote</desc><defs></defs><g transform="matrix(1.00, 0.00, -0.00, -1.00, 0.0, 87.0)"><image xlink:href="../../E3CCD7FC-4CC6-4379-8F12-393AEC6D6D66/assets/D8EAC996D507BFBCE2171B60B53A42D7.png" width="726.00" height="79.00" transform="matrix(1.00, 0.00, -0.00, -1.01, 1.0, 81.0)" opacity="0.30"></image><path d="M 4.0 80.0 L 724.0 80.0 L 724.0 6.6 L 4.0 6.6 Z M 4.0 80.0 " fill="#FFFFFF"></path><g><clipPath id="clip-298"><path d="M -1.6 6.6 L 729.6 6.6 L 729.6 80.0 L -1.6 80.0 Z M -1.6 6.6 "></path></clipPath><g clip-path="url(#clip-298)"><text xml:space="preserve" font-family="Arial-Black" font-weight="bold" font-size="26.0" fill="#454447" transform="matrix(1.00, 0.00, -0.00, -1.00, 8.0, 33.0)">G</text><text xml:space="preserve" font-family="Arial-Black" font-weight="bold" font-size="26.0" fill="#454447" transform="matrix(1.00, 0.00, -0.00, -1.00, 29.7, 33.0)">L</text><text xml:space="preserve" font-family="Arial-Black" font-weight="bold" font-size="26.0" fill="#454447" transform="matrix(1.00, 0.00, -0.00, -1.00, 46.6, 33.0)">O</text><text xml:space="preserve" font-family="Arial-Black" font-weight="bold" font-size="26.0" fill="#454447" transform="matrix(1.00, 0.00, -0.00, -1.00, 68.2, 33.0)">B</text><text xml:space="preserve" font-family="Arial-Black" font-weight="bold" font-size="26.0" fill="#454447" transform="matrix(1.00, 0.00, -0.00, -1.00, 88.0, 33.0)">A</text><text xml:space="preserve" font-family="Arial-Black" font-weight="bold" font-size="26.0" fill="#454447" transform="matrix(1.00, 0.00, -0.00, -1.00, 108.2, 33.0)">L</text><text xml:space="preserve" font-family="Arial-Black" font-weight="bold" font-size="26.0" fill="#454447" transform="matrix(1.00, 0.00, -0.00, -1.00, 125.5, 33.0)"> </text><text xml:space="preserve" font-family="Arial-Black" font-weight="bold" font-size="26.0" fill="#454447" transform="matrix(1.00, 0.00, -0.00, -1.00, 134.2, 33.0)">M</text><text xml:space="preserve" font-family="Arial-Black" font-weight="bold" font-size="26.0" fill="#454447" transform="matrix(1.00, 0.00, -0.00, -1.00, 158.8, 33.0)">O</text><text xml:space="preserve" font-family="Arial-Black" font-weight="bold" font-size="26.0" fill="#454447" transform="matrix(1.00, 0.00, -0.00, -1.00, 180.4, 33.0)">B</text><text xml:space="preserve" font-family="Arial-Black" font-weight="bold" font-size="26.0" fill="#454447" transform="matrix(1.00, 0.00, -0.00, -1.00, 200.6, 33.0)">I</text><text xml:space="preserve" font-family="Arial-Black" font-weight="bold" font-size="26.0" fill="#454447" transform="matrix(1.00, 0.00, -0.00, -1.00, 210.8, 33.0)">L</text><text xml:space="preserve" font-family="Arial-Black" font-weight="bold" font-size="26.0" fill="#454447" transform="matrix(1.00, 0.00, -0.00, -1.00, 228.1, 33.0)">E</text><text xml:space="preserve" font-family="Arial-Black" font-weight="bold" font-size="26.0" fill="#454447" transform="matrix(1.00, 0.00, -0.00, -1.00, 246.9, 33.0)"> </text><text xml:space="preserve" font-family="Arial-Black" font-weight="bold" font-size="26.0" fill="#454447" transform="matrix(1.00, 0.00, -0.00, -1.00, 255.6, 33.0)">P</text><text xml:space="preserve" font-family="Arial-Black" font-weight="bold" font-size="26.0" fill="#454447" transform="matrix(1.00, 0.00, -0.00, -1.00, 272.1, 33.0)">A</text><text xml:space="preserve" font-family="Arial-Black" font-weight="bold" font-size="26.0" fill="#454447" transform="matrix(1.00, 0.00, -0.00, -1.00, 290.2, 33.0)">Y</text><text xml:space="preserve" font-family="Arial-Black" font-weight="bold" font-size="26.0" fill="#454447" transform="matrix(1.00, 0.00, -0.00, -1.00, 310.4, 33.0)">M</text><text xml:space="preserve" font-family="Arial-Black" font-weight="bold" font-size="26.0" fill="#454447" transform="matrix(1.00, 0.00, -0.00, -1.00, 334.9, 33.0)">E</text><text xml:space="preserve" font-family="Arial-Black" font-weight="bold" font-size="26.0" fill="#454447" transform="matrix(1.00, 0.00, -0.00, -1.00, 353.7, 33.0)">N</text><text xml:space="preserve" font-family="Arial-Black" font-weight="bold" font-size="26.0" fill="#454447" transform="matrix(1.00, 0.00, -0.00, -1.00, 375.3, 33.0)">T</text><text xml:space="preserve" font-family="Arial-Black" font-weight="bold" font-size="26.0" fill="#454447" transform="matrix(1.00, 0.00, -0.00, -1.00, 394.1, 33.0)"> </text><text xml:space="preserve" font-family="Arial-Black" font-weight="bold" font-size="26.0" fill="#454447" transform="matrix(1.00, 0.00, -0.00, -1.00, 402.8, 33.0)">T</text><text xml:space="preserve" font-family="Arial-Black" font-weight="bold" font-size="26.0" fill="#454447" transform="matrix(1.00, 0.00, -0.00, -1.00, 421.6, 33.0)">R</text><text xml:space="preserve" font-family="Arial-Black" font-weight="bold" font-size="26.0" fill="#454447" transform="matrix(1.00, 0.00, -0.00, -1.00, 441.8, 33.0)">A</text><text xml:space="preserve" font-family="Arial-Black" font-weight="bold" font-size="26.0" fill="#454447" transform="matrix(1.00, 0.00, -0.00, -1.00, 462.0, 33.0)">N</text><text xml:space="preserve" font-family="Arial-Black" font-weight="bold" font-size="26.0" fill="#454447" transform="matrix(1.00, 0.00, -0.00, -1.00, 483.7, 33.0)">S</text><text xml:space="preserve" font-family="Arial-Black" font-weight="bold" font-size="26.0" fill="#454447" transform="matrix(1.00, 0.00, -0.00, -1.00, 502.5, 33.0)">A</text><text xml:space="preserve" font-family="Arial-Black" font-weight="bold" font-size="26.0" fill="#454447" transform="matrix(1.00, 0.00, -0.00, -1.00, 522.2, 33.0)">C</text><text xml:space="preserve" font-family="Arial-Black" font-weight="bold" font-size="26.0" fill="#454447" transform="matrix(1.00, 0.00, -0.00, -1.00, 542.4, 33.0)">T</text><text xml:space="preserve" font-family="Arial-Black" font-weight="bold" font-size="26.0" fill="#454447" transform="matrix(1.00, 0.00, -0.00, -1.00, 561.2, 33.0)">I</text><text xml:space="preserve" font-family="Arial-Black" font-weight="bold" font-size="26.0" fill="#454447" transform="matrix(1.00, 0.00, -0.00, -1.00, 571.3, 33.0)">O</text><text xml:space="preserve" font-family="Arial-Black" font-weight="bold" font-size="26.0" fill="#454447" transform="matrix(1.00, 0.00, -0.00, -1.00, 593.0, 33.0)">N</text><text xml:space="preserve" font-family="Arial-Black" font-weight="bold" font-size="26.0" fill="#454447" transform="matrix(1.00, 0.00, -0.00, -1.00, 614.7, 33.0)">S</text></g></g></g></svg>