<?xml version="1.0" encoding="UTF-8" standalone="no"?><svg xmlns="http://www.w3.org/2000/svg" xmlns:xlink="http://www.w3.org/1999/xlink" clip-rule="evenodd" stroke-miterlimit="4.00" viewBox="0 0 475 113"><desc>SVG generated by Keynote</desc><defs></defs><g transform="matrix(1.00, 0.00, -0.00, -1.00, 0.0, 113.0)"><path d="M 1.9 111.7 L 473.5 111.7 L 473.5 1.7 L 1.9 1.7 Z M 1.9 111.7 " fill="#38C1D7"></path><g><clipPath id="clip-112"><path d="M -8.1 -5.7 L 483.4 -5.7 L 483.4 121.6 L -8.1 121.6 Z M -8.1 -5.7 "></path></clipPath><g clip-path="url(#clip-112)"><text xml:space="preserve" font-family="Arial-Black" font-weight="bold" font-size="36.0" fill="#FFFFFF" transform="matrix(1.00, 0.00, -0.00, -1.00, 5.0, 69.0)">T</text><text xml:space="preserve" font-family="Arial-Black" font-weight="bold" font-size="36.0" fill="#FFFFFF" transform="matrix(1.00, 0.00, -0.00, -1.00, 29.8, 69.0)">O</text><text xml:space="preserve" font-family="Arial-Black" font-weight="bold" font-size="36.0" fill="#FFFFFF" transform="matrix(1.00, 0.00, -0.00, -1.00, 59.8, 69.0)">O</text><text xml:space="preserve" font-family="Arial-Black" font-weight="bold" font-size="36.0" fill="#FFFFFF" transform="matrix(1.00, 0.00, -0.00, -1.00, 89.8, 69.0)">L</text><text xml:space="preserve" font-family="Arial-Black" font-weight="bold" font-size="36.0" fill="#FFFFFF" transform="matrix(1.00, 0.00, -0.00, -1.00, 113.8, 69.0)">S</text><text xml:space="preserve" font-family="Arial-Black" font-weight="bold" font-size="36.0" fill="#FFFFFF" transform="matrix(1.00, 0.00, -0.00, -1.00, 139.8, 69.0)"> </text><text xml:space="preserve" font-family="Arial-Black" font-weight="bold" font-size="36.0" fill="#FFFFFF" transform="matrix(1.00, 0.00, -0.00, -1.00, 151.8, 69.0)">T</text><text xml:space="preserve" font-family="Arial-Black" font-weight="bold" font-size="36.0" fill="#FFFFFF" transform="matrix(1.00, 0.00, -0.00, -1.00, 177.8, 69.0)">H</text><text xml:space="preserve" font-family="Arial-Black" font-weight="bold" font-size="36.0" fill="#FFFFFF" transform="matrix(1.00, 0.00, -0.00, -1.00, 207.8, 69.0)">A</text><text xml:space="preserve" font-family="Arial-Black" font-weight="bold" font-size="36.0" fill="#FFFFFF" transform="matrix(1.00, 0.00, -0.00, -1.00, 233.3, 69.0)">T</text><text xml:space="preserve" font-family="Arial-Black" font-weight="bold" font-size="36.0" fill="#FFFFFF" transform="matrix(1.00, 0.00, -0.00, -1.00, 259.3, 69.0)"> </text><text xml:space="preserve" font-family="Arial-Black" font-weight="bold" font-size="36.0" fill="#FFFFFF" transform="matrix(1.00, 0.00, -0.00, -1.00, 271.3, 69.0)">E</text><text xml:space="preserve" font-family="Arial-Black" font-weight="bold" font-size="36.0" fill="#FFFFFF" transform="matrix(1.00, 0.00, -0.00, -1.00, 297.3, 69.0)">N</text><text xml:space="preserve" font-family="Arial-Black" font-weight="bold" font-size="36.0" fill="#FFFFFF" transform="matrix(1.00, 0.00, -0.00, -1.00, 327.0, 69.0)">A</text><text xml:space="preserve" font-family="Arial-Black" font-weight="bold" font-size="36.0" fill="#FFFFFF" transform="matrix(1.00, 0.00, -0.00, -1.00, 355.0, 69.0)">B</text><text xml:space="preserve" font-family="Arial-Black" font-weight="bold" font-size="36.0" fill="#FFFFFF" transform="matrix(1.00, 0.00, -0.00, -1.00, 383.0, 69.0)">L</text><text xml:space="preserve" font-family="Arial-Black" font-weight="bold" font-size="36.0" fill="#FFFFFF" transform="matrix(1.00, 0.00, -0.00, -1.00, 407.0, 69.0)">E</text><text xml:space="preserve" font-family="Arial-Black" font-weight="bold" font-size="36.0" fill="#FFFFFF" transform="matrix(1.00, 0.00, -0.00, -1.00, 433.0, 69.0)">D</text><text xml:space="preserve" font-family="Arial-Black" font-weight="bold" font-size="36.0" fill="#FFFFFF" transform="matrix(1.00, 0.00, -0.00, -1.00, 461.0, 69.0)"> </text><text xml:space="preserve" font-family="Arial-Black" font-weight="bold" font-size="36.0" fill="#FFFFFF" transform="matrix(1.00, 0.00, -0.00, -1.00, 5.0, 18.0)">A</text><text xml:space="preserve" font-family="Arial-Black" font-weight="bold" font-size="36.0" fill="#FFFFFF" transform="matrix(1.00, 0.00, -0.00, -1.00, 32.3, 18.0)">C</text><text xml:space="preserve" font-family="Arial-Black" font-weight="bold" font-size="36.0" fill="#FFFFFF" transform="matrix(1.00, 0.00, -0.00, -1.00, 60.3, 18.0)">T</text><text xml:space="preserve" font-family="Arial-Black" font-weight="bold" font-size="36.0" fill="#FFFFFF" transform="matrix(1.00, 0.00, -0.00, -1.00, 86.3, 18.0)">I</text><text xml:space="preserve" font-family="Arial-Black" font-weight="bold" font-size="36.0" fill="#FFFFFF" transform="matrix(1.00, 0.00, -0.00, -1.00, 100.4, 18.0)">O</text><text xml:space="preserve" font-family="Arial-Black" font-weight="bold" font-size="36.0" fill="#FFFFFF" transform="matrix(1.00, 0.00, -0.00, -1.00, 130.4, 18.0)">N</text><text xml:space="preserve" font-family="Arial-Black" font-weight="bold" font-size="36.0" fill="#FFFFFF" transform="matrix(1.00, 0.00, -0.00, -1.00, 160.3, 18.0)"> </text><text xml:space="preserve" font-family="Arial-Black" font-weight="bold" font-size="36.0" fill="#FFFFFF" transform="matrix(1.00, 0.00, -0.00, -1.00, 172.4, 18.0)">I</text><text xml:space="preserve" font-family="Arial-Black" font-weight="bold" font-size="36.0" fill="#FFFFFF" transform="matrix(1.00, 0.00, -0.00, -1.00, 186.4, 18.0)">N</text><text xml:space="preserve" font-family="Arial-Black" font-weight="bold" font-size="36.0" fill="#FFFFFF" transform="matrix(1.00, 0.00, -0.00, -1.00, 216.4, 18.0)"> </text><text xml:space="preserve" font-family="Arial-Black" font-weight="bold" font-size="36.0" fill="#FFFFFF" transform="matrix(1.00, 0.00, -0.00, -1.00, 228.4, 18.0)">A</text><text xml:space="preserve" font-family="Arial-Black" font-weight="bold" font-size="36.0" fill="#FFFFFF" transform="matrix(1.00, 0.00, -0.00, -1.00, 256.4, 18.0)"> </text><text xml:space="preserve" font-family="Arial-Black" font-weight="bold" font-size="36.0" fill="#FFFFFF" transform="matrix(1.00, 0.00, -0.00, -1.00, 268.4, 18.0)">N</text><text xml:space="preserve" font-family="Arial-Black" font-weight="bold" font-size="36.0" fill="#FFFFFF" transform="matrix(1.00, 0.00, -0.00, -1.00, 298.4, 18.0)">E</text><text xml:space="preserve" font-family="Arial-Black" font-weight="bold" font-size="36.0" fill="#FFFFFF" transform="matrix(1.00, 0.00, -0.00, -1.00, 324.4, 18.0)">W</text><text xml:space="preserve" font-family="Arial-Black" font-weight="bold" font-size="36.0" fill="#FFFFFF" transform="matrix(1.00, 0.00, -0.00, -1.00, 360.4, 18.0)"> </text><text xml:space="preserve" font-family="Arial-Black" font-weight="bold" font-size="36.0" fill="#FFFFFF" transform="matrix(1.00, 0.00, -0.00, -1.00, 372.4, 18.0)">W</text><text xml:space="preserve" font-family="Arial-Black" font-weight="bold" font-size="36.0" fill="#FFFFFF" transform="matrix(1.00, 0.00, -0.00, -1.00, 408.4, 18.0)">A</text><text xml:space="preserve" font-family="Arial-Black" font-weight="bold" font-size="36.0" fill="#FFFFFF" transform="matrix(1.00, 0.00, -0.00, -1.00, 433.4, 18.0)">Y</text></g></g></g></svg>