<?xml version="1.0" encoding="UTF-8" standalone="no"?><svg xmlns="http://www.w3.org/2000/svg" xmlns:xlink="http://www.w3.org/1999/xlink" clip-rule="evenodd" stroke-miterlimit="4.00" viewBox="0 0 563 23"><desc>SVG generated by Keynote</desc><defs></defs><g transform="matrix(1.00, 0.00, -0.00, -1.00, 0.0, 23.0)"><text xml:space="preserve" font-family="Arial-Black" font-weight="bold" font-size="26.0" fill="#6AD1E0" transform="matrix(1.00, 0.00, -0.00, -1.00, 0.0, 2.0)">I</text><text xml:space="preserve" font-family="Arial-Black" font-weight="bold" font-size="26.0" fill="#6AD1E0" transform="matrix(1.00, 0.00, -0.00, -1.00, 10.1, 2.0)"> </text><text xml:space="preserve" font-family="Arial-Black" font-weight="bold" font-size="26.0" fill="#6AD1E0" transform="matrix(1.00, 0.00, -0.00, -1.00, 18.8, 2.0)">W</text><text xml:space="preserve" font-family="Arial-Black" font-weight="bold" font-size="26.0" fill="#6AD1E0" transform="matrix(1.00, 0.00, -0.00, -1.00, 44.8, 2.0)">A</text><text xml:space="preserve" font-family="Arial-Black" font-weight="bold" font-size="26.0" fill="#6AD1E0" transform="matrix(1.00, 0.00, -0.00, -1.00, 65.0, 2.0)">N</text><text xml:space="preserve" font-family="Arial-Black" font-weight="bold" font-size="26.0" fill="#6AD1E0" transform="matrix(1.00, 0.00, -0.00, -1.00, 86.7, 2.0)">T</text><text xml:space="preserve" font-family="Arial-Black" font-weight="bold" font-size="26.0" fill="#6AD1E0" transform="matrix(1.00, 0.00, -0.00, -1.00, 105.5, 2.0)"> </text><text xml:space="preserve" font-family="Arial-Black" font-weight="bold" font-size="26.0" fill="#6AD1E0" transform="matrix(1.00, 0.00, -0.00, -1.00, 114.1, 2.0)">W</text><text xml:space="preserve" font-family="Arial-Black" font-weight="bold" font-size="26.0" fill="#6AD1E0" transform="matrix(1.00, 0.00, -0.00, -1.00, 140.1, 2.0)">H</text><text xml:space="preserve" font-family="Arial-Black" font-weight="bold" font-size="26.0" fill="#6AD1E0" transform="matrix(1.00, 0.00, -0.00, -1.00, 161.8, 2.0)">A</text><text xml:space="preserve" font-family="Arial-Black" font-weight="bold" font-size="26.0" fill="#6AD1E0" transform="matrix(1.00, 0.00, -0.00, -1.00, 180.2, 2.0)">T</text><text xml:space="preserve" font-family="Arial-Black" font-weight="bold" font-size="26.0" fill="#6AD1E0" transform="matrix(1.00, 0.00, -0.00, -1.00, 199.0, 2.0)"> </text><text xml:space="preserve" font-family="Arial-Black" font-weight="bold" font-size="26.0" fill="#6AD1E0" transform="matrix(1.00, 0.00, -0.00, -1.00, 207.7, 2.0)">I</text><text xml:space="preserve" font-family="Arial-Black" font-weight="bold" font-size="26.0" fill="#6AD1E0" transform="matrix(1.00, 0.00, -0.00, -1.00, 217.8, 2.0)"> </text><text xml:space="preserve" font-family="Arial-Black" font-weight="bold" font-size="26.0" fill="#6AD1E0" transform="matrix(1.00, 0.00, -0.00, -1.00, 226.5, 2.0)">W</text><text xml:space="preserve" font-family="Arial-Black" font-weight="bold" font-size="26.0" fill="#6AD1E0" transform="matrix(1.00, 0.00, -0.00, -1.00, 252.5, 2.0)">A</text><text xml:space="preserve" font-family="Arial-Black" font-weight="bold" font-size="26.0" fill="#6AD1E0" transform="matrix(1.00, 0.00, -0.00, -1.00, 272.7, 2.0)">N</text><text xml:space="preserve" font-family="Arial-Black" font-weight="bold" font-size="26.0" fill="#6AD1E0" transform="matrix(1.00, 0.00, -0.00, -1.00, 294.4, 2.0)">T</text><text xml:space="preserve" font-family="Arial-Black" font-weight="bold" font-size="26.0" fill="#6AD1E0" transform="matrix(1.00, 0.00, -0.00, -1.00, 313.2, 2.0)"> </text><text xml:space="preserve" font-family="Arial-Black" font-weight="bold" font-size="26.0" fill="#6AD1E0" transform="matrix(1.00, 0.00, -0.00, -1.00, 321.9, 2.0)">W</text><text xml:space="preserve" font-family="Arial-Black" font-weight="bold" font-size="26.0" fill="#6AD1E0" transform="matrix(1.00, 0.00, -0.00, -1.00, 347.9, 2.0)">H</text><text xml:space="preserve" font-family="Arial-Black" font-weight="bold" font-size="26.0" fill="#6AD1E0" transform="matrix(1.00, 0.00, -0.00, -1.00, 369.5, 2.0)">E</text><text xml:space="preserve" font-family="Arial-Black" font-weight="bold" font-size="26.0" fill="#6AD1E0" transform="matrix(1.00, 0.00, -0.00, -1.00, 388.3, 2.0)">N</text><text xml:space="preserve" font-family="Arial-Black" font-weight="bold" font-size="26.0" fill="#6AD1E0" transform="matrix(1.00, 0.00, -0.00, -1.00, 410.0, 2.0)"> </text><text xml:space="preserve" font-family="Arial-Black" font-weight="bold" font-size="26.0" fill="#6AD1E0" transform="matrix(1.00, 0.00, -0.00, -1.00, 418.6, 2.0)">I</text><text xml:space="preserve" font-family="Arial-Black" font-weight="bold" font-size="26.0" fill="#6AD1E0" transform="matrix(1.00, 0.00, -0.00, -1.00, 428.8, 2.0)"> </text><text xml:space="preserve" font-family="Arial-Black" font-weight="bold" font-size="26.0" fill="#6AD1E0" transform="matrix(1.00, 0.00, -0.00, -1.00, 437.4, 2.0)">W</text><text xml:space="preserve" font-family="Arial-Black" font-weight="bold" font-size="26.0" fill="#6AD1E0" transform="matrix(1.00, 0.00, -0.00, -1.00, 463.4, 2.0)">A</text><text xml:space="preserve" font-family="Arial-Black" font-weight="bold" font-size="26.0" fill="#6AD1E0" transform="matrix(1.00, 0.00, -0.00, -1.00, 483.7, 2.0)">N</text><text xml:space="preserve" font-family="Arial-Black" font-weight="bold" font-size="26.0" fill="#6AD1E0" transform="matrix(1.00, 0.00, -0.00, -1.00, 505.3, 2.0)">T</text><text xml:space="preserve" font-family="Arial-Black" font-weight="bold" font-size="26.0" fill="#6AD1E0" transform="matrix(1.00, 0.00, -0.00, -1.00, 524.1, 2.0)"> </text><text xml:space="preserve" font-family="Arial-Black" font-weight="bold" font-size="26.0" fill="#6AD1E0" transform="matrix(1.00, 0.00, -0.00, -1.00, 532.8, 2.0)">I</text><text xml:space="preserve" font-family="Arial-Black" font-weight="bold" font-size="26.0" fill="#6AD1E0" transform="matrix(1.00, 0.00, -0.00, -1.00, 542.9, 2.0)">T</text></g></svg>