<?xml version="1.0" encoding="UTF-8" standalone="no"?><svg xmlns="http://www.w3.org/2000/svg" xmlns:xlink="http://www.w3.org/1999/xlink" clip-rule="evenodd" stroke-miterlimit="4.00" viewBox="0 0 720 540"><desc>SVG generated by Keynote</desc><defs></defs><g transform="matrix(1.00, 0.00, -0.00, -1.00, 0.0, 540.0)"><path d="M 0.0 540.0 L 720.0 540.0 L 720.0 0.0 L 0.0 0.0 Z M 0.0 540.0 " fill="#FFFFFF"></path><path d="M 0.0 28.1 L 720.0 28.1 L 720.0 -0.7 L 0.0 -0.7 Z M 0.0 28.1 " fill="#454447"></path><text xml:space="preserve" font-family="TrebuchetMS" font-size="8.0" fill="#CCCCCC" transform="matrix(1.00, 0.00, -0.00, -1.00, 96.0, 11.0)">C</text><text xml:space="preserve" font-family="TrebuchetMS" font-size="8.0" fill="#CCCCCC" transform="matrix(1.00, 0.00, -0.00, -1.00, 101.0, 11.0)">O</text><text xml:space="preserve" font-family="TrebuchetMS" font-size="8.0" fill="#CCCCCC" transform="matrix(1.00, 0.00, -0.00, -1.00, 106.6, 11.0)">N</text><text xml:space="preserve" font-family="TrebuchetMS" font-size="8.0" fill="#CCCCCC" transform="matrix(1.00, 0.00, -0.00, -1.00, 111.9, 11.0)">F</text><text xml:space="preserve" font-family="TrebuchetMS" font-size="8.0" fill="#CCCCCC" transform="matrix(1.00, 0.00, -0.00, -1.00, 116.3, 11.0)">I</text><text xml:space="preserve" font-family="TrebuchetMS" font-size="8.0" fill="#CCCCCC" transform="matrix(1.00, 0.00, -0.00, -1.00, 118.7, 11.0)">D</text><text xml:space="preserve" font-family="TrebuchetMS" font-size="8.0" fill="#CCCCCC" transform="matrix(1.00, 0.00, -0.00, -1.00, 123.8, 11.0)">E</text><text xml:space="preserve" font-family="TrebuchetMS" font-size="8.0" fill="#CCCCCC" transform="matrix(1.00, 0.00, -0.00, -1.00, 128.3, 11.0)">N</text><text xml:space="preserve" font-family="TrebuchetMS" font-size="8.0" fill="#CCCCCC" transform="matrix(1.00, 0.00, -0.00, -1.00, 133.6, 11.0)">T</text><text xml:space="preserve" font-family="TrebuchetMS" font-size="8.0" fill="#CCCCCC" transform="matrix(1.00, 0.00, -0.00, -1.00, 138.4, 11.0)">I</text><text xml:space="preserve" font-family="TrebuchetMS" font-size="8.0" fill="#CCCCCC" transform="matrix(1.00, 0.00, -0.00, -1.00, 140.9, 11.0)">A</text><text xml:space="preserve" font-family="TrebuchetMS" font-size="8.0" fill="#CCCCCC" transform="matrix(1.00, 0.00, -0.00, -1.00, 145.8, 11.0)">L</text><path d="M 0.0 0.0 L 13.0 0.0 " fill="none" stroke="#CCCCCC" stroke-width="0.25" stroke-linejoin="round" transform="matrix(0.00, -1.00, -1.00, 0.00, 87.0, 20.2)"></path><image xlink:href="../../99926EC3-3614-4C70-A445-D3AA65276E24/assets/FCA234F62485E16A639918F8658267AA.png" width="38.00" height="13.00" transform="matrix(0.97, 0.00, -0.00, -1.00, 37.0, 19.0)"></image><path d="M 0.0 40.0 L 720.0 40.0 L 720.0 0.0 L 0.0 0.0 Z M 0.0 40.0 " fill="#FFFFFF"></path><text xml:space="preserve" font-family="TrebuchetMS" font-size="10.0" fill="#CCCCCC" transform="matrix(1.00, 0.00, -0.00, -1.00, 676.8, 11.0)">2</text><text xml:space="preserve" font-family="TrebuchetMS" font-size="10.0" fill="#CCCCCC" transform="matrix(1.00, 0.00, -0.00, -1.00, 682.1, 11.0)">7</text><g><clipPath id="clip-202"><path d="M -1.0 551.0 L 721.0 551.0 L 721.0 -11.0 L -1.0 -11.0 Z M -0.8 550.8 "></path></clipPath><g clip-path="url(#clip-202)"><image xlink:href="FE964696447AB78A80B77C4E9AD9EA46.jpeg" width="732.00" height="561.00" transform="matrix(1.00, 0.00, -0.00, -1.00, -6.0, 551.0)"></image></g></g><g><clipPath id="clip-203"><path d="M 49.0 500.0 L 147.0 500.0 L 147.0 464.0 L 49.0 464.0 Z M 49.4 500.2 "></path></clipPath><g clip-path="url(#clip-203)"><image xlink:href="../../99926EC3-3614-4C70-A445-D3AA65276E24/assets/A1F0E628E27F8A21FD07BA687C6249E0.png" width="98.00" height="38.00" transform="matrix(1.00, 0.00, -0.00, -1.03, 49.0, 502.0)"></image></g></g></g></svg>