<?xml version="1.0" encoding="UTF-8" standalone="no"?><svg xmlns="http://www.w3.org/2000/svg" xmlns:xlink="http://www.w3.org/1999/xlink" clip-rule="evenodd" stroke-miterlimit="4.00" viewBox="0 0 626 146"><desc>SVG generated by Keynote</desc><defs></defs><g transform="matrix(1.00, 0.00, -0.00, -1.00, 0.0, 146.0)"><path d="M 1.8 144.6 L 624.2 144.6 L 624.2 1.4 L 1.8 1.4 Z M 1.8 144.6 " fill="#2EC1D9"></path><g><clipPath id="clip-199"><path d="M -29.2 -22.7 L 655.2 -22.7 L 655.2 175.6 L -29.2 175.6 Z M -29.2 -22.7 "></path></clipPath><g clip-path="url(#clip-199)"><text xml:space="preserve" font-family="Arial-Black" font-weight="bold" font-size="94.0" fill="#FFFFFF" transform="matrix(1.00, 0.00, -0.00, -1.00, 4.0, 40.0)">I</text><text xml:space="preserve" font-family="Arial-Black" font-weight="bold" font-size="94.0" fill="#FFFFFF" transform="matrix(1.00, 0.00, -0.00, -1.00, 40.6, 40.0)">W</text><text xml:space="preserve" font-family="Arial-Black" font-weight="bold" font-size="94.0" fill="#FFFFFF" transform="matrix(1.00, 0.00, -0.00, -1.00, 134.6, 40.0)">W</text><text xml:space="preserve" font-family="Arial-Black" font-weight="bold" font-size="94.0" fill="#FFFFFF" transform="matrix(1.00, 0.00, -0.00, -1.00, 228.6, 40.0)">I</text><text xml:space="preserve" font-family="Arial-Black" font-weight="bold" font-size="94.0" fill="#FFFFFF" transform="matrix(1.00, 0.00, -0.00, -1.00, 265.2, 40.0)">W</text><text xml:space="preserve" font-family="Arial-Black" font-weight="bold" font-size="94.0" fill="#FFFFFF" transform="matrix(1.00, 0.00, -0.00, -1.00, 359.2, 40.0)">W</text><text xml:space="preserve" font-family="Arial-Black" font-weight="bold" font-size="94.0" fill="#FFFFFF" transform="matrix(1.00, 0.00, -0.00, -1.00, 453.2, 40.0)">I</text><text xml:space="preserve" font-family="Arial-Black" font-weight="bold" font-size="94.0" fill="#FFFFFF" transform="matrix(1.00, 0.00, -0.00, -1.00, 489.8, 40.0)">W</text><text xml:space="preserve" font-family="Arial-Black" font-weight="bold" font-size="94.0" fill="#FFFFFF" transform="matrix(1.00, 0.00, -0.00, -1.00, 583.8, 40.0)">I</text></g></g></g></svg>