<?xml version="1.0" encoding="UTF-8" standalone="no"?><svg xmlns="http://www.w3.org/2000/svg" xmlns:xlink="http://www.w3.org/1999/xlink" clip-rule="evenodd" stroke-miterlimit="4.00" viewBox="0 0 720 540"><desc>SVG generated by Keynote</desc><defs></defs><g transform="matrix(1.00, 0.00, -0.00, -1.00, 0.0, 540.0)"><path d="M 0.0 540.0 L 720.0 540.0 L 720.0 0.0 L 0.0 0.0 Z M 0.0 540.0 " fill="#FFFFFF"></path><path d="M 0.0 28.1 L 720.0 28.1 L 720.0 -0.7 L 0.0 -0.7 Z M 0.0 28.1 " fill="#454447"></path><text xml:space="preserve" font-family="TrebuchetMS" font-size="8.0" fill="#CCCCCC" transform="matrix(1.00, 0.00, -0.00, -1.00, 96.0, 11.0)">C</text><text xml:space="preserve" font-family="TrebuchetMS" font-size="8.0" fill="#CCCCCC" transform="matrix(1.00, 0.00, -0.00, -1.00, 101.0, 11.0)">O</text><text xml:space="preserve" font-family="TrebuchetMS" font-size="8.0" fill="#CCCCCC" transform="matrix(1.00, 0.00, -0.00, -1.00, 106.6, 11.0)">N</text><text xml:space="preserve" font-family="TrebuchetMS" font-size="8.0" fill="#CCCCCC" transform="matrix(1.00, 0.00, -0.00, -1.00, 111.9, 11.0)">F</text><text xml:space="preserve" font-family="TrebuchetMS" font-size="8.0" fill="#CCCCCC" transform="matrix(1.00, 0.00, -0.00, -1.00, 116.3, 11.0)">I</text><text xml:space="preserve" font-family="TrebuchetMS" font-size="8.0" fill="#CCCCCC" transform="matrix(1.00, 0.00, -0.00, -1.00, 118.7, 11.0)">D</text><text xml:space="preserve" font-family="TrebuchetMS" font-size="8.0" fill="#CCCCCC" transform="matrix(1.00, 0.00, -0.00, -1.00, 123.8, 11.0)">E</text><text xml:space="preserve" font-family="TrebuchetMS" font-size="8.0" fill="#CCCCCC" transform="matrix(1.00, 0.00, -0.00, -1.00, 128.3, 11.0)">N</text><text xml:space="preserve" font-family="TrebuchetMS" font-size="8.0" fill="#CCCCCC" transform="matrix(1.00, 0.00, -0.00, -1.00, 133.6, 11.0)">T</text><text xml:space="preserve" font-family="TrebuchetMS" font-size="8.0" fill="#CCCCCC" transform="matrix(1.00, 0.00, -0.00, -1.00, 138.4, 11.0)">I</text><text xml:space="preserve" font-family="TrebuchetMS" font-size="8.0" fill="#CCCCCC" transform="matrix(1.00, 0.00, -0.00, -1.00, 140.9, 11.0)">A</text><text xml:space="preserve" font-family="TrebuchetMS" font-size="8.0" fill="#CCCCCC" transform="matrix(1.00, 0.00, -0.00, -1.00, 145.8, 11.0)">L</text><path d="M 0.0 0.0 L 13.0 0.0 " fill="none" stroke="#CCCCCC" stroke-width="0.25" stroke-linejoin="round" transform="matrix(0.00, -1.00, -1.00, 0.00, 87.0, 20.2)"></path><image xlink:href="../../99926EC3-3614-4C70-A445-D3AA65276E24/assets/FCA234F62485E16A639918F8658267AA.png" width="38.00" height="13.00" transform="matrix(0.97, 0.00, -0.00, -1.00, 37.0, 19.0)"></image><path d="M 0.0 40.0 L 720.0 40.0 L 720.0 0.0 L 0.0 0.0 Z M 0.0 40.0 " fill="#FFFFFF"></path><text xml:space="preserve" font-family="TrebuchetMS" font-size="10.0" fill="#CCCCCC" transform="matrix(1.00, 0.00, -0.00, -1.00, 676.8, 11.0)">3</text><text xml:space="preserve" font-family="TrebuchetMS" font-size="10.0" fill="#CCCCCC" transform="matrix(1.00, 0.00, -0.00, -1.00, 682.1, 11.0)">1</text><g><clipPath id="clip-219"><path d="M 0.0 540.0 L 720.0 540.0 L 720.0 0.0 L 0.0 0.0 Z M -0.0 540.0 "></path></clipPath><g clip-path="url(#clip-219)"><image xlink:href="C6677673287605FB9E9F68CB60D3279B.jpeg" width="720.00" height="540.00" transform="matrix(1.00, 0.00, -0.00, -1.00, 0.0, 540.0)"></image></g></g><path d="M 60.9 201.4 L 507.1 201.4 L 507.1 150.5 L 60.9 150.5 Z M 60.9 201.4 " fill="#2EC1D9"></path><g><clipPath id="clip-220"><path d="M 51.4 141.6 L 516.6 141.6 L 516.6 210.9 L 51.4 210.9 Z M 51.4 141.6 "></path></clipPath><g clip-path="url(#clip-220)"><text xml:space="preserve" font-family="Arial-Black" font-weight="bold" font-size="33.1" fill="#FFFFFF" transform="matrix(1.00, 0.00, -0.00, -1.00, 63.0, 163.0)">T</text><text xml:space="preserve" font-family="Arial-Black" font-weight="bold" font-size="33.1" fill="#FFFFFF" transform="matrix(1.00, 0.00, -0.00, -1.00, 86.9, 163.0)">H</text><text xml:space="preserve" font-family="Arial-Black" font-weight="bold" font-size="33.1" fill="#FFFFFF" transform="matrix(1.00, 0.00, -0.00, -1.00, 114.4, 163.0)">E</text><text xml:space="preserve" font-family="Arial-Black" font-weight="bold" font-size="33.1" fill="#FFFFFF" transform="matrix(1.00, 0.00, -0.00, -1.00, 138.3, 163.0)"> </text><text xml:space="preserve" font-family="Arial-Black" font-weight="bold" font-size="33.1" fill="#FFFFFF" transform="matrix(1.00, 0.00, -0.00, -1.00, 149.3, 163.0)">E</text><text xml:space="preserve" font-family="Arial-Black" font-weight="bold" font-size="33.1" fill="#FFFFFF" transform="matrix(1.00, 0.00, -0.00, -1.00, 173.2, 163.0)">P</text><text xml:space="preserve" font-family="Arial-Black" font-weight="bold" font-size="33.1" fill="#FFFFFF" transform="matrix(1.00, 0.00, -0.00, -1.00, 194.3, 163.0)">A</text><text xml:space="preserve" font-family="Arial-Black" font-weight="bold" font-size="33.1" fill="#FFFFFF" transform="matrix(1.00, 0.00, -0.00, -1.00, 220.0, 163.0)">M</text><text xml:space="preserve" font-family="Arial-Black" font-weight="bold" font-size="33.1" fill="#FFFFFF" transform="matrix(1.00, 0.00, -0.00, -1.00, 251.2, 163.0)"> </text><text xml:space="preserve" font-family="Arial-Black" font-weight="bold" font-size="33.1" fill="#FFFFFF" transform="matrix(1.00, 0.00, -0.00, -1.00, 262.2, 163.0)">H</text><text xml:space="preserve" font-family="Arial-Black" font-weight="bold" font-size="33.1" fill="#FFFFFF" transform="matrix(1.00, 0.00, -0.00, -1.00, 289.8, 163.0)">A</text><text xml:space="preserve" font-family="Arial-Black" font-weight="bold" font-size="33.1" fill="#FFFFFF" transform="matrix(1.00, 0.00, -0.00, -1.00, 314.9, 163.0)">C</text><text xml:space="preserve" font-family="Arial-Black" font-weight="bold" font-size="33.1" fill="#FFFFFF" transform="matrix(1.00, 0.00, -0.00, -1.00, 340.6, 163.0)">H</text><text xml:space="preserve" font-family="Arial-Black" font-weight="bold" font-size="33.1" fill="#FFFFFF" transform="matrix(1.00, 0.00, -0.00, -1.00, 368.1, 163.0)">A</text><text xml:space="preserve" font-family="Arial-Black" font-weight="bold" font-size="33.1" fill="#FFFFFF" transform="matrix(1.00, 0.00, -0.00, -1.00, 391.6, 163.0)">T</text><text xml:space="preserve" font-family="Arial-Black" font-weight="bold" font-size="33.1" fill="#FFFFFF" transform="matrix(1.00, 0.00, -0.00, -1.00, 415.5, 163.0)">H</text><text xml:space="preserve" font-family="Arial-Black" font-weight="bold" font-size="33.1" fill="#FFFFFF" transform="matrix(1.00, 0.00, -0.00, -1.00, 443.0, 163.0)">O</text><text xml:space="preserve" font-family="Arial-Black" font-weight="bold" font-size="33.1" fill="#FFFFFF" transform="matrix(1.00, 0.00, -0.00, -1.00, 470.5, 163.0)">N</text></g></g><g><clipPath id="clip-221"><path d="M 49.0 500.0 L 147.0 500.0 L 147.0 464.0 L 49.0 464.0 Z M 49.4 500.2 "></path></clipPath><g clip-path="url(#clip-221)"><image xlink:href="../../99926EC3-3614-4C70-A445-D3AA65276E24/assets/A1F0E628E27F8A21FD07BA687C6249E0.png" width="98.00" height="38.00" transform="matrix(1.00, 0.00, -0.00, -1.03, 49.0, 502.0)"></image></g></g></g></svg>