<?xml version="1.0" encoding="UTF-8" standalone="no"?><svg xmlns="http://www.w3.org/2000/svg" xmlns:xlink="http://www.w3.org/1999/xlink" clip-rule="evenodd" stroke-miterlimit="4.00" viewBox="0 0 165 21"><desc>SVG generated by Keynote</desc><defs></defs><g transform="matrix(1.00, 0.00, -0.00, -1.00, 0.0, 21.0)"><text xml:space="preserve" font-family="ArialMT" font-size="18.0" fill="#38C1D7" transform="matrix(1.00, 0.00, -0.00, -1.00, 0.5, 4.0)">•</text><text xml:space="preserve" font-family="TrebuchetMS" font-size="18.0" fill="#454447" transform="matrix(1.00, 0.00, -0.00, -1.00, 18.0, 4.0)">U</text><text xml:space="preserve" font-family="TrebuchetMS" font-size="18.0" fill="#454447" transform="matrix(1.00, 0.00, -0.00, -1.00, 29.7, 4.0)">s</text><text xml:space="preserve" font-family="TrebuchetMS" font-size="18.0" fill="#454447" transform="matrix(1.00, 0.00, -0.00, -1.00, 37.0, 4.0)">e</text><text xml:space="preserve" font-family="TrebuchetMS" font-size="18.0" fill="#454447" transform="matrix(1.00, 0.00, -0.00, -1.00, 46.8, 4.0)">s</text><text xml:space="preserve" font-family="TrebuchetMS" font-size="18.0" fill="#454447" transform="matrix(1.00, 0.00, -0.00, -1.00, 54.1, 4.0)"> </text><text xml:space="preserve" font-family="TrebuchetMS" font-size="18.0" fill="#454447" transform="matrix(1.00, 0.00, -0.00, -1.00, 59.5, 4.0)">t</text><text xml:space="preserve" font-family="TrebuchetMS" font-size="18.0" fill="#454447" transform="matrix(1.00, 0.00, -0.00, -1.00, 66.6, 4.0)">h</text><text xml:space="preserve" font-family="TrebuchetMS" font-size="18.0" fill="#454447" transform="matrix(1.00, 0.00, -0.00, -1.00, 76.5, 4.0)">e</text><text xml:space="preserve" font-family="TrebuchetMS" font-size="18.0" fill="#454447" transform="matrix(1.00, 0.00, -0.00, -1.00, 86.3, 4.0)"> </text><text xml:space="preserve" font-family="TrebuchetMS" font-size="18.0" fill="#454447" transform="matrix(1.00, 0.00, -0.00, -1.00, 91.7, 4.0)">H</text><text xml:space="preserve" font-family="TrebuchetMS" font-size="18.0" fill="#454447" transform="matrix(1.00, 0.00, -0.00, -1.00, 103.5, 4.0)">e</text><text xml:space="preserve" font-family="TrebuchetMS" font-size="18.0" fill="#454447" transform="matrix(1.00, 0.00, -0.00, -1.00, 113.3, 4.0)">a</text><text xml:space="preserve" font-family="TrebuchetMS" font-size="18.0" fill="#454447" transform="matrix(1.00, 0.00, -0.00, -1.00, 122.8, 4.0)">r</text><text xml:space="preserve" font-family="TrebuchetMS" font-size="18.0" fill="#454447" transform="matrix(1.00, 0.00, -0.00, -1.00, 129.8, 4.0)">t</text><text xml:space="preserve" font-family="TrebuchetMS" font-size="18.0" fill="#454447" transform="matrix(1.00, 0.00, -0.00, -1.00, 136.9, 4.0)">h</text><text xml:space="preserve" font-family="TrebuchetMS" font-size="18.0" fill="#454447" transform="matrix(1.00, 0.00, -0.00, -1.00, 146.8, 4.0)">I</text><text xml:space="preserve" font-family="TrebuchetMS" font-size="18.0" fill="#454447" transform="matrix(1.00, 0.00, -0.00, -1.00, 151.8, 4.0)">D</text></g></svg>