<?xml version="1.0" encoding="UTF-8" standalone="no"?><svg xmlns="http://www.w3.org/2000/svg" xmlns:xlink="http://www.w3.org/1999/xlink" clip-rule="evenodd" stroke-miterlimit="4.00" viewBox="0 0 291 27"><desc>SVG generated by Keynote</desc><defs></defs><g transform="matrix(1.00, 0.00, -0.00, -1.00, 0.0, 27.0)"><text xml:space="preserve" font-family="ArialMT" font-size="22.0" fill="#38C1D7" transform="matrix(1.00, 0.00, -0.00, -1.00, 0.9, 6.5)">•</text><text xml:space="preserve" font-family="TrebuchetMS" font-size="22.0" fill="#000000" transform="matrix(1.00, 0.00, -0.00, -1.00, 18.0, 6.0)">E</text><text xml:space="preserve" font-family="TrebuchetMS" font-size="22.0" fill="#000000" transform="matrix(1.00, 0.00, -0.00, -1.00, 29.8, 6.0)">x</text><text xml:space="preserve" font-family="TrebuchetMS" font-size="22.0" fill="#000000" transform="matrix(1.00, 0.00, -0.00, -1.00, 40.8, 6.0)">p</text><text xml:space="preserve" font-family="TrebuchetMS" font-size="22.0" fill="#000000" transform="matrix(1.00, 0.00, -0.00, -1.00, 53.1, 6.0)">e</text><text xml:space="preserve" font-family="TrebuchetMS" font-size="22.0" fill="#000000" transform="matrix(1.00, 0.00, -0.00, -1.00, 65.1, 6.0)">n</text><text xml:space="preserve" font-family="TrebuchetMS" font-size="22.0" fill="#000000" transform="matrix(1.00, 0.00, -0.00, -1.00, 77.1, 6.0)">s</text><text xml:space="preserve" font-family="TrebuchetMS" font-size="22.0" fill="#000000" transform="matrix(1.00, 0.00, -0.00, -1.00, 86.0, 6.0)">i</text><text xml:space="preserve" font-family="TrebuchetMS" font-size="22.0" fill="#000000" transform="matrix(1.00, 0.00, -0.00, -1.00, 92.3, 6.0)">v</text><text xml:space="preserve" font-family="TrebuchetMS" font-size="22.0" fill="#000000" transform="matrix(1.00, 0.00, -0.00, -1.00, 103.0, 6.0)">e</text><text xml:space="preserve" font-family="TrebuchetMS" font-size="22.0" fill="#000000" transform="matrix(1.00, 0.00, -0.00, -1.00, 115.0, 6.0)"> </text><text xml:space="preserve" font-family="TrebuchetMS" font-size="22.0" fill="#000000" transform="matrix(1.00, 0.00, -0.00, -1.00, 121.7, 6.0)">s</text><text xml:space="preserve" font-family="TrebuchetMS" font-size="22.0" fill="#000000" transform="matrix(1.00, 0.00, -0.00, -1.00, 130.6, 6.0)">e</text><text xml:space="preserve" font-family="TrebuchetMS" font-size="22.0" fill="#000000" transform="matrix(1.00, 0.00, -0.00, -1.00, 142.6, 6.0)">c</text><text xml:space="preserve" font-family="TrebuchetMS" font-size="22.0" fill="#000000" transform="matrix(1.00, 0.00, -0.00, -1.00, 153.5, 6.0)">u</text><text xml:space="preserve" font-family="TrebuchetMS" font-size="22.0" fill="#000000" transform="matrix(1.00, 0.00, -0.00, -1.00, 165.5, 6.0)">r</text><text xml:space="preserve" font-family="TrebuchetMS" font-size="22.0" fill="#000000" transform="matrix(1.00, 0.00, -0.00, -1.00, 174.1, 6.0)">i</text><text xml:space="preserve" font-family="TrebuchetMS" font-size="22.0" fill="#000000" transform="matrix(1.00, 0.00, -0.00, -1.00, 180.3, 6.0)">t</text><text xml:space="preserve" font-family="TrebuchetMS" font-size="22.0" fill="#000000" transform="matrix(1.00, 0.00, -0.00, -1.00, 189.1, 6.0)">y</text><text xml:space="preserve" font-family="TrebuchetMS" font-size="22.0" fill="#000000" transform="matrix(1.00, 0.00, -0.00, -1.00, 199.9, 6.0)"> </text><text xml:space="preserve" font-family="TrebuchetMS" font-size="22.0" fill="#000000" transform="matrix(1.00, 0.00, -0.00, -1.00, 206.6, 6.0)">s</text><text xml:space="preserve" font-family="TrebuchetMS" font-size="22.0" fill="#000000" transform="matrix(1.00, 0.00, -0.00, -1.00, 215.5, 6.0)">c</text><text xml:space="preserve" font-family="TrebuchetMS" font-size="22.0" fill="#000000" transform="matrix(1.00, 0.00, -0.00, -1.00, 226.3, 6.0)">h</text><text xml:space="preserve" font-family="TrebuchetMS" font-size="22.0" fill="#000000" transform="matrix(1.00, 0.00, -0.00, -1.00, 238.4, 6.0)">e</text><text xml:space="preserve" font-family="TrebuchetMS" font-size="22.0" fill="#000000" transform="matrix(1.00, 0.00, -0.00, -1.00, 250.4, 6.0)">m</text><text xml:space="preserve" font-family="TrebuchetMS" font-size="22.0" fill="#000000" transform="matrix(1.00, 0.00, -0.00, -1.00, 268.7, 6.0)">e</text><text xml:space="preserve" font-family="TrebuchetMS" font-size="22.0" fill="#000000" transform="matrix(1.00, 0.00, -0.00, -1.00, 280.7, 6.0)">s</text></g></svg>