<?xml version="1.0" encoding="UTF-8" standalone="no"?><svg xmlns="http://www.w3.org/2000/svg" xmlns:xlink="http://www.w3.org/1999/xlink" clip-rule="evenodd" stroke-miterlimit="4.00" viewBox="0 0 720 540"><desc>SVG generated by Keynote</desc><defs></defs><g transform="matrix(1.00, 0.00, -0.00, -1.00, 0.0, 540.0)"><path d="M 0.0 540.0 L 720.0 540.0 L 720.0 0.0 L 0.0 0.0 Z M 0.0 540.0 " fill="#FFFFFF"></path><path d="M 0.0 28.1 L 720.0 28.1 L 720.0 -0.7 L 0.0 -0.7 Z M 0.0 28.1 " fill="#454447"></path><text xml:space="preserve" font-family="TrebuchetMS" font-size="8.0" fill="#CCCCCC" transform="matrix(1.00, 0.00, -0.00, -1.00, 96.0, 11.0)">I</text><text xml:space="preserve" font-family="TrebuchetMS" font-size="8.0" fill="#CCCCCC" transform="matrix(1.00, 0.00, -0.00, -1.00, 98.4, 11.0)">T</text><text xml:space="preserve" font-family="TrebuchetMS" font-size="8.0" fill="#CCCCCC" transform="matrix(1.00, 0.00, -0.00, -1.00, 103.1, 11.0)"> </text><text xml:space="preserve" font-family="TrebuchetMS" font-size="8.0" fill="#CCCCCC" transform="matrix(1.00, 0.00, -0.00, -1.00, 105.7, 11.0)">W</text><text xml:space="preserve" font-family="TrebuchetMS" font-size="8.0" fill="#CCCCCC" transform="matrix(1.00, 0.00, -0.00, -1.00, 112.8, 11.0)">E</text><text xml:space="preserve" font-family="TrebuchetMS" font-size="8.0" fill="#CCCCCC" transform="matrix(1.00, 0.00, -0.00, -1.00, 117.2, 11.0)">E</text><text xml:space="preserve" font-family="TrebuchetMS" font-size="8.0" fill="#CCCCCC" transform="matrix(1.00, 0.00, -0.00, -1.00, 121.7, 11.0)">K</text><text xml:space="preserve" font-family="TrebuchetMS" font-size="8.0" fill="#CCCCCC" transform="matrix(1.00, 0.00, -0.00, -1.00, 126.5, 11.0)"> </text><text xml:space="preserve" font-family="TrebuchetMS" font-size="8.0" fill="#CCCCCC" transform="matrix(1.00, 0.00, -0.00, -1.00, 129.1, 11.0)">2</text><text xml:space="preserve" font-family="TrebuchetMS" font-size="8.0" fill="#CCCCCC" transform="matrix(1.00, 0.00, -0.00, -1.00, 133.5, 11.0)">0</text><text xml:space="preserve" font-family="TrebuchetMS" font-size="8.0" fill="#CCCCCC" transform="matrix(1.00, 0.00, -0.00, -1.00, 137.9, 11.0)">1</text><text xml:space="preserve" font-family="TrebuchetMS" font-size="8.0" fill="#CCCCCC" transform="matrix(1.00, 0.00, -0.00, -1.00, 142.3, 11.0)">6</text><text xml:space="preserve" font-family="TrebuchetMS" font-size="8.0" fill="#CCCCCC" transform="matrix(1.00, 0.00, -0.00, -1.00, 146.7, 11.0)"> </text><text xml:space="preserve" font-family="TrebuchetMS" font-size="8.0" fill="#CCCCCC" transform="matrix(1.00, 0.00, -0.00, -1.00, 149.3, 11.0)">-</text><text xml:space="preserve" font-family="TrebuchetMS" font-size="8.0" fill="#CCCCCC" transform="matrix(1.00, 0.00, -0.00, -1.00, 152.5, 11.0)"> </text><text xml:space="preserve" font-family="TrebuchetMS" font-size="8.0" fill="#CCCCCC" transform="matrix(1.00, 0.00, -0.00, -1.00, 155.1, 11.0)">F</text><text xml:space="preserve" font-family="TrebuchetMS" font-size="8.0" fill="#CCCCCC" transform="matrix(1.00, 0.00, -0.00, -1.00, 159.5, 11.0)">u</text><text xml:space="preserve" font-family="TrebuchetMS" font-size="8.0" fill="#CCCCCC" transform="matrix(1.00, 0.00, -0.00, -1.00, 164.1, 11.0)">t</text><text xml:space="preserve" font-family="TrebuchetMS" font-size="8.0" fill="#CCCCCC" transform="matrix(1.00, 0.00, -0.00, -1.00, 167.4, 11.0)">u</text><text xml:space="preserve" font-family="TrebuchetMS" font-size="8.0" fill="#CCCCCC" transform="matrix(1.00, 0.00, -0.00, -1.00, 172.0, 11.0)">r</text><text xml:space="preserve" font-family="TrebuchetMS" font-size="8.0" fill="#CCCCCC" transform="matrix(1.00, 0.00, -0.00, -1.00, 175.3, 11.0)">e</text><text xml:space="preserve" font-family="TrebuchetMS" font-size="8.0" fill="#CCCCCC" transform="matrix(1.00, 0.00, -0.00, -1.00, 179.9, 11.0)"> </text><text xml:space="preserve" font-family="TrebuchetMS" font-size="8.0" fill="#CCCCCC" transform="matrix(1.00, 0.00, -0.00, -1.00, 182.5, 11.0)">o</text><text xml:space="preserve" font-family="TrebuchetMS" font-size="8.0" fill="#CCCCCC" transform="matrix(1.00, 0.00, -0.00, -1.00, 187.0, 11.0)">f</text><text xml:space="preserve" font-family="TrebuchetMS" font-size="8.0" fill="#CCCCCC" transform="matrix(1.00, 0.00, -0.00, -1.00, 190.1, 11.0)"> </text><text xml:space="preserve" font-family="TrebuchetMS" font-size="8.0" fill="#CCCCCC" transform="matrix(1.00, 0.00, -0.00, -1.00, 192.7, 11.0)">C</text><text xml:space="preserve" font-family="TrebuchetMS" font-size="8.0" fill="#CCCCCC" transform="matrix(1.00, 0.00, -0.00, -1.00, 197.7, 11.0)">a</text><text xml:space="preserve" font-family="TrebuchetMS" font-size="8.0" fill="#CCCCCC" transform="matrix(1.00, 0.00, -0.00, -1.00, 202.1, 11.0)">s</text><text xml:space="preserve" font-family="TrebuchetMS" font-size="8.0" fill="#CCCCCC" transform="matrix(1.00, 0.00, -0.00, -1.00, 205.6, 11.0)">h</text><text xml:space="preserve" font-family="TrebuchetMS" font-size="8.0" fill="#CCCCCC" transform="matrix(1.00, 0.00, -0.00, -1.00, 210.1, 11.0)">l</text><text xml:space="preserve" font-family="TrebuchetMS" font-size="8.0" fill="#CCCCCC" transform="matrix(1.00, 0.00, -0.00, -1.00, 212.7, 11.0)">e</text><text xml:space="preserve" font-family="TrebuchetMS" font-size="8.0" fill="#CCCCCC" transform="matrix(1.00, 0.00, -0.00, -1.00, 217.3, 11.0)">s</text><text xml:space="preserve" font-family="TrebuchetMS" font-size="8.0" fill="#CCCCCC" transform="matrix(1.00, 0.00, -0.00, -1.00, 220.7, 11.0)">s</text><text xml:space="preserve" font-family="TrebuchetMS" font-size="8.0" fill="#CCCCCC" transform="matrix(1.00, 0.00, -0.00, -1.00, 224.1, 11.0)"> </text><text xml:space="preserve" font-family="TrebuchetMS" font-size="8.0" fill="#CCCCCC" transform="matrix(1.00, 0.00, -0.00, -1.00, 226.7, 11.0)">P</text><text xml:space="preserve" font-family="TrebuchetMS" font-size="8.0" fill="#CCCCCC" transform="matrix(1.00, 0.00, -0.00, -1.00, 231.0, 11.0)">a</text><text xml:space="preserve" font-family="TrebuchetMS" font-size="8.0" fill="#CCCCCC" transform="matrix(1.00, 0.00, -0.00, -1.00, 235.4, 11.0)">y</text><text xml:space="preserve" font-family="TrebuchetMS" font-size="8.0" fill="#CCCCCC" transform="matrix(1.00, 0.00, -0.00, -1.00, 239.6, 11.0)">m</text><text xml:space="preserve" font-family="TrebuchetMS" font-size="8.0" fill="#CCCCCC" transform="matrix(1.00, 0.00, -0.00, -1.00, 246.4, 11.0)">e</text><text xml:space="preserve" font-family="TrebuchetMS" font-size="8.0" fill="#CCCCCC" transform="matrix(1.00, 0.00, -0.00, -1.00, 251.0, 11.0)">n</text><text xml:space="preserve" font-family="TrebuchetMS" font-size="8.0" fill="#CCCCCC" transform="matrix(1.00, 0.00, -0.00, -1.00, 255.6, 11.0)">t</text><text xml:space="preserve" font-family="TrebuchetMS" font-size="8.0" fill="#CCCCCC" transform="matrix(1.00, 0.00, -0.00, -1.00, 258.9, 11.0)">s</text><text xml:space="preserve" font-family="TrebuchetMS" font-size="8.0" fill="#CCCCCC" transform="matrix(1.00, 0.00, -0.00, -1.00, 262.4, 11.0)"> </text><text xml:space="preserve" font-family="TrebuchetMS" font-size="8.0" fill="#CCCCCC" transform="matrix(1.00, 0.00, -0.00, -1.00, 265.0, 11.0)">-</text><text xml:space="preserve" font-family="TrebuchetMS" font-size="8.0" fill="#CCCCCC" transform="matrix(1.00, 0.00, -0.00, -1.00, 268.1, 11.0)"> </text><text xml:space="preserve" font-family="TrebuchetMS" font-size="8.0" fill="#CCCCCC" transform="matrix(1.00, 0.00, -0.00, -1.00, 270.7, 11.0)">K</text><text xml:space="preserve" font-family="TrebuchetMS" font-size="8.0" fill="#CCCCCC" transform="matrix(1.00, 0.00, -0.00, -1.00, 275.3, 11.0)">o</text><text xml:space="preserve" font-family="TrebuchetMS" font-size="8.0" fill="#CCCCCC" transform="matrix(1.00, 0.00, -0.00, -1.00, 279.8, 11.0)">n</text><text xml:space="preserve" font-family="TrebuchetMS" font-size="8.0" fill="#CCCCCC" transform="matrix(1.00, 0.00, -0.00, -1.00, 284.3, 11.0)">r</text><text xml:space="preserve" font-family="TrebuchetMS" font-size="8.0" fill="#CCCCCC" transform="matrix(1.00, 0.00, -0.00, -1.00, 287.6, 11.0)">a</text><text xml:space="preserve" font-family="TrebuchetMS" font-size="8.0" fill="#CCCCCC" transform="matrix(1.00, 0.00, -0.00, -1.00, 292.1, 11.0)">d</text><text xml:space="preserve" font-family="TrebuchetMS" font-size="8.0" fill="#CCCCCC" transform="matrix(1.00, 0.00, -0.00, -1.00, 296.7, 11.0)"> </text><text xml:space="preserve" font-family="TrebuchetMS" font-size="8.0" fill="#CCCCCC" transform="matrix(1.00, 0.00, -0.00, -1.00, 299.3, 11.0)">H</text><text xml:space="preserve" font-family="TrebuchetMS" font-size="8.0" fill="#CCCCCC" transform="matrix(1.00, 0.00, -0.00, -1.00, 304.8, 11.0)">e</text><text xml:space="preserve" font-family="TrebuchetMS" font-size="8.0" fill="#CCCCCC" transform="matrix(1.00, 0.00, -0.00, -1.00, 309.3, 11.0)">f</text><text xml:space="preserve" font-family="TrebuchetMS" font-size="8.0" fill="#CCCCCC" transform="matrix(1.00, 0.00, -0.00, -1.00, 312.5, 11.0)">e</text><text xml:space="preserve" font-family="TrebuchetMS" font-size="8.0" fill="#CCCCCC" transform="matrix(1.00, 0.00, -0.00, -1.00, 317.0, 11.0)">l</text><text xml:space="preserve" font-family="TrebuchetMS" font-size="8.0" fill="#CCCCCC" transform="matrix(1.00, 0.00, -0.00, -1.00, 319.6, 11.0)">l</text><text xml:space="preserve" font-family="TrebuchetMS" font-size="8.0" fill="#CCCCCC" transform="matrix(1.00, 0.00, -0.00, -1.00, 322.2, 11.0)">e</text><text xml:space="preserve" font-family="TrebuchetMS" font-size="8.0" fill="#CCCCCC" transform="matrix(1.00, 0.00, -0.00, -1.00, 326.7, 11.0)">,</text><text xml:space="preserve" font-family="TrebuchetMS" font-size="8.0" fill="#CCCCCC" transform="matrix(1.00, 0.00, -0.00, -1.00, 329.9, 11.0)"> </text><text xml:space="preserve" font-family="TrebuchetMS" font-size="8.0" fill="#CCCCCC" transform="matrix(1.00, 0.00, -0.00, -1.00, 332.5, 11.0)">2</text><text xml:space="preserve" font-family="TrebuchetMS" font-size="8.0" fill="#CCCCCC" transform="matrix(1.00, 0.00, -0.00, -1.00, 336.9, 11.0)">0</text><text xml:space="preserve" font-family="TrebuchetMS" font-size="8.0" fill="#CCCCCC" transform="matrix(1.00, 0.00, -0.00, -1.00, 341.3, 11.0)">.</text><text xml:space="preserve" font-family="TrebuchetMS" font-size="8.0" fill="#CCCCCC" transform="matrix(1.00, 0.00, -0.00, -1.00, 344.4, 11.0)"> </text><text xml:space="preserve" font-family="TrebuchetMS" font-size="8.0" fill="#CCCCCC" transform="matrix(1.00, 0.00, -0.00, -1.00, 346.6, 11.0)">A</text><text xml:space="preserve" font-family="TrebuchetMS" font-size="8.0" fill="#CCCCCC" transform="matrix(1.00, 0.00, -0.00, -1.00, 351.5, 11.0)">p</text><text xml:space="preserve" font-family="TrebuchetMS" font-size="8.0" fill="#CCCCCC" transform="matrix(1.00, 0.00, -0.00, -1.00, 356.2, 11.0)">r</text><text xml:space="preserve" font-family="TrebuchetMS" font-size="8.0" fill="#CCCCCC" transform="matrix(1.00, 0.00, -0.00, -1.00, 359.5, 11.0)">i</text><text xml:space="preserve" font-family="TrebuchetMS" font-size="8.0" fill="#CCCCCC" transform="matrix(1.00, 0.00, -0.00, -1.00, 362.0, 11.0)">l</text><text xml:space="preserve" font-family="TrebuchetMS" font-size="8.0" fill="#CCCCCC" transform="matrix(1.00, 0.00, -0.00, -1.00, 364.5, 11.0)"> </text><text xml:space="preserve" font-family="TrebuchetMS" font-size="8.0" fill="#CCCCCC" transform="matrix(1.00, 0.00, -0.00, -1.00, 367.1, 11.0)">2</text><text xml:space="preserve" font-family="TrebuchetMS" font-size="8.0" fill="#CCCCCC" transform="matrix(1.00, 0.00, -0.00, -1.00, 371.5, 11.0)">0</text><text xml:space="preserve" font-family="TrebuchetMS" font-size="8.0" fill="#CCCCCC" transform="matrix(1.00, 0.00, -0.00, -1.00, 375.9, 11.0)">1</text><text xml:space="preserve" font-family="TrebuchetMS" font-size="8.0" fill="#CCCCCC" transform="matrix(1.00, 0.00, -0.00, -1.00, 380.3, 11.0)">6</text><path d="M 0.0 0.0 L 13.0 0.0 " fill="none" stroke="#CCCCCC" stroke-width="0.25" stroke-linejoin="round" transform="matrix(0.00, -1.00, -1.00, 0.00, 87.0, 20.2)"></path><image xlink:href="../../99926EC3-3614-4C70-A445-D3AA65276E24/assets/FCA234F62485E16A639918F8658267AA.png" width="38.00" height="13.00" transform="matrix(0.97, 0.00, -0.00, -1.00, 37.0, 19.0)"></image><text xml:space="preserve" font-family="TrebuchetMS" font-size="10.0" fill="#CCCCCC" transform="matrix(1.00, 0.00, -0.00, -1.00, 682.1, 11.0)">7</text><image xlink:href="../../E3CCD7FC-4CC6-4379-8F12-393AEC6D6D66/assets/D8EAC996D507BFBCE2171B60B53A42D7.png" width="726.00" height="79.00" transform="matrix(1.00, 0.00, -0.00, -1.01, -3.0, 542.7)" opacity="0.30"></image><path d="M 0.0 541.7 L 720.0 541.7 L 720.0 468.3 L 0.0 468.3 Z M 0.0 541.7 " fill="#FFFFFF"></path><g><clipPath id="clip-42"><path d="M -5.6 468.3 L 725.6 468.3 L 725.6 541.7 L -5.6 541.7 Z M -5.6 468.3 "></path></clipPath><g clip-path="url(#clip-42)"><text xml:space="preserve" font-family="Arial-Black" font-weight="bold" font-size="26.0" fill="#454447" transform="matrix(1.00, 0.00, -0.00, -1.00, 4.0, 495.0)">S</text><text xml:space="preserve" font-family="Arial-Black" font-weight="bold" font-size="26.0" fill="#454447" transform="matrix(1.00, 0.00, -0.00, -1.00, 22.8, 495.0)">E</text><text xml:space="preserve" font-family="Arial-Black" font-weight="bold" font-size="26.0" fill="#454447" transform="matrix(1.00, 0.00, -0.00, -1.00, 41.6, 495.0)">C</text><text xml:space="preserve" font-family="Arial-Black" font-weight="bold" font-size="26.0" fill="#454447" transform="matrix(1.00, 0.00, -0.00, -1.00, 61.8, 495.0)">U</text><text xml:space="preserve" font-family="Arial-Black" font-weight="bold" font-size="26.0" fill="#454447" transform="matrix(1.00, 0.00, -0.00, -1.00, 83.4, 495.0)">R</text><text xml:space="preserve" font-family="Arial-Black" font-weight="bold" font-size="26.0" fill="#454447" transform="matrix(1.00, 0.00, -0.00, -1.00, 103.7, 495.0)">I</text><text xml:space="preserve" font-family="Arial-Black" font-weight="bold" font-size="26.0" fill="#454447" transform="matrix(1.00, 0.00, -0.00, -1.00, 113.8, 495.0)">T</text><text xml:space="preserve" font-family="Arial-Black" font-weight="bold" font-size="26.0" fill="#454447" transform="matrix(1.00, 0.00, -0.00, -1.00, 132.6, 495.0)">Y</text><text xml:space="preserve" font-family="Arial-Black" font-weight="bold" font-size="26.0" fill="#454447" transform="matrix(1.00, 0.00, -0.00, -1.00, 152.8, 495.0)"> </text><text xml:space="preserve" font-family="Arial-Black" font-weight="bold" font-size="26.0" fill="#454447" transform="matrix(1.00, 0.00, -0.00, -1.00, 161.5, 495.0)">C</text><text xml:space="preserve" font-family="Arial-Black" font-weight="bold" font-size="26.0" fill="#454447" transform="matrix(1.00, 0.00, -0.00, -1.00, 181.7, 495.0)">H</text><text xml:space="preserve" font-family="Arial-Black" font-weight="bold" font-size="26.0" fill="#454447" transform="matrix(1.00, 0.00, -0.00, -1.00, 203.3, 495.0)">A</text><text xml:space="preserve" font-family="Arial-Black" font-weight="bold" font-size="26.0" fill="#454447" transform="matrix(1.00, 0.00, -0.00, -1.00, 223.6, 495.0)">L</text><text xml:space="preserve" font-family="Arial-Black" font-weight="bold" font-size="26.0" fill="#454447" transform="matrix(1.00, 0.00, -0.00, -1.00, 240.9, 495.0)">L</text><text xml:space="preserve" font-family="Arial-Black" font-weight="bold" font-size="26.0" fill="#454447" transform="matrix(1.00, 0.00, -0.00, -1.00, 258.2, 495.0)">E</text><text xml:space="preserve" font-family="Arial-Black" font-weight="bold" font-size="26.0" fill="#454447" transform="matrix(1.00, 0.00, -0.00, -1.00, 277.0, 495.0)">N</text><text xml:space="preserve" font-family="Arial-Black" font-weight="bold" font-size="26.0" fill="#454447" transform="matrix(1.00, 0.00, -0.00, -1.00, 298.7, 495.0)">G</text><text xml:space="preserve" font-family="Arial-Black" font-weight="bold" font-size="26.0" fill="#454447" transform="matrix(1.00, 0.00, -0.00, -1.00, 320.3, 495.0)">E</text><text xml:space="preserve" font-family="Arial-Black" font-weight="bold" font-size="26.0" fill="#454447" transform="matrix(1.00, 0.00, -0.00, -1.00, 339.1, 495.0)">S</text></g></g><text xml:space="preserve" font-family="ArialMT" font-size="22.0" fill="#38C1D7" transform="matrix(1.00, 0.00, -0.00, -1.00, 12.9, 363.5)">•</text><text xml:space="preserve" font-family="TrebuchetMS" font-size="22.0" fill="#000000" transform="matrix(1.00, 0.00, -0.00, -1.00, 30.0, 363.0)">V</text><text xml:space="preserve" font-family="TrebuchetMS" font-size="22.0" fill="#000000" transform="matrix(1.00, 0.00, -0.00, -1.00, 41.5, 363.0)">u</text><text xml:space="preserve" font-family="TrebuchetMS" font-size="22.0" fill="#000000" transform="matrix(1.00, 0.00, -0.00, -1.00, 53.5, 363.0)">l</text><text xml:space="preserve" font-family="TrebuchetMS" font-size="22.0" fill="#000000" transform="matrix(1.00, 0.00, -0.00, -1.00, 60.0, 363.0)">n</text><text xml:space="preserve" font-family="TrebuchetMS" font-size="22.0" fill="#000000" transform="matrix(1.00, 0.00, -0.00, -1.00, 72.0, 363.0)">e</text><text xml:space="preserve" font-family="TrebuchetMS" font-size="22.0" fill="#000000" transform="matrix(1.00, 0.00, -0.00, -1.00, 84.1, 363.0)">r</text><text xml:space="preserve" font-family="TrebuchetMS" font-size="22.0" fill="#000000" transform="matrix(1.00, 0.00, -0.00, -1.00, 92.6, 363.0)">a</text><text xml:space="preserve" font-family="TrebuchetMS" font-size="22.0" fill="#000000" transform="matrix(1.00, 0.00, -0.00, -1.00, 104.2, 363.0)">b</text><text xml:space="preserve" font-family="TrebuchetMS" font-size="22.0" fill="#000000" transform="matrix(1.00, 0.00, -0.00, -1.00, 116.4, 363.0)">i</text><text xml:space="preserve" font-family="TrebuchetMS" font-size="22.0" fill="#000000" transform="matrix(1.00, 0.00, -0.00, -1.00, 122.7, 363.0)">l</text><text xml:space="preserve" font-family="TrebuchetMS" font-size="22.0" fill="#000000" transform="matrix(1.00, 0.00, -0.00, -1.00, 129.2, 363.0)">i</text><text xml:space="preserve" font-family="TrebuchetMS" font-size="22.0" fill="#000000" transform="matrix(1.00, 0.00, -0.00, -1.00, 135.5, 363.0)">t</text><text xml:space="preserve" font-family="TrebuchetMS" font-size="22.0" fill="#000000" transform="matrix(1.00, 0.00, -0.00, -1.00, 144.2, 363.0)">i</text><text xml:space="preserve" font-family="TrebuchetMS" font-size="22.0" fill="#000000" transform="matrix(1.00, 0.00, -0.00, -1.00, 150.5, 363.0)">e</text><text xml:space="preserve" font-family="TrebuchetMS" font-size="22.0" fill="#000000" transform="matrix(1.00, 0.00, -0.00, -1.00, 162.5, 363.0)">s</text><text xml:space="preserve" font-family="LucidaGrande" font-size="22.0" fill="#000000" transform="matrix(1.00, 0.00, -0.00, -1.00, 171.3, 363.0)"> </text><text xml:space="preserve" font-family="ArialMT" font-size="22.0" fill="#38C1D7" transform="matrix(1.00, 0.00, -0.00, -1.00, 12.9, 311.5)">•</text><text xml:space="preserve" font-family="TrebuchetMS" font-size="22.0" fill="#000000" transform="matrix(1.00, 0.00, -0.00, -1.00, 30.0, 311.0)">S</text><text xml:space="preserve" font-family="TrebuchetMS" font-size="22.0" fill="#000000" transform="matrix(1.00, 0.00, -0.00, -1.00, 40.6, 311.0)">t</text><text xml:space="preserve" font-family="TrebuchetMS" font-size="22.0" fill="#000000" transform="matrix(1.00, 0.00, -0.00, -1.00, 49.3, 311.0)">e</text><text xml:space="preserve" font-family="TrebuchetMS" font-size="22.0" fill="#000000" transform="matrix(1.00, 0.00, -0.00, -1.00, 61.3, 311.0)">a</text><text xml:space="preserve" font-family="TrebuchetMS" font-size="22.0" fill="#000000" transform="matrix(1.00, 0.00, -0.00, -1.00, 72.9, 311.0)">l</text><text xml:space="preserve" font-family="TrebuchetMS" font-size="22.0" fill="#000000" transform="matrix(1.00, 0.00, -0.00, -1.00, 79.4, 311.0)">i</text><text xml:space="preserve" font-family="TrebuchetMS" font-size="22.0" fill="#000000" transform="matrix(1.00, 0.00, -0.00, -1.00, 85.7, 311.0)">n</text><text xml:space="preserve" font-family="TrebuchetMS" font-size="22.0" fill="#000000" transform="matrix(1.00, 0.00, -0.00, -1.00, 97.7, 311.0)">g</text><text xml:space="preserve" font-family="TrebuchetMS" font-size="22.0" fill="#000000" transform="matrix(1.00, 0.00, -0.00, -1.00, 108.7, 311.0)"> </text><text xml:space="preserve" font-family="TrebuchetMS" font-size="22.0" fill="#000000" transform="matrix(1.00, 0.00, -0.00, -1.00, 115.4, 311.0)">a</text><text xml:space="preserve" font-family="TrebuchetMS" font-size="22.0" fill="#000000" transform="matrix(1.00, 0.00, -0.00, -1.00, 126.9, 311.0)">n</text><text xml:space="preserve" font-family="TrebuchetMS" font-size="22.0" fill="#000000" transform="matrix(1.00, 0.00, -0.00, -1.00, 139.0, 311.0)">d</text><text xml:space="preserve" font-family="TrebuchetMS" font-size="22.0" fill="#000000" transform="matrix(1.00, 0.00, -0.00, -1.00, 151.2, 311.0)"> </text><text xml:space="preserve" font-family="TrebuchetMS" font-size="22.0" fill="#000000" transform="matrix(1.00, 0.00, -0.00, -1.00, 157.9, 311.0)">m</text><text xml:space="preserve" font-family="TrebuchetMS" font-size="22.0" fill="#000000" transform="matrix(1.00, 0.00, -0.00, -1.00, 176.1, 311.0)">i</text><text xml:space="preserve" font-family="TrebuchetMS" font-size="22.0" fill="#000000" transform="matrix(1.00, 0.00, -0.00, -1.00, 182.4, 311.0)">s</text><text xml:space="preserve" font-family="TrebuchetMS" font-size="22.0" fill="#000000" transform="matrix(1.00, 0.00, -0.00, -1.00, 191.3, 311.0)">u</text><text xml:space="preserve" font-family="TrebuchetMS" font-size="22.0" fill="#000000" transform="matrix(1.00, 0.00, -0.00, -1.00, 203.3, 311.0)">s</text><text xml:space="preserve" font-family="TrebuchetMS" font-size="22.0" fill="#000000" transform="matrix(1.00, 0.00, -0.00, -1.00, 212.2, 311.0)">i</text><text xml:space="preserve" font-family="TrebuchetMS" font-size="22.0" fill="#000000" transform="matrix(1.00, 0.00, -0.00, -1.00, 218.5, 311.0)">n</text><text xml:space="preserve" font-family="TrebuchetMS" font-size="22.0" fill="#000000" transform="matrix(1.00, 0.00, -0.00, -1.00, 230.5, 311.0)">g</text><text xml:space="preserve" font-family="TrebuchetMS" font-size="22.0" fill="#000000" transform="matrix(1.00, 0.00, -0.00, -1.00, 241.6, 311.0)"> </text><text xml:space="preserve" font-family="TrebuchetMS" font-size="22.0" fill="#000000" transform="matrix(1.00, 0.00, -0.00, -1.00, 248.2, 311.0)">c</text><text xml:space="preserve" font-family="TrebuchetMS" font-size="22.0" fill="#000000" transform="matrix(1.00, 0.00, -0.00, -1.00, 259.1, 311.0)">u</text><text xml:space="preserve" font-family="TrebuchetMS" font-size="22.0" fill="#000000" transform="matrix(1.00, 0.00, -0.00, -1.00, 271.1, 311.0)">s</text><text xml:space="preserve" font-family="TrebuchetMS" font-size="22.0" fill="#000000" transform="matrix(1.00, 0.00, -0.00, -1.00, 280.0, 311.0)">t</text><text xml:space="preserve" font-family="TrebuchetMS" font-size="22.0" fill="#000000" transform="matrix(1.00, 0.00, -0.00, -1.00, 288.8, 311.0)">o</text><text xml:space="preserve" font-family="TrebuchetMS" font-size="22.0" fill="#000000" transform="matrix(1.00, 0.00, -0.00, -1.00, 300.6, 311.0)">m</text><text xml:space="preserve" font-family="TrebuchetMS" font-size="22.0" fill="#000000" transform="matrix(1.00, 0.00, -0.00, -1.00, 318.8, 311.0)">e</text><text xml:space="preserve" font-family="TrebuchetMS" font-size="22.0" fill="#000000" transform="matrix(1.00, 0.00, -0.00, -1.00, 330.8, 311.0)">r</text><text xml:space="preserve" font-family="TrebuchetMS" font-size="22.0" fill="#000000" transform="matrix(1.00, 0.00, -0.00, -1.00, 339.4, 311.0)"> </text><text xml:space="preserve" font-family="TrebuchetMS" font-size="22.0" fill="#000000" transform="matrix(1.00, 0.00, -0.00, -1.00, 30.0, 285.0)">d</text><text xml:space="preserve" font-family="TrebuchetMS" font-size="22.0" fill="#000000" transform="matrix(1.00, 0.00, -0.00, -1.00, 42.3, 285.0)">a</text><text xml:space="preserve" font-family="TrebuchetMS" font-size="22.0" fill="#000000" transform="matrix(1.00, 0.00, -0.00, -1.00, 53.8, 285.0)">t</text><text xml:space="preserve" font-family="TrebuchetMS" font-size="22.0" fill="#000000" transform="matrix(1.00, 0.00, -0.00, -1.00, 62.5, 285.0)">a</text><text xml:space="preserve" font-family="LucidaGrande" font-size="22.0" fill="#000000" transform="matrix(1.00, 0.00, -0.00, -1.00, 74.1, 285.0)"> </text><text xml:space="preserve" font-family="ArialMT" font-size="22.0" fill="#38C1D7" transform="matrix(1.00, 0.00, -0.00, -1.00, 12.9, 233.5)">•</text><text xml:space="preserve" font-family="TrebuchetMS" font-size="22.0" fill="#000000" transform="matrix(1.00, 0.00, -0.00, -1.00, 30.0, 233.0)">L</text><text xml:space="preserve" font-family="TrebuchetMS" font-size="22.0" fill="#000000" transform="matrix(1.00, 0.00, -0.00, -1.00, 41.1, 233.0)">a</text><text xml:space="preserve" font-family="TrebuchetMS" font-size="22.0" fill="#000000" transform="matrix(1.00, 0.00, -0.00, -1.00, 52.7, 233.0)">c</text><text xml:space="preserve" font-family="TrebuchetMS" font-size="22.0" fill="#000000" transform="matrix(1.00, 0.00, -0.00, -1.00, 63.6, 233.0)">k</text><text xml:space="preserve" font-family="TrebuchetMS" font-size="22.0" fill="#000000" transform="matrix(1.00, 0.00, -0.00, -1.00, 74.7, 233.0)"> </text><text xml:space="preserve" font-family="TrebuchetMS" font-size="22.0" fill="#000000" transform="matrix(1.00, 0.00, -0.00, -1.00, 81.3, 233.0)">o</text><text xml:space="preserve" font-family="TrebuchetMS" font-size="22.0" fill="#000000" transform="matrix(1.00, 0.00, -0.00, -1.00, 93.1, 233.0)">f</text><text xml:space="preserve" font-family="TrebuchetMS" font-size="22.0" fill="#000000" transform="matrix(1.00, 0.00, -0.00, -1.00, 101.3, 233.0)"> </text><text xml:space="preserve" font-family="TrebuchetMS" font-size="22.0" fill="#000000" transform="matrix(1.00, 0.00, -0.00, -1.00, 107.9, 233.0)">d</text><text xml:space="preserve" font-family="TrebuchetMS" font-size="22.0" fill="#000000" transform="matrix(1.00, 0.00, -0.00, -1.00, 120.2, 233.0)">a</text><text xml:space="preserve" font-family="TrebuchetMS" font-size="22.0" fill="#000000" transform="matrix(1.00, 0.00, -0.00, -1.00, 131.7, 233.0)">t</text><text xml:space="preserve" font-family="TrebuchetMS" font-size="22.0" fill="#000000" transform="matrix(1.00, 0.00, -0.00, -1.00, 140.4, 233.0)">a</text><text xml:space="preserve" font-family="TrebuchetMS" font-size="22.0" fill="#000000" transform="matrix(1.00, 0.00, -0.00, -1.00, 152.0, 233.0)"> </text><text xml:space="preserve" font-family="TrebuchetMS" font-size="22.0" fill="#000000" transform="matrix(1.00, 0.00, -0.00, -1.00, 158.6, 233.0)">p</text><text xml:space="preserve" font-family="TrebuchetMS" font-size="22.0" fill="#000000" transform="matrix(1.00, 0.00, -0.00, -1.00, 170.9, 233.0)">r</text><text xml:space="preserve" font-family="TrebuchetMS" font-size="22.0" fill="#000000" transform="matrix(1.00, 0.00, -0.00, -1.00, 179.4, 233.0)">o</text><text xml:space="preserve" font-family="TrebuchetMS" font-size="22.0" fill="#000000" transform="matrix(1.00, 0.00, -0.00, -1.00, 191.2, 233.0)">t</text><text xml:space="preserve" font-family="TrebuchetMS" font-size="22.0" fill="#000000" transform="matrix(1.00, 0.00, -0.00, -1.00, 200.0, 233.0)">e</text><text xml:space="preserve" font-family="TrebuchetMS" font-size="22.0" fill="#000000" transform="matrix(1.00, 0.00, -0.00, -1.00, 212.0, 233.0)">c</text><text xml:space="preserve" font-family="TrebuchetMS" font-size="22.0" fill="#000000" transform="matrix(1.00, 0.00, -0.00, -1.00, 222.9, 233.0)">t</text><text xml:space="preserve" font-family="TrebuchetMS" font-size="22.0" fill="#000000" transform="matrix(1.00, 0.00, -0.00, -1.00, 231.6, 233.0)">i</text><text xml:space="preserve" font-family="TrebuchetMS" font-size="22.0" fill="#000000" transform="matrix(1.00, 0.00, -0.00, -1.00, 237.9, 233.0)">o</text><text xml:space="preserve" font-family="TrebuchetMS" font-size="22.0" fill="#000000" transform="matrix(1.00, 0.00, -0.00, -1.00, 249.7, 233.0)">n</text><text xml:space="preserve" font-family="TrebuchetMS" font-size="22.0" fill="#000000" transform="matrix(1.00, 0.00, -0.00, -1.00, 261.7, 233.0)"> </text><text xml:space="preserve" font-family="TrebuchetMS" font-size="22.0" fill="#000000" transform="matrix(1.00, 0.00, -0.00, -1.00, 268.3, 233.0)">s</text><text xml:space="preserve" font-family="TrebuchetMS" font-size="22.0" fill="#000000" transform="matrix(1.00, 0.00, -0.00, -1.00, 277.2, 233.0)">o</text><text xml:space="preserve" font-family="TrebuchetMS" font-size="22.0" fill="#000000" transform="matrix(1.00, 0.00, -0.00, -1.00, 289.0, 233.0)">l</text><text xml:space="preserve" font-family="TrebuchetMS" font-size="22.0" fill="#000000" transform="matrix(1.00, 0.00, -0.00, -1.00, 295.5, 233.0)">u</text><text xml:space="preserve" font-family="TrebuchetMS" font-size="22.0" fill="#000000" transform="matrix(1.00, 0.00, -0.00, -1.00, 307.5, 233.0)">t</text><text xml:space="preserve" font-family="TrebuchetMS" font-size="22.0" fill="#000000" transform="matrix(1.00, 0.00, -0.00, -1.00, 316.3, 233.0)">i</text><text xml:space="preserve" font-family="TrebuchetMS" font-size="22.0" fill="#000000" transform="matrix(1.00, 0.00, -0.00, -1.00, 322.5, 233.0)">o</text><text xml:space="preserve" font-family="TrebuchetMS" font-size="22.0" fill="#000000" transform="matrix(1.00, 0.00, -0.00, -1.00, 334.3, 233.0)">n</text><text xml:space="preserve" font-family="TrebuchetMS" font-size="22.0" fill="#000000" transform="matrix(1.00, 0.00, -0.00, -1.00, 346.4, 233.0)">s</text><text xml:space="preserve" font-family="LucidaGrande" font-size="22.0" fill="#000000" transform="matrix(1.00, 0.00, -0.00, -1.00, 355.2, 233.0)"> </text><text xml:space="preserve" font-family="ArialMT" font-size="22.0" fill="#38C1D7" transform="matrix(1.00, 0.00, -0.00, -1.00, 12.9, 181.5)">•</text><text xml:space="preserve" font-family="TrebuchetMS" font-size="22.0" fill="#000000" transform="matrix(1.00, 0.00, -0.00, -1.00, 30.0, 181.0)">R</text><text xml:space="preserve" font-family="TrebuchetMS" font-size="22.0" fill="#000000" transform="matrix(1.00, 0.00, -0.00, -1.00, 42.8, 181.0)">i</text><text xml:space="preserve" font-family="TrebuchetMS" font-size="22.0" fill="#000000" transform="matrix(1.00, 0.00, -0.00, -1.00, 49.1, 181.0)">s</text><text xml:space="preserve" font-family="TrebuchetMS" font-size="22.0" fill="#000000" transform="matrix(1.00, 0.00, -0.00, -1.00, 58.0, 181.0)">i</text><text xml:space="preserve" font-family="TrebuchetMS" font-size="22.0" fill="#000000" transform="matrix(1.00, 0.00, -0.00, -1.00, 64.3, 181.0)">n</text><text xml:space="preserve" font-family="TrebuchetMS" font-size="22.0" fill="#000000" transform="matrix(1.00, 0.00, -0.00, -1.00, 76.3, 181.0)">g</text><text xml:space="preserve" font-family="TrebuchetMS" font-size="22.0" fill="#000000" transform="matrix(1.00, 0.00, -0.00, -1.00, 87.3, 181.0)"> </text><text xml:space="preserve" font-family="TrebuchetMS" font-size="22.0" fill="#000000" transform="matrix(1.00, 0.00, -0.00, -1.00, 94.0, 181.0)">t</text><text xml:space="preserve" font-family="TrebuchetMS" font-size="22.0" fill="#000000" transform="matrix(1.00, 0.00, -0.00, -1.00, 102.7, 181.0)">r</text><text xml:space="preserve" font-family="TrebuchetMS" font-size="22.0" fill="#000000" transform="matrix(1.00, 0.00, -0.00, -1.00, 111.2, 181.0)">a</text><text xml:space="preserve" font-family="TrebuchetMS" font-size="22.0" fill="#000000" transform="matrix(1.00, 0.00, -0.00, -1.00, 122.8, 181.0)">n</text><text xml:space="preserve" font-family="TrebuchetMS" font-size="22.0" fill="#000000" transform="matrix(1.00, 0.00, -0.00, -1.00, 134.8, 181.0)">s</text><text xml:space="preserve" font-family="TrebuchetMS" font-size="22.0" fill="#000000" transform="matrix(1.00, 0.00, -0.00, -1.00, 143.7, 181.0)">a</text><text xml:space="preserve" font-family="TrebuchetMS" font-size="22.0" fill="#000000" transform="matrix(1.00, 0.00, -0.00, -1.00, 155.3, 181.0)">c</text><text xml:space="preserve" font-family="TrebuchetMS" font-size="22.0" fill="#000000" transform="matrix(1.00, 0.00, -0.00, -1.00, 166.2, 181.0)">t</text><text xml:space="preserve" font-family="TrebuchetMS" font-size="22.0" fill="#000000" transform="matrix(1.00, 0.00, -0.00, -1.00, 174.9, 181.0)">i</text><text xml:space="preserve" font-family="TrebuchetMS" font-size="22.0" fill="#000000" transform="matrix(1.00, 0.00, -0.00, -1.00, 181.2, 181.0)">o</text><text xml:space="preserve" font-family="TrebuchetMS" font-size="22.0" fill="#000000" transform="matrix(1.00, 0.00, -0.00, -1.00, 193.0, 181.0)">n</text><text xml:space="preserve" font-family="TrebuchetMS" font-size="22.0" fill="#000000" transform="matrix(1.00, 0.00, -0.00, -1.00, 205.0, 181.0)"> </text><text xml:space="preserve" font-family="TrebuchetMS" font-size="22.0" fill="#000000" transform="matrix(1.00, 0.00, -0.00, -1.00, 211.7, 181.0)">v</text><text xml:space="preserve" font-family="TrebuchetMS" font-size="22.0" fill="#000000" transform="matrix(1.00, 0.00, -0.00, -1.00, 222.4, 181.0)">o</text><text xml:space="preserve" font-family="TrebuchetMS" font-size="22.0" fill="#000000" transform="matrix(1.00, 0.00, -0.00, -1.00, 234.2, 181.0)">l</text><text xml:space="preserve" font-family="TrebuchetMS" font-size="22.0" fill="#000000" transform="matrix(1.00, 0.00, -0.00, -1.00, 240.7, 181.0)">u</text><text xml:space="preserve" font-family="TrebuchetMS" font-size="22.0" fill="#000000" transform="matrix(1.00, 0.00, -0.00, -1.00, 252.8, 181.0)">m</text><text xml:space="preserve" font-family="TrebuchetMS" font-size="22.0" fill="#000000" transform="matrix(1.00, 0.00, -0.00, -1.00, 271.0, 181.0)">e</text><text xml:space="preserve" font-family="TrebuchetMS" font-size="22.0" fill="#000000" transform="matrix(1.00, 0.00, -0.00, -1.00, 283.0, 181.0)">s</text><text xml:space="preserve" font-family="LucidaGrande" font-size="22.0" fill="#000000" transform="matrix(1.00, 0.00, -0.00, -1.00, 291.9, 181.0)"> </text><text xml:space="preserve" font-family="ArialMT" font-size="22.0" fill="#38C1D7" transform="matrix(1.00, 0.00, -0.00, -1.00, 12.9, 129.5)">•</text><text xml:space="preserve" font-family="TrebuchetMS" font-size="22.0" fill="#000000" transform="matrix(1.00, 0.00, -0.00, -1.00, 30.0, 129.0)">E</text><text xml:space="preserve" font-family="TrebuchetMS" font-size="22.0" fill="#000000" transform="matrix(1.00, 0.00, -0.00, -1.00, 41.8, 129.0)">x</text><text xml:space="preserve" font-family="TrebuchetMS" font-size="22.0" fill="#000000" transform="matrix(1.00, 0.00, -0.00, -1.00, 52.8, 129.0)">p</text><text xml:space="preserve" font-family="TrebuchetMS" font-size="22.0" fill="#000000" transform="matrix(1.00, 0.00, -0.00, -1.00, 65.1, 129.0)">e</text><text xml:space="preserve" font-family="TrebuchetMS" font-size="22.0" fill="#000000" transform="matrix(1.00, 0.00, -0.00, -1.00, 77.1, 129.0)">n</text><text xml:space="preserve" font-family="TrebuchetMS" font-size="22.0" fill="#000000" transform="matrix(1.00, 0.00, -0.00, -1.00, 89.1, 129.0)">s</text><text xml:space="preserve" font-family="TrebuchetMS" font-size="22.0" fill="#000000" transform="matrix(1.00, 0.00, -0.00, -1.00, 98.0, 129.0)">i</text><text xml:space="preserve" font-family="TrebuchetMS" font-size="22.0" fill="#000000" transform="matrix(1.00, 0.00, -0.00, -1.00, 104.3, 129.0)">v</text><text xml:space="preserve" font-family="TrebuchetMS" font-size="22.0" fill="#000000" transform="matrix(1.00, 0.00, -0.00, -1.00, 115.0, 129.0)">e</text><text xml:space="preserve" font-family="TrebuchetMS" font-size="22.0" fill="#000000" transform="matrix(1.00, 0.00, -0.00, -1.00, 127.0, 129.0)"> </text><text xml:space="preserve" font-family="TrebuchetMS" font-size="22.0" fill="#000000" transform="matrix(1.00, 0.00, -0.00, -1.00, 133.7, 129.0)">s</text><text xml:space="preserve" font-family="TrebuchetMS" font-size="22.0" fill="#000000" transform="matrix(1.00, 0.00, -0.00, -1.00, 142.6, 129.0)">e</text><text xml:space="preserve" font-family="TrebuchetMS" font-size="22.0" fill="#000000" transform="matrix(1.00, 0.00, -0.00, -1.00, 154.6, 129.0)">c</text><text xml:space="preserve" font-family="TrebuchetMS" font-size="22.0" fill="#000000" transform="matrix(1.00, 0.00, -0.00, -1.00, 165.5, 129.0)">u</text><text xml:space="preserve" font-family="TrebuchetMS" font-size="22.0" fill="#000000" transform="matrix(1.00, 0.00, -0.00, -1.00, 177.5, 129.0)">r</text><text xml:space="preserve" font-family="TrebuchetMS" font-size="22.0" fill="#000000" transform="matrix(1.00, 0.00, -0.00, -1.00, 186.1, 129.0)">i</text><text xml:space="preserve" font-family="TrebuchetMS" font-size="22.0" fill="#000000" transform="matrix(1.00, 0.00, -0.00, -1.00, 192.3, 129.0)">t</text><text xml:space="preserve" font-family="TrebuchetMS" font-size="22.0" fill="#000000" transform="matrix(1.00, 0.00, -0.00, -1.00, 201.1, 129.0)">y</text><text xml:space="preserve" font-family="TrebuchetMS" font-size="22.0" fill="#000000" transform="matrix(1.00, 0.00, -0.00, -1.00, 211.9, 129.0)"> </text><text xml:space="preserve" font-family="TrebuchetMS" font-size="22.0" fill="#000000" transform="matrix(1.00, 0.00, -0.00, -1.00, 218.6, 129.0)">s</text><text xml:space="preserve" font-family="TrebuchetMS" font-size="22.0" fill="#000000" transform="matrix(1.00, 0.00, -0.00, -1.00, 227.5, 129.0)">c</text><text xml:space="preserve" font-family="TrebuchetMS" font-size="22.0" fill="#000000" transform="matrix(1.00, 0.00, -0.00, -1.00, 238.3, 129.0)">h</text><text xml:space="preserve" font-family="TrebuchetMS" font-size="22.0" fill="#000000" transform="matrix(1.00, 0.00, -0.00, -1.00, 250.4, 129.0)">e</text><text xml:space="preserve" font-family="TrebuchetMS" font-size="22.0" fill="#000000" transform="matrix(1.00, 0.00, -0.00, -1.00, 262.4, 129.0)">m</text><text xml:space="preserve" font-family="TrebuchetMS" font-size="22.0" fill="#000000" transform="matrix(1.00, 0.00, -0.00, -1.00, 280.7, 129.0)">e</text><text xml:space="preserve" font-family="TrebuchetMS" font-size="22.0" fill="#000000" transform="matrix(1.00, 0.00, -0.00, -1.00, 292.7, 129.0)">s</text><g><clipPath id="clip-43"><path d="M 373.0 467.0 L 722.0 467.0 L 722.0 27.0 L 373.0 27.0 Z M 372.7 467.3 "></path></clipPath><g clip-path="url(#clip-43)"><image xlink:href="../../9DDE36E2-3860-4FD5-90F9-577EC49BE2F2/assets/BC05A10E8EFA1DD13EEBCDADF42F8AD7.jpeg" width="587.00" height="440.00" transform="matrix(1.00, 0.00, -0.00, -1.00, 330.0, 467.0)"></image></g></g></g></svg>