<?xml version="1.0" encoding="UTF-8" standalone="no"?><svg xmlns="http://www.w3.org/2000/svg" xmlns:xlink="http://www.w3.org/1999/xlink" clip-rule="evenodd" stroke-miterlimit="4.00" viewBox="0 0 345 27"><desc>SVG generated by Keynote</desc><defs></defs><g transform="matrix(1.00, 0.00, -0.00, -1.00, 0.0, 27.0)"><text xml:space="preserve" font-family="ArialMT" font-size="22.0" fill="#38C1D7" transform="matrix(1.00, 0.00, -0.00, -1.00, 0.9, 6.5)">•</text><text xml:space="preserve" font-family="TrebuchetMS" font-size="22.0" fill="#000000" transform="matrix(1.00, 0.00, -0.00, -1.00, 18.0, 6.0)">L</text><text xml:space="preserve" font-family="TrebuchetMS" font-size="22.0" fill="#000000" transform="matrix(1.00, 0.00, -0.00, -1.00, 29.1, 6.0)">a</text><text xml:space="preserve" font-family="TrebuchetMS" font-size="22.0" fill="#000000" transform="matrix(1.00, 0.00, -0.00, -1.00, 40.7, 6.0)">c</text><text xml:space="preserve" font-family="TrebuchetMS" font-size="22.0" fill="#000000" transform="matrix(1.00, 0.00, -0.00, -1.00, 51.6, 6.0)">k</text><text xml:space="preserve" font-family="TrebuchetMS" font-size="22.0" fill="#000000" transform="matrix(1.00, 0.00, -0.00, -1.00, 62.7, 6.0)"> </text><text xml:space="preserve" font-family="TrebuchetMS" font-size="22.0" fill="#000000" transform="matrix(1.00, 0.00, -0.00, -1.00, 69.3, 6.0)">o</text><text xml:space="preserve" font-family="TrebuchetMS" font-size="22.0" fill="#000000" transform="matrix(1.00, 0.00, -0.00, -1.00, 81.1, 6.0)">f</text><text xml:space="preserve" font-family="TrebuchetMS" font-size="22.0" fill="#000000" transform="matrix(1.00, 0.00, -0.00, -1.00, 89.3, 6.0)"> </text><text xml:space="preserve" font-family="TrebuchetMS" font-size="22.0" fill="#000000" transform="matrix(1.00, 0.00, -0.00, -1.00, 95.9, 6.0)">d</text><text xml:space="preserve" font-family="TrebuchetMS" font-size="22.0" fill="#000000" transform="matrix(1.00, 0.00, -0.00, -1.00, 108.2, 6.0)">a</text><text xml:space="preserve" font-family="TrebuchetMS" font-size="22.0" fill="#000000" transform="matrix(1.00, 0.00, -0.00, -1.00, 119.7, 6.0)">t</text><text xml:space="preserve" font-family="TrebuchetMS" font-size="22.0" fill="#000000" transform="matrix(1.00, 0.00, -0.00, -1.00, 128.4, 6.0)">a</text><text xml:space="preserve" font-family="TrebuchetMS" font-size="22.0" fill="#000000" transform="matrix(1.00, 0.00, -0.00, -1.00, 140.0, 6.0)"> </text><text xml:space="preserve" font-family="TrebuchetMS" font-size="22.0" fill="#000000" transform="matrix(1.00, 0.00, -0.00, -1.00, 146.6, 6.0)">p</text><text xml:space="preserve" font-family="TrebuchetMS" font-size="22.0" fill="#000000" transform="matrix(1.00, 0.00, -0.00, -1.00, 158.9, 6.0)">r</text><text xml:space="preserve" font-family="TrebuchetMS" font-size="22.0" fill="#000000" transform="matrix(1.00, 0.00, -0.00, -1.00, 167.4, 6.0)">o</text><text xml:space="preserve" font-family="TrebuchetMS" font-size="22.0" fill="#000000" transform="matrix(1.00, 0.00, -0.00, -1.00, 179.2, 6.0)">t</text><text xml:space="preserve" font-family="TrebuchetMS" font-size="22.0" fill="#000000" transform="matrix(1.00, 0.00, -0.00, -1.00, 188.0, 6.0)">e</text><text xml:space="preserve" font-family="TrebuchetMS" font-size="22.0" fill="#000000" transform="matrix(1.00, 0.00, -0.00, -1.00, 200.0, 6.0)">c</text><text xml:space="preserve" font-family="TrebuchetMS" font-size="22.0" fill="#000000" transform="matrix(1.00, 0.00, -0.00, -1.00, 210.9, 6.0)">t</text><text xml:space="preserve" font-family="TrebuchetMS" font-size="22.0" fill="#000000" transform="matrix(1.00, 0.00, -0.00, -1.00, 219.6, 6.0)">i</text><text xml:space="preserve" font-family="TrebuchetMS" font-size="22.0" fill="#000000" transform="matrix(1.00, 0.00, -0.00, -1.00, 225.9, 6.0)">o</text><text xml:space="preserve" font-family="TrebuchetMS" font-size="22.0" fill="#000000" transform="matrix(1.00, 0.00, -0.00, -1.00, 237.7, 6.0)">n</text><text xml:space="preserve" font-family="TrebuchetMS" font-size="22.0" fill="#000000" transform="matrix(1.00, 0.00, -0.00, -1.00, 249.7, 6.0)"> </text><text xml:space="preserve" font-family="TrebuchetMS" font-size="22.0" fill="#000000" transform="matrix(1.00, 0.00, -0.00, -1.00, 256.3, 6.0)">s</text><text xml:space="preserve" font-family="TrebuchetMS" font-size="22.0" fill="#000000" transform="matrix(1.00, 0.00, -0.00, -1.00, 265.2, 6.0)">o</text><text xml:space="preserve" font-family="TrebuchetMS" font-size="22.0" fill="#000000" transform="matrix(1.00, 0.00, -0.00, -1.00, 277.0, 6.0)">l</text><text xml:space="preserve" font-family="TrebuchetMS" font-size="22.0" fill="#000000" transform="matrix(1.00, 0.00, -0.00, -1.00, 283.5, 6.0)">u</text><text xml:space="preserve" font-family="TrebuchetMS" font-size="22.0" fill="#000000" transform="matrix(1.00, 0.00, -0.00, -1.00, 295.5, 6.0)">t</text><text xml:space="preserve" font-family="TrebuchetMS" font-size="22.0" fill="#000000" transform="matrix(1.00, 0.00, -0.00, -1.00, 304.3, 6.0)">i</text><text xml:space="preserve" font-family="TrebuchetMS" font-size="22.0" fill="#000000" transform="matrix(1.00, 0.00, -0.00, -1.00, 310.5, 6.0)">o</text><text xml:space="preserve" font-family="TrebuchetMS" font-size="22.0" fill="#000000" transform="matrix(1.00, 0.00, -0.00, -1.00, 322.3, 6.0)">n</text><text xml:space="preserve" font-family="TrebuchetMS" font-size="22.0" fill="#000000" transform="matrix(1.00, 0.00, -0.00, -1.00, 334.4, 6.0)">s</text><text xml:space="preserve" font-family="LucidaGrande" font-size="22.0" fill="#000000" transform="matrix(1.00, 0.00, -0.00, -1.00, 343.2, 6.0)"> </text></g></svg>