<?xml version="1.0" encoding="UTF-8" standalone="no"?><svg xmlns="http://www.w3.org/2000/svg" xmlns:xlink="http://www.w3.org/1999/xlink" clip-rule="evenodd" stroke-miterlimit="4.00" viewBox="0 0 235 20"><desc>SVG generated by Keynote</desc><defs></defs><g transform="matrix(1.00, 0.00, -0.00, -1.00, 0.0, 20.0)"><text xml:space="preserve" font-family="ArialMT" font-size="16.0" fill="#38C1D7" transform="matrix(1.00, 0.00, -0.00, -1.00, 1.0, 5.6)">•</text><text xml:space="preserve" font-family="TrebuchetMS" font-size="16.0" fill="#454447" transform="matrix(1.00, 0.00, -0.00, -1.00, 15.0, 5.0)">E</text><text xml:space="preserve" font-family="TrebuchetMS" font-size="16.0" fill="#454447" transform="matrix(1.00, 0.00, -0.00, -1.00, 23.6, 5.0)">n</text><text xml:space="preserve" font-family="TrebuchetMS" font-size="16.0" fill="#454447" transform="matrix(1.00, 0.00, -0.00, -1.00, 32.3, 5.0)">a</text><text xml:space="preserve" font-family="TrebuchetMS" font-size="16.0" fill="#454447" transform="matrix(1.00, 0.00, -0.00, -1.00, 40.7, 5.0)">b</text><text xml:space="preserve" font-family="TrebuchetMS" font-size="16.0" fill="#454447" transform="matrix(1.00, 0.00, -0.00, -1.00, 49.7, 5.0)">l</text><text xml:space="preserve" font-family="TrebuchetMS" font-size="16.0" fill="#454447" transform="matrix(1.00, 0.00, -0.00, -1.00, 54.4, 5.0)">e</text><text xml:space="preserve" font-family="TrebuchetMS" font-size="16.0" fill="#454447" transform="matrix(1.00, 0.00, -0.00, -1.00, 63.1, 5.0)"> </text><text xml:space="preserve" font-family="TrebuchetMS" font-size="16.0" fill="#454447" transform="matrix(1.00, 0.00, -0.00, -1.00, 67.9, 5.0)">a</text><text xml:space="preserve" font-family="TrebuchetMS" font-size="16.0" fill="#454447" transform="matrix(1.00, 0.00, -0.00, -1.00, 76.3, 5.0)">n</text><text xml:space="preserve" font-family="TrebuchetMS" font-size="16.0" fill="#454447" transform="matrix(1.00, 0.00, -0.00, -1.00, 85.1, 5.0)"> </text><text xml:space="preserve" font-family="TrebuchetMS" font-size="16.0" fill="#454447" transform="matrix(1.00, 0.00, -0.00, -1.00, 89.9, 5.0)">a</text><text xml:space="preserve" font-family="TrebuchetMS" font-size="16.0" fill="#454447" transform="matrix(1.00, 0.00, -0.00, -1.00, 98.3, 5.0)">c</text><text xml:space="preserve" font-family="TrebuchetMS" font-size="16.0" fill="#454447" transform="matrix(1.00, 0.00, -0.00, -1.00, 106.3, 5.0)">t</text><text xml:space="preserve" font-family="TrebuchetMS" font-size="16.0" fill="#454447" transform="matrix(1.00, 0.00, -0.00, -1.00, 112.6, 5.0)">i</text><text xml:space="preserve" font-family="TrebuchetMS" font-size="16.0" fill="#454447" transform="matrix(1.00, 0.00, -0.00, -1.00, 117.2, 5.0)">o</text><text xml:space="preserve" font-family="TrebuchetMS" font-size="16.0" fill="#454447" transform="matrix(1.00, 0.00, -0.00, -1.00, 125.8, 5.0)">n</text><text xml:space="preserve" font-family="TrebuchetMS" font-size="16.0" fill="#454447" transform="matrix(1.00, 0.00, -0.00, -1.00, 134.5, 5.0)"> </text><text xml:space="preserve" font-family="TrebuchetMS" font-size="16.0" fill="#454447" transform="matrix(1.00, 0.00, -0.00, -1.00, 139.4, 5.0)">i</text><text xml:space="preserve" font-family="TrebuchetMS" font-size="16.0" fill="#454447" transform="matrix(1.00, 0.00, -0.00, -1.00, 143.9, 5.0)">n</text><text xml:space="preserve" font-family="TrebuchetMS" font-size="16.0" fill="#454447" transform="matrix(1.00, 0.00, -0.00, -1.00, 152.7, 5.0)"> </text><text xml:space="preserve" font-family="TrebuchetMS" font-size="16.0" fill="#454447" transform="matrix(1.00, 0.00, -0.00, -1.00, 157.5, 5.0)">a</text><text xml:space="preserve" font-family="TrebuchetMS" font-size="16.0" fill="#454447" transform="matrix(1.00, 0.00, -0.00, -1.00, 165.9, 5.0)"> </text><text xml:space="preserve" font-family="TrebuchetMS" font-size="16.0" fill="#454447" transform="matrix(1.00, 0.00, -0.00, -1.00, 170.8, 5.0)">n</text><text xml:space="preserve" font-family="TrebuchetMS" font-size="16.0" fill="#454447" transform="matrix(1.00, 0.00, -0.00, -1.00, 179.5, 5.0)">e</text><text xml:space="preserve" font-family="TrebuchetMS" font-size="16.0" fill="#454447" transform="matrix(1.00, 0.00, -0.00, -1.00, 188.3, 5.0)">w</text><text xml:space="preserve" font-family="TrebuchetMS" font-size="16.0" fill="#454447" transform="matrix(1.00, 0.00, -0.00, -1.00, 200.2, 5.0)"> </text><text xml:space="preserve" font-family="TrebuchetMS" font-size="16.0" fill="#454447" transform="matrix(1.00, 0.00, -0.00, -1.00, 205.0, 5.0)">w</text><text xml:space="preserve" font-family="TrebuchetMS" font-size="16.0" fill="#454447" transform="matrix(1.00, 0.00, -0.00, -1.00, 216.9, 5.0)">a</text><text xml:space="preserve" font-family="TrebuchetMS" font-size="16.0" fill="#454447" transform="matrix(1.00, 0.00, -0.00, -1.00, 225.3, 5.0)">y</text></g></svg>