<?xml version="1.0" encoding="UTF-8" standalone="no"?><svg xmlns="http://www.w3.org/2000/svg" xmlns:xlink="http://www.w3.org/1999/xlink" clip-rule="evenodd" stroke-miterlimit="4.00" viewBox="0 0 202 19"><desc>SVG generated by Keynote</desc><defs></defs><g transform="matrix(1.00, 0.00, -0.00, -1.00, 0.0, 19.0)"><text xml:space="preserve" font-family="ArialMT" font-size="16.0" fill="#38C1D7" transform="matrix(1.00, 0.00, -0.00, -1.00, 1.0, 4.8)">•</text><text xml:space="preserve" font-family="TrebuchetMS" font-size="16.0" fill="#454447" transform="matrix(1.00, 0.00, -0.00, -1.00, 15.0, 4.0)">S</text><text xml:space="preserve" font-family="TrebuchetMS" font-size="16.0" fill="#454447" transform="matrix(1.00, 0.00, -0.00, -1.00, 22.7, 4.0)">h</text><text xml:space="preserve" font-family="TrebuchetMS" font-size="16.0" fill="#454447" transform="matrix(1.00, 0.00, -0.00, -1.00, 31.4, 4.0)">a</text><text xml:space="preserve" font-family="TrebuchetMS" font-size="16.0" fill="#454447" transform="matrix(1.00, 0.00, -0.00, -1.00, 39.9, 4.0)">r</text><text xml:space="preserve" font-family="TrebuchetMS" font-size="16.0" fill="#454447" transform="matrix(1.00, 0.00, -0.00, -1.00, 46.1, 4.0)">e</text><text xml:space="preserve" font-family="TrebuchetMS" font-size="16.0" fill="#454447" transform="matrix(1.00, 0.00, -0.00, -1.00, 54.8, 4.0)"> </text><text xml:space="preserve" font-family="TrebuchetMS" font-size="16.0" fill="#454447" transform="matrix(1.00, 0.00, -0.00, -1.00, 59.6, 4.0)">s</text><text xml:space="preserve" font-family="TrebuchetMS" font-size="16.0" fill="#454447" transform="matrix(1.00, 0.00, -0.00, -1.00, 66.1, 4.0)">o</text><text xml:space="preserve" font-family="TrebuchetMS" font-size="16.0" fill="#454447" transform="matrix(1.00, 0.00, -0.00, -1.00, 74.7, 4.0)">m</text><text xml:space="preserve" font-family="TrebuchetMS" font-size="16.0" fill="#454447" transform="matrix(1.00, 0.00, -0.00, -1.00, 88.0, 4.0)">e</text><text xml:space="preserve" font-family="TrebuchetMS" font-size="16.0" fill="#454447" transform="matrix(1.00, 0.00, -0.00, -1.00, 96.7, 4.0)"> </text><text xml:space="preserve" font-family="TrebuchetMS" font-size="16.0" fill="#454447" transform="matrix(1.00, 0.00, -0.00, -1.00, 101.5, 4.0)">o</text><text xml:space="preserve" font-family="TrebuchetMS" font-size="16.0" fill="#454447" transform="matrix(1.00, 0.00, -0.00, -1.00, 110.1, 4.0)">f</text><text xml:space="preserve" font-family="TrebuchetMS" font-size="16.0" fill="#454447" transform="matrix(1.00, 0.00, -0.00, -1.00, 116.0, 4.0)"> </text><text xml:space="preserve" font-family="TrebuchetMS" font-size="16.0" fill="#454447" transform="matrix(1.00, 0.00, -0.00, -1.00, 120.8, 4.0)">t</text><text xml:space="preserve" font-family="TrebuchetMS" font-size="16.0" fill="#454447" transform="matrix(1.00, 0.00, -0.00, -1.00, 127.2, 4.0)">h</text><text xml:space="preserve" font-family="TrebuchetMS" font-size="16.0" fill="#454447" transform="matrix(1.00, 0.00, -0.00, -1.00, 135.9, 4.0)">e</text><text xml:space="preserve" font-family="TrebuchetMS" font-size="16.0" fill="#454447" transform="matrix(1.00, 0.00, -0.00, -1.00, 144.7, 4.0)"> </text><text xml:space="preserve" font-family="TrebuchetMS" font-size="16.0" fill="#454447" transform="matrix(1.00, 0.00, -0.00, -1.00, 149.5, 4.0)">4</text><text xml:space="preserve" font-family="TrebuchetMS" font-size="16.0" fill="#454447" transform="matrix(1.00, 0.00, -0.00, -1.00, 157.9, 4.0)"> </text><text xml:space="preserve" font-family="TrebuchetMS" font-size="16.0" fill="#454447" transform="matrix(1.00, 0.00, -0.00, -1.00, 162.7, 4.0)">t</text><text xml:space="preserve" font-family="TrebuchetMS" font-size="16.0" fill="#454447" transform="matrix(1.00, 0.00, -0.00, -1.00, 169.1, 4.0)">r</text><text xml:space="preserve" font-family="TrebuchetMS" font-size="16.0" fill="#454447" transform="matrix(1.00, 0.00, -0.00, -1.00, 175.3, 4.0)">a</text><text xml:space="preserve" font-family="TrebuchetMS" font-size="16.0" fill="#454447" transform="matrix(1.00, 0.00, -0.00, -1.00, 183.7, 4.0)">i</text><text xml:space="preserve" font-family="TrebuchetMS" font-size="16.0" fill="#454447" transform="matrix(1.00, 0.00, -0.00, -1.00, 188.3, 4.0)">t</text><text xml:space="preserve" font-family="TrebuchetMS" font-size="16.0" fill="#454447" transform="matrix(1.00, 0.00, -0.00, -1.00, 194.6, 4.0)">s</text></g></svg>