<?xml version="1.0" encoding="UTF-8" standalone="no"?><svg xmlns="http://www.w3.org/2000/svg" xmlns:xlink="http://www.w3.org/1999/xlink" clip-rule="evenodd" stroke-miterlimit="4.00" viewBox="0 0 230 21"><desc>SVG generated by Keynote</desc><defs></defs><g transform="matrix(1.00, 0.00, -0.00, -1.00, 0.0, 21.0)"><text xml:space="preserve" font-family="ArialMT" font-size="16.0" fill="#38C1D7" transform="matrix(1.00, 0.00, -0.00, -1.00, 1.0, 6.2)">•</text><text xml:space="preserve" font-family="TrebuchetMS" font-size="16.0" fill="#454447" transform="matrix(1.00, 0.00, -0.00, -1.00, 15.0, 6.0)">D</text><text xml:space="preserve" font-family="TrebuchetMS" font-size="16.0" fill="#454447" transform="matrix(1.00, 0.00, -0.00, -1.00, 24.8, 6.0)">e</text><text xml:space="preserve" font-family="TrebuchetMS" font-size="16.0" fill="#454447" transform="matrix(1.00, 0.00, -0.00, -1.00, 33.6, 6.0)">l</text><text xml:space="preserve" font-family="TrebuchetMS" font-size="16.0" fill="#454447" transform="matrix(1.00, 0.00, -0.00, -1.00, 38.3, 6.0)">i</text><text xml:space="preserve" font-family="TrebuchetMS" font-size="16.0" fill="#454447" transform="matrix(1.00, 0.00, -0.00, -1.00, 42.8, 6.0)">v</text><text xml:space="preserve" font-family="TrebuchetMS" font-size="16.0" fill="#454447" transform="matrix(1.00, 0.00, -0.00, -1.00, 50.7, 6.0)">e</text><text xml:space="preserve" font-family="TrebuchetMS" font-size="16.0" fill="#454447" transform="matrix(1.00, 0.00, -0.00, -1.00, 59.4, 6.0)">r</text><text xml:space="preserve" font-family="TrebuchetMS" font-size="16.0" fill="#454447" transform="matrix(1.00, 0.00, -0.00, -1.00, 65.6, 6.0)"> </text><text xml:space="preserve" font-family="TrebuchetMS" font-size="16.0" fill="#454447" transform="matrix(1.00, 0.00, -0.00, -1.00, 70.4, 6.0)">a</text><text xml:space="preserve" font-family="TrebuchetMS" font-size="16.0" fill="#454447" transform="matrix(1.00, 0.00, -0.00, -1.00, 78.8, 6.0)">g</text><text xml:space="preserve" font-family="TrebuchetMS" font-size="16.0" fill="#454447" transform="matrix(1.00, 0.00, -0.00, -1.00, 86.9, 6.0)">a</text><text xml:space="preserve" font-family="TrebuchetMS" font-size="16.0" fill="#454447" transform="matrix(1.00, 0.00, -0.00, -1.00, 95.3, 6.0)">i</text><text xml:space="preserve" font-family="TrebuchetMS" font-size="16.0" fill="#454447" transform="matrix(1.00, 0.00, -0.00, -1.00, 99.9, 6.0)">n</text><text xml:space="preserve" font-family="TrebuchetMS" font-size="16.0" fill="#454447" transform="matrix(1.00, 0.00, -0.00, -1.00, 108.6, 6.0)">s</text><text xml:space="preserve" font-family="TrebuchetMS" font-size="16.0" fill="#454447" transform="matrix(1.00, 0.00, -0.00, -1.00, 115.1, 6.0)">t</text><text xml:space="preserve" font-family="TrebuchetMS" font-size="16.0" fill="#454447" transform="matrix(1.00, 0.00, -0.00, -1.00, 121.4, 6.0)"> </text><text xml:space="preserve" font-family="TrebuchetMS" font-size="16.0" fill="#454447" transform="matrix(1.00, 0.00, -0.00, -1.00, 126.3, 6.0)">k</text><text xml:space="preserve" font-family="TrebuchetMS" font-size="16.0" fill="#454447" transform="matrix(1.00, 0.00, -0.00, -1.00, 134.3, 6.0)">e</text><text xml:space="preserve" font-family="TrebuchetMS" font-size="16.0" fill="#454447" transform="matrix(1.00, 0.00, -0.00, -1.00, 143.1, 6.0)">y</text><text xml:space="preserve" font-family="TrebuchetMS" font-size="16.0" fill="#454447" transform="matrix(1.00, 0.00, -0.00, -1.00, 151.0, 6.0)"> </text><text xml:space="preserve" font-family="TrebuchetMS" font-size="16.0" fill="#454447" transform="matrix(1.00, 0.00, -0.00, -1.00, 155.8, 6.0)">p</text><text xml:space="preserve" font-family="TrebuchetMS" font-size="16.0" fill="#454447" transform="matrix(1.00, 0.00, -0.00, -1.00, 164.7, 6.0)">a</text><text xml:space="preserve" font-family="TrebuchetMS" font-size="16.0" fill="#454447" transform="matrix(1.00, 0.00, -0.00, -1.00, 173.1, 6.0)">i</text><text xml:space="preserve" font-family="TrebuchetMS" font-size="16.0" fill="#454447" transform="matrix(1.00, 0.00, -0.00, -1.00, 177.7, 6.0)">n</text><text xml:space="preserve" font-family="TrebuchetMS" font-size="16.0" fill="#454447" transform="matrix(1.00, 0.00, -0.00, -1.00, 186.4, 6.0)"> </text><text xml:space="preserve" font-family="TrebuchetMS" font-size="16.0" fill="#454447" transform="matrix(1.00, 0.00, -0.00, -1.00, 191.3, 6.0)">p</text><text xml:space="preserve" font-family="TrebuchetMS" font-size="16.0" fill="#454447" transform="matrix(1.00, 0.00, -0.00, -1.00, 200.2, 6.0)">o</text><text xml:space="preserve" font-family="TrebuchetMS" font-size="16.0" fill="#454447" transform="matrix(1.00, 0.00, -0.00, -1.00, 208.7, 6.0)">i</text><text xml:space="preserve" font-family="TrebuchetMS" font-size="16.0" fill="#454447" transform="matrix(1.00, 0.00, -0.00, -1.00, 213.3, 6.0)">n</text><text xml:space="preserve" font-family="TrebuchetMS" font-size="16.0" fill="#454447" transform="matrix(1.00, 0.00, -0.00, -1.00, 222.1, 6.0)">t</text></g></svg>