<?xml version="1.0" encoding="UTF-8" standalone="no"?><svg xmlns="http://www.w3.org/2000/svg" xmlns:xlink="http://www.w3.org/1999/xlink" clip-rule="evenodd" stroke-miterlimit="4.00" viewBox="0 0 728 87"><desc>SVG generated by Keynote</desc><defs></defs><g transform="matrix(1.00, 0.00, -0.00, -1.00, 0.0, 87.0)"><image xlink:href="../../E3CCD7FC-4CC6-4379-8F12-393AEC6D6D66/assets/D8EAC996D507BFBCE2171B60B53A42D7.png" width="726.00" height="79.00" transform="matrix(1.00, 0.00, -0.00, -1.01, 1.0, 81.0)" opacity="0.30"></image><path d="M 4.0 80.0 L 724.0 80.0 L 724.0 6.6 L 4.0 6.6 Z M 4.0 80.0 " fill="#FFFFFF"></path><g><clipPath id="clip-107"><path d="M -1.6 6.6 L 729.6 6.6 L 729.6 80.0 L -1.6 80.0 Z M -1.6 6.6 "></path></clipPath><g clip-path="url(#clip-107)"><text xml:space="preserve" font-family="Arial-Black" font-weight="bold" font-size="26.0" fill="#454447" transform="matrix(1.00, 0.00, -0.00, -1.00, 8.0, 33.0)">N</text><text xml:space="preserve" font-family="Arial-Black" font-weight="bold" font-size="26.0" fill="#454447" transform="matrix(1.00, 0.00, -0.00, -1.00, 29.7, 33.0)">O</text><text xml:space="preserve" font-family="Arial-Black" font-weight="bold" font-size="26.0" fill="#454447" transform="matrix(1.00, 0.00, -0.00, -1.00, 51.3, 33.0)"> </text><text xml:space="preserve" font-family="Arial-Black" font-weight="bold" font-size="26.0" fill="#454447" transform="matrix(1.00, 0.00, -0.00, -1.00, 60.0, 33.0)">C</text><text xml:space="preserve" font-family="Arial-Black" font-weight="bold" font-size="26.0" fill="#454447" transform="matrix(1.00, 0.00, -0.00, -1.00, 80.2, 33.0)">A</text><text xml:space="preserve" font-family="Arial-Black" font-weight="bold" font-size="26.0" fill="#454447" transform="matrix(1.00, 0.00, -0.00, -1.00, 100.4, 33.0)">S</text><text xml:space="preserve" font-family="Arial-Black" font-weight="bold" font-size="26.0" fill="#454447" transform="matrix(1.00, 0.00, -0.00, -1.00, 119.2, 33.0)">H</text><text xml:space="preserve" font-family="Arial-Black" font-weight="bold" font-size="26.0" fill="#454447" transform="matrix(1.00, 0.00, -0.00, -1.00, 140.9, 33.0)"> </text><text xml:space="preserve" font-family="Arial-Black" font-weight="bold" font-size="26.0" fill="#454447" transform="matrix(1.00, 0.00, -0.00, -1.00, 149.6, 33.0)">O</text><text xml:space="preserve" font-family="Arial-Black" font-weight="bold" font-size="26.0" fill="#454447" transform="matrix(1.00, 0.00, -0.00, -1.00, 171.2, 33.0)">R</text><text xml:space="preserve" font-family="Arial-Black" font-weight="bold" font-size="26.0" fill="#454447" transform="matrix(1.00, 0.00, -0.00, -1.00, 191.4, 33.0)"> </text><text xml:space="preserve" font-family="Arial-Black" font-weight="bold" font-size="26.0" fill="#454447" transform="matrix(1.00, 0.00, -0.00, -1.00, 200.1, 33.0)">C</text><text xml:space="preserve" font-family="Arial-Black" font-weight="bold" font-size="26.0" fill="#454447" transform="matrix(1.00, 0.00, -0.00, -1.00, 220.3, 33.0)">A</text><text xml:space="preserve" font-family="Arial-Black" font-weight="bold" font-size="26.0" fill="#454447" transform="matrix(1.00, 0.00, -0.00, -1.00, 240.5, 33.0)">R</text><text xml:space="preserve" font-family="Arial-Black" font-weight="bold" font-size="26.0" fill="#454447" transform="matrix(1.00, 0.00, -0.00, -1.00, 260.8, 33.0)">D</text><text xml:space="preserve" font-family="Arial-Black" font-weight="bold" font-size="26.0" fill="#454447" transform="matrix(1.00, 0.00, -0.00, -1.00, 280.7, 33.0)">,</text><text xml:space="preserve" font-family="Arial-Black" font-weight="bold" font-size="26.0" fill="#454447" transform="matrix(1.00, 0.00, -0.00, -1.00, 289.4, 33.0)"> </text><text xml:space="preserve" font-family="Arial-Black" font-weight="bold" font-size="26.0" fill="#454447" transform="matrix(1.00, 0.00, -0.00, -1.00, 298.1, 33.0)">J</text><text xml:space="preserve" font-family="Arial-Black" font-weight="bold" font-size="26.0" fill="#454447" transform="matrix(1.00, 0.00, -0.00, -1.00, 315.4, 33.0)">U</text><text xml:space="preserve" font-family="Arial-Black" font-weight="bold" font-size="26.0" fill="#454447" transform="matrix(1.00, 0.00, -0.00, -1.00, 337.1, 33.0)">S</text><text xml:space="preserve" font-family="Arial-Black" font-weight="bold" font-size="26.0" fill="#454447" transform="matrix(1.00, 0.00, -0.00, -1.00, 355.9, 33.0)">T</text><text xml:space="preserve" font-family="Arial-Black" font-weight="bold" font-size="26.0" fill="#454447" transform="matrix(1.00, 0.00, -0.00, -1.00, 374.6, 33.0)"> </text><text xml:space="preserve" font-family="Arial-Black" font-weight="bold" font-size="26.0" fill="#454447" transform="matrix(1.00, 0.00, -0.00, -1.00, 383.3, 33.0)">M</text><text xml:space="preserve" font-family="Arial-Black" font-weight="bold" font-size="26.0" fill="#454447" transform="matrix(1.00, 0.00, -0.00, -1.00, 407.9, 33.0)">O</text><text xml:space="preserve" font-family="Arial-Black" font-weight="bold" font-size="26.0" fill="#454447" transform="matrix(1.00, 0.00, -0.00, -1.00, 429.5, 33.0)">B</text><text xml:space="preserve" font-family="Arial-Black" font-weight="bold" font-size="26.0" fill="#454447" transform="matrix(1.00, 0.00, -0.00, -1.00, 449.7, 33.0)">I</text><text xml:space="preserve" font-family="Arial-Black" font-weight="bold" font-size="26.0" fill="#454447" transform="matrix(1.00, 0.00, -0.00, -1.00, 459.9, 33.0)">L</text><text xml:space="preserve" font-family="Arial-Black" font-weight="bold" font-size="26.0" fill="#454447" transform="matrix(1.00, 0.00, -0.00, -1.00, 477.2, 33.0)">E</text></g></g></g></svg>