<?xml version="1.0" encoding="UTF-8" standalone="no"?><svg xmlns="http://www.w3.org/2000/svg" xmlns:xlink="http://www.w3.org/1999/xlink" clip-rule="evenodd" stroke-miterlimit="4.00" viewBox="0 0 141 77"><desc>SVG generated by Keynote</desc><defs></defs><g transform="matrix(1.00, 0.00, -0.00, -1.00, 0.0, 77.0)"><text xml:space="preserve" font-family="Arial-Black" font-weight="bold" font-size="18.0" fill="#000000" transform="matrix(1.00, 0.00, -0.00, -1.00, 2.0, 61.0)">S</text><text xml:space="preserve" font-family="Arial-Black" font-weight="bold" font-size="18.0" fill="#000000" transform="matrix(1.00, 0.00, -0.00, -1.00, 15.0, 61.0)">q</text><text xml:space="preserve" font-family="Arial-Black" font-weight="bold" font-size="18.0" fill="#000000" transform="matrix(1.00, 0.00, -0.00, -1.00, 27.0, 61.0)">u</text><text xml:space="preserve" font-family="Arial-Black" font-weight="bold" font-size="18.0" fill="#000000" transform="matrix(1.00, 0.00, -0.00, -1.00, 39.0, 61.0)">a</text><text xml:space="preserve" font-family="Arial-Black" font-weight="bold" font-size="18.0" fill="#000000" transform="matrix(1.00, 0.00, -0.00, -1.00, 51.0, 61.0)">r</text><text xml:space="preserve" font-family="Arial-Black" font-weight="bold" font-size="18.0" fill="#000000" transform="matrix(1.00, 0.00, -0.00, -1.00, 59.3, 61.0)">e</text><text xml:space="preserve" font-family="Arial-Black" font-weight="bold" font-size="18.0" fill="#000000" transform="matrix(1.00, 0.00, -0.00, -1.00, 71.3, 61.0)"> </text><text xml:space="preserve" font-family="Arial-Black" font-weight="bold" font-size="18.0" fill="#000000" transform="matrix(1.00, 0.00, -0.00, -1.00, 77.3, 61.0)">W</text><text xml:space="preserve" font-family="Arial-Black" font-weight="bold" font-size="18.0" fill="#000000" transform="matrix(1.00, 0.00, -0.00, -1.00, 95.0, 61.0)">a</text><text xml:space="preserve" font-family="Arial-Black" font-weight="bold" font-size="18.0" fill="#000000" transform="matrix(1.00, 0.00, -0.00, -1.00, 107.0, 61.0)">l</text><text xml:space="preserve" font-family="Arial-Black" font-weight="bold" font-size="18.0" fill="#000000" transform="matrix(1.00, 0.00, -0.00, -1.00, 113.0, 61.0)">l</text><text xml:space="preserve" font-family="Arial-Black" font-weight="bold" font-size="18.0" fill="#000000" transform="matrix(1.00, 0.00, -0.00, -1.00, 119.0, 61.0)">e</text><text xml:space="preserve" font-family="Arial-Black" font-weight="bold" font-size="18.0" fill="#000000" transform="matrix(1.00, 0.00, -0.00, -1.00, 131.0, 61.0)">t</text><text xml:space="preserve" font-family="Arial-Black" font-weight="bold" font-size="18.0" fill="#000000" transform="matrix(1.00, 0.00, -0.00, -1.00, 139.0, 61.0)"> </text><text xml:space="preserve" font-family="Arial-Black" font-weight="bold" font-size="30.0" fill="#000000" transform="matrix(1.00, 0.00, -0.00, -1.00, 21.0, 23.0)">-</text><text xml:space="preserve" font-family="Arial-Black" font-weight="bold" font-size="30.0" fill="#000000" transform="matrix(1.00, 0.00, -0.00, -1.00, 31.0, 23.0)">$</text><text xml:space="preserve" font-family="Arial-Black" font-weight="bold" font-size="30.0" fill="#000000" transform="matrix(1.00, 0.00, -0.00, -1.00, 51.0, 23.0)">2</text><text xml:space="preserve" font-family="Arial-Black" font-weight="bold" font-size="30.0" fill="#000000" transform="matrix(1.00, 0.00, -0.00, -1.00, 71.0, 23.0)">5</text><text xml:space="preserve" font-family="Arial-Black" font-weight="bold" font-size="30.0" fill="#000000" transform="matrix(1.00, 0.00, -0.00, -1.00, 91.0, 23.0)">M</text><text xml:space="preserve" font-family="Arial-Black" font-weight="bold" font-size="30.0" fill="#000000" transform="matrix(1.00, 0.00, -0.00, -1.00, 119.3, 23.0)"> </text><text xml:space="preserve" font-family="TrebuchetMS" font-size="12.0" fill="#000000" transform="matrix(1.00, 0.00, -0.00, -1.00, 19.0, 3.0)">T</text><text xml:space="preserve" font-family="TrebuchetMS" font-size="12.0" fill="#000000" transform="matrix(1.00, 0.00, -0.00, -1.00, 24.5, 3.0)">e</text><text xml:space="preserve" font-family="TrebuchetMS" font-size="12.0" fill="#000000" transform="matrix(1.00, 0.00, -0.00, -1.00, 31.0, 3.0)">r</text><text xml:space="preserve" font-family="TrebuchetMS" font-size="12.0" fill="#000000" transform="matrix(1.00, 0.00, -0.00, -1.00, 35.7, 3.0)">m</text><text xml:space="preserve" font-family="TrebuchetMS" font-size="12.0" fill="#000000" transform="matrix(1.00, 0.00, -0.00, -1.00, 45.6, 3.0)">i</text><text xml:space="preserve" font-family="TrebuchetMS" font-size="12.0" fill="#000000" transform="matrix(1.00, 0.00, -0.00, -1.00, 49.1, 3.0)">n</text><text xml:space="preserve" font-family="TrebuchetMS" font-size="12.0" fill="#000000" transform="matrix(1.00, 0.00, -0.00, -1.00, 55.6, 3.0)">a</text><text xml:space="preserve" font-family="TrebuchetMS" font-size="12.0" fill="#000000" transform="matrix(1.00, 0.00, -0.00, -1.00, 61.9, 3.0)">t</text><text xml:space="preserve" font-family="TrebuchetMS" font-size="12.0" fill="#000000" transform="matrix(1.00, 0.00, -0.00, -1.00, 66.7, 3.0)">e</text><text xml:space="preserve" font-family="TrebuchetMS" font-size="12.0" fill="#000000" transform="matrix(1.00, 0.00, -0.00, -1.00, 73.2, 3.0)">d</text><text xml:space="preserve" font-family="TrebuchetMS" font-size="12.0" fill="#000000" transform="matrix(1.00, 0.00, -0.00, -1.00, 79.9, 3.0)"> </text><text xml:space="preserve" font-family="TrebuchetMS" font-size="12.0" fill="#000000" transform="matrix(1.00, 0.00, -0.00, -1.00, 83.5, 3.0)">5</text><text xml:space="preserve" font-family="TrebuchetMS" font-size="12.0" fill="#000000" transform="matrix(1.00, 0.00, -0.00, -1.00, 89.8, 3.0)">/</text><text xml:space="preserve" font-family="TrebuchetMS" font-size="12.0" fill="#000000" transform="matrix(1.00, 0.00, -0.00, -1.00, 96.1, 3.0)">2</text><text xml:space="preserve" font-family="TrebuchetMS" font-size="12.0" fill="#000000" transform="matrix(1.00, 0.00, -0.00, -1.00, 102.4, 3.0)">0</text><text xml:space="preserve" font-family="TrebuchetMS" font-size="12.0" fill="#000000" transform="matrix(1.00, 0.00, -0.00, -1.00, 108.7, 3.0)">1</text><text xml:space="preserve" font-family="TrebuchetMS" font-size="12.0" fill="#000000" transform="matrix(1.00, 0.00, -0.00, -1.00, 115.0, 3.0)">4</text></g></svg>