<?xml version="1.0" encoding="UTF-8" standalone="no"?><svg xmlns="http://www.w3.org/2000/svg" xmlns:xlink="http://www.w3.org/1999/xlink" clip-rule="evenodd" stroke-miterlimit="4.00" viewBox="0 0 192 25"><desc>SVG generated by Keynote</desc><defs></defs><g transform="matrix(1.00, 0.00, -0.00, -1.00, 0.0, 25.0)"><text xml:space="preserve" font-family="TrebuchetMS" font-size="22.0" fill="#444444" transform="matrix(1.00, 0.00, -0.00, -1.00, 0.0, 7.0)">R</text><text xml:space="preserve" font-family="TrebuchetMS" font-size="22.0" fill="#444444" transform="matrix(1.00, 0.00, -0.00, -1.00, 11.9, 7.0)">e</text><text xml:space="preserve" font-family="TrebuchetMS" font-size="22.0" fill="#444444" transform="matrix(1.00, 0.00, -0.00, -1.00, 23.9, 7.0)">g</text><text xml:space="preserve" font-family="TrebuchetMS" font-size="22.0" fill="#444444" transform="matrix(1.00, 0.00, -0.00, -1.00, 35.0, 7.0)">u</text><text xml:space="preserve" font-family="TrebuchetMS" font-size="22.0" fill="#444444" transform="matrix(1.00, 0.00, -0.00, -1.00, 47.0, 7.0)">l</text><text xml:space="preserve" font-family="TrebuchetMS" font-size="22.0" fill="#444444" transform="matrix(1.00, 0.00, -0.00, -1.00, 53.5, 7.0)">a</text><text xml:space="preserve" font-family="TrebuchetMS" font-size="22.0" fill="#444444" transform="matrix(1.00, 0.00, -0.00, -1.00, 65.0, 7.0)">t</text><text xml:space="preserve" font-family="TrebuchetMS" font-size="22.0" fill="#444444" transform="matrix(1.00, 0.00, -0.00, -1.00, 73.8, 7.0)">o</text><text xml:space="preserve" font-family="TrebuchetMS" font-size="22.0" fill="#444444" transform="matrix(1.00, 0.00, -0.00, -1.00, 85.6, 7.0)">r</text><text xml:space="preserve" font-family="TrebuchetMS" font-size="22.0" fill="#444444" transform="matrix(1.00, 0.00, -0.00, -1.00, 94.1, 7.0)">y</text><text xml:space="preserve" font-family="TrebuchetMS" font-size="22.0" fill="#444444" transform="matrix(1.00, 0.00, -0.00, -1.00, 105.0, 7.0)"> </text><text xml:space="preserve" font-family="TrebuchetMS" font-size="22.0" fill="#444444" transform="matrix(1.00, 0.00, -0.00, -1.00, 111.6, 7.0)">c</text><text xml:space="preserve" font-family="TrebuchetMS" font-size="22.0" fill="#444444" transform="matrix(1.00, 0.00, -0.00, -1.00, 122.5, 7.0)">h</text><text xml:space="preserve" font-family="TrebuchetMS" font-size="22.0" fill="#444444" transform="matrix(1.00, 0.00, -0.00, -1.00, 134.5, 7.0)">a</text><text xml:space="preserve" font-family="TrebuchetMS" font-size="22.0" fill="#444444" transform="matrix(1.00, 0.00, -0.00, -1.00, 146.1, 7.0)">n</text><text xml:space="preserve" font-family="TrebuchetMS" font-size="22.0" fill="#444444" transform="matrix(1.00, 0.00, -0.00, -1.00, 158.1, 7.0)">g</text><text xml:space="preserve" font-family="TrebuchetMS" font-size="22.0" fill="#444444" transform="matrix(1.00, 0.00, -0.00, -1.00, 169.2, 7.0)">e</text><text xml:space="preserve" font-family="TrebuchetMS" font-size="22.0" fill="#444444" transform="matrix(1.00, 0.00, -0.00, -1.00, 181.2, 7.0)">s</text></g></svg>